G04 EAGLE Gerber RS-274X export*
G75*
%MOMM*%
%FSLAX34Y34*%
%LPD*%
%INTop Copper*%
%IPPOS*%
%AMOC8*
5,1,8,0,0,1.08239X$1,22.5*%
G01*
%ADD10R,0.600000X2.200000*%
%ADD11R,2.200000X0.600000*%
%ADD12C,0.000000*%


D10*
X-228600Y55600D03*
X-241300Y55600D03*
X-254000Y55600D03*
X-266700Y55600D03*
X-279400Y55600D03*
X-292100Y55600D03*
D11*
X-309600Y38100D03*
X-309600Y25400D03*
X-309600Y12700D03*
X-309600Y0D03*
X-309600Y-12700D03*
X-309600Y-25400D03*
X-309600Y-38100D03*
X-309600Y-50800D03*
X-309600Y-63500D03*
X-309600Y-76200D03*
X-309600Y-88900D03*
D10*
X-292100Y-106400D03*
X-279400Y-106400D03*
X-266700Y-106400D03*
X-254000Y-106400D03*
X-241300Y-106400D03*
X-228600Y-106400D03*
X-215900Y-106400D03*
X-203200Y-106400D03*
X-190500Y-106400D03*
X-177800Y-106400D03*
X-165100Y-106400D03*
D11*
X-147600Y-88900D03*
X-147600Y-76200D03*
X-147600Y-63500D03*
X-147600Y-50800D03*
X-147600Y-38100D03*
X-147600Y-25400D03*
X-147600Y-12700D03*
X-147600Y0D03*
X-147600Y12700D03*
X-147600Y25400D03*
X-147600Y38100D03*
D10*
X-165100Y55600D03*
X-177800Y55600D03*
X-190500Y55600D03*
X-203200Y55600D03*
X-215900Y55600D03*
D12*
X200654Y668045D02*
X216075Y675999D01*
X243492Y690140D01*
X277304Y703433D01*
X295225Y709542D01*
X300380Y711300D01*
X318143Y688612D02*
X319905Y688471D01*
X318143Y688612D02*
X315733Y688805D01*
X313230Y689005D01*
X312488Y689064D01*
X312395Y689072D01*
X316374Y695750D02*
X317502Y695680D01*
X316374Y695750D02*
X314832Y695847D01*
X313230Y695947D01*
X312755Y695977D01*
X312695Y695980D01*
X302085Y717046D02*
X301581Y717007D01*
X302085Y717046D02*
X303051Y717121D01*
X306264Y717418D01*
X297998Y716557D01*
X293993Y718114D01*
X289392Y720154D01*
X284673Y724649D01*
X288662Y719768D01*
X292819Y714098D01*
X282915Y726224D01*
X281882Y735736D01*
X285857Y743254D01*
X295836Y748405D01*
X290979Y746873D01*
X285889Y745691D01*
X296888Y749166D01*
X302879Y748616D01*
X307994Y745854D01*
X311452Y740097D01*
X308660Y743642D01*
X305546Y747373D01*
X313131Y740661D01*
X314316Y734200D01*
X312800Y725995D01*
X310907Y721930D01*
X310292Y720611D01*
X395600Y710699D02*
X396871Y713478D01*
X399123Y718405D01*
X398615Y723479D01*
X395355Y729441D01*
X398119Y725726D01*
X401393Y721800D01*
X394134Y731271D01*
X387935Y733943D01*
X381654Y735181D01*
X374018Y732198D01*
X377665Y734265D01*
X381463Y736639D01*
X372282Y731520D01*
X369987Y725236D01*
X369435Y718719D01*
X372946Y710290D01*
X369106Y715536D01*
X364225Y720919D01*
X374389Y708805D01*
X381383Y704265D01*
X391214Y706728D01*
X394519Y709720D01*
X395600Y710699D01*
X387190Y704691D02*
X389051Y702680D01*
X391561Y699970D01*
X393980Y696890D01*
X394902Y696339D01*
X395000Y696281D01*
X409898Y654336D02*
X419030Y656330D01*
X409898Y654336D02*
X391014Y650213D01*
X367259Y646847D01*
X352754Y644926D01*
X348140Y644315D01*
X295273Y692976D02*
X288648Y690024D01*
X278973Y685714D01*
X268451Y681280D01*
X264503Y680008D01*
X263734Y679760D01*
X259794Y677495D02*
X256524Y675554D01*
X259794Y677495D02*
X266835Y681644D01*
X251359Y672729D01*
X244763Y667111D01*
X238025Y662887D01*
X232868Y655276D01*
X233836Y658552D01*
X234518Y662070D01*
X232696Y654467D01*
X233636Y650302D01*
X236802Y647029D01*
X242228Y645120D01*
X235231Y647908D01*
X227646Y651174D01*
X246880Y642851D01*
X256360Y640317D01*
X270161Y638193D01*
X276428Y638283D01*
X278152Y638307D01*
X565824Y687492D02*
X569821Y689372D01*
X565824Y687492D02*
X557224Y683468D01*
X576181Y692216D01*
X584663Y697248D01*
X593170Y702447D01*
X601805Y709578D01*
X595641Y704669D01*
X588713Y699313D01*
X603453Y710422D01*
X609546Y717285D01*
X608886Y726370D01*
X601770Y731408D01*
X606593Y728070D01*
X611795Y724450D01*
X598443Y734152D01*
X588747Y736374D01*
X578850Y738410D01*
X564356Y738399D01*
X572796Y738080D01*
X581919Y737576D01*
X557848Y738856D01*
X545892Y739254D01*
X526441Y739859D01*
X516806Y740073D01*
X513950Y740136D01*
X516653Y751851D02*
X524641Y751938D01*
X538548Y752088D01*
X554767Y752093D01*
X570274Y752266D01*
X582503Y751102D01*
X592816Y750543D01*
X604275Y749906D01*
X616112Y747003D01*
X628218Y745031D01*
X636787Y743757D01*
X644373Y737024D01*
X651021Y733886D01*
X659716Y728998D01*
X652552Y733004D01*
X644550Y737436D01*
X662264Y727772D01*
X668127Y723527D01*
X674666Y716693D01*
X672565Y710913D01*
X673169Y718319D01*
X672434Y726565D01*
X673850Y706854D01*
X671637Y697281D01*
X668129Y688134D01*
X660087Y681824D01*
X666374Y686840D01*
X673316Y692434D01*
X656770Y679071D01*
X649023Y673259D01*
X640040Y666655D01*
X629347Y660012D01*
X649466Y671226D01*
X671349Y682584D01*
X616695Y653598D01*
X592100Y641768D01*
X558820Y627763D01*
X544757Y623452D01*
X541285Y622387D01*
X224913Y584475D02*
X223783Y584539D01*
X224913Y584475D02*
X227131Y584350D01*
X234380Y584108D01*
X216426Y584954D01*
X207718Y588528D01*
X197869Y592512D01*
X186558Y600700D01*
X194680Y594111D01*
X203540Y586630D01*
X183547Y602660D01*
X176706Y613412D01*
X175129Y626039D01*
X182901Y636765D01*
X177738Y630084D01*
X172035Y622892D01*
X186105Y640935D01*
X194459Y649468D01*
X203525Y658899D01*
X216050Y668713D01*
X204224Y661133D01*
X190687Y653377D01*
X226948Y674788D01*
X246112Y684104D01*
X277096Y698266D01*
X292740Y704613D01*
X297376Y706494D01*
X243040Y574283D02*
X223870Y575675D01*
X243040Y574283D02*
X271532Y572213D01*
X296996Y570475D01*
X320332Y570657D01*
X292220Y569901D01*
X261491Y568754D01*
X333600Y571042D01*
X365410Y573789D01*
X395633Y575967D01*
X418876Y582617D01*
X392147Y577279D01*
X362481Y572890D01*
X435443Y584293D01*
X466972Y590732D01*
X508667Y600899D01*
X525215Y606561D01*
X529302Y607960D01*
X414745Y538918D02*
X410783Y531921D01*
X414745Y538918D02*
X422132Y551962D01*
X435332Y558302D01*
X455837Y562105D01*
X437848Y560036D01*
X417839Y558316D01*
X459700Y563011D01*
X481168Y559720D01*
X493124Y544891D01*
X487753Y524947D01*
X488886Y529618D01*
X489561Y532646D01*
X487920Y523560D01*
X480236Y520688D01*
X473904Y516330D01*
X460933Y511113D01*
X469081Y514790D01*
X477790Y519019D01*
X457472Y508628D01*
X444957Y508054D01*
X433410Y508713D01*
X420806Y516453D01*
X426463Y512551D01*
X432366Y508309D01*
X419368Y517483D01*
X414787Y521454D01*
X410393Y528418D01*
X410707Y531236D01*
X410783Y531921D01*
X619210Y614072D02*
X619984Y612775D01*
X619210Y614072D02*
X616712Y618255D01*
X606950Y623959D01*
X598102Y622899D01*
X581464Y615961D01*
X589617Y618962D01*
X597391Y621821D01*
X580137Y615824D01*
X569465Y608540D01*
X558589Y596371D01*
X552242Y589269D01*
X549948Y584063D02*
X546088Y575304D01*
X549588Y564185D01*
X552927Y559965D01*
X553941Y558683D01*
X332608Y551960D02*
X327522Y556134D01*
X332608Y551960D02*
X340360Y545599D01*
X346402Y539155D01*
X348960Y530918D01*
X346591Y537126D01*
X343655Y543753D01*
X349783Y530161D01*
X348866Y521202D01*
X342433Y511763D01*
X337888Y508191D01*
X336426Y507041D01*
X327522Y556134D02*
X317766Y559676D01*
X302612Y565179D01*
X288716Y566664D01*
X276317Y557622D01*
X280604Y560988D01*
X284878Y564402D01*
X274679Y556464D01*
X270959Y551860D01*
X266821Y544321D01*
X265819Y540550D01*
X265536Y539482D01*
X406769Y778454D02*
X409117Y778284D01*
X406769Y778454D02*
X403201Y778710D01*
X400279Y776778D01*
X399487Y773417D01*
X400293Y775036D01*
X401338Y776674D01*
X397755Y771182D01*
X398878Y766302D01*
X398727Y758222D01*
X399312Y753437D01*
X399505Y751851D01*
X294648Y850889D02*
X290768Y853079D01*
X294648Y850889D02*
X301485Y847030D01*
X303799Y839566D01*
X302261Y829711D01*
X304260Y836535D01*
X306854Y843938D01*
X301461Y826429D01*
X294341Y819074D01*
X286763Y813650D01*
X274731Y812756D01*
X280046Y812832D01*
X285562Y812881D01*
X273649Y812184D01*
X267472Y816702D01*
X265273Y823576D01*
X266704Y833399D01*
X264269Y825765D01*
X260909Y817501D01*
X268195Y836872D01*
X273413Y844761D01*
X283924Y851942D01*
X289251Y852827D01*
X290768Y853079D01*
X563513Y684866D02*
X567178Y686260D01*
X579444Y690924D01*
X596893Y703221D01*
X624876Y712943D01*
X621898Y729528D01*
X610216Y750022D01*
X602417Y769938D01*
X576133Y824082D01*
X587817Y799226D01*
X599247Y777396D01*
X583460Y802194D01*
X571957Y817196D01*
X557734Y832473D01*
X550296Y840463D01*
X539901Y849945D02*
X524308Y864169D01*
X540203Y849858D01*
X554421Y836161D01*
X537562Y854604D01*
X518106Y867995D01*
X497388Y881029D01*
X452434Y901671D01*
X470994Y892934D01*
X487825Y885195D01*
X469062Y893347D01*
X449763Y897494D01*
X427250Y901170D01*
X412722Y903543D01*
X421296Y899700D02*
X433831Y894082D01*
X444256Y889779D01*
X453102Y885746D01*
X446639Y889813D01*
X439800Y894857D01*
X458912Y881235D01*
X470174Y872617D01*
X482183Y864600D01*
X498329Y850799D01*
X492053Y858221D01*
X485949Y866390D01*
X502029Y845520D01*
X509621Y833027D01*
X518524Y818842D01*
X528640Y798820D01*
X521672Y814804D01*
X514449Y832690D01*
X532355Y789530D01*
X539846Y766612D01*
X547295Y745626D01*
X552267Y720028D01*
X550581Y734722D01*
X549337Y750487D01*
X550633Y735265D01*
X551498Y725117D01*
X552061Y715816D02*
X552833Y703089D01*
X553634Y689873D01*
X553871Y685956D01*
X553901Y685467D01*
X317161Y716743D02*
X316600Y716706D01*
X317161Y716743D02*
X318436Y716827D01*
X319369Y718324D01*
X319839Y719716D01*
X320621Y719772D01*
X320975Y719669D01*
X321401Y719603D01*
X321483Y719911D01*
X321361Y720084D01*
X321394Y720468D01*
X322089Y720357D01*
X322529Y720265D01*
X323210Y720156D01*
X323262Y720523D01*
X323153Y720703D01*
X323240Y721140D01*
X324078Y721289D01*
X324743Y721736D01*
X325581Y721885D01*
X325667Y722322D01*
X325560Y722501D01*
X325595Y722813D01*
X326055Y722800D01*
X326391Y722609D01*
X327044Y722718D01*
X327397Y723562D01*
X328145Y724393D01*
X329070Y725148D01*
X330191Y725409D01*
X331227Y725382D01*
X332539Y725885D01*
X334712Y725892D01*
X336862Y726093D01*
X339757Y725831D01*
X339659Y728288D01*
X339246Y729748D01*
X339013Y731655D01*
X340029Y732008D01*
X340617Y732059D01*
X341273Y732195D01*
X341334Y732753D01*
X341128Y733094D01*
X341206Y733786D01*
X342479Y733281D01*
X343466Y733332D01*
X344744Y733190D01*
X345080Y732540D01*
X345194Y732114D01*
X345488Y731526D01*
X346468Y731392D01*
X347399Y731466D01*
X348670Y731260D01*
X348614Y729918D01*
X348747Y728386D01*
X350909Y728624D01*
X350440Y731378D01*
X349956Y733344D01*
X349800Y736057D01*
X351967Y736863D01*
X353883Y737532D01*
X355886Y737424D01*
X357135Y736620D01*
X357868Y736226D01*
X358987Y735664D01*
X359253Y737460D01*
X359026Y738672D01*
X359152Y740241D01*
X360030Y741522D01*
X360842Y742595D01*
X361457Y743955D01*
X362734Y743540D01*
X363647Y743064D01*
X365138Y742332D01*
X367076Y740675D01*
X368900Y739655D01*
X371408Y737016D01*
X371488Y739229D01*
X371378Y740452D01*
X371060Y744362D01*
X371945Y751139D01*
X372603Y760256D01*
X371626Y766828D01*
X371036Y770388D01*
X371461Y771746D01*
X371442Y773030D01*
X370886Y773796D01*
X370458Y774366D01*
X370055Y774851D01*
X370000Y775389D01*
X370133Y775772D01*
X370104Y776260D01*
X369694Y776627D01*
X369239Y776938D01*
X368838Y777306D01*
X368783Y777782D01*
X368889Y778173D01*
X368867Y778985D01*
X368356Y780072D01*
X367798Y781483D01*
X367041Y782533D01*
X366944Y783603D01*
X367177Y784376D01*
X367141Y785212D01*
X366680Y785810D01*
X366241Y786376D01*
X365706Y787157D01*
X365511Y788376D01*
X365690Y789808D01*
X365258Y790908D01*
X365214Y791829D01*
X365376Y792404D01*
X365317Y793158D01*
X364377Y793541D01*
X363670Y794185D01*
X362598Y794879D01*
X362410Y796191D01*
X362112Y797714D01*
X361887Y798613D01*
X360899Y800565D01*
X361231Y799225D01*
X360318Y799531D01*
X360408Y800206D01*
X360409Y800791D01*
X360442Y801232D01*
X360456Y801414D01*
X360522Y802796D02*
X360644Y805356D01*
X358252Y803109D01*
X356505Y801441D01*
X356005Y802410D01*
X355886Y802815D01*
X355716Y803269D01*
X355226Y803317D01*
X354868Y803110D01*
X354296Y803196D01*
X354029Y803827D01*
X353672Y804415D01*
X353347Y805060D01*
X352636Y805239D01*
X352080Y805417D01*
X351395Y805499D01*
X351343Y806046D01*
X351550Y806400D01*
X351472Y806934D01*
X351008Y807167D01*
X350528Y807484D01*
X350056Y808432D01*
X349013Y809587D01*
X347558Y810664D01*
X346108Y811158D01*
X345929Y812046D01*
X346124Y812385D01*
X346137Y812846D01*
X345824Y812879D01*
X345651Y812777D01*
X345337Y812810D01*
X345357Y813278D01*
X345517Y813580D01*
X345537Y814048D01*
X345223Y814081D01*
X345050Y813977D01*
X344696Y814024D01*
X344802Y814669D01*
X344783Y815200D01*
X344899Y816368D01*
X344617Y818086D01*
X344540Y820233D01*
X344453Y821992D01*
X345014Y822667D01*
X345254Y822816D01*
X345501Y823058D01*
X345470Y823481D01*
X345327Y823825D01*
X345345Y824260D01*
X345649Y824295D01*
X345829Y824187D01*
X346317Y824288D01*
X346440Y825251D01*
X346663Y826223D01*
X347190Y827383D01*
X348519Y828175D01*
X349612Y829241D01*
X350829Y829942D01*
X350971Y830701D01*
X350632Y831200D01*
X351354Y831467D01*
X351866Y831500D01*
X352240Y831332D01*
X352721Y831386D01*
X352738Y831887D01*
X352555Y832220D01*
X352570Y832728D01*
X353098Y832802D01*
X353389Y832509D01*
X353871Y832550D01*
X353891Y832880D01*
X353771Y833054D01*
X353852Y833362D01*
X354285Y833288D01*
X354612Y833220D01*
X355044Y833146D01*
X355126Y833454D01*
X355001Y833631D01*
X355057Y834059D01*
X355870Y834106D01*
X356604Y834252D01*
X357691Y834453D01*
X358669Y835243D01*
X359834Y836043D01*
X360730Y836903D01*
X361698Y836890D01*
X362218Y836785D01*
X362862Y836711D01*
X362912Y837071D01*
X362808Y837246D01*
X362841Y837552D01*
X363277Y837569D01*
X363620Y837426D01*
X364044Y837395D01*
X364285Y837642D01*
X364434Y837882D01*
X364982Y838349D01*
X366382Y838231D01*
X367855Y838315D01*
X369340Y838334D01*
X369710Y839050D01*
X369833Y839468D01*
X370007Y839909D01*
X370503Y840019D01*
X370839Y839713D01*
X371371Y839792D01*
X371658Y840637D01*
X370299Y840281D01*
X371583Y841055D01*
X372080Y841089D01*
X372276Y840997D01*
X372632Y841089D01*
X372733Y841680D01*
X372788Y842275D01*
X373056Y842969D01*
X373807Y843469D01*
X374586Y844059D01*
X375255Y844687D01*
X375910Y844713D01*
X376260Y844556D01*
X376693Y844577D01*
X376729Y844880D01*
X376618Y845062D01*
X376915Y846250D01*
X381187Y844428D01*
X383834Y845892D01*
X388388Y844708D01*
X388751Y846075D01*
X388633Y846265D01*
X388823Y847021D01*
X390473Y847251D01*
X392336Y847428D01*
X393494Y847483D01*
X395257Y847983D01*
X394442Y848334D01*
X394807Y849281D01*
X396249Y849493D01*
X397836Y850030D01*
X399314Y850745D01*
X400791Y850745D01*
X401814Y850535D01*
X403061Y850357D01*
X403165Y850885D01*
X403058Y851064D01*
X403092Y851371D01*
X403536Y851377D01*
X403877Y851212D01*
X404399Y851234D01*
X404727Y851682D01*
X405058Y852130D01*
X405703Y852686D01*
X406906Y852799D01*
X408304Y852795D01*
X410274Y853111D01*
X412414Y854414D01*
X414991Y855806D01*
X417523Y857589D01*
X421130Y857758D01*
X424959Y857503D01*
X427845Y858278D01*
X429529Y858599D01*
X430135Y858523D01*
X431657Y858421D01*
X433890Y858531D01*
X435493Y856301D01*
X436072Y854394D01*
X437541Y854041D01*
X438279Y853941D01*
X439128Y853904D01*
X439212Y853471D01*
X439098Y853286D01*
X439212Y852789D01*
X440131Y852458D01*
X441071Y851876D01*
X441938Y851234D01*
X442800Y851245D01*
X443318Y851351D01*
X443974Y851423D01*
X444008Y851051D01*
X443881Y850871D01*
X444031Y850438D01*
X444802Y850468D01*
X445564Y850326D01*
X446255Y850144D01*
X446776Y849878D01*
X447119Y849650D01*
X447635Y849583D01*
X447530Y849254D01*
X447484Y849062D01*
X447572Y848777D01*
X448019Y848729D01*
X448310Y849017D01*
X448782Y848977D01*
X448820Y848663D01*
X448710Y848480D01*
X448943Y847515D01*
X452247Y848834D01*
X454902Y848128D01*
X457393Y848232D01*
X458380Y848273D01*
X458252Y847937D01*
X457996Y847267D01*
X457622Y846242D01*
X457219Y845319D01*
X456738Y844426D01*
X455965Y844410D01*
X455347Y844224D01*
X455275Y843641D01*
X455461Y843310D01*
X455476Y842849D01*
X455162Y842815D01*
X454990Y842918D01*
X454633Y842873D01*
X454802Y842194D01*
X454725Y841695D01*
X454740Y840359D01*
X458028Y841205D01*
X460150Y840642D01*
X463536Y840862D01*
X463845Y839656D01*
X463734Y839472D01*
X463772Y839159D01*
X464241Y839115D01*
X464546Y839421D01*
X465430Y839204D01*
X464518Y836962D01*
X462443Y837408D01*
X460355Y837978D01*
X460008Y837088D01*
X460134Y836683D01*
X460204Y836021D01*
X460400Y834917D01*
X461885Y834958D01*
X463074Y835080D01*
X464391Y835050D01*
X465589Y835060D01*
X467468Y835042D01*
X470671Y835241D01*
X473900Y834439D01*
X477295Y835948D01*
X477863Y834516D01*
X477040Y834167D01*
X478464Y833767D01*
X479104Y833683D01*
X480091Y833150D01*
X479970Y832237D01*
X480060Y831434D01*
X480054Y830844D01*
X480145Y830170D01*
X479232Y829864D01*
X479564Y831200D01*
X478494Y829135D01*
X478381Y828003D01*
X477935Y826386D01*
X477908Y824737D01*
X476750Y824723D01*
X476059Y824953D01*
X475060Y824987D01*
X474903Y824009D01*
X474889Y823271D01*
X474790Y822433D01*
X474165Y822279D01*
X473835Y822599D01*
X473336Y822487D01*
X473167Y822041D01*
X473025Y821646D01*
X472904Y821235D01*
X472588Y821185D01*
X472410Y821290D01*
X472098Y821256D01*
X472113Y820794D01*
X472293Y820467D01*
X472253Y819968D01*
X471793Y819806D01*
X471405Y819664D01*
X470992Y819542D01*
X470941Y819227D01*
X471053Y819044D01*
X470920Y818427D01*
X469167Y818897D01*
X467898Y818733D01*
X466190Y818586D01*
X465544Y819669D01*
X464860Y820382D01*
X464517Y821003D01*
X464387Y821239D01*
X372718Y807239D02*
X372471Y806220D01*
X372718Y807239D02*
X373308Y809677D01*
X374378Y812439D01*
X374065Y815636D01*
X375081Y815890D01*
X375262Y815780D01*
X375574Y815814D01*
X375555Y816281D01*
X375395Y816584D01*
X375375Y817051D01*
X375688Y817085D01*
X375866Y816978D01*
X376410Y817085D01*
X376152Y818401D01*
X375958Y819324D01*
X375819Y820574D01*
X376470Y820878D01*
X376877Y821004D01*
X377331Y821172D01*
X377377Y821664D01*
X377178Y822015D01*
X377223Y822508D01*
X377681Y822671D01*
X378070Y822814D01*
X378483Y822935D01*
X378532Y823251D01*
X378427Y823429D01*
X378461Y823734D01*
X378895Y823755D01*
X379247Y823595D01*
X379842Y823629D01*
X380528Y824054D01*
X381277Y824444D01*
X382056Y824635D01*
X382139Y825052D01*
X382029Y825232D01*
X382083Y825599D01*
X382755Y825496D01*
X383239Y825370D01*
X383923Y825336D01*
X384122Y825843D01*
X384247Y826253D01*
X384475Y826740D01*
X385087Y826920D01*
X385673Y826981D01*
X386332Y827113D01*
X386386Y827676D01*
X386204Y828003D01*
X386189Y828465D01*
X386502Y828500D01*
X386679Y828392D01*
X387191Y828490D01*
X386863Y829829D01*
X386893Y830688D01*
X387175Y832069D01*
X386457Y832153D01*
X386133Y831967D01*
X385671Y831954D01*
X385635Y832265D01*
X385746Y832447D01*
X385289Y834176D01*
X378926Y832242D01*
X373806Y833920D01*
X368528Y833721D01*
X365621Y833968D01*
X364299Y833983D01*
X362945Y834110D01*
X362568Y833452D01*
X362241Y832996D01*
X361783Y832628D01*
X361229Y832604D01*
X360847Y832787D01*
X360203Y832612D01*
X359817Y831749D01*
X359020Y830851D01*
X358071Y830121D01*
X355051Y829203D01*
X356905Y829939D01*
X357001Y828908D01*
X356224Y828967D01*
X355692Y829069D01*
X354931Y829132D01*
X354424Y828496D01*
X354162Y827861D01*
X353914Y827117D01*
X353059Y827117D01*
X352034Y826375D01*
X352551Y824856D01*
X353389Y823698D01*
X354289Y822764D01*
X354806Y821891D01*
X355477Y821672D01*
X355816Y822000D01*
X356312Y821886D01*
X356485Y821443D01*
X356614Y821035D01*
X356848Y820481D01*
X357719Y820548D01*
X358351Y820699D01*
X359237Y820853D01*
X359309Y820427D01*
X359201Y820249D01*
X359254Y819882D01*
X359923Y819981D01*
X360426Y820130D01*
X361267Y820088D01*
X361663Y819305D01*
X361954Y818420D01*
X362174Y817751D01*
X363013Y816072D01*
X362694Y817424D01*
X363587Y817090D01*
X363648Y816423D01*
X363876Y815878D01*
X363911Y815235D01*
X364271Y815177D01*
X364452Y815286D01*
X364827Y815220D01*
X364917Y814602D01*
X364997Y814051D01*
X365156Y813325D01*
X365908Y813352D01*
X366397Y813483D01*
X367052Y813581D01*
X367130Y813229D01*
X367039Y813043D01*
X367072Y812529D01*
X367998Y812062D01*
X368970Y811536D01*
X369941Y811043D01*
X370738Y810814D01*
X371419Y810857D01*
X372525Y809886D01*
X372401Y807358D01*
X372473Y804501D01*
X372502Y802018D01*
X373445Y800964D01*
X373939Y800688D01*
X374320Y800281D01*
X374299Y799793D01*
X374222Y799434D01*
X374168Y799016D01*
X374473Y798934D01*
X374647Y799056D01*
X375031Y799022D01*
X374925Y798331D01*
X374806Y797874D01*
X374751Y797084D01*
X375529Y797138D01*
X376050Y797272D01*
X376710Y797353D01*
X377026Y796691D01*
X376302Y796527D01*
X376869Y796574D01*
X377277Y796608D01*
X374227Y806432D02*
X372471Y806220D01*
X374227Y806432D02*
X377432Y806820D01*
X382237Y806797D01*
X385531Y805043D01*
X388646Y804595D01*
X391063Y804853D01*
X393255Y805044D01*
X395251Y805012D01*
X396673Y805280D01*
X398225Y805214D01*
X398360Y805827D01*
X398251Y806009D01*
X398289Y806323D01*
X398758Y806366D01*
X399064Y806064D01*
X399569Y806172D01*
X399738Y806617D01*
X399874Y807020D01*
X400039Y807475D01*
X400531Y807521D01*
X400882Y807320D01*
X401438Y807380D01*
X401575Y808034D01*
X401625Y808631D01*
X401893Y809361D01*
X402685Y809729D01*
X403554Y810190D01*
X404294Y810813D01*
X404522Y811648D01*
X404696Y812207D01*
X404764Y812823D01*
X405123Y812882D01*
X405300Y812775D01*
X405652Y812823D01*
X405547Y813467D01*
X405564Y813998D01*
X405454Y815222D01*
X405560Y816749D01*
X405284Y818610D01*
X404667Y819931D01*
X403725Y820327D01*
X403116Y820360D01*
X402377Y820558D01*
X402410Y821447D01*
X402447Y822203D01*
X402491Y822794D01*
X402509Y823041D01*
X372471Y806220D02*
X372443Y805285D01*
X372378Y803141D01*
X370318Y805757D01*
X368574Y807348D01*
X367990Y806472D01*
X367843Y806035D01*
X367628Y805510D01*
X366916Y804045D01*
X367214Y805415D01*
X365798Y804789D01*
X366395Y802806D01*
X366193Y800698D01*
X366526Y798908D01*
X366410Y797778D01*
X366430Y797247D01*
X366324Y796602D01*
X366677Y796555D01*
X366851Y796659D01*
X367156Y796625D01*
X367177Y796191D01*
X367018Y795840D01*
X367052Y795244D01*
X367477Y794558D01*
X367867Y793809D01*
X368058Y793030D01*
X368475Y792948D01*
X368654Y793055D01*
X368966Y793020D01*
X368949Y792556D01*
X368778Y792242D01*
X368789Y791724D01*
X369303Y791709D01*
X369640Y791899D01*
X370136Y791856D01*
X370300Y791399D01*
X370436Y791002D01*
X370602Y790547D01*
X371093Y790498D01*
X371452Y790708D01*
X372072Y790599D01*
X372395Y789931D01*
X372913Y789252D01*
X374130Y788592D01*
X375479Y786798D01*
X376943Y784600D01*
X377976Y782162D01*
X380163Y781632D01*
X381803Y781296D01*
X383689Y781148D01*
X384129Y781977D01*
X384250Y782393D01*
X384420Y782832D01*
X384885Y782916D01*
X385256Y782746D01*
X385849Y782751D01*
X386305Y783349D01*
X386594Y783961D01*
X386723Y784578D01*
X387098Y784648D01*
X387283Y784534D01*
X388197Y784756D01*
X386963Y787851D01*
X387648Y790336D01*
X387425Y793794D01*
X387618Y796779D01*
X387981Y799978D01*
X388054Y802120D01*
X388091Y803216D01*
X411043Y798496D02*
X411520Y797809D01*
X411043Y798496D02*
X410220Y799680D01*
X408755Y800991D01*
X407441Y801496D01*
X407256Y802220D01*
X407372Y802407D01*
X407284Y802849D01*
X406276Y802864D01*
X405413Y803321D01*
X404390Y803593D01*
X404068Y804205D01*
X403948Y804620D01*
X403747Y805125D01*
X403067Y805097D01*
X402569Y804945D01*
X401800Y804895D01*
X401849Y805642D01*
X401864Y806192D01*
X401895Y806637D01*
X401908Y806820D01*
X402150Y806307D01*
X402848Y804823D01*
X400305Y803373D01*
X399327Y801307D01*
X399714Y799595D01*
X399891Y798421D01*
X399968Y797192D01*
X400706Y796578D01*
X401378Y796086D01*
X402026Y795411D01*
X402101Y794339D01*
X402232Y793437D01*
X402247Y792441D01*
X402717Y792346D01*
X402902Y792459D01*
X403330Y792372D01*
X403480Y791585D01*
X403845Y790874D01*
X404045Y790043D01*
X404520Y789943D01*
X404699Y790051D01*
X405012Y790017D01*
X404993Y789549D01*
X404832Y789249D01*
X404813Y788772D01*
X405139Y788754D01*
X405318Y788878D01*
X405862Y788681D01*
X405705Y787516D01*
X405837Y786413D01*
X406045Y785063D01*
X406903Y783966D01*
X407714Y782800D01*
X408523Y781890D01*
X408609Y780979D01*
X408424Y780395D01*
X408503Y779586D01*
X409103Y778734D01*
X409634Y777703D01*
X410265Y776750D01*
X411099Y776146D01*
X411938Y775614D01*
X413093Y774817D01*
X413614Y772846D01*
X413148Y770656D01*
X413229Y768377D01*
X413979Y765797D01*
X414055Y763558D01*
X414620Y760603D01*
X413323Y760442D01*
X412759Y760592D01*
X411942Y760642D01*
X411383Y759768D01*
X410810Y759031D01*
X410522Y758150D01*
X409897Y758054D01*
X409553Y758253D01*
X409041Y758235D01*
X409025Y757723D01*
X409216Y757385D01*
X409172Y756889D01*
X408715Y756725D01*
X408316Y756590D01*
X407874Y756423D01*
X407790Y755958D01*
X407962Y755586D01*
X407949Y755058D01*
X407481Y754524D01*
X407081Y753948D01*
X406802Y753343D01*
X406342Y753183D01*
X405940Y753300D01*
X405106Y753422D01*
X403626Y753156D01*
X401898Y753114D01*
X400049Y753082D01*
X399429Y754266D01*
X398171Y754920D01*
X396808Y755212D01*
X395237Y755110D01*
X394104Y754986D01*
X392492Y754996D01*
X392489Y757119D01*
X392708Y758625D01*
X392690Y760630D01*
X391272Y760911D01*
X390326Y760826D01*
X389195Y760987D01*
X388999Y762002D01*
X388917Y762764D01*
X388750Y763879D01*
X387189Y763937D01*
X386117Y763202D01*
X385367Y762352D01*
X384658Y762314D01*
X384279Y762497D01*
X383385Y762268D01*
X383489Y760259D01*
X384937Y759408D01*
X386268Y758949D01*
X386673Y758189D01*
X387155Y757525D01*
X387725Y757545D01*
X388091Y757558D01*
X415992Y755276D02*
X416327Y755756D01*
X415992Y755276D02*
X415140Y754053D01*
X414337Y752391D01*
X414402Y750449D01*
X413716Y750292D01*
X413535Y750401D01*
X413224Y750366D01*
X413237Y749905D01*
X413425Y749574D01*
X413331Y748877D01*
X412211Y748823D01*
X411371Y748747D01*
X410298Y748780D01*
X410215Y748121D01*
X410423Y747770D01*
X410345Y747152D01*
X409482Y747055D01*
X408727Y747053D01*
X407931Y746872D01*
X407626Y746347D01*
X407301Y745874D01*
X406295Y745231D01*
X403919Y745312D01*
X401221Y745091D01*
X398717Y744626D01*
X397498Y745357D01*
X396748Y745843D01*
X395406Y746372D01*
X393254Y746346D01*
X391069Y746598D01*
X388642Y746772D01*
X388567Y748193D01*
X388760Y748850D01*
X388906Y749731D01*
X388480Y749803D01*
X388303Y749695D01*
X387935Y749747D01*
X388039Y750420D01*
X388165Y750904D01*
X388198Y751588D01*
X387692Y751788D01*
X387281Y751910D01*
X386688Y752201D01*
X386559Y753180D01*
X386619Y754127D01*
X386489Y755104D01*
X385899Y755398D01*
X385479Y755514D01*
X384869Y755799D01*
X384942Y756918D01*
X385314Y757742D01*
X385440Y758724D01*
X385896Y758816D01*
X386077Y758706D01*
X386429Y758755D01*
X386389Y759341D01*
X386137Y759683D01*
X386436Y760268D01*
X386977Y758996D01*
X387504Y758431D01*
X387895Y757849D01*
X387536Y783408D02*
X387490Y783992D01*
X387536Y783408D02*
X387640Y782102D01*
X387966Y780427D01*
X388153Y778706D01*
X388899Y778527D01*
X389080Y778637D01*
X389391Y778602D01*
X389377Y778140D01*
X389196Y777813D01*
X389237Y777314D01*
X389695Y777151D01*
X390091Y777015D01*
X390548Y776850D01*
X390594Y776357D01*
X390394Y776006D01*
X390441Y775514D01*
X390893Y775345D01*
X391308Y775226D01*
X392448Y774584D01*
X391681Y771126D01*
X392360Y767679D01*
X392231Y764325D01*
X392387Y762085D01*
X392415Y760755D01*
X392487Y759055D01*
X390840Y758734D01*
X389532Y758113D01*
X388571Y757743D01*
X404436Y781075D02*
X404912Y781589D01*
X404436Y781075D02*
X403257Y779802D01*
X403417Y777447D01*
X403647Y775210D01*
X402699Y774742D01*
X402241Y774695D01*
X401469Y774035D01*
X401691Y771961D01*
X400903Y770162D01*
X401239Y767844D01*
X400289Y767658D01*
X399919Y767886D01*
X398932Y767659D01*
X398300Y765984D01*
X397329Y764102D01*
X397019Y761676D01*
X397199Y759192D01*
X397055Y756751D01*
X397974Y755577D01*
X398304Y755155D01*
X407916Y759360D02*
X408569Y760939D01*
X409904Y764161D01*
X410305Y769521D01*
X410314Y773133D01*
X410319Y774980D01*
X424737Y833855D02*
X425689Y836327D01*
X426797Y839207D01*
X425622Y836509D01*
X427357Y837327D01*
X427459Y838441D01*
X427383Y839458D01*
X427864Y841381D01*
X432054Y840235D01*
X434587Y840423D01*
X438556Y840238D01*
X438598Y841499D01*
X438724Y841885D01*
X438556Y842447D01*
X437674Y842342D01*
X437058Y842207D01*
X436168Y842050D01*
X436098Y842476D01*
X436203Y842654D01*
X436167Y842970D01*
X435692Y843008D01*
X435409Y842724D01*
X434935Y842763D01*
X434897Y843077D01*
X435008Y843260D01*
X434709Y844439D01*
X430528Y843601D01*
X427826Y844178D01*
X423965Y846107D01*
X423291Y844878D01*
X423166Y844473D01*
X423040Y844065D01*
X422726Y844013D01*
X422542Y844125D01*
X421724Y843933D01*
X422787Y841246D01*
X422203Y839093D01*
X422341Y836767D01*
X422336Y835457D01*
X422324Y834658D01*
X422362Y834032D01*
X422306Y833613D01*
X422196Y833391D01*
X422503Y833058D01*
X423182Y833422D01*
X423934Y833596D01*
X424469Y833768D01*
X424737Y833855D01*
X479406Y825444D02*
X479810Y825389D01*
X480617Y825279D01*
X481810Y825082D01*
X482744Y825032D01*
X483256Y824690D01*
X483388Y824435D01*
X483668Y824140D01*
X484258Y824234D01*
X484803Y824337D01*
X485453Y824339D01*
X485655Y823845D01*
X485771Y823431D01*
X486005Y822949D01*
X486605Y822761D01*
X487244Y822728D01*
X488118Y822351D01*
X489143Y821114D01*
X487746Y820317D01*
X486808Y820255D01*
X486163Y819675D01*
X485861Y819209D01*
X485490Y818788D01*
X484981Y818793D01*
X484611Y818961D01*
X484146Y818878D01*
X483978Y818436D01*
X483850Y818033D01*
X483590Y817426D01*
X482472Y817669D01*
X481750Y817637D01*
X480065Y817687D01*
X482528Y817060D01*
X483627Y817188D01*
X485581Y817188D01*
X486830Y815999D01*
X488209Y815142D01*
X489215Y814777D01*
X489619Y814630D01*
X482192Y816112D02*
X481809Y816433D01*
X482192Y816112D02*
X482998Y815436D01*
X484274Y814587D01*
X485413Y813756D01*
X485603Y812602D01*
X485859Y811856D01*
X485902Y810952D01*
X486624Y810711D01*
X487287Y810455D01*
X487858Y809886D01*
X488062Y809162D01*
X488374Y808500D01*
X488866Y807991D01*
X489448Y807974D01*
X489827Y808154D01*
X490443Y808000D01*
X490738Y807134D01*
X491222Y806278D01*
X492162Y805392D01*
X493964Y805118D01*
X495568Y804223D01*
X497291Y804148D01*
X497674Y803429D01*
X497787Y803005D01*
X498055Y802457D01*
X499007Y802320D01*
X499963Y801939D01*
X501130Y801521D01*
X501660Y800410D01*
X502212Y799419D01*
X502622Y798500D01*
X503224Y798161D01*
X503634Y798064D01*
X504565Y797572D01*
X500859Y796844D01*
X499923Y796827D01*
X495598Y797824D01*
X497060Y795881D01*
X498159Y795243D01*
X498940Y794487D01*
X499231Y794204D01*
X498919Y793952D02*
X498294Y793446D01*
X497384Y792871D01*
X496452Y791653D01*
X498397Y790725D01*
X499451Y789279D01*
X500931Y788090D01*
X501231Y786970D01*
X501374Y786363D01*
X501622Y785655D01*
X502478Y785295D01*
X503234Y784736D01*
X504032Y784274D01*
X504062Y783775D01*
X503978Y783595D01*
X504004Y783353D01*
X504256Y783345D01*
X504419Y783436D01*
X504677Y783430D01*
X504684Y783171D01*
X504593Y783009D01*
X504600Y782751D01*
X504857Y782744D01*
X505024Y782840D01*
X505339Y782808D01*
X505323Y782344D01*
X505143Y782021D01*
X505188Y781467D01*
X505878Y781389D01*
X506414Y781200D01*
X507179Y781054D01*
X507253Y780173D01*
X507338Y779408D01*
X507582Y778480D01*
X508442Y777933D01*
X509240Y777144D01*
X510033Y776317D01*
X510452Y775367D01*
X510736Y774526D01*
X511094Y773831D01*
X511632Y773531D01*
X512052Y773420D01*
X512553Y773214D01*
X512530Y772540D01*
X512362Y772011D01*
X512357Y771286D01*
X512953Y771080D01*
X513544Y770844D01*
X513612Y770411D01*
X513650Y770174D01*
X512960Y769926D02*
X511267Y769317D01*
X509263Y770316D01*
X506446Y770855D01*
X506337Y769545D01*
X506525Y769009D01*
X506546Y768336D01*
X506041Y768135D01*
X505632Y768009D01*
X505141Y767789D01*
X505006Y767217D01*
X505502Y766600D01*
X504959Y766581D01*
X504638Y766570D01*
X506159Y765017D02*
X509125Y761987D01*
X513141Y757353D01*
X516659Y753837D01*
X516760Y750670D01*
X516408Y749373D01*
X516419Y747818D01*
X517759Y747443D01*
X518674Y747046D01*
X520031Y746781D01*
X520028Y744912D01*
X520039Y743319D01*
X520640Y742307D01*
X520859Y741938D01*
X304585Y707695D02*
X304278Y707424D01*
X303529Y706761D01*
X302418Y707722D01*
X300728Y707989D01*
X300803Y706263D01*
X300881Y704823D01*
X300936Y703997D01*
X301064Y702505D01*
X300893Y703243D01*
X300137Y702841D01*
X300294Y701910D01*
X300286Y700927D01*
X300509Y698823D01*
X299804Y695035D01*
X300110Y690781D01*
X298935Y686672D01*
X300281Y685643D01*
X300886Y685270D01*
X301430Y684847D01*
X302011Y684817D01*
X302388Y684996D01*
X302906Y684881D01*
X303156Y684261D01*
X303556Y683705D01*
X303902Y682956D01*
X304788Y682917D01*
X305542Y683117D01*
X306609Y683123D01*
X307566Y682404D01*
X308810Y681927D01*
X309658Y681269D01*
X310421Y681210D01*
X310796Y681389D01*
X311259Y681303D01*
X311430Y680865D01*
X311550Y680449D01*
X311999Y679605D01*
X314048Y679848D01*
X316088Y679816D01*
X317898Y680119D01*
X319032Y680010D01*
X319579Y680010D01*
X320268Y679938D01*
X320302Y680496D01*
X320106Y680834D01*
X320151Y681330D01*
X320606Y681494D01*
X321010Y681627D01*
X321437Y681802D01*
X321574Y682237D01*
X321459Y682636D01*
X321269Y684072D01*
X321668Y686753D01*
X321806Y690342D01*
X321648Y693469D01*
X320781Y695667D01*
X320240Y697488D01*
X319623Y698948D01*
X319433Y700339D01*
X319256Y701263D01*
X319183Y702431D01*
X318131Y702387D01*
X317505Y702225D01*
X316617Y702073D01*
X316546Y702499D01*
X316654Y702676D01*
X316602Y703045D01*
X315921Y702935D01*
X315478Y702844D01*
X314796Y702733D01*
X314746Y703102D01*
X314849Y703276D01*
X314816Y703590D01*
X314348Y703570D01*
X314046Y703410D01*
X313578Y703390D01*
X313546Y703704D01*
X313647Y703876D01*
X313615Y704191D01*
X313147Y704171D01*
X312845Y704010D01*
X312377Y703991D01*
X312344Y704304D01*
X312449Y704480D01*
X312379Y704907D01*
X311482Y704744D01*
X310906Y704639D01*
X310008Y704476D01*
X309938Y704903D01*
X310044Y705079D01*
X310009Y705391D01*
X309548Y705377D01*
X309218Y705191D01*
X308588Y705271D01*
X308472Y706029D01*
X308524Y706923D01*
X307917Y707034D01*
X307589Y707094D01*
X319491Y687249D02*
X320205Y687269D01*
X319491Y687249D02*
X317792Y687200D01*
X315908Y687721D01*
X313710Y687337D01*
X313540Y688078D01*
X313649Y688258D01*
X313614Y688570D01*
X313147Y688551D01*
X312845Y688391D01*
X312377Y688371D01*
X312344Y688685D01*
X312448Y688859D01*
X312397Y689227D01*
X311723Y689123D01*
X311240Y688996D01*
X310531Y688966D01*
X310383Y689426D01*
X310015Y689778D01*
X309660Y689718D01*
X309391Y689672D01*
X318716Y695698D02*
X319604Y695680D01*
X318716Y695698D02*
X316468Y695743D01*
X313742Y695790D01*
X310845Y695082D01*
X310285Y696169D01*
X310065Y696780D01*
X309630Y696846D01*
X309391Y696881D01*
X329216Y696281D02*
X329778Y696246D01*
X331074Y696166D01*
X331631Y694351D01*
X331787Y692647D01*
X332854Y692580D01*
X333353Y692733D01*
X334024Y692832D01*
X334075Y692463D01*
X333971Y692288D01*
X334005Y691983D01*
X334440Y691964D01*
X334786Y692114D01*
X335302Y692125D01*
X335669Y691700D01*
X335976Y691242D01*
X336520Y690704D01*
X337686Y690791D01*
X338795Y690774D01*
X340117Y690685D01*
X340545Y691696D01*
X340659Y692709D01*
X340587Y693626D01*
X340688Y694382D01*
X340909Y694738D01*
X340668Y695169D01*
X340492Y694928D01*
X340601Y694724D01*
X340654Y694382D01*
X340569Y693856D01*
X340583Y693265D01*
X340502Y692634D01*
X341148Y692324D01*
X341313Y693058D01*
X341153Y691316D01*
X341267Y690420D01*
X341457Y688766D01*
X341484Y687292D01*
X342252Y687160D01*
X342615Y687377D01*
X343185Y687288D01*
X343455Y686658D01*
X343804Y686071D01*
X344356Y685053D01*
X346420Y685773D01*
X347753Y686592D01*
X349675Y686894D01*
X349725Y687863D01*
X349696Y688449D01*
X349620Y688973D01*
X349672Y689321D01*
X349781Y689511D01*
X349642Y689731D01*
X349503Y689511D01*
X349614Y689321D01*
X349677Y688820D01*
X349628Y688070D01*
X349646Y687069D01*
X349632Y685062D01*
X349750Y682124D01*
X350173Y678124D01*
X350132Y674923D01*
X350368Y672701D01*
X349886Y671599D01*
X349002Y671294D01*
X348912Y670348D01*
X348751Y669553D01*
X348339Y668459D01*
X348187Y667026D01*
X348712Y665454D01*
X348254Y662615D01*
X347150Y658272D01*
X347650Y652381D01*
X347781Y648285D01*
X347840Y646418D01*
X347161Y647008D01*
X345804Y648190D01*
X343837Y650005D01*
X341857Y651457D01*
X340894Y653704D01*
X340219Y655735D01*
X339458Y657358D01*
X339358Y658437D01*
X339493Y659026D01*
X339478Y659688D01*
X339086Y660273D01*
X338636Y660827D01*
X338114Y661493D01*
X338014Y662466D01*
X338112Y663480D01*
X337784Y664418D01*
X337049Y664833D01*
X336432Y665193D01*
X335597Y665749D01*
X334947Y666900D01*
X334079Y668127D01*
X333303Y669205D01*
X332608Y669274D01*
X332414Y669177D01*
X331689Y669414D01*
X331341Y671212D01*
X330171Y672760D01*
X329553Y674569D01*
X328406Y675131D01*
X327589Y675453D01*
X326800Y675759D01*
X326445Y676361D01*
X326451Y677007D01*
X326203Y677891D01*
X325318Y678598D01*
X323805Y679246D01*
X323808Y680472D01*
X323810Y681262D01*
X350844Y690874D02*
X350926Y691652D01*
X351090Y693187D01*
X351885Y695330D01*
X352721Y696981D01*
X352612Y698434D01*
X352500Y699431D01*
X352676Y701073D01*
X353744Y703045D01*
X354443Y705502D01*
X355239Y707564D01*
X356650Y708327D01*
X357591Y708906D01*
X358593Y709180D01*
X358710Y709705D01*
X358602Y709885D01*
X358636Y710197D01*
X359103Y710178D01*
X359405Y710018D01*
X359874Y709998D01*
X359905Y710313D01*
X359808Y710482D01*
X359818Y710732D01*
X360059Y710759D01*
X360240Y710673D01*
X361013Y710745D01*
X361888Y711885D01*
X362801Y713331D01*
X363243Y714659D01*
X363893Y715520D01*
X364640Y715653D01*
X365329Y716035D01*
X365645Y716861D01*
X365649Y717692D01*
X365876Y718676D01*
X366433Y719785D01*
X367016Y720914D01*
X367313Y722039D01*
X367871Y722172D01*
X368060Y722054D01*
X369041Y722302D01*
X368314Y725477D01*
X369338Y727884D01*
X368974Y730629D01*
X369839Y731576D01*
X370351Y731844D01*
X371040Y732801D01*
X370944Y734735D01*
X370818Y737095D01*
X370717Y738750D01*
X370669Y739535D01*
X527452Y710132D02*
X527467Y709497D01*
X527452Y710132D02*
X527419Y711512D01*
X527373Y713511D01*
X527125Y715329D01*
X526171Y716416D01*
X525259Y717067D01*
X524442Y717756D01*
X524190Y718678D01*
X524070Y719536D01*
X523980Y720262D01*
X523077Y721526D01*
X523559Y719303D01*
X522633Y721704D01*
X522642Y722533D01*
X522800Y722929D01*
X522697Y723380D01*
X522268Y723555D01*
X521845Y723668D01*
X521130Y724061D01*
X520918Y725476D01*
X520423Y726741D01*
X520475Y728060D01*
X519855Y728411D01*
X519400Y728739D01*
X518993Y729242D01*
X519032Y729964D01*
X519129Y730484D01*
X519203Y731127D01*
X518845Y731178D01*
X518665Y731069D01*
X518192Y731162D01*
X518180Y732160D01*
X518042Y733060D01*
X517988Y734130D01*
X517318Y734756D01*
X516668Y735018D01*
X515966Y735235D01*
X515940Y736046D01*
X515747Y736819D01*
X515334Y738131D01*
X514538Y740108D01*
X514085Y742207D01*
X513671Y745145D01*
X515722Y745050D01*
X516981Y745087D01*
X518598Y745127D01*
X519291Y743940D01*
X520085Y742971D01*
X520601Y742283D01*
X526078Y684659D02*
X526266Y684265D01*
X526078Y684659D02*
X525616Y685626D01*
X526308Y686796D01*
X526685Y688412D01*
X526044Y688522D01*
X525856Y688387D01*
X524465Y688969D01*
X525150Y693099D01*
X523530Y696364D01*
X523538Y699992D01*
X522276Y700732D01*
X521857Y700851D01*
X521407Y701021D01*
X521357Y701510D01*
X521571Y701873D01*
X521398Y702694D01*
X520139Y703248D01*
X519140Y704371D01*
X517907Y704914D01*
X517745Y705706D01*
X517950Y706079D01*
X517929Y706566D01*
X517338Y706846D01*
X517171Y706110D01*
X517323Y707575D01*
X517168Y708249D01*
X516208Y709127D01*
X515310Y710091D01*
X514896Y711720D01*
X514757Y713046D01*
X514704Y714845D01*
X517209Y714503D01*
X519142Y714550D01*
X520892Y714209D01*
X521892Y714360D01*
X522270Y714459D01*
X522676Y714391D01*
X522713Y714092D01*
X522607Y713912D01*
X522671Y713537D01*
X523293Y713451D01*
X523831Y713354D01*
X524453Y713268D01*
X524518Y712892D01*
X524411Y712712D01*
X524449Y712398D01*
X524917Y712354D01*
X525227Y712661D01*
X525917Y712481D01*
X526024Y711551D01*
X526099Y710308D01*
X526945Y709807D01*
X526266Y684265D02*
X525438Y684040D01*
X524016Y683652D01*
X522287Y682866D01*
X520951Y682355D01*
X520807Y681643D01*
X520940Y681456D01*
X520797Y681040D01*
X519986Y681145D01*
X519250Y680993D01*
X518472Y680784D01*
X518165Y680264D01*
X517840Y679790D01*
X516879Y679167D01*
X514885Y679264D01*
X513003Y679129D01*
X510779Y679446D01*
X510587Y678652D01*
X510704Y678464D01*
X510573Y677894D01*
X509422Y677726D01*
X508289Y677896D01*
X506904Y677716D01*
X505683Y676948D01*
X504260Y676403D01*
X502728Y675698D01*
X500788Y675720D01*
X498836Y676182D01*
X496754Y675998D01*
X495112Y674928D01*
X493291Y674195D01*
X491796Y673416D01*
X490393Y673374D01*
X489432Y673598D01*
X488486Y673601D01*
X487971Y673073D01*
X487697Y672571D01*
X486938Y672008D01*
X485611Y671990D01*
X484023Y671945D01*
X482617Y671794D01*
X481588Y671284D01*
X480827Y670821D01*
X480061Y670393D01*
X479197Y670362D01*
X478414Y670535D01*
X477369Y670489D01*
X476318Y669766D01*
X475214Y668881D01*
X474263Y668011D01*
X473190Y667922D01*
X472407Y668087D01*
X471395Y668101D01*
X470400Y667452D01*
X469274Y666747D01*
X468088Y666206D01*
X466965Y666055D01*
X465925Y666043D01*
X465043Y665601D01*
X463999Y665456D01*
X463009Y665692D01*
X461200Y665640D01*
X458795Y664873D01*
X455536Y664595D01*
X453013Y663818D01*
X450938Y663768D01*
X449547Y664115D01*
X447418Y663727D01*
X444852Y662721D01*
X441782Y663013D01*
X439285Y662834D01*
X437601Y661910D01*
X435906Y661582D01*
X434495Y660695D01*
X432637Y660777D01*
X431288Y661004D01*
X429628Y661270D01*
X429486Y660628D01*
X429598Y660446D01*
X429531Y660043D01*
X428691Y660178D01*
X427987Y660164D01*
X427390Y660214D01*
X427140Y660235D01*
X508784Y736174D02*
X508844Y737733D01*
X508784Y736174D02*
X508655Y732763D01*
X509285Y728675D01*
X509169Y723218D01*
X504450Y724221D01*
X501571Y723342D01*
X497134Y724133D01*
X497118Y721073D01*
X497209Y719020D01*
X497484Y717207D01*
X497382Y716081D01*
X497365Y715510D01*
X497334Y714861D01*
X497829Y714666D01*
X498241Y714548D01*
X499091Y714098D01*
X498840Y711754D01*
X499145Y710125D01*
X499871Y706875D01*
X498463Y707229D01*
X497761Y707375D01*
X496808Y707482D01*
X496725Y708121D01*
X496926Y708461D01*
X496891Y709018D01*
X496202Y708947D01*
X495656Y708944D01*
X494440Y708846D01*
X492570Y708866D01*
X490224Y708528D01*
X488887Y709245D01*
X488418Y709497D01*
X487392Y709590D02*
X485439Y709766D01*
X482915Y709488D01*
X480628Y708907D01*
X480442Y707505D01*
X480659Y706737D01*
X480684Y705836D01*
X480218Y705178D01*
X480021Y704354D01*
X479999Y703390D01*
X480022Y702320D01*
X479929Y701309D01*
X479384Y700100D01*
X477418Y700792D01*
X475833Y701629D01*
X474492Y702912D01*
X473369Y702931D01*
X472797Y702776D01*
X472018Y702832D01*
X471734Y703704D01*
X471473Y704494D01*
X470864Y705866D01*
X467949Y705008D01*
X466837Y702554D01*
X466359Y700127D01*
X465159Y699719D01*
X464836Y700035D01*
X464383Y699986D01*
X464323Y699688D01*
X464412Y699494D01*
X464380Y698997D01*
X463603Y697710D01*
X463963Y699077D01*
X462991Y698724D01*
X463148Y698006D01*
X462983Y697027D01*
X461947Y697286D01*
X461884Y697902D01*
X462084Y698259D01*
X462032Y698812D01*
X461398Y698919D01*
X460746Y698635D01*
X459588Y699898D01*
X459018Y701565D01*
X456775Y703148D01*
X454966Y702816D01*
X453551Y702932D01*
X452972Y702969D01*
X452018Y702939D01*
X452034Y701339D01*
X452099Y700226D01*
X452153Y698703D01*
X451346Y698580D01*
X451015Y698770D01*
X450545Y698782D01*
X450525Y698457D01*
X450651Y698277D01*
X450351Y697494D01*
X448117Y698060D01*
X446322Y697883D01*
X443954Y697673D01*
X443249Y699304D01*
X442743Y700558D01*
X441031Y700899D01*
X440901Y700278D01*
X441012Y700094D01*
X440961Y699780D01*
X440550Y699657D01*
X440156Y699521D01*
X439600Y699287D01*
X439653Y698428D01*
X439882Y697728D01*
X439832Y696397D01*
X437579Y696476D01*
X435990Y696197D01*
X433832Y696251D01*
X433638Y695262D01*
X433851Y694902D01*
X433801Y694412D01*
X433349Y694243D01*
X432938Y694120D01*
X432268Y693782D01*
X432226Y692372D01*
X431615Y691249D01*
X431718Y689740D01*
X431137Y689616D01*
X430958Y689724D01*
X430646Y689690D01*
X430660Y689226D01*
X430844Y688906D01*
X430776Y688237D01*
X429633Y688483D01*
X428786Y688387D01*
X427495Y688360D01*
X426885Y689560D01*
X425883Y690485D01*
X425051Y691474D01*
X423901Y691657D01*
X423222Y691966D01*
X422326Y691888D01*
X422287Y692323D01*
X422437Y692500D01*
X422215Y692917D01*
X421995Y691457D01*
X421920Y690839D01*
X421798Y689500D01*
X421029Y688601D01*
X420230Y687701D01*
X419939Y686744D01*
X419718Y685773D01*
X418720Y685628D01*
X417190Y683699D01*
X415358Y680113D01*
X411148Y675962D01*
X407352Y675080D01*
X405513Y674653D01*
X404263Y674626D02*
X401859Y674572D01*
X398834Y674623D01*
X396077Y675015D01*
X395786Y676268D01*
X396010Y676639D01*
X395918Y677206D01*
X395294Y677479D01*
X394687Y677819D01*
X393309Y678721D01*
X393671Y682634D01*
X392951Y686635D01*
X392373Y690519D01*
X393277Y692295D01*
X393751Y693041D01*
X394175Y693773D01*
X394015Y694676D01*
X394106Y695363D01*
X393891Y696265D01*
X394309Y696336D01*
X394493Y696222D01*
X395223Y696402D01*
X395532Y697979D01*
X396232Y699480D01*
X396796Y700940D01*
X397688Y701524D01*
X398298Y701866D01*
X398923Y702137D01*
X399012Y702707D01*
X398796Y703071D01*
X398898Y703691D01*
X399769Y703984D01*
X400548Y704543D01*
X401375Y705191D01*
X401555Y706097D01*
X401668Y706900D01*
X401814Y707654D01*
X402266Y708147D01*
X402757Y708442D01*
X403579Y709448D01*
X404144Y711741D01*
X405587Y714008D01*
X405959Y716516D01*
X406920Y716765D01*
X407107Y716650D01*
X407525Y716728D01*
X407517Y717578D01*
X407686Y718272D01*
X407785Y719173D01*
X408516Y719389D01*
X409131Y719423D01*
X409857Y719706D01*
X410301Y720515D01*
X410915Y721267D01*
X411290Y722081D01*
X411912Y722247D01*
X412293Y722063D01*
X412942Y722097D01*
X413558Y722700D01*
X414292Y723352D01*
X415213Y724068D01*
X416574Y724298D01*
X418003Y724445D01*
X419246Y724883D01*
X419766Y725703D01*
X420110Y726322D01*
X420387Y726919D01*
X420962Y727084D01*
X421303Y726755D01*
X421879Y726918D01*
X422149Y727526D01*
X422523Y728103D01*
X422742Y728694D01*
X423142Y728779D01*
X423330Y728663D01*
X423914Y728807D01*
X424313Y729778D01*
X425156Y730690D01*
X425610Y731644D01*
X426365Y731893D01*
X426710Y731561D01*
X427259Y731710D01*
X427511Y732324D01*
X427922Y732893D01*
X428195Y733530D01*
X428773Y733691D01*
X429108Y733368D01*
X429605Y733481D01*
X429776Y733923D01*
X429911Y734333D01*
X430081Y734777D01*
X430585Y734885D01*
X430891Y734584D01*
X431360Y734626D01*
X431397Y734941D01*
X431291Y735119D01*
X431362Y735545D01*
X432259Y735383D01*
X432836Y735277D01*
X433732Y735115D01*
X433803Y735541D01*
X433694Y735719D01*
X433761Y736124D01*
X434602Y735988D01*
X435304Y736002D01*
X436154Y735928D01*
X436988Y735870D01*
X437747Y735827D01*
X438699Y735808D01*
X438859Y736761D01*
X438839Y737529D01*
X439060Y738386D01*
X439755Y738760D01*
X440340Y739121D01*
X440931Y739341D01*
X441014Y739743D01*
X440903Y739926D01*
X440962Y740286D01*
X441611Y740322D01*
X442116Y740542D01*
X442810Y740616D01*
X442862Y741164D01*
X442649Y741517D01*
X442867Y742627D01*
X445960Y741507D01*
X448492Y742077D01*
X450827Y741978D01*
X451771Y741938D01*
X400106Y689672D02*
X399983Y689398D01*
X399736Y688849D01*
X399365Y688047D01*
X399071Y687334D01*
X398530Y687024D01*
X398109Y686895D01*
X397484Y686618D01*
X397360Y685588D01*
X397290Y684726D01*
X397362Y683699D01*
X396893Y683609D01*
X396714Y683718D01*
X396347Y683665D01*
X396446Y682995D01*
X396590Y682499D01*
X396571Y681694D01*
X395751Y681392D01*
X394971Y680942D01*
X394788Y680349D01*
X394699Y680060D01*
X406728Y686000D02*
X407315Y686068D01*
X406728Y686000D02*
X405162Y685818D01*
X405306Y683465D01*
X406083Y681384D01*
X405304Y681204D01*
X405125Y681314D01*
X404813Y681279D01*
X404832Y680812D01*
X404992Y680510D01*
X405012Y680042D01*
X404698Y680009D01*
X404526Y680111D01*
X404211Y680078D01*
X404231Y679610D01*
X404392Y679308D01*
X404411Y678841D01*
X404099Y678807D01*
X403919Y678915D01*
X403402Y678803D01*
X403179Y677808D01*
X403075Y676647D01*
X403098Y675740D01*
X403110Y675254D01*
X404141Y674897D01*
X405094Y674486D01*
X406065Y674337D01*
X406259Y673651D01*
X406033Y673308D01*
X406029Y672776D01*
X406549Y672757D01*
X406892Y672955D01*
X407468Y672872D01*
X407739Y672209D01*
X408128Y671633D01*
X408516Y670934D01*
X409334Y670579D01*
X410146Y670255D01*
X411090Y669852D01*
X411576Y668854D01*
X412086Y667852D01*
X412429Y666900D01*
X413153Y666678D01*
X413480Y667001D01*
X414059Y666894D01*
X413985Y666187D01*
X413874Y665715D01*
X413769Y665041D01*
X414135Y664987D01*
X414318Y665099D01*
X415268Y664857D01*
X415583Y662610D01*
X416353Y660325D01*
X417577Y659021D01*
X418129Y658433D01*
X426581Y661470D02*
X426954Y660647D01*
X426581Y661470D02*
X425967Y662615D01*
X425653Y663802D01*
X424737Y664052D01*
X424187Y664264D01*
X423567Y664303D01*
X423451Y664627D01*
X423506Y664827D01*
X423573Y665126D01*
X423344Y665472D01*
X423246Y665903D01*
X422980Y666294D01*
X422518Y666320D01*
X422151Y666166D01*
X421685Y666188D01*
X421441Y666596D01*
X421341Y667028D01*
X421022Y667737D01*
X420146Y668395D01*
X419143Y669153D01*
X418188Y669553D01*
X417966Y670280D01*
X418277Y670596D01*
X418231Y671063D01*
X417918Y671102D01*
X417734Y670990D01*
X416555Y671304D01*
X415761Y673662D01*
X414648Y676370D01*
X414565Y678431D01*
X414524Y679459D01*
X417354Y657975D02*
X415476Y656866D01*
X412897Y656751D01*
X409867Y657409D01*
X409666Y656410D01*
X409800Y656224D01*
X409629Y655742D01*
X408625Y655978D01*
X407754Y656147D01*
X406699Y656130D01*
X405970Y655582D01*
X405202Y655117D01*
X403797Y654619D01*
X401703Y654510D01*
X399082Y654761D01*
X396489Y654166D01*
X393628Y653899D01*
X390890Y654003D01*
X388591Y654088D01*
X387637Y653271D01*
X387342Y652785D01*
X386710Y652197D01*
X385435Y652279D01*
X384145Y652559D01*
X382948Y652682D01*
X382458Y652240D01*
X382325Y651981D01*
X381384Y651340D01*
X379164Y651722D01*
X376461Y652334D01*
X373058Y651715D01*
X368825Y650912D01*
X364351Y650752D01*
X360646Y651351D01*
X359403Y650253D01*
X359136Y649738D01*
X358082Y648985D01*
X355472Y649262D01*
X352364Y648956D01*
X349821Y648703D01*
X348575Y648882D01*
X348153Y649074D01*
X347657Y648733D01*
X347777Y648001D01*
X347791Y647230D01*
X347824Y646688D01*
X345437Y666243D02*
X345309Y666858D01*
X345013Y668280D01*
X344562Y670245D01*
X344112Y672098D01*
X343050Y672541D01*
X342424Y672568D01*
X341766Y672784D01*
X341518Y673419D01*
X341468Y674041D01*
X341246Y674817D01*
X340421Y675336D01*
X339464Y675649D01*
X338712Y676445D01*
X338571Y677537D01*
X338178Y678485D01*
X337930Y679403D01*
X337420Y679516D01*
X337237Y679407D01*
X336923Y679445D01*
X336884Y679919D01*
X337169Y680202D01*
X337130Y680676D01*
X336815Y680713D01*
X336634Y680605D01*
X336129Y680711D01*
X336000Y681732D01*
X335658Y682604D01*
X335487Y683666D01*
X334801Y683769D01*
X334458Y683571D01*
X333945Y683587D01*
X333933Y684105D01*
X334105Y684419D01*
X334122Y684884D01*
X333809Y684918D01*
X333631Y684811D01*
X333186Y684895D01*
X333172Y685904D01*
X332730Y686782D01*
X332382Y687853D01*
X331602Y688311D01*
X331007Y688686D01*
X330374Y689001D01*
X330160Y689643D01*
X330013Y690247D01*
X329797Y691090D01*
X329049Y691860D01*
X328255Y692641D01*
X327406Y693123D01*
X327186Y693879D01*
X327030Y694466D01*
X326900Y695104D01*
X326418Y695317D01*
X326013Y695446D01*
X325557Y695611D01*
X325516Y696110D01*
X325696Y696437D01*
X325711Y696899D01*
X325399Y696933D01*
X325220Y696826D01*
X324783Y696913D01*
X324631Y697748D01*
X324198Y698428D01*
X324001Y699303D01*
X323387Y699389D01*
X323036Y699184D01*
X322488Y699235D01*
X322408Y699921D01*
X322218Y700467D01*
X322095Y701112D01*
X321613Y701326D01*
X321200Y701449D01*
X320718Y701662D01*
X320597Y702310D01*
X320393Y702840D01*
X320355Y703486D01*
X319994Y703543D01*
X319818Y703438D01*
X319504Y703472D01*
X319524Y703939D01*
X319685Y704242D01*
X319704Y704709D01*
X319391Y704743D01*
X319212Y704635D01*
X318562Y704779D01*
X318644Y706405D01*
X318359Y707694D01*
X318310Y709387D01*
X317595Y709555D01*
X317413Y709443D01*
X317046Y709496D01*
X317155Y710176D01*
X317247Y710620D01*
X317357Y711301D01*
X316988Y711353D01*
X316813Y711247D01*
X316444Y711298D01*
X316555Y711979D01*
X316646Y712422D01*
X316757Y713104D01*
X316387Y713154D01*
X316214Y713051D01*
X315900Y713084D01*
X315920Y713552D01*
X316080Y713854D01*
X316100Y714322D01*
X315786Y714354D01*
X315613Y714253D01*
X315299Y714286D01*
X315317Y714747D01*
X315486Y715081D01*
X315480Y715615D01*
X314618Y715891D01*
X314979Y714541D01*
X314159Y715923D01*
X314151Y716520D01*
X314331Y716919D01*
X314163Y717542D01*
X313378Y717914D01*
X312603Y718498D01*
X311795Y718932D01*
X311554Y719656D01*
X312060Y720283D01*
X311516Y720301D01*
X311194Y720311D01*
X399722Y706566D02*
X400707Y706494D01*
X399722Y706566D02*
X397827Y706706D01*
X397763Y709561D01*
X396481Y710345D01*
X395901Y710699D01*
X392424Y700009D02*
X392897Y699284D01*
X392424Y700009D02*
X391670Y701164D01*
X390419Y703054D01*
X390465Y704440D01*
X390494Y705292D01*
M02*
