G04 EAGLE Gerber RS-274X export*
G75*
%MOMM*%
%FSLAX34Y34*%
%LPD*%
%INSilkscreen Top*%
%IPPOS*%
%AMOC8*
5,1,8,0,0,1.08239X$1,22.5*%
G01*
%ADD10C,0.203200*%
%ADD11C,0.609600*%
%ADD12C,0.152400*%


D10*
X-311150Y43690D02*
X-297690Y57150D01*
X-315470Y-94490D02*
X-315470Y-112270D01*
X-297430Y-112270D01*
X-159770Y-112270D02*
X-141730Y-112270D01*
X-141730Y-94490D01*
X-141730Y43180D02*
X-141730Y61470D01*
X-159260Y61470D01*
D11*
X-231600Y37899D02*
X-231598Y38008D01*
X-231592Y38117D01*
X-231582Y38225D01*
X-231568Y38333D01*
X-231551Y38441D01*
X-231529Y38548D01*
X-231504Y38654D01*
X-231474Y38758D01*
X-231441Y38862D01*
X-231404Y38965D01*
X-231364Y39066D01*
X-231320Y39165D01*
X-231272Y39263D01*
X-231220Y39360D01*
X-231166Y39454D01*
X-231108Y39546D01*
X-231046Y39636D01*
X-230981Y39723D01*
X-230914Y39809D01*
X-230843Y39892D01*
X-230769Y39972D01*
X-230692Y40049D01*
X-230613Y40124D01*
X-230531Y40195D01*
X-230446Y40264D01*
X-230359Y40329D01*
X-230270Y40392D01*
X-230178Y40450D01*
X-230084Y40506D01*
X-229989Y40558D01*
X-229891Y40607D01*
X-229792Y40652D01*
X-229691Y40694D01*
X-229589Y40731D01*
X-229486Y40765D01*
X-229381Y40796D01*
X-229275Y40822D01*
X-229169Y40845D01*
X-229061Y40863D01*
X-228953Y40878D01*
X-228845Y40889D01*
X-228736Y40896D01*
X-228627Y40899D01*
X-228518Y40898D01*
X-228409Y40893D01*
X-228301Y40884D01*
X-228193Y40871D01*
X-228085Y40854D01*
X-227978Y40834D01*
X-227872Y40809D01*
X-227767Y40781D01*
X-227663Y40749D01*
X-227560Y40713D01*
X-227458Y40673D01*
X-227358Y40630D01*
X-227260Y40583D01*
X-227163Y40533D01*
X-227069Y40479D01*
X-226976Y40421D01*
X-226885Y40361D01*
X-226797Y40297D01*
X-226711Y40230D01*
X-226628Y40160D01*
X-226547Y40087D01*
X-226469Y40011D01*
X-226394Y39932D01*
X-226321Y39850D01*
X-226252Y39766D01*
X-226186Y39680D01*
X-226123Y39591D01*
X-226063Y39500D01*
X-226006Y39407D01*
X-225953Y39312D01*
X-225904Y39215D01*
X-225858Y39116D01*
X-225816Y39016D01*
X-225777Y38914D01*
X-225742Y38810D01*
X-225711Y38706D01*
X-225683Y38601D01*
X-225660Y38494D01*
X-225640Y38387D01*
X-225624Y38279D01*
X-225612Y38171D01*
X-225604Y38062D01*
X-225600Y37953D01*
X-225600Y37845D01*
X-225604Y37736D01*
X-225612Y37627D01*
X-225624Y37519D01*
X-225640Y37411D01*
X-225660Y37304D01*
X-225683Y37197D01*
X-225711Y37092D01*
X-225742Y36988D01*
X-225777Y36884D01*
X-225816Y36782D01*
X-225858Y36682D01*
X-225904Y36583D01*
X-225953Y36486D01*
X-226006Y36391D01*
X-226063Y36298D01*
X-226123Y36207D01*
X-226186Y36118D01*
X-226252Y36032D01*
X-226321Y35948D01*
X-226394Y35866D01*
X-226469Y35787D01*
X-226547Y35711D01*
X-226628Y35638D01*
X-226711Y35568D01*
X-226797Y35501D01*
X-226885Y35437D01*
X-226976Y35377D01*
X-227069Y35319D01*
X-227163Y35265D01*
X-227260Y35215D01*
X-227358Y35168D01*
X-227458Y35125D01*
X-227560Y35085D01*
X-227663Y35049D01*
X-227767Y35017D01*
X-227872Y34989D01*
X-227978Y34964D01*
X-228085Y34944D01*
X-228193Y34927D01*
X-228301Y34914D01*
X-228409Y34905D01*
X-228518Y34900D01*
X-228627Y34899D01*
X-228736Y34902D01*
X-228845Y34909D01*
X-228953Y34920D01*
X-229061Y34935D01*
X-229169Y34953D01*
X-229275Y34976D01*
X-229381Y35002D01*
X-229486Y35033D01*
X-229589Y35067D01*
X-229691Y35104D01*
X-229792Y35146D01*
X-229891Y35191D01*
X-229989Y35240D01*
X-230084Y35292D01*
X-230178Y35348D01*
X-230270Y35406D01*
X-230359Y35469D01*
X-230446Y35534D01*
X-230531Y35603D01*
X-230613Y35674D01*
X-230692Y35749D01*
X-230769Y35826D01*
X-230843Y35906D01*
X-230914Y35989D01*
X-230981Y36075D01*
X-231046Y36162D01*
X-231108Y36252D01*
X-231166Y36344D01*
X-231220Y36438D01*
X-231272Y36535D01*
X-231320Y36633D01*
X-231364Y36732D01*
X-231404Y36833D01*
X-231441Y36936D01*
X-231474Y37040D01*
X-231504Y37144D01*
X-231529Y37250D01*
X-231551Y37357D01*
X-231568Y37465D01*
X-231582Y37573D01*
X-231592Y37681D01*
X-231598Y37790D01*
X-231600Y37899D01*
D12*
X-289832Y70612D02*
X-289832Y86868D01*
X-291638Y70612D02*
X-288026Y70612D01*
X-288026Y86868D02*
X-291638Y86868D01*
X-278269Y70612D02*
X-274657Y70612D01*
X-278269Y70612D02*
X-278387Y70614D01*
X-278505Y70620D01*
X-278623Y70629D01*
X-278740Y70643D01*
X-278857Y70660D01*
X-278974Y70681D01*
X-279089Y70706D01*
X-279204Y70735D01*
X-279318Y70768D01*
X-279430Y70804D01*
X-279541Y70844D01*
X-279651Y70887D01*
X-279760Y70934D01*
X-279867Y70984D01*
X-279972Y71039D01*
X-280075Y71096D01*
X-280176Y71157D01*
X-280276Y71221D01*
X-280373Y71288D01*
X-280468Y71358D01*
X-280560Y71432D01*
X-280651Y71508D01*
X-280738Y71588D01*
X-280823Y71670D01*
X-280905Y71755D01*
X-280985Y71842D01*
X-281061Y71933D01*
X-281135Y72025D01*
X-281205Y72120D01*
X-281272Y72217D01*
X-281336Y72317D01*
X-281397Y72418D01*
X-281454Y72521D01*
X-281509Y72626D01*
X-281559Y72733D01*
X-281606Y72842D01*
X-281649Y72952D01*
X-281689Y73063D01*
X-281725Y73175D01*
X-281758Y73289D01*
X-281787Y73404D01*
X-281812Y73519D01*
X-281833Y73636D01*
X-281850Y73753D01*
X-281864Y73870D01*
X-281873Y73988D01*
X-281879Y74106D01*
X-281881Y74224D01*
X-281882Y74224D02*
X-281882Y83256D01*
X-281881Y83256D02*
X-281879Y83374D01*
X-281873Y83492D01*
X-281864Y83610D01*
X-281850Y83727D01*
X-281833Y83844D01*
X-281812Y83961D01*
X-281787Y84076D01*
X-281758Y84191D01*
X-281725Y84305D01*
X-281689Y84417D01*
X-281649Y84528D01*
X-281606Y84638D01*
X-281559Y84747D01*
X-281509Y84854D01*
X-281454Y84959D01*
X-281397Y85062D01*
X-281336Y85163D01*
X-281272Y85263D01*
X-281205Y85360D01*
X-281135Y85455D01*
X-281061Y85547D01*
X-280985Y85638D01*
X-280905Y85725D01*
X-280823Y85810D01*
X-280738Y85892D01*
X-280651Y85972D01*
X-280560Y86048D01*
X-280468Y86122D01*
X-280373Y86192D01*
X-280276Y86259D01*
X-280176Y86323D01*
X-280075Y86384D01*
X-279972Y86441D01*
X-279867Y86496D01*
X-279760Y86546D01*
X-279651Y86593D01*
X-279541Y86636D01*
X-279430Y86676D01*
X-279318Y86712D01*
X-279204Y86745D01*
X-279089Y86774D01*
X-278974Y86799D01*
X-278857Y86820D01*
X-278740Y86837D01*
X-278623Y86851D01*
X-278505Y86860D01*
X-278387Y86866D01*
X-278269Y86868D01*
X-274657Y86868D01*
X-268816Y83256D02*
X-264301Y86868D01*
X-264301Y70612D01*
X-268816Y70612D02*
X-259785Y70612D01*
M02*
