G04 EAGLE Gerber RS-274X export*
G75*
%MOMM*%
%FSLAX34Y34*%
%LPD*%
%INSoldermask Top*%
%IPPOS*%
%AMOC8*
5,1,8,0,0,1.08239X$1,22.5*%
G01*
%ADD10R,0.803200X2.403200*%
%ADD11R,2.403200X0.803200*%


D10*
X-228600Y55600D03*
X-241300Y55600D03*
X-254000Y55600D03*
X-266700Y55600D03*
X-279400Y55600D03*
X-292100Y55600D03*
D11*
X-309600Y38100D03*
X-309600Y25400D03*
X-309600Y12700D03*
X-309600Y0D03*
X-309600Y-12700D03*
X-309600Y-25400D03*
X-309600Y-38100D03*
X-309600Y-50800D03*
X-309600Y-63500D03*
X-309600Y-76200D03*
X-309600Y-88900D03*
D10*
X-292100Y-106400D03*
X-279400Y-106400D03*
X-266700Y-106400D03*
X-254000Y-106400D03*
X-241300Y-106400D03*
X-228600Y-106400D03*
X-215900Y-106400D03*
X-203200Y-106400D03*
X-190500Y-106400D03*
X-177800Y-106400D03*
X-165100Y-106400D03*
D11*
X-147600Y-88900D03*
X-147600Y-76200D03*
X-147600Y-63500D03*
X-147600Y-50800D03*
X-147600Y-38100D03*
X-147600Y-25400D03*
X-147600Y-12700D03*
X-147600Y0D03*
X-147600Y12700D03*
X-147600Y25400D03*
X-147600Y38100D03*
D10*
X-165100Y55600D03*
X-177800Y55600D03*
X-190500Y55600D03*
X-203200Y55600D03*
X-215900Y55600D03*
M02*
