  0
SECTION
  2
HEADER
  9
$ACADVER
  1
AC1014
  9
$HANDSEED
  5
FFFF
  9
$MEASUREMENT
 70
     1
  0
ENDSEC
  0
SECTION
  2
TABLES
  0
TABLE
  2
VPORT
  5
8
330
0
100
AcDbSymbolTable
 70
     4
  0
VPORT
  5
2E
330
8
100
AcDbSymbolTableRecord
100
AcDbViewportTableRecord
  2
*ACTIVE
 70
     0
 10
0.0
 20
0.0
 11
1.0
 21
1.0
 12
210.0
 22
148.5
 13
0.0
 23
0.0
 14
10.0
 24
10.0
 15
10.0
 25
10.0
 16
0.0
 26
0.0
 36
1.0
 17
0.0
 27
0.0
 37
0.0
 40
341.0
 41
1.24
 42
50.0
 43
0.0
 44
0.0
 50
0.0
 51
0.0
 71
     0
 72
   100
 73
     1
 74
     3
 75
     0
 76
     0
 77
     0
 78
     0
  0
ENDTAB
  0
TABLE
  2
LTYPE
  5
5
330
0
100
AcDbSymbolTable
 70
     1
  0
LTYPE
  5
14
330
5
100
AcDbSymbolTableRecord
100
AcDbLinetypeTableRecord
  2
BYBLOCK
 70
     0
  3

 72
    65
 73
     0
 40
0.0
  0
LTYPE
  5
15
330
5
100
AcDbSymbolTableRecord
100
AcDbLinetypeTableRecord
  2
BYLAYER
 70
     0
  3

 72
    65
 73
     0
 40
0.0
  0
LTYPE
  5
16
330
5
100
AcDbSymbolTableRecord
100
AcDbLinetypeTableRecord
  2
CONTINUOUS
 70
     0
  3
Solid line
 72
    65
 73
     0
 40
0.0
  0
ENDTAB
  0
TABLE
  2
LAYER
  5
2
100
AcDbSymbolTable
 70
3
  0
LAYER
  5
50
100
AcDbSymbolTableRecord
100
AcDbLayerTableRecord
  2
0
 70
0
  6
CONTINUOUS
  0
LAYER
  5
51
100
AcDbSymbolTableRecord
100
AcDbLayerTableRecord
  2
Image
 70
0
  6
CONTINUOUS
  0
LAYER
  5
52
100
AcDbSymbolTableRecord
100
AcDbLayerTableRecord
  2
Vector_Trace
 70
0
  6
CONTINUOUS
  0
ENDTAB
  0
TABLE
  2
STYLE
  5
3
330
0
100
AcDbSymbolTable
 70
     1
  0
STYLE
  5
11
330
3
100
AcDbSymbolTableRecord
100
AcDbTextStyleTableRecord
  2
STANDARD
 70
     0
 40
0.0
 41
1.0
 50
0.0
 71
     0
 42
2.5
  3
txt
  4

  0
ENDTAB
  0
TABLE
  2
VIEW
  5
6
330
0
100
AcDbSymbolTable
 70
     0
  0
ENDTAB
  0
TABLE
  2
UCS
  5
7
330
0
100
AcDbSymbolTable
 70
     0
  0
ENDTAB
  0
TABLE
  2
APPID
  5
9
330
0
100
AcDbSymbolTable
 70
     2
  0
APPID
  5
12
330
9
100
AcDbSymbolTableRecord
100
AcDbRegAppTableRecord
  2
ACAD
 70
     0
  0
ENDTAB
  0
TABLE
  2
DIMSTYLE
  5
A
330
0
100
AcDbSymbolTable
 70
     1
  0
DIMSTYLE
105
27
330
A
100
AcDbSymbolTableRecord
100
AcDbDimStyleTableRecord
  2
ISO-25
 70
     0
  3

  4

  5

  6

  7

 40
1.0
 41
2.5
 42
0.625
 43
3.75
 44
1.25
 45
0.0
 46
0.0
 47
0.0
 48
0.0
140
2.5
141
2.5
142
0.0
143
0.03937007874016
144
1.0
145
0.0
146
1.0
147
0.625
 71
     0
 72
     0
 73
     0
 74
     0
 75
     0
 76
     0
 77
     1
 78
     8
170
     0
171
     3
172
     1
173
     0
174
     0
175
     0
176
     0
177
     0
178
     0
270
     2
271
     2
272
     2
273
     2
274
     3
340
11
275
     0
280
     0
281
     0
282
     0
283
     0
284
     8
285
     0
286
     0
287
     3
288
     0
  0
ENDTAB
  0
TABLE
  2
BLOCK_RECORD
  5
1
330
0
100
AcDbSymbolTable
 70
     1
  0
BLOCK_RECORD
  5
1F
330
1
100
AcDbSymbolTableRecord
100
AcDbBlockTableRecord
  2
*MODEL_SPACE
  0
BLOCK_RECORD
  5
1B
330
1
100
AcDbSymbolTableRecord
100
AcDbBlockTableRecord
  2
*PAPER_SPACE
  0
ENDTAB
  0
ENDSEC
  0
SECTION
  2
BLOCKS
  0
BLOCK
  5
20
330
1F
100
AcDbEntity
  8
0
100
AcDbBlockBegin
  2
*MODEL_SPACE
 70
     0
 10
0.0
 20
0.0
 30
0.0
  3
*MODEL_SPACE
  1

  0
ENDBLK
  5
21
330
1F
100
AcDbEntity
  8
0
100
AcDbBlockEnd
  0
BLOCK
  5
1C
330
1B
100
AcDbEntity
 67
     1
  8
0
100
AcDbBlockBegin
  2
*PAPER_SPACE
  1

  0
ENDBLK
  5
1D
330
1B
100
AcDbEntity
 67
     1
  8
0
100
AcDbBlockEnd
  0
ENDSEC
  0
SECTION
  2
ENTITIES
  0
SPLINE
  5
100
100
AcDbEntity
  8
Vector_Trace
 62
7
100
AcDbSpline
 70
0
 71
3
 72
13
 73
9
 74
7
 40
0.000000
 40
0.000000
 40
0.000000
 40
0.000000
 40
8.360053
 40
12.526122
 40
13.719015
 40
22.680107
 40
30.153593
 40
33.485488
 40
33.485488
 40
33.485488
 40
33.485488
 10
20.065377
 20
66.804490
 30
0.0
 10
20.247327
 20
69.576406
 30
0.0
 10
20.519947
 20
73.729653
 30
0.0
 10
21.555345
 20
78.281957
 30
0.0
 10
24.067686
 20
82.347752
 30
0.0
 10
27.651361
 20
87.249097
 30
0.0
 10
33.872531
 20
89.987788
 30
0.0
 10
37.370127
 20
90.818906
 30
0.0
 10
38.448628
 20
91.075186
 30
0.0
 11
20.065377
 21
66.804490
 31
0.0
 11
20.910891
 21
75.121676
 31
0.0
 11
22.103511
 21
79.113391
 31
0.0
 11
22.708721
 21
80.141358
 31
0.0
 11
28.498265
 21
86.981119
 31
0.0
 11
35.222325
 21
90.243023
 31
0.0
 11
38.448628
 21
91.075186
 31
0.0
  0
SPLINE
  5
101
100
AcDbEntity
  8
Vector_Trace
 62
7
100
AcDbSpline
 70
0
 71
3
 72
10
 73
6
 74
4
 40
0.000000
 40
0.000000
 40
0.000000
 40
0.000000
 40
10.789789
 40
17.597971
 40
20.169562
 40
20.169562
 40
20.169562
 40
20.169562
 10
63.440236
 20
74.734521
 30
0.0
 10
61.904044
 20
78.020642
 30
0.0
 10
59.398540
 20
83.380252
 30
0.0
 10
54.228814
 20
88.012638
 30
0.0
 10
51.368241
 20
89.284629
 30
0.0
 10
50.583976
 20
89.633363
 30
0.0
 11
63.440236
 21
74.734521
 31
0.0
 11
58.077898
 21
84.097473
 31
0.0
 11
52.902464
 21
88.520845
 31
0.0
 11
50.583976
 21
89.633363
 31
0.0
  0
SPLINE
  5
102
100
AcDbEntity
  8
Vector_Trace
 62
7
100
AcDbSpline
 70
0
 71
3
 72
28
 73
24
 74
22
 40
0.000000
 40
0.000000
 40
0.000000
 40
0.000000
 40
0.641258
 40
2.186074
 40
4.108654
 40
4.574745
 40
5.837139
 40
7.943383
 40
8.203550
 40
9.642968
 40
13.434331
 40
14.049424
 40
15.790904
 40
18.615438
 40
19.162869
 40
20.457137
 40
22.173949
 40
22.815315
 40
24.401465
 40
27.951720
 40
29.372715
 40
33.575443
 40
40.547598
 40
40.547598
 40
40.547598
 40
40.547598
 10
63.440236
 20
74.734521
 30
0.0
 10
63.647123
 20
74.680377
 30
0.0
 10
64.352410
 20
74.495800
 30
0.0
 10
65.632066
 20
74.003152
 30
0.0
 10
66.803781
 20
73.383261
 30
0.0
 10
67.719841
 20
72.568783
 30
0.0
 10
68.302232
 20
71.408695
 30
0.0
 10
68.622368
 20
70.174307
 30
0.0
 10
68.351901
 20
68.923648
 30
0.0
 10
67.004882
 20
67.555263
 30
0.0
 10
65.000376
 20
66.661887
 30
0.0
 10
64.495462
 20
64.641485
 30
0.0
 10
63.795145
 20
63.065022
 30
0.0
 10
61.882607
 20
62.066307
 30
0.0
 10
62.045444
 20
60.476370
 30
0.0
 10
61.905695
 20
59.248560
 30
0.0
 10
60.625920
 20
58.431619
 30
0.0
 10
60.972588
 20
57.051797
 30
0.0
 10
59.416750
 20
55.352247
 30
0.0
 10
56.893671
 20
55.846125
 30
0.0
 10
54.800355
 20
53.437124
 30
0.0
 10
51.282965
 20
51.176839
 30
0.0
 10
48.040942
 20
49.331973
 30
0.0
 10
46.018201
 20
48.180937
 30
0.0
 11
63.440236
 21
74.734521
 31
0.0
 11
64.058796
 21
74.565418
 31
0.0
 11
65.505069
 21
74.022509
 31
0.0
 11
67.164945
 21
73.052392
 31
0.0
 11
67.507601
 21
72.736437
 31
0.0
 11
68.143962
 21
71.646170
 31
0.0
 11
68.486618
 21
69.567986
 31
0.0
 11
68.428767
 21
69.314332
 31
0.0
 11
67.543202
 21
68.179564
 31
0.0
 11
64.761906
 21
65.602972
 31
0.0
 11
64.579454
 21
65.015562
 31
0.0
 11
63.782891
 21
63.466936
 31
0.0
 11
61.998413
 21
61.277500
 31
0.0
 11
62.007313
 21
60.730141
 31
0.0
 11
61.749208
 21
59.461870
 31
0.0
 11
60.796892
 21
58.033396
 31
0.0
 11
60.823592
 21
57.392586
 31
0.0
 11
59.889077
 21
56.110965
 31
0.0
 11
56.471420
 21
55.149750
 31
0.0
 11
55.416753
 21
54.197434
 31
0.0
 11
52.039149
 21
51.696494
 31
0.0
 11
46.018201
 21
48.180937
 31
0.0
  0
SPLINE
  5
103
100
AcDbEntity
  8
Vector_Trace
 62
7
100
AcDbSpline
 70
0
 71
3
 72
25
 73
21
 74
19
 40
0.000000
 40
0.000000
 40
0.000000
 40
0.000000
 40
6.411086
 40
10.938912
 40
12.670042
 40
15.161229
 40
16.569992
 40
17.037927
 40
19.114164
 40
20.327795
 40
20.728029
 40
23.268939
 40
25.670412
 40
26.737131
 40
31.127630
 40
32.871224
 40
33.378551
 40
37.046086
 40
39.363963
 40
40.278580
 40
40.278580
 40
40.278580
 40
40.278580
 10
46.018201
 20
48.180937
 30
0.0
 10
43.891824
 20
48.405427
 30
0.0
 10
40.263693
 20
48.788463
 30
0.0
 10
36.128764
 20
49.707209
 30
0.0
 10
33.432532
 20
50.929583
 30
0.0
 10
31.505521
 20
50.769912
 30
0.0
 10
30.089711
 20
51.233765
 30
0.0
 10
28.989830
 20
51.961796
 30
0.0
 10
27.939833
 20
52.643250
 30
0.0
 10
26.992105
 20
53.438969
 30
0.0
 10
26.095236
 20
54.497449
 30
0.0
 10
24.574191
 20
55.480320
 30
0.0
 10
22.980506
 20
56.666691
 30
0.0
 10
20.864180
 20
58.258247
 30
0.0
 10
18.518866
 20
58.600387
 30
0.0
 10
16.527407
 20
60.216891
 30
0.0
 10
16.631381
 20
62.236930
 30
0.0
 10
17.283349
 20
64.351174
 30
0.0
 10
18.833057
 20
66.168152
 30
0.0
 10
19.793598
 20
66.664150
 30
0.0
 10
20.065377
 20
66.804490
 30
0.0
 11
46.018201
 21
48.180937
 31
0.0
 11
39.659047
 21
48.995300
 31
0.0
 11
35.275726
 21
50.130069
 31
0.0
 11
33.642549
 21
50.704128
 31
0.0
 11
31.163858
 21
50.953332
 31
0.0
 11
29.833286
 21
51.416140
 31
0.0
 11
29.437229
 21
51.665344
 31
0.0
 11
27.728403
 21
52.844612
 31
0.0
 11
26.820588
 21
53.650075
 31
0.0
 11
26.553583
 21
53.948229
 31
0.0
 11
24.559951
 21
55.523556
 31
0.0
 11
22.619719
 21
56.938679
 31
0.0
 11
21.747505
 21
57.552788
 31
0.0
 11
17.737989
 21
59.341719
 31
0.0
 11
16.585421
 21
60.650040
 31
0.0
 11
16.580971
 21
61.157347
 31
0.0
 11
17.697939
 21
64.650654
 31
0.0
 11
19.268814
 21
66.355032
 31
0.0
 11
20.065377
 21
66.804490
 31
0.0
  0
SPLINE
  5
104
100
AcDbEntity
  8
Vector_Trace
 62
7
100
AcDbSpline
 70
0
 71
3
 72
13
 73
9
 74
7
 40
0.000000
 40
0.000000
 40
0.000000
 40
0.000000
 40
4.001238
 40
5.750140
 40
6.139846
 40
9.417831
 40
11.599092
 40
12.399759
 40
12.399759
 40
12.399759
 40
12.399759
 10
38.448628
 20
91.075186
 30
0.0
 10
39.776783
 20
91.175175
 30
0.0
 10
41.685460
 20
91.318869
 30
0.0
 10
43.739486
 20
91.419237
 30
0.0
 10
45.532732
 20
91.199252
 30
0.0
 10
47.448729
 20
90.811378
 30
0.0
 10
49.439994
 20
90.164495
 30
0.0
 10
50.341828
 20
89.745788
 30
0.0
 10
50.583976
 20
89.633363
 30
0.0
 11
38.448628
 21
91.075186
 31
0.0
 11
42.440343
 21
91.351091
 31
0.0
 11
44.189222
 21
91.359991
 31
0.0
 11
44.576378
 21
91.315490
 31
0.0
 11
47.789331
 21
90.665779
 31
0.0
 11
49.854164
 21
89.962668
 31
0.0
 11
50.583976
 21
89.633363
 31
0.0
  0
ENDSEC
  0
SECTION
  2
OBJECTS
  0
DICTIONARY
  5
C
330
0
100
AcDbDictionary
  3
ACAD_GROUP
350
D
  3
ACAD_MLINESTYLE
350
17
  0
DICTIONARY
  5
D
330
C
100
AcDbDictionary
  0
DICTIONARY
  5
1A
330
C
100
AcDbDictionary
  0
DICTIONARY
  5
17
330
C
100
AcDbDictionary
  3
STANDARD
350
18
  0
DICTIONARY
  5
19
330
C
100
AcDbDictionary
  0
ENDSEC
  0
EOF
