  0
SECTION
  2
HEADER
  9
$ACADVER
  1
AC1014
  9
$HANDSEED
  5
FFFF
  9
$MEASUREMENT
 70
     1
  0
ENDSEC
  0
SECTION
  2
TABLES
  0
TABLE
  2
VPORT
  5
8
330
0
100
AcDbSymbolTable
 70
     4
  0
VPORT
  5
2E
330
8
100
AcDbSymbolTableRecord
100
AcDbViewportTableRecord
  2
*ACTIVE
 70
     0
 10
0.0
 20
0.0
 11
1.0
 21
1.0
 12
210.0
 22
148.5
 13
0.0
 23
0.0
 14
10.0
 24
10.0
 15
10.0
 25
10.0
 16
0.0
 26
0.0
 36
1.0
 17
0.0
 27
0.0
 37
0.0
 40
341.0
 41
1.24
 42
50.0
 43
0.0
 44
0.0
 50
0.0
 51
0.0
 71
     0
 72
   100
 73
     1
 74
     3
 75
     0
 76
     0
 77
     0
 78
     0
  0
ENDTAB
  0
TABLE
  2
LTYPE
  5
5
330
0
100
AcDbSymbolTable
 70
     1
  0
LTYPE
  5
14
330
5
100
AcDbSymbolTableRecord
100
AcDbLinetypeTableRecord
  2
BYBLOCK
 70
     0
  3

 72
    65
 73
     0
 40
0.0
  0
LTYPE
  5
15
330
5
100
AcDbSymbolTableRecord
100
AcDbLinetypeTableRecord
  2
BYLAYER
 70
     0
  3

 72
    65
 73
     0
 40
0.0
  0
LTYPE
  5
16
330
5
100
AcDbSymbolTableRecord
100
AcDbLinetypeTableRecord
  2
CONTINUOUS
 70
     0
  3
Solid line
 72
    65
 73
     0
 40
0.0
  0
ENDTAB
  0
TABLE
  2
LAYER
  5
2
100
AcDbSymbolTable
 70
5
  0
LAYER
  5
50
100
AcDbSymbolTableRecord
100
AcDbLayerTableRecord
  2
0
 70
0
  6
CONTINUOUS
  0
LAYER
  5
51
100
AcDbSymbolTableRecord
100
AcDbLayerTableRecord
  2
Image
 70
0
  6
CONTINUOUS
  0
LAYER
  5
52
100
AcDbSymbolTableRecord
100
AcDbLayerTableRecord
  2
Vector_Trace
 70
0
  6
CONTINUOUS
  0
LAYER
  5
53
100
AcDbSymbolTableRecord
100
AcDbLayerTableRecord
  2
Silkscreen
 70
0
  6
CONTINUOUS
  0
LAYER
  5
54
100
AcDbSymbolTableRecord
100
AcDbLayerTableRecord
  2
Silkscreen_Lines
 70
0
  6
CONTINUOUS
  0
ENDTAB
  0
TABLE
  2
STYLE
  5
3
330
0
100
AcDbSymbolTable
 70
     1
  0
STYLE
  5
11
330
3
100
AcDbSymbolTableRecord
100
AcDbTextStyleTableRecord
  2
STANDARD
 70
     0
 40
0.0
 41
1.0
 50
0.0
 71
     0
 42
2.5
  3
txt
  4

  0
ENDTAB
  0
TABLE
  2
VIEW
  5
6
330
0
100
AcDbSymbolTable
 70
     0
  0
ENDTAB
  0
TABLE
  2
UCS
  5
7
330
0
100
AcDbSymbolTable
 70
     0
  0
ENDTAB
  0
TABLE
  2
APPID
  5
9
330
0
100
AcDbSymbolTable
 70
     2
  0
APPID
  5
12
330
9
100
AcDbSymbolTableRecord
100
AcDbRegAppTableRecord
  2
ACAD
 70
     0
  0
ENDTAB
  0
TABLE
  2
DIMSTYLE
  5
A
330
0
100
AcDbSymbolTable
 70
     1
  0
DIMSTYLE
105
27
330
A
100
AcDbSymbolTableRecord
100
AcDbDimStyleTableRecord
  2
ISO-25
 70
     0
  3

  4

  5

  6

  7

 40
1.0
 41
2.5
 42
0.625
 43
3.75
 44
1.25
 45
0.0
 46
0.0
 47
0.0
 48
0.0
140
2.5
141
2.5
142
0.0
143
0.03937007874016
144
1.0
145
0.0
146
1.0
147
0.625
 71
     0
 72
     0
 73
     0
 74
     0
 75
     0
 76
     0
 77
     1
 78
     8
170
     0
171
     3
172
     1
173
     0
174
     0
175
     0
176
     0
177
     0
178
     0
270
     2
271
     2
272
     2
273
     2
274
     3
340
11
275
     0
280
     0
281
     0
282
     0
283
     0
284
     8
285
     0
286
     0
287
     3
288
     0
  0
ENDTAB
  0
TABLE
  2
BLOCK_RECORD
  5
1
330
0
100
AcDbSymbolTable
 70
     1
  0
BLOCK_RECORD
  5
1F
330
1
100
AcDbSymbolTableRecord
100
AcDbBlockTableRecord
  2
*MODEL_SPACE
  0
BLOCK_RECORD
  5
1B
330
1
100
AcDbSymbolTableRecord
100
AcDbBlockTableRecord
  2
*PAPER_SPACE
  0
ENDTAB
  0
ENDSEC
  0
SECTION
  2
BLOCKS
  0
BLOCK
  5
20
330
1F
100
AcDbEntity
  8
0
100
AcDbBlockBegin
  2
*MODEL_SPACE
 70
     0
 10
0.0
 20
0.0
 30
0.0
  3
*MODEL_SPACE
  1

  0
ENDBLK
  5
21
330
1F
100
AcDbEntity
  8
0
100
AcDbBlockEnd
  0
BLOCK
  5
1C
330
1B
100
AcDbEntity
 67
     1
  8
0
100
AcDbBlockBegin
  2
*PAPER_SPACE
  1

  0
ENDBLK
  5
1D
330
1B
100
AcDbEntity
 67
     1
  8
0
100
AcDbBlockEnd
  0
ENDSEC
  0
SECTION
  2
ENTITIES
  0
SPLINE
  5
100
100
AcDbEntity
  8
Silkscreen_Lines
 62
7
100
AcDbSpline
 70
0
 71
3
 72
130
 73
126
 74
124
 40
0.000000
 40
0.000000
 40
0.000000
 40
0.000000
 40
0.159759
 40
0.362782
 40
0.497848
 40
0.537160
 40
0.579838
 40
0.619151
 40
0.636257
 40
0.661088
 40
0.681097
 40
0.734914
 40
0.809544
 40
0.863361
 40
0.882343
 40
0.905835
 40
0.924820
 40
1.004930
 40
1.113746
 40
1.193856
 40
1.212838
 40
1.236329
 40
1.255315
 40
1.293285
 40
1.340267
 40
1.378235
 40
1.473084
 40
1.585749
 40
1.720929
 40
1.820124
 40
1.924490
 40
2.028297
 40
2.236366
 40
2.554792
 40
2.752880
 40
2.914328
 40
3.138219
 40
3.299669
 40
3.360441
 40
3.430308
 40
3.491079
 40
3.529048
 40
3.576030
 40
3.613999
 40
3.698298
 40
3.862802
 40
3.981244
 40
4.025129
 40
4.072276
 40
4.116159
 40
4.211860
 40
4.329808
 40
4.425511
 40
4.531652
 40
4.685555
 40
4.797124
 40
5.012390
 40
5.310910
 40
5.526176
 40
5.690460
 40
5.931411
 40
6.158915
 40
6.252393
 40
6.367818
 40
6.428377
 40
6.568923
 40
6.722513
 40
6.859519
 40
7.013741
 40
7.173368
 40
7.293677
 40
7.378152
 40
7.521632
 40
7.619900
 40
7.873402
 40
8.244577
 40
8.437404
 40
8.552048
 40
8.730508
 40
8.860097
 40
9.701827
 40
10.796004
 40
11.571655
 40
11.706181
 40
11.860839
 40
11.995365
 40
12.068806
 40
12.138727
 40
12.212169
 40
12.251482
 40
12.294160
 40
12.333473
 40
12.389606
 40
12.448084
 40
12.504222
 40
12.543095
 40
12.584805
 40
12.625265
 40
12.783510
 40
12.936833
 40
13.083699
 40
13.160570
 40
13.248947
 40
13.325818
 40
13.399259
 40
13.469180
 40
13.542621
 40
13.679940
 40
13.827203
 40
13.969407
 40
14.026114
 40
14.099373
 40
14.151053
 40
14.233089
 40
14.368842
 40
14.451565
 40
14.598613
 40
14.742206
 40
14.889757
 40
15.005113
 40
15.059425
 40
15.119995
 40
15.168805
 40
15.246631
 40
15.300932
 40
15.300932
 40
15.300932
 40
15.300932
 10
31.660042
 20
71.670643
 30
0.0
 10
31.716146
 20
71.674342
 30
0.0
 10
31.843550
 20
71.682743
 30
0.0
 10
31.936896
 20
71.832367
 30
0.0
 10
31.983905
 20
71.971631
 30
0.0
 10
32.062122
 20
71.977158
 30
0.0
 10
32.097474
 20
71.966942
 30
0.0
 10
32.140111
 20
71.960316
 30
0.0
 10
32.148327
 20
71.991050
 30
0.0
 10
32.136117
 20
72.008367
 30
0.0
 10
32.139428
 20
72.046783
 30
0.0
 10
32.208901
 20
72.035656
 30
0.0
 10
32.252885
 20
72.026520
 30
0.0
 10
32.320998
 20
72.015555
 30
0.0
 10
32.326242
 20
72.052289
 30
0.0
 10
32.315296
 20
72.070314
 30
0.0
 10
32.324024
 20
72.113988
 30
0.0
 10
32.407759
 20
72.128931
 30
0.0
 10
32.474280
 20
72.173583
 30
0.0
 10
32.558078
 20
72.188491
 30
0.0
 10
32.566724
 20
72.232208
 30
0.0
 10
32.555990
 20
72.250120
 30
0.0
 10
32.559476
 20
72.281287
 30
0.0
 10
32.605486
 20
72.280020
 30
0.0
 10
32.639102
 20
72.260902
 30
0.0
 10
32.704350
 20
72.271764
 30
0.0
 10
32.739714
 20
72.356158
 30
0.0
 10
32.814486
 20
72.439291
 30
0.0
 10
32.907028
 20
72.514843
 30
0.0
 10
33.019145
 20
72.540932
 30
0.0
 10
33.122669
 20
72.538225
 30
0.0
 10
33.253854
 20
72.588521
 30
0.0
 10
33.471171
 20
72.589199
 30
0.0
 10
33.686194
 20
72.609252
 30
0.0
 10
33.975744
 20
72.583113
 30
0.0
 10
33.965851
 20
72.828768
 30
0.0
 10
33.924616
 20
72.974819
 30
0.0
 10
33.901253
 20
73.165463
 30
0.0
 10
34.002868
 20
73.200784
 30
0.0
 10
34.061682
 20
73.205896
 30
0.0
 10
34.127269
 20
73.219455
 30
0.0
 10
34.133374
 20
73.275316
 30
0.0
 10
34.112842
 20
73.309411
 30
0.0
 10
34.120576
 20
73.378608
 30
0.0
 10
34.247933
 20
73.328148
 30
0.0
 10
34.346586
 20
73.333167
 30
0.0
 10
34.474387
 20
73.319022
 30
0.0
 10
34.507997
 20
73.253964
 30
0.0
 10
34.519384
 20
73.211374
 30
0.0
 10
34.548760
 20
73.152618
 30
0.0
 10
34.646815
 20
73.139195
 30
0.0
 10
34.739856
 20
73.146629
 30
0.0
 10
34.866958
 20
73.125979
 30
0.0
 10
34.861431
 20
72.991805
 30
0.0
 10
34.874711
 20
72.838551
 30
0.0
 10
35.090927
 20
72.862436
 30
0.0
 10
35.043950
 20
73.137832
 30
0.0
 10
34.995599
 20
73.334406
 30
0.0
 10
34.980026
 20
73.605659
 30
0.0
 10
35.196731
 20
73.686282
 30
0.0
 10
35.388321
 20
73.753230
 30
0.0
 10
35.588589
 20
73.742431
 30
0.0
 10
35.713541
 20
73.661975
 30
0.0
 10
35.786784
 20
73.622561
 30
0.0
 10
35.898733
 20
73.566424
 30
0.0
 10
35.925325
 20
73.745994
 30
0.0
 10
35.902566
 20
73.867207
 30
0.0
 10
35.915213
 20
74.024102
 30
0.0
 10
36.002972
 20
74.152192
 30
0.0
 10
36.084230
 20
74.259465
 30
0.0
 10
36.145688
 20
74.395483
 30
0.0
 10
36.273445
 20
74.354025
 30
0.0
 10
36.364671
 20
74.306366
 30
0.0
 10
36.513751
 20
74.233223
 30
0.0
 10
36.707645
 20
74.067486
 30
0.0
 10
36.889954
 20
73.965539
 30
0.0
 10
37.140753
 20
73.701614
 30
0.0
 10
37.148798
 20
73.922881
 30
0.0
 10
37.137845
 20
74.045208
 30
0.0
 10
37.106040
 20
74.436234
 30
0.0
 10
37.194531
 20
75.113946
 30
0.0
 10
37.260315
 20
76.025620
 30
0.0
 10
37.162556
 20
76.682758
 30
0.0
 10
37.103647
 20
77.038797
 30
0.0
 10
37.146121
 20
77.174621
 30
0.0
 10
37.144233
 20
77.302983
 30
0.0
 10
37.088635
 20
77.379573
 30
0.0
 10
37.045841
 20
77.436562
 30
0.0
 10
37.005473
 20
77.485122
 30
0.0
 10
36.999959
 20
77.538853
 30
0.0
 10
37.013331
 20
77.577156
 30
0.0
 10
37.010426
 20
77.625970
 30
0.0
 10
36.969407
 20
77.662691
 30
0.0
 10
36.923892
 20
77.693756
 30
0.0
 10
36.883834
 20
77.730570
 30
0.0
 10
36.878341
 20
77.778230
 30
0.0
 10
36.888931
 20
77.817289
 30
0.0
 10
36.886656
 20
77.898493
 30
0.0
 10
36.835556
 20
78.007188
 30
0.0
 10
36.779799
 20
78.148325
 30
0.0
 10
36.704135
 20
78.253290
 30
0.0
 10
36.694386
 20
78.360336
 30
0.0
 10
36.717693
 20
78.437640
 30
0.0
 10
36.714127
 20
78.521178
 30
0.0
 10
36.667968
 20
78.581044
 30
0.0
 10
36.624074
 20
78.637568
 30
0.0
 10
36.570639
 20
78.715738
 30
0.0
 10
36.551079
 20
78.837634
 30
0.0
 10
36.568966
 20
78.980793
 30
0.0
 10
36.525827
 20
79.090823
 30
0.0
 10
36.521425
 20
79.182867
 30
0.0
 10
36.537642
 20
79.240418
 30
0.0
 10
36.531731
 20
79.315779
 30
0.0
 10
36.437688
 20
79.354093
 30
0.0
 10
36.367016
 20
79.418480
 30
0.0
 10
36.259787
 20
79.487939
 30
0.0
 10
36.240963
 20
79.619136
 30
0.0
 10
36.211209
 20
79.771379
 30
0.0
 10
36.188736
 20
79.861304
 30
0.0
 10
36.089925
 20
80.056465
 30
0.0
 10
36.123133
 20
79.922480
 30
0.0
 10
36.031835
 20
79.953121
 30
0.0
 10
36.040800
 20
80.020579
 30
0.0
 10
36.040924
 20
80.079069
 30
0.0
 10
36.044231
 20
80.123215
 30
0.0
 10
36.045590
 20
80.141357
 30
0.0
 11
31.660042
 21
71.670643
 31
0.0
 11
31.816840
 21
71.701256
 31
0.0
 11
31.941965
 21
71.861138
 31
0.0
 11
32.020499
 21
71.971024
 31
0.0
 11
32.059610
 21
71.975005
 31
0.0
 11
32.101539
 21
71.967044
 31
0.0
 11
32.140649
 21
71.971024
 31
0.0
 11
32.145465
 21
71.987439
 31
0.0
 11
32.138339
 21
72.011225
 31
0.0
 11
32.140649
 21
72.031101
 31
0.0
 11
32.194051
 21
72.037776
 31
0.0
 11
32.267477
 21
72.024426
 31
0.0
 11
32.320878
 21
72.031101
 31
0.0
 11
32.324024
 21
72.049820
 31
0.0
 11
32.317733
 21
72.072454
 31
0.0
 11
32.320878
 21
72.091177
 31
0.0
 11
32.390916
 21
72.130065
 31
0.0
 11
32.491143
 21
72.172439
 31
0.0
 11
32.561181
 21
72.211327
 31
0.0
 11
32.564326
 21
72.230047
 31
0.0
 11
32.558035
 21
72.252680
 31
0.0
 11
32.561181
 21
72.271403
 31
0.0
 11
32.598626
 21
72.277697
 31
0.0
 11
32.643890
 21
72.265111
 31
0.0
 11
32.681333
 21
72.271403
 31
0.0
 11
32.740361
 21
72.345645
 31
0.0
 11
32.812056
 21
72.432555
 31
0.0
 11
32.921639
 21
72.511708
 31
0.0
 11
33.017715
 21
72.536385
 31
0.0
 11
33.121725
 21
72.545003
 31
0.0
 11
33.222017
 21
72.571785
 31
0.0
 11
33.429173
 21
72.591268
 31
0.0
 11
33.747490
 21
72.599581
 31
0.0
 11
33.942930
 21
72.631861
 31
0.0
 11
33.962956
 21
72.792062
 31
0.0
 11
33.922905
 21
73.012342
 31
0.0
 11
33.942930
 21
73.172545
 31
0.0
 11
33.998555
 21
73.197021
 31
0.0
 11
34.067531
 21
73.208146
 31
0.0
 11
34.123156
 21
73.232619
 31
0.0
 11
34.129451
 21
73.270063
 31
0.0
 11
34.116864
 21
73.315327
 31
0.0
 11
34.123156
 21
73.352771
 31
0.0
 11
34.207302
 21
73.347677
 31
0.0
 11
34.370666
 21
73.328350
 31
0.0
 11
34.483614
 21
73.292695
 31
0.0
 11
34.505865
 21
73.254869
 31
0.0
 11
34.521440
 21
73.210369
 31
0.0
 11
34.543690
 21
73.172545
 31
0.0
 11
34.634916
 21
73.143619
 31
0.0
 11
34.752842
 21
73.141394
 31
0.0
 11
34.844069
 21
73.112469
 31
0.0
 11
34.864395
 21
73.008292
 31
0.0
 11
34.913164
 21
72.862321
 31
0.0
 11
35.024298
 21
72.872163
 31
0.0
 11
35.050998
 21
73.085767
 31
0.0
 11
34.997597
 21
73.379472
 31
0.0
 11
35.024298
 21
73.593076
 31
0.0
 11
35.166862
 21
73.674713
 31
0.0
 11
35.399035
 21
73.739158
 31
0.0
 11
35.625056
 21
73.713226
 31
0.0
 11
35.706651
 21
73.667614
 31
0.0
 11
35.807894
 21
73.612182
 31
0.0
 11
35.865361
 21
73.593076
 31
0.0
 11
35.915767
 21
73.724272
 31
0.0
 11
35.908284
 21
73.877679
 31
0.0
 11
35.925437
 21
74.013608
 31
0.0
 11
36.001353
 21
74.147851
 31
0.0
 11
36.089904
 21
74.280664
 31
0.0
 11
36.165740
 21
74.374063
 31
0.0
 11
36.249070
 21
74.360202
 31
0.0
 11
36.379135
 21
74.299625
 31
0.0
 11
36.466121
 21
74.253910
 31
0.0
 11
36.671436
 21
74.105218
 31
0.0
 11
36.965525
 21
73.878762
 31
0.0
 11
37.126958
 21
73.773303
 31
0.0
 11
37.145837
 21
73.886382
 31
0.0
 11
37.136397
 21
74.064592
 31
0.0
 11
37.126958
 21
74.193837
 31
0.0
 11
37.176915
 21
75.034082
 31
0.0
 11
37.221280
 21
76.127360
 31
0.0
 11
37.126958
 21
76.897254
 31
0.0
 11
37.114496
 21
77.031202
 31
0.0
 11
37.139417
 21
77.183839
 31
0.0
 11
37.126958
 21
77.317786
 31
0.0
 11
37.088031
 21
77.380063
 31
0.0
 11
37.045732
 21
77.435737
 31
0.0
 11
37.006805
 21
77.498014
 31
0.0
 11
37.002825
 21
77.537125
 31
0.0
 11
37.010786
 21
77.579055
 31
0.0
 11
37.006805
 21
77.618166
 31
0.0
 11
36.970030
 21
77.660575
 31
0.0
 11
36.923435
 21
77.695910
 31
0.0
 11
36.886653
 21
77.738318
 31
0.0
 11
36.880849
 21
77.776755
 31
0.0
 11
36.886988
 21
77.818011
 31
0.0
 11
36.886653
 21
77.858470
 31
0.0
 11
36.836733
 21
78.008635
 31
0.0
 11
36.772824
 21
78.148004
 31
0.0
 11
36.706424
 21
78.279002
 31
0.0
 11
36.699305
 21
78.355543
 31
0.0
 11
36.713545
 21
78.442765
 31
0.0
 11
36.706424
 21
78.519306
 31
0.0
 11
36.667499
 21
78.581583
 31
0.0
 11
36.625199
 21
78.637257
 31
0.0
 11
36.586274
 21
78.699534
 31
0.0
 11
36.558020
 21
78.833915
 31
0.0
 11
36.556702
 21
78.981172
 31
0.0
 11
36.526197
 21
79.120066
 31
0.0
 11
36.524302
 21
79.176741
 31
0.0
 11
36.534507
 21
79.249286
 31
0.0
 11
36.526197
 21
79.300294
 31
0.0
 11
36.459952
 21
79.348683
 31
0.0
 11
36.349637
 21
79.427799
 31
0.0
 11
36.285892
 21
79.480522
 31
0.0
 11
36.239488
 21
79.620056
 31
0.0
 11
36.212371
 21
79.761065
 31
0.0
 11
36.165740
 21
79.901054
 31
0.0
 11
36.106653
 21
80.000128
 31
0.0
 11
36.104206
 21
79.945871
 31
0.0
 11
36.045590
 21
79.961130
 31
0.0
 11
36.038522
 21
80.009425
 31
0.0
 11
36.042056
 21
80.087171
 31
0.0
 11
36.045590
 21
80.141357
 31
0.0
  0
SPLINE
  5
101
100
AcDbEntity
  8
Silkscreen_Lines
 62
7
100
AcDbSpline
 70
0
 71
3
 72
205
 73
201
 74
199
 40
0.000000
 40
0.000000
 40
0.000000
 40
0.000000
 40
0.294234
 40
0.545068
 40
0.745625
 40
0.789509
 40
0.836656
 40
0.880541
 40
0.918511
 40
0.965493
 40
1.003461
 40
1.075113
 40
1.148808
 40
1.220460
 40
1.275416
 40
1.355825
 40
1.410779
 40
1.448748
 40
1.495730
 40
1.533699
 40
1.594595
 40
1.638818
 40
1.705808
 40
1.903273
 40
2.098422
 40
2.263828
 40
2.301797
 40
2.348779
 40
2.386748
 40
2.405730
 40
2.429221
 40
2.448205
 40
2.486175
 40
2.533156
 40
2.571125
 40
2.590107
 40
2.613599
 40
2.632585
 40
2.681396
 40
2.759221
 40
2.813523
 40
3.025458
 40
3.277394
 40
3.477847
 40
3.505917
 40
3.535154
 40
3.563220
 40
3.604033
 40
3.648824
 40
3.685621
 40
3.704604
 40
3.728095
 40
3.747079
 40
3.842167
 40
3.960166
 40
4.072541
 40
4.204336
 40
4.410464
 40
4.542067
 40
4.595475
 40
4.622027
 40
4.699893
 40
4.740707
 40
4.785498
 40
4.822294
 40
4.860264
 40
4.907245
 40
4.945214
 40
4.986245
 40
5.030071
 40
5.071102
 40
5.091114
 40
5.115947
 40
5.133048
 40
5.172361
 40
5.215041
 40
5.254354
 40
5.271455
 40
5.296288
 40
5.316300
 40
5.387608
 40
5.485574
 40
5.564873
 40
5.708701
 40
5.852795
 40
5.998429
 40
6.055136
 40
6.128393
 40
6.180074
 40
6.199058
 40
6.222548
 40
6.241533
 40
6.278331
 40
6.323122
 40
6.363934
 40
6.391999
 40
6.421238
 40
6.449308
 40
6.602647
 40
6.798033
 40
6.935992
 40
6.979877
 40
7.027025
 40
7.070909
 40
7.111940
 40
7.155766
 40
7.196797
 40
7.257365
 40
7.311678
 40
7.427034
 40
7.447440
 40
7.469836
 40
7.488234
 40
7.549008
 40
7.618875
 40
7.679647
 40
7.761066
 40
7.880606
 40
7.980474
 40
8.021286
 40
8.066077
 40
8.102873
 40
8.121857
 40
8.145348
 40
8.164332
 40
8.463628
 40
9.012502
 40
9.370509
 40
9.389494
 40
9.412984
 40
9.431968
 40
9.610015
 40
9.811301
 40
9.991845
 40
10.082791
 40
10.123008
 40
10.176717
 40
10.319714
 40
10.527674
 40
10.690793
 40
10.805210
 40
10.950651
 40
11.054317
 40
11.073301
 40
11.096792
 40
11.115776
 40
11.152905
 40
11.198463
 40
11.238292
 40
11.295098
 40
11.352989
 40
11.408852
 40
11.543534
 40
11.696699
 40
11.834865
 40
12.133735
 40
12.434744
 40
12.722324
 40
13.039063
 40
13.485884
 40
13.873404
 40
13.927492
 40
13.997528
 40
14.054457
 40
14.389747
 40
14.584217
 40
14.843363
 40
14.913270
 40
15.014434
 40
15.092168
 40
15.111152
 40
15.134643
 40
15.153627
 40
15.254412
 40
15.388240
 40
15.504542
 40
15.561248
 40
15.634506
 40
15.686186
 40
15.706199
 40
15.731032
 40
15.748132
 40
15.830359
 40
15.914178
 40
15.996405
 40
16.041182
 40
16.085960
 40
16.130739
 40
16.152299
 40
16.173858
 40
16.192378
 40
16.233409
 40
16.277233
 40
16.318263
 40
16.337248
 40
16.360738
 40
16.379722
 40
16.612724
 40
17.052429
 40
17.341000
 40
17.341000
 40
17.341000
 40
17.341000
 10
36.045590
 20
80.141357
 30
0.0
 10
36.052188
 20
80.279581
 30
0.0
 10
36.064411
 20
80.535641
 30
0.0
 10
35.825179
 20
80.310871
 30
0.0
 10
35.650503
 20
80.144049
 30
0.0
 10
35.600487
 20
80.241033
 30
0.0
 10
35.588573
 20
80.281516
 30
0.0
 10
35.571623
 20
80.326906
 30
0.0
 10
35.522585
 20
80.331706
 30
0.0
 10
35.486821
 20
80.310998
 30
0.0
 10
35.429648
 20
80.319646
 30
0.0
 10
35.402923
 20
80.382728
 30
0.0
 10
35.367188
 20
80.441498
 30
0.0
 10
35.334748
 20
80.505989
 30
0.0
 10
35.263610
 20
80.523881
 30
0.0
 10
35.207957
 20
80.541678
 30
0.0
 10
35.139528
 20
80.549924
 30
0.0
 10
35.134343
 20
80.604611
 30
0.0
 10
35.154984
 20
80.639949
 30
0.0
 10
35.147169
 20
80.693426
 30
0.0
 10
35.100749
 20
80.716666
 30
0.0
 10
35.052791
 20
80.748430
 30
0.0
 10
35.005614
 20
80.843191
 30
0.0
 10
34.901316
 20
80.958737
 30
0.0
 10
34.755811
 20
81.066395
 30
0.0
 10
34.610776
 20
81.115787
 30
0.0
 10
34.592926
 20
81.204634
 30
0.0
 10
34.612435
 20
81.238533
 30
0.0
 10
34.613702
 20
81.284552
 30
0.0
 10
34.582366
 20
81.287890
 30
0.0
 10
34.565104
 20
81.277727
 30
0.0
 10
34.533680
 20
81.280973
 30
0.0
 10
34.535689
 20
81.327773
 30
0.0
 10
34.551690
 20
81.357987
 30
0.0
 10
34.553697
 20
81.404762
 30
0.0
 10
34.522285
 20
81.408062
 30
0.0
 10
34.504983
 20
81.397708
 30
0.0
 10
34.469609
 20
81.402406
 30
0.0
 10
34.480242
 20
81.466923
 30
0.0
 10
34.478291
 20
81.519974
 30
0.0
 10
34.489918
 20
81.636786
 30
0.0
 10
34.461733
 20
81.808623
 30
0.0
 10
34.453973
 20
82.023338
 30
0.0
 10
34.445289
 20
82.199241
 30
0.0
 10
34.501381
 20
82.266731
 30
0.0
 10
34.525427
 20
82.281607
 30
0.0
 10
34.550076
 20
82.305793
 30
0.0
 10
34.546992
 20
82.348141
 30
0.0
 10
34.532714
 20
82.382497
 30
0.0
 10
34.534489
 20
82.425971
 30
0.0
 10
34.564910
 20
82.429453
 30
0.0
 10
34.582922
 20
82.418653
 30
0.0
 10
34.631705
 20
82.428752
 30
0.0
 10
34.644010
 20
82.525112
 30
0.0
 10
34.666281
 20
82.622334
 30
0.0
 10
34.719015
 20
82.738307
 30
0.0
 10
34.851877
 20
82.817520
 30
0.0
 10
34.961183
 20
82.924055
 30
0.0
 10
35.082888
 20
82.994166
 30
0.0
 10
35.097090
 20
83.070107
 30
0.0
 10
35.063231
 20
83.120028
 30
0.0
 10
35.135421
 20
83.146727
 30
0.0
 10
35.186629
 20
83.149958
 30
0.0
 10
35.223994
 20
83.133160
 30
0.0
 10
35.272114
 20
83.138572
 30
0.0
 10
35.273781
 20
83.188708
 30
0.0
 10
35.255454
 20
83.221970
 30
0.0
 10
35.257026
 20
83.272815
 30
0.0
 10
35.309800
 20
83.280179
 30
0.0
 10
35.338857
 20
83.250923
 30
0.0
 10
35.387145
 20
83.254963
 30
0.0
 10
35.389105
 20
83.287963
 30
0.0
 10
35.377123
 20
83.305360
 30
0.0
 10
35.385221
 20
83.336156
 30
0.0
 10
35.428479
 20
83.328754
 30
0.0
 10
35.461192
 20
83.322007
 30
0.0
 10
35.504395
 20
83.314641
 30
0.0
 10
35.512612
 20
83.345360
 30
0.0
 10
35.500143
 20
83.363068
 30
0.0
 10
35.505672
 20
83.405869
 30
0.0
 10
35.586998
 20
83.410593
 30
0.0
 10
35.660365
 20
83.425203
 30
0.0
 10
35.769092
 20
83.445265
 30
0.0
 10
35.866941
 20
83.524279
 30
0.0
 10
35.983353
 20
83.604253
 30
0.0
 10
36.072964
 20
83.690300
 30
0.0
 10
36.169754
 20
83.688954
 30
0.0
 10
36.221798
 20
83.678490
 30
0.0
 10
36.286168
 20
83.671141
 30
0.0
 10
36.291164
 20
83.707111
 30
0.0
 10
36.280758
 20
83.724600
 30
0.0
 10
36.284128
 20
83.755167
 30
0.0
 10
36.327657
 20
83.756871
 30
0.0
 10
36.361991
 20
83.742624
 30
0.0
 10
36.404350
 20
83.739520
 30
0.0
 10
36.428517
 20
83.764205
 30
0.0
 10
36.443439
 20
83.788149
 30
0.0
 10
36.498207
 20
83.834886
 30
0.0
 10
36.638179
 20
83.823088
 30
0.0
 10
36.785474
 20
83.831506
 30
0.0
 10
36.933966
 20
83.833424
 30
0.0
 10
36.971011
 20
83.904962
 30
0.0
 10
36.983249
 20
83.946798
 30
0.0
 10
37.000689
 20
83.990910
 30
0.0
 10
37.050271
 20
84.001879
 30
0.0
 10
37.083931
 20
83.971249
 30
0.0
 10
37.137118
 20
83.979224
 30
0.0
 10
37.165774
 20
84.063685
 30
0.0
 10
37.029947
 20
84.028067
 30
0.0
 10
37.158323
 20
84.105497
 30
0.0
 10
37.207989
 20
84.108926
 30
0.0
 10
37.227563
 20
84.099706
 30
0.0
 10
37.263172
 20
84.108897
 30
0.0
 10
37.273323
 20
84.168035
 30
0.0
 10
37.278785
 20
84.227547
 30
0.0
 10
37.305642
 20
84.296879
 30
0.0
 10
37.380683
 20
84.346897
 30
0.0
 10
37.458598
 20
84.405884
 30
0.0
 10
37.525519
 20
84.468658
 30
0.0
 10
37.590961
 20
84.471342
 30
0.0
 10
37.626033
 20
84.455569
 30
0.0
 10
37.669328
 20
84.457672
 30
0.0
 10
37.672896
 20
84.488016
 30
0.0
 10
37.661837
 20
84.506174
 30
0.0
 10
37.691546
 20
84.624966
 30
0.0
 10
38.118700
 20
84.442841
 30
0.0
 10
38.383448
 20
84.589166
 30
0.0
 10
38.838758
 20
84.470768
 30
0.0
 10
38.875124
 20
84.607517
 30
0.0
 10
38.863254
 20
84.626499
 30
0.0
 10
38.882293
 20
84.702131
 30
0.0
 10
39.047278
 20
84.725143
 30
0.0
 10
39.233583
 20
84.742805
 30
0.0
 10
39.349367
 20
84.748274
 30
0.0
 10
39.525745
 20
84.798346
 30
0.0
 10
39.444216
 20
84.833448
 30
0.0
 10
39.480703
 20
84.928140
 30
0.0
 10
39.624903
 20
84.949308
 30
0.0
 10
39.783569
 20
85.002994
 30
0.0
 10
39.931410
 20
85.074539
 30
0.0
 10
40.079127
 20
85.074539
 30
0.0
 10
40.181408
 20
85.053525
 30
0.0
 10
40.306067
 20
85.035733
 30
0.0
 10
40.316545
 20
85.088539
 30
0.0
 10
40.305788
 20
85.106397
 30
0.0
 10
40.309245
 20
85.137102
 30
0.0
 10
40.353638
 20
85.137711
 30
0.0
 10
40.387712
 20
85.121198
 30
0.0
 10
40.439904
 20
85.123426
 30
0.0
 10
40.472736
 20
85.168240
 30
0.0
 10
40.505753
 20
85.212998
 30
0.0
 10
40.570282
 20
85.268571
 30
0.0
 10
40.690583
 20
85.279888
 30
0.0
 10
40.830379
 20
85.279532
 30
0.0
 10
41.027367
 20
85.311125
 30
0.0
 10
41.241419
 20
85.441354
 30
0.0
 10
41.499134
 20
85.580557
 30
0.0
 10
41.752255
 20
85.758938
 30
0.0
 10
42.113013
 20
85.775805
 30
0.0
 10
42.495888
 20
85.750264
 30
0.0
 10
42.784490
 20
85.827794
 30
0.0
 10
42.952871
 20
85.859932
 30
0.0
 10
43.013519
 20
85.852288
 30
0.0
 10
43.165685
 20
85.842108
 30
0.0
 10
43.388962
 20
85.853148
 30
0.0
 10
43.549321
 20
85.630125
 30
0.0
 10
43.607155
 20
85.439370
 30
0.0
 10
43.754133
 20
85.404087
 30
0.0
 10
43.827898
 20
85.394074
 30
0.0
 10
43.912788
 20
85.390359
 30
0.0
 10
43.921163
 20
85.347142
 30
0.0
 10
43.909790
 20
85.328552
 30
0.0
 10
43.921217
 20
85.278876
 30
0.0
 10
44.013058
 20
85.245798
 30
0.0
 10
44.107148
 20
85.187575
 30
0.0
 10
44.193817
 20
85.123434
 30
0.0
 10
44.279987
 20
85.124519
 30
0.0
 10
44.331819
 20
85.135068
 30
0.0
 10
44.397361
 20
85.142322
 30
0.0
 10
44.400766
 20
85.105068
 30
0.0
 10
44.388136
 20
85.087104
 30
0.0
 10
44.403134
 20
85.043795
 30
0.0
 10
44.480157
 20
85.046843
 30
0.0
 10
44.556370
 20
85.032625
 30
0.0
 10
44.625487
 20
85.014368
 30
0.0
 10
44.677578
 20
84.987833
 30
0.0
 10
44.711874
 20
84.965003
 30
0.0
 10
44.763477
 20
84.958318
 30
0.0
 10
44.752962
 20
84.925447
 30
0.0
 10
44.748443
 20
84.906172
 30
0.0
 10
44.757152
 20
84.877711
 30
0.0
 10
44.801850
 20
84.872849
 30
0.0
 10
44.831014
 20
84.901677
 30
0.0
 10
44.878205
 20
84.897682
 30
0.0
 10
44.882019
 20
84.866267
 30
0.0
 10
44.870988
 20
84.848040
 30
0.0
 10
44.894329
 20
84.751535
 30
0.0
 10
45.224696
 20
84.883445
 30
0.0
 10
45.490197
 20
84.812816
 30
0.0
 10
45.739279
 20
84.823178
 30
0.0
 10
45.837975
 20
84.827284
 30
0.0
 11
36.045590
 21
80.141357
 31
0.0
 11
36.010862
 21
80.433534
 31
0.0
 11
35.804609
 21
80.290783
 31
0.0
 11
35.625056
 21
80.201433
 31
0.0
 11
35.602807
 21
80.239259
 31
0.0
 11
35.587232
 21
80.283760
 31
0.0
 11
35.564982
 21
80.321586
 31
0.0
 11
35.527537
 21
80.327879
 31
0.0
 11
35.482273
 21
80.315292
 31
0.0
 11
35.444830
 21
80.321586
 31
0.0
 11
35.402553
 21
80.379436
 31
0.0
 11
35.366953
 21
80.443962
 31
0.0
 11
35.324677
 21
80.501813
 31
0.0
 11
35.273499
 21
80.521839
 31
0.0
 11
35.195624
 21
80.541864
 31
0.0
 11
35.144448
 21
80.561889
 31
0.0
 11
35.138156
 21
80.599333
 31
0.0
 11
35.150742
 21
80.644597
 31
0.0
 11
35.144448
 21
80.682041
 31
0.0
 11
35.096954
 21
80.720155
 31
0.0
 11
35.061348
 21
80.746381
 31
0.0
 11
35.024298
 21
80.802193
 31
0.0
 11
34.897431
 21
80.953512
 31
0.0
 11
34.737157
 21
81.064846
 31
0.0
 11
34.603764
 21
81.162649
 31
0.0
 11
34.597472
 21
81.200093
 31
0.0
 11
34.610058
 21
81.245357
 31
0.0
 11
34.603764
 21
81.282801
 31
0.0
 11
34.585044
 21
81.285948
 31
0.0
 11
34.562412
 21
81.279654
 31
0.0
 11
34.543690
 21
81.282801
 31
0.0
 11
34.537396
 21
81.320245
 31
0.0
 11
34.549983
 21
81.365509
 31
0.0
 11
34.543690
 21
81.402953
 31
0.0
 11
34.524971
 21
81.406100
 31
0.0
 11
34.502337
 21
81.399806
 31
0.0
 11
34.483614
 21
81.402953
 31
0.0
 11
34.476547
 21
81.451249
 31
0.0
 11
34.480080
 21
81.528995
 31
0.0
 11
34.483614
 21
81.583181
 31
0.0
 11
34.468044
 21
81.794543
 31
0.0
 11
34.452474
 21
82.045998
 31
0.0
 11
34.483614
 21
82.244017
 31
0.0
 11
34.502008
 21
82.265221
 31
0.0
 11
34.525302
 21
82.282889
 31
0.0
 11
34.543690
 21
82.304093
 31
0.0
 11
34.545358
 21
82.344871
 31
0.0
 11
34.535084
 21
82.388468
 31
0.0
 11
34.543690
 21
82.424245
 31
0.0
 11
34.562410
 21
82.427392
 31
0.0
 11
34.585043
 21
82.421098
 31
0.0
 11
34.603764
 21
82.424245
 31
0.0
 11
34.643449
 21
82.510655
 31
0.0
 11
34.671331
 21
82.625313
 31
0.0
 11
34.723917
 21
82.724625
 31
0.0
 11
34.826745
 21
82.807064
 31
0.0
 11
34.988390
 21
82.934970
 31
0.0
 11
35.084374
 21
83.025005
 31
0.0
 11
35.088845
 21
83.078225
 31
0.0
 11
35.079044
 21
83.102903
 31
0.0
 11
35.144448
 21
83.145156
 31
0.0
 11
35.185228
 21
83.146824
 31
0.0
 11
35.228825
 21
83.136550
 31
0.0
 11
35.264601
 21
83.145156
 31
0.0
 11
35.270895
 21
83.182600
 31
0.0
 11
35.258308
 21
83.227865
 31
0.0
 11
35.264601
 21
83.265308
 31
0.0
 11
35.304654
 21
83.274211
 31
0.0
 11
35.344700
 21
83.256406
 31
0.0
 11
35.384753
 21
83.265308
 31
0.0
 11
35.387064
 21
83.285187
 31
0.0
 11
35.379938
 21
83.308976
 31
0.0
 11
35.384753
 21
83.325384
 31
0.0
 11
35.423864
 21
83.329365
 31
0.0
 11
35.465795
 21
83.321404
 31
0.0
 11
35.504906
 21
83.325384
 31
0.0
 11
35.509721
 21
83.341794
 31
0.0
 11
35.502595
 21
83.365582
 31
0.0
 11
35.504906
 21
83.385461
 31
0.0
 11
35.571504
 21
83.410944
 31
0.0
 11
35.668227
 21
83.426501
 31
0.0
 11
35.745208
 21
83.445537
 31
0.0
 11
35.867017
 21
83.522016
 31
0.0
 11
35.982234
 21
83.608549
 31
0.0
 11
36.105666
 21
83.685840
 31
0.0
 11
36.162341
 21
83.687730
 31
0.0
 11
36.234885
 21
83.677528
 31
0.0
 11
36.285892
 21
83.685840
 31
0.0
 11
36.289038
 21
83.704562
 31
0.0
 11
36.282747
 21
83.727194
 31
0.0
 11
36.285892
 21
83.745916
 31
0.0
 11
36.321670
 21
83.754523
 31
0.0
 11
36.365267
 21
83.744249
 31
0.0
 11
36.406045
 21
83.745916
 31
0.0
 11
36.427245
 21
83.764306
 31
0.0
 11
36.444914
 21
83.787603
 31
0.0
 11
36.466121
 21
83.805992
 31
0.0
 11
36.617918
 21
83.827682
 31
0.0
 11
36.813275
 21
83.831101
 31
0.0
 11
36.946729
 21
83.866068
 31
0.0
 11
36.968979
 21
83.903894
 31
0.0
 11
36.984555
 21
83.948395
 31
0.0
 11
37.006805
 21
83.986220
 31
0.0
 11
37.046859
 21
83.995123
 31
0.0
 11
37.086904
 21
83.977317
 31
0.0
 11
37.126958
 21
83.986220
 31
0.0
 11
37.142216
 21
84.044834
 31
0.0
 11
37.087958
 21
84.047283
 31
0.0
 11
37.187031
 21
84.106372
 31
0.0
 11
37.207421
 21
84.107206
 31
0.0
 11
37.229219
 21
84.102069
 31
0.0
 11
37.247108
 21
84.106372
 31
0.0
 11
37.271585
 21
84.161998
 31
0.0
 11
37.282710
 21
84.230974
 31
0.0
 11
37.307184
 21
84.286600
 31
0.0
 11
37.368839
 21
84.339776
 31
0.0
 11
37.463574
 21
84.412682
 31
0.0
 11
37.547489
 21
84.466828
 31
0.0
 11
37.588267
 21
84.468496
 31
0.0
 11
37.631864
 21
84.458222
 31
0.0
 11
37.667639
 21
84.466828
 31
0.0
 11
37.670785
 21
84.485550
 31
0.0
 11
37.664493
 21
84.508182
 31
0.0
 11
37.667639
 21
84.526904
 31
0.0
 11
37.966917
 21
84.530253
 31
0.0
 11
38.515790
 21
84.529540
 31
0.0
 11
38.869160
 21
84.586980
 31
0.0
 11
38.872305
 21
84.605702
 31
0.0
 11
38.866014
 21
84.628334
 31
0.0
 11
38.869160
 21
84.647056
 31
0.0
 11
39.030846
 21
84.721609
 31
0.0
 11
39.231162
 21
84.741339
 31
0.0
 11
39.409844
 21
84.767208
 31
0.0
 11
39.490958
 21
84.808338
 31
0.0
 11
39.460412
 21
84.834499
 31
0.0
 11
39.469920
 21
84.887360
 31
0.0
 11
39.598975
 21
84.948947
 31
0.0
 11
39.796928
 21
85.012680
 31
0.0
 11
39.950528
 21
85.067588
 31
0.0
 11
40.064873
 21
85.071627
 31
0.0
 11
40.208755
 21
85.050383
 31
0.0
 11
40.310983
 21
85.067588
 31
0.0
 11
40.314128
 21
85.086310
 31
0.0
 11
40.307837
 21
85.108942
 31
0.0
 11
40.310983
 21
85.127664
 31
0.0
 11
40.347315
 21
85.135313
 31
0.0
 11
40.391467
 21
85.124083
 31
0.0
 11
40.431135
 21
85.127664
 31
0.0
 11
40.471974
 21
85.167149
 31
0.0
 11
40.508095
 21
85.212389
 31
0.0
 11
40.551288
 21
85.247816
 31
0.0
 11
40.682736
 21
85.277152
 31
0.0
 11
40.835753
 21
85.283897
 31
0.0
 11
40.971819
 21
85.307892
 31
0.0
 11
41.240854
 21
85.438059
 31
0.0
 11
41.501371
 21
85.588849
 31
0.0
 11
41.752808
 21
85.728424
 31
0.0
 11
42.066977
 21
85.768694
 31
0.0
 11
42.513752
 21
85.775140
 31
0.0
 11
42.894250
 21
85.848576
 31
0.0
 11
42.947761
 21
85.856454
 31
0.0
 11
43.017686
 21
85.852515
 31
0.0
 11
43.074479
 21
85.848576
 31
0.0
 11
43.404929
 21
85.791813
 31
0.0
 11
43.528438
 21
85.641600
 31
0.0
 11
43.675239
 21
85.428044
 31
0.0
 11
43.742164
 21
85.407844
 31
0.0
 11
43.842425
 21
85.394359
 31
0.0
 11
43.915542
 21
85.367968
 31
0.0
 11
43.918687
 21
85.349246
 31
0.0
 11
43.912396
 21
85.326614
 31
0.0
 11
43.915542
 21
85.307892
 31
0.0
 11
43.997021
 21
85.248572
 31
0.0
 11
44.112873
 21
85.181580
 31
0.0
 11
44.215923
 21
85.127664
 31
0.0
 11
44.272598
 21
85.125774
 31
0.0
 11
44.345142
 21
85.135976
 31
0.0
 11
44.396149
 21
85.127664
 31
0.0
 11
44.398460
 21
85.107785
 31
0.0
 11
44.391334
 21
85.083997
 31
0.0
 11
44.396149
 21
85.067588
 31
0.0
 11
44.474862
 21
85.043807
 31
0.0
 11
44.557742
 21
85.031293
 31
0.0
 11
44.636455
 21
85.007512
 31
0.0
 11
44.676505
 21
84.987486
 31
0.0
 11
44.716555
 21
84.967461
 31
0.0
 11
44.756607
 21
84.947436
 31
0.0
 11
44.753462
 21
84.926107
 31
0.0
 11
44.750316
 21
84.904778
 31
0.0
 11
44.756607
 21
84.887360
 31
0.0
 11
44.796660
 21
84.878457
 31
0.0
 11
44.836704
 21
84.896263
 31
0.0
 11
44.876757
 21
84.887360
 31
0.0
 11
44.879903
 21
84.868638
 31
0.0
 11
44.873611
 21
84.846006
 31
0.0
 11
44.876757
 21
84.827284
 31
0.0
 11
45.109714
 21
84.822705
 31
0.0
 11
45.549413
 21
84.824995
 31
0.0
 11
45.837975
 21
84.827284
 31
0.0
  0
SPLINE
  5
102
100
AcDbEntity
  8
Silkscreen_Lines
 62
7
100
AcDbSpline
 70
0
 71
3
 72
160
 73
156
 74
154
 40
0.000000
 40
0.000000
 40
0.000000
 40
0.000000
 40
0.308971
 40
0.739413
 40
0.991278
 40
1.010261
 40
1.033753
 40
1.052739
 40
1.090708
 40
1.137689
 40
1.175658
 40
1.194641
 40
1.218133
 40
1.237119
 40
1.344751
 40
1.494011
 40
1.601644
 40
1.645528
 40
1.692675
 40
1.736559
 40
1.774528
 40
1.821510
 40
1.859479
 40
1.903364
 40
1.950512
 40
1.994396
 40
2.013381
 40
2.036871
 40
2.055855
 40
2.092653
 40
2.137445
 40
2.178257
 40
2.263197
 40
2.372616
 40
2.447205
 40
2.466189
 40
2.489679
 40
2.508664
 40
2.562480
 40
2.637111
 40
2.690927
 40
2.734812
 40
2.781960
 40
2.825844
 40
2.886616
 40
2.956484
 40
3.017258
 40
3.055226
 40
3.102208
 40
3.140177
 40
3.159160
 40
3.182652
 40
3.201637
 40
3.298886
 40
3.465851
 40
3.563099
 40
3.601069
 40
3.648051
 40
3.686020
 40
3.705004
 40
3.728494
 40
3.747479
 40
4.210652
 40
5.053104
 40
5.614553
 40
5.738272
 40
5.921154
 40
6.036786
 40
6.085903
 40
6.134653
 40
6.209010
 40
6.249822
 40
6.294613
 40
6.331409
 40
6.435728
 40
6.558246
 40
6.674589
 40
6.887392
 40
6.962590
 40
7.023462
 40
7.075142
 40
7.148400
 40
7.205107
 40
7.286522
 40
7.363060
 40
7.424842
 40
7.493129
 40
7.592510
 40
7.755791
 40
7.885938
 40
8.037883
 40
8.141169
 40
8.182200
 40
8.226025
 40
8.267054
 40
8.310939
 40
8.358086
 40
8.401971
 40
8.473727
 40
8.573234
 40
8.644989
 40
8.663974
 40
8.687464
 40
8.706448
 40
8.760265
 40
8.834895
 40
8.888712
 40
8.990170
 40
9.066805
 40
9.160109
 40
9.275465
 40
9.329777
 40
9.390348
 40
9.445303
 40
9.525713
 40
9.580667
 40
9.599649
 40
9.623141
 40
9.642127
 40
9.702900
 40
9.772767
 40
9.833539
 40
9.887355
 40
9.961984
 40
10.015800
 40
10.034199
 40
10.056594
 40
10.077000
 40
10.181398
 40
10.319527
 40
10.429930
 40
10.502304
 40
10.567983
 40
10.624465
 40
10.916114
 40
11.239412
 40
11.537462
 40
11.594184
 40
11.653583
 40
11.708696
 40
11.748807
 40
11.790807
 40
11.829776
 40
11.846883
 40
11.871713
 40
11.891723
 40
11.945540
 40
12.020170
 40
12.073986
 40
12.127803
 40
12.202433
 40
12.256247
 40
12.309741
 40
12.336626
 40
12.405638
 40
12.405638
 40
12.405638
 40
12.405638
 10
37.247108
 20
80.621965
 30
0.0
 10
37.271764
 20
80.723858
 30
0.0
 10
37.330771
 20
80.967700
 30
0.0
 10
37.437790
 20
81.243850
 30
0.0
 10
37.406457
 20
81.563608
 30
0.0
 10
37.508121
 20
81.588968
 30
0.0
 10
37.526229
 20
81.577950
 30
0.0
 10
37.557417
 20
81.581435
 30
0.0
 10
37.555528
 20
81.628114
 30
0.0
 10
37.539459
 20
81.658391
 30
0.0
 10
37.537530
 20
81.705104
 30
0.0
 10
37.568806
 20
81.708513
 30
0.0
 10
37.586589
 20
81.697771
 30
0.0
 10
37.640988
 20
81.708539
 30
0.0
 10
37.615210
 20
81.840057
 30
0.0
 10
37.595822
 20
81.932373
 30
0.0
 10
37.581929
 20
82.057350
 30
0.0
 10
37.647015
 20
82.087803
 30
0.0
 10
37.687673
 20
82.100428
 30
0.0
 10
37.733068
 20
82.117156
 30
0.0
 10
37.737695
 20
82.166398
 30
0.0
 10
37.717758
 20
82.201465
 30
0.0
 10
37.722282
 20
82.250798
 30
0.0
 10
37.768131
 20
82.267120
 30
0.0
 10
37.806963
 20
82.281386
 30
0.0
 10
37.848270
 20
82.293521
 30
0.0
 10
37.853204
 20
82.325107
 30
0.0
 10
37.842715
 20
82.342918
 30
0.0
 10
37.846129
 20
82.373354
 30
0.0
 10
37.889472
 20
82.375452
 30
0.0
 10
37.924656
 20
82.359491
 30
0.0
 10
37.984178
 20
82.362933
 30
0.0
 10
38.052827
 20
82.405440
 30
0.0
 10
38.127710
 20
82.444380
 30
0.0
 10
38.205560
 20
82.463540
 30
0.0
 10
38.213908
 20
82.505171
 30
0.0
 10
38.202948
 20
82.523218
 30
0.0
 10
38.208259
 20
82.559896
 30
0.0
 10
38.275513
 20
82.549601
 30
0.0
 10
38.323944
 20
82.537017
 30
0.0
 10
38.392295
 20
82.533630
 30
0.0
 10
38.412206
 20
82.584346
 30
0.0
 10
38.424661
 20
82.625328
 30
0.0
 10
38.447474
 20
82.673952
 30
0.0
 10
38.508715
 20
82.691972
 30
0.0
 10
38.567284
 20
82.698137
 30
0.0
 10
38.633149
 20
82.711327
 30
0.0
 10
38.638647
 20
82.767582
 30
0.0
 10
38.620416
 20
82.800300
 30
0.0
 10
38.618936
 20
82.846499
 30
0.0
 10
38.650178
 20
82.849962
 30
0.0
 10
38.667892
 20
82.839245
 30
0.0
 10
38.719129
 20
82.848976
 30
0.0
 10
38.686275
 20
82.982928
 30
0.0
 10
38.689262
 20
83.068765
 30
0.0
 10
38.717458
 20
83.206874
 30
0.0
 10
38.645740
 20
83.215292
 30
0.0
 10
38.613297
 20
83.196711
 30
0.0
 10
38.567088
 20
83.195364
 30
0.0
 10
38.563526
 20
83.226466
 30
0.0
 10
38.574637
 20
83.244655
 30
0.0
 10
38.528856
 20
83.417581
 30
0.0
 10
37.892612
 20
83.224243
 30
0.0
 10
37.380622
 20
83.392037
 30
0.0
 10
36.852764
 20
83.372087
 30
0.0
 10
36.562088
 20
83.396769
 30
0.0
 10
36.429922
 20
83.398317
 30
0.0
 10
36.294513
 20
83.411001
 30
0.0
 10
36.256830
 20
83.345219
 30
0.0
 10
36.224060
 20
83.299549
 30
0.0
 10
36.178341
 20
83.262794
 30
0.0
 10
36.122914
 20
83.260366
 30
0.0
 10
36.084711
 20
83.278728
 30
0.0
 10
36.020256
 20
83.261160
 30
0.0
 10
35.981697
 20
83.174911
 30
0.0
 10
35.901975
 20
83.085084
 30
0.0
 10
35.807100
 20
83.012114
 30
0.0
 10
35.505095
 20
82.920307
 30
0.0
 10
35.690512
 20
82.993897
 30
0.0
 10
35.700106
 20
82.890762
 30
0.0
 10
35.622437
 20
82.896718
 30
0.0
 10
35.569181
 20
82.906906
 30
0.0
 10
35.493141
 20
82.913170
 30
0.0
 10
35.442441
 20
82.849594
 30
0.0
 10
35.416230
 20
82.786077
 30
0.0
 10
35.391377
 20
82.711732
 30
0.0
 10
35.305869
 20
82.711671
 30
0.0
 10
35.203434
 20
82.637492
 30
0.0
 10
35.255092
 20
82.485644
 30
0.0
 10
35.338912
 20
82.369776
 30
0.0
 10
35.428857
 20
82.276417
 30
0.0
 10
35.480580
 20
82.189082
 30
0.0
 10
35.547678
 20
82.167244
 30
0.0
 10
35.581647
 20
82.200026
 30
0.0
 10
35.631188
 20
82.188559
 30
0.0
 10
35.648476
 20
82.144338
 30
0.0
 10
35.661402
 20
82.103528
 30
0.0
 10
35.684780
 20
82.048111
 30
0.0
 10
35.771939
 20
82.054837
 30
0.0
 10
35.835125
 20
82.069865
 30
0.0
 10
35.923733
 20
82.085275
 30
0.0
 10
35.930888
 20
82.042668
 30
0.0
 10
35.920087
 20
82.024946
 30
0.0
 10
35.925375
 20
81.988198
 30
0.0
 10
35.992293
 20
81.998104
 30
0.0
 10
36.042627
 20
82.013038
 30
0.0
 10
36.126743
 20
82.008782
 30
0.0
 10
36.166255
 20
81.930495
 30
0.0
 10
36.195422
 20
81.841990
 30
0.0
 10
36.217426
 20
81.775099
 30
0.0
 10
36.301311
 20
81.607168
 30
0.0
 10
36.269428
 20
81.742396
 30
0.0
 10
36.358732
 20
81.709010
 30
0.0
 10
36.364795
 20
81.642280
 30
0.0
 10
36.387641
 20
81.587768
 30
0.0
 10
36.391056
 20
81.523536
 30
0.0
 10
36.427066
 20
81.517670
 30
0.0
 10
36.445185
 20
81.528581
 30
0.0
 10
36.482653
 20
81.522041
 30
0.0
 10
36.491659
 20
81.460161
 30
0.0
 10
36.499698
 20
81.405080
 30
0.0
 10
36.515558
 20
81.332454
 30
0.0
 10
36.590779
 20
81.335223
 30
0.0
 10
36.639737
 20
81.348266
 30
0.0
 10
36.705243
 20
81.358086
 30
0.0
 10
36.712961
 20
81.322947
 30
0.0
 10
36.703885
 20
81.304327
 30
0.0
 10
36.707241
 20
81.252859
 30
0.0
 10
36.799765
 20
81.206175
 30
0.0
 10
36.896982
 20
81.153631
 30
0.0
 10
36.994091
 20
81.104336
 30
0.0
 10
37.073772
 20
81.081367
 30
0.0
 10
37.141908
 20
81.085724
 30
0.0
 10
37.252495
 20
80.988602
 30
0.0
 10
37.240128
 20
80.735837
 30
0.0
 10
37.247331
 20
80.450117
 30
0.0
 10
37.250162
 20
80.201769
 30
0.0
 10
37.344542
 20
80.096351
 30
0.0
 10
37.393917
 20
80.068834
 30
0.0
 10
37.431971
 20
80.028100
 30
0.0
 10
37.429921
 20
79.979292
 30
0.0
 10
37.422176
 20
79.943422
 30
0.0
 10
37.416847
 20
79.901571
 30
0.0
 10
37.447337
 20
79.893373
 30
0.0
 10
37.464692
 20
79.905595
 30
0.0
 10
37.503053
 20
79.902248
 30
0.0
 10
37.492473
 20
79.833125
 30
0.0
 10
37.480550
 20
79.787357
 30
0.0
 10
37.475140
 20
79.708366
 30
0.0
 10
37.552858
 20
79.713769
 30
0.0
 10
37.604955
 20
79.727242
 30
0.0
 10
37.670954
 20
79.735321
 30
0.0
 10
37.702572
 20
79.669133
 30
0.0
 10
37.630237
 20
79.652690
 30
0.0
 10
37.686922
 20
79.657377
 30
0.0
 10
37.727715
 20
79.660749
 30
0.0
 11
37.247108
 21
80.621965
 31
0.0
 11
37.324713
 21
80.921032
 31
0.0
 11
37.415620
 21
81.341765
 31
0.0
 11
37.487413
 21
81.583181
 31
0.0
 11
37.506133
 21
81.586328
 31
0.0
 11
37.528766
 21
81.580034
 31
0.0
 11
37.547489
 21
81.583181
 31
0.0
 11
37.553782
 21
81.620625
 31
0.0
 11
37.541195
 21
81.665889
 31
0.0
 11
37.547489
 21
81.703333
 31
0.0
 11
37.566209
 21
81.706480
 31
0.0
 11
37.588842
 21
81.700186
 31
0.0
 11
37.607565
 21
81.703333
 31
0.0
 11
37.620915
 21
81.810135
 31
0.0
 11
37.594215
 21
81.956987
 31
0.0
 11
37.607565
 21
82.063789
 31
0.0
 11
37.645391
 21
82.086039
 31
0.0
 11
37.689890
 21
82.101614
 31
0.0
 11
37.727715
 21
82.123865
 31
0.0
 11
37.734010
 21
82.161309
 31
0.0
 11
37.721423
 21
82.206573
 31
0.0
 11
37.727715
 21
82.244017
 31
0.0
 11
37.765541
 21
82.266267
 31
0.0
 11
37.810042
 21
82.281842
 31
0.0
 11
37.847868
 21
82.304093
 31
0.0
 11
37.851014
 21
82.322815
 31
0.0
 11
37.844722
 21
82.345447
 31
0.0
 11
37.847868
 21
82.364169
 31
0.0
 11
37.883645
 21
82.372775
 31
0.0
 11
37.927243
 21
82.362501
 31
0.0
 11
37.968021
 21
82.364169
 31
0.0
 11
38.045181
 21
82.399680
 31
0.0
 11
38.144246
 21
82.446144
 31
0.0
 11
38.208323
 21
82.484321
 31
0.0
 11
38.211469
 21
82.503043
 31
0.0
 11
38.205177
 21
82.525675
 31
0.0
 11
38.208323
 21
82.544397
 31
0.0
 11
38.261724
 21
82.551072
 31
0.0
 11
38.335151
 21
82.537722
 31
0.0
 11
38.388552
 21
82.544397
 31
0.0
 11
38.410802
 21
82.582222
 31
0.0
 11
38.426378
 21
82.626723
 31
0.0
 11
38.448628
 21
82.664549
 31
0.0
 11
38.504254
 21
82.689024
 31
0.0
 11
38.573230
 21
82.700150
 31
0.0
 11
38.628857
 21
82.724625
 31
0.0
 11
38.635149
 21
82.762069
 31
0.0
 11
38.622563
 21
82.807333
 31
0.0
 11
38.628857
 21
82.844777
 31
0.0
 11
38.647577
 21
82.847923
 31
0.0
 11
38.670210
 21
82.841630
 31
0.0
 11
38.688933
 21
82.844777
 31
0.0
 11
38.698811
 21
82.941522
 31
0.0
 11
38.698811
 21
83.108487
 31
0.0
 11
38.688933
 21
83.205232
 31
0.0
 11
38.651489
 21
83.211526
 31
0.0
 11
38.606224
 21
83.198939
 31
0.0
 11
38.568781
 21
83.205232
 31
0.0
 11
38.565635
 21
83.223955
 31
0.0
 11
38.571926
 21
83.246587
 31
0.0
 11
38.568781
 21
83.265308
 31
0.0
 11
38.108655
 21
83.318351
 31
0.0
 11
37.267510
 21
83.365256
 31
0.0
 11
36.706424
 21
83.385461
 31
0.0
 11
36.582990
 21
83.393851
 31
0.0
 11
36.400301
 21
83.402240
 31
0.0
 11
36.285892
 21
83.385461
 31
0.0
 11
36.256426
 21
83.346164
 31
0.0
 11
36.227221
 21
83.307130
 31
0.0
 11
36.165740
 21
83.265308
 31
0.0
 11
36.124962
 21
83.263641
 31
0.0
 11
36.081365
 21
83.273915
 31
0.0
 11
36.045590
 21
83.265308
 31
0.0
 11
35.980231
 21
83.184003
 31
0.0
 11
35.901938
 21
83.089764
 31
0.0
 11
35.805285
 21
83.025005
 31
0.0
 11
35.603328
 21
82.957932
 31
0.0
 11
35.678163
 21
82.965324
 31
0.0
 11
35.685132
 21
82.904853
 31
0.0
 11
35.634125
 21
82.896540
 31
0.0
 11
35.561581
 21
82.906742
 31
0.0
 11
35.504906
 21
82.904853
 31
0.0
 11
35.446195
 21
82.848448
 31
0.0
 11
35.414427
 21
82.778814
 31
0.0
 11
35.384753
 21
82.724625
 31
0.0
 11
35.319213
 21
82.705453
 31
0.0
 11
35.239796
 21
82.645707
 31
0.0
 11
35.264601
 21
82.484321
 31
0.0
 11
35.337523
 21
82.376523
 31
0.0
 11
35.434894
 21
82.259877
 31
0.0
 11
35.504906
 21
82.183941
 31
0.0
 11
35.544959
 21
82.175038
 31
0.0
 11
35.585004
 21
82.192844
 31
0.0
 11
35.625056
 21
82.183941
 31
0.0
 11
35.647306
 21
82.146115
 31
0.0
 11
35.662882
 21
82.101615
 31
0.0
 11
35.685132
 21
82.063789
 31
0.0
 11
35.756335
 21
82.054889
 31
0.0
 11
35.854236
 21
82.072689
 31
0.0
 11
35.925437
 21
82.063789
 31
0.0
 11
35.928583
 21
82.045067
 31
0.0
 11
35.922292
 21
82.022435
 31
0.0
 11
35.925437
 21
82.003713
 31
0.0
 11
35.978838
 21
81.997038
 31
0.0
 11
36.052265
 21
82.010388
 31
0.0
 11
36.105666
 21
82.003713
 31
0.0
 11
36.166849
 21
81.922779
 31
0.0
 11
36.192582
 21
81.850594
 31
0.0
 11
36.225816
 21
81.763409
 31
0.0
 11
36.284904
 21
81.664335
 31
0.0
 11
36.287351
 21
81.718592
 31
0.0
 11
36.345969
 21
81.703333
 31
0.0
 11
36.365995
 21
81.652157
 31
0.0
 11
36.386020
 21
81.574281
 31
0.0
 11
36.406045
 21
81.523105
 31
0.0
 11
36.424765
 21
81.519958
 31
0.0
 11
36.447398
 21
81.526252
 31
0.0
 11
36.466121
 21
81.523105
 31
0.0
 11
36.490597
 21
81.467479
 31
0.0
 11
36.501723
 21
81.398503
 31
0.0
 11
36.526197
 21
81.342877
 31
0.0
 11
36.579598
 21
81.336202
 31
0.0
 11
36.653023
 21
81.349552
 31
0.0
 11
36.706424
 21
81.342877
 31
0.0
 11
36.710728
 21
81.324989
 31
0.0
 11
36.705595
 21
81.303190
 31
0.0
 11
36.706424
 21
81.282801
 31
0.0
 11
36.784460
 21
81.213452
 31
0.0
 11
36.906704
 21
81.149140
 31
0.0
 11
37.006805
 21
81.102573
 31
0.0
 11
37.077040
 21
81.085105
 31
0.0
 11
37.142198
 21
81.076852
 31
0.0
 11
37.187031
 21
81.042497
 31
0.0
 11
37.244350
 21
80.756536
 31
0.0
 11
37.246906
 21
80.433248
 31
0.0
 11
37.307184
 21
80.141357
 31
0.0
 11
37.345608
 21
80.099632
 31
0.0
 11
37.393852
 21
80.064980
 31
0.0
 11
37.427337
 21
80.021205
 31
0.0
 11
37.428989
 21
79.981129
 31
0.0
 11
37.422192
 21
79.939682
 31
0.0
 11
37.427337
 21
79.901054
 31
0.0
 11
37.443752
 21
79.896239
 31
0.0
 11
37.467537
 21
79.903367
 31
0.0
 11
37.487413
 21
79.901054
 31
0.0
 11
37.494088
 21
79.847653
 31
0.0
 11
37.480738
 21
79.774226
 31
0.0
 11
37.487413
 21
79.720825
 31
0.0
 11
37.540814
 21
79.714150
 31
0.0
 11
37.614240
 21
79.727501
 31
0.0
 11
37.667639
 21
79.720825
 31
0.0
 11
37.683215
 21
79.669650
 31
0.0
 11
37.658739
 21
79.658524
 31
0.0
 11
37.727715
 21
79.660749
 31
0.0
  0
SPLINE
  5
103
100
AcDbEntity
  8
Silkscreen_Lines
 62
7
100
AcDbSpline
 70
0
 71
3
 72
52
 73
48
 74
46
 40
0.000000
 40
0.000000
 40
0.000000
 40
0.000000
 40
0.532473
 40
0.972251
 40
1.409216
 40
1.625882
 40
1.906874
 40
2.133386
 40
2.291732
 40
2.489452
 40
2.620724
 40
2.639708
 40
2.663199
 40
2.682183
 40
2.723214
 40
2.767040
 40
2.808071
 40
2.851955
 40
2.899103
 40
2.942988
 40
2.980957
 40
3.027939
 40
3.065908
 40
3.126681
 40
3.196548
 40
3.257320
 40
3.345612
 40
3.443287
 40
3.559946
 40
3.618453
 40
3.695292
 40
3.750329
 40
3.769312
 40
3.792804
 40
3.811790
 40
3.860600
 40
3.938426
 40
3.992727
 40
4.221016
 40
4.398070
 40
4.561070
 40
4.621842
 40
4.691710
 40
4.752483
 40
4.817874
 40
4.920360
 40
4.993937
 40
4.993937
 40
4.993937
 40
4.993937
 10
37.247108
 20
80.621965
 30
0.0
 10
37.422673
 20
80.643215
 30
0.0
 10
37.743241
 20
80.682014
 30
0.0
 10
38.223675
 20
80.679671
 30
0.0
 10
38.553134
 20
80.504286
 30
0.0
 10
38.864644
 20
80.459516
 30
0.0
 10
39.106313
 20
80.485249
 30
0.0
 10
39.325543
 20
80.504440
 30
0.0
 10
39.525138
 20
80.501168
 30
0.0
 10
39.667316
 20
80.528026
 30
0.0
 10
39.822529
 20
80.521373
 30
0.0
 10
39.836036
 20
80.582685
 30
0.0
 10
39.825130
 20
80.600870
 30
0.0
 10
39.828946
 20
80.632263
 30
0.0
 10
39.875824
 20
80.636551
 30
0.0
 10
39.906427
 20
80.606425
 30
0.0
 10
39.956880
 20
80.617173
 30
0.0
 10
39.973769
 20
80.661706
 30
0.0
 10
39.987363
 20
80.702003
 30
0.0
 10
40.003855
 20
80.747474
 30
0.0
 10
40.053141
 20
80.752136
 30
0.0
 10
40.088246
 20
80.731962
 30
0.0
 10
40.143842
 20
80.738001
 30
0.0
 10
40.157523
 20
80.803439
 30
0.0
 10
40.162540
 20
80.863060
 30
0.0
 10
40.189253
 20
80.936092
 30
0.0
 10
40.268532
 20
80.972923
 30
0.0
 10
40.355355
 20
81.019027
 30
0.0
 10
40.429418
 20
81.081289
 30
0.0
 10
40.452194
 20
81.164790
 30
0.0
 10
40.469567
 20
81.220688
 30
0.0
 10
40.476362
 20
81.282313
 30
0.0
 10
40.512269
 20
81.288215
 30
0.0
 10
40.529997
 20
81.277488
 30
0.0
 10
40.565238
 20
81.282301
 30
0.0
 10
40.554724
 20
81.346742
 30
0.0
 10
40.556437
 20
81.399834
 30
0.0
 10
40.545398
 20
81.522149
 30
0.0
 10
40.556036
 20
81.674903
 30
0.0
 10
40.528409
 20
81.860970
 30
0.0
 10
40.466652
 20
81.993142
 30
0.0
 10
40.372526
 20
82.032744
 30
0.0
 10
40.311632
 20
82.036019
 30
0.0
 10
40.237698
 20
82.055843
 30
0.0
 10
40.241024
 20
82.144675
 30
0.0
 10
40.244681
 20
82.220310
 30
0.0
 10
40.249072
 20
82.279399
 30
0.0
 10
40.250906
 20
82.304093
 30
0.0
 11
37.247108
 21
80.621965
 31
0.0
 11
37.777072
 21
80.673591
 31
0.0
 11
38.215897
 21
80.644649
 31
0.0
 11
38.628857
 21
80.501813
 31
0.0
 11
38.843244
 21
80.470468
 31
0.0
 11
39.123799
 21
80.486141
 31
0.0
 11
39.349767
 21
80.501813
 31
0.0
 11
39.508067
 21
80.505665
 31
0.0
 11
39.705037
 21
80.522867
 31
0.0
 11
39.830375
 21
80.561889
 31
0.0
 11
39.833521
 21
80.580611
 31
0.0
 11
39.827229
 21
80.603243
 31
0.0
 11
39.830375
 21
80.621965
 31
0.0
 11
39.870429
 21
80.630868
 31
0.0
 11
39.910474
 21
80.613062
 31
0.0
 11
39.950528
 21
80.621965
 31
0.0
 11
39.972778
 21
80.659791
 31
0.0
 11
39.988353
 21
80.704292
 31
0.0
 11
40.010604
 21
80.742117
 31
0.0
 11
40.048048
 21
80.748411
 31
0.0
 11
40.093312
 21
80.735824
 31
0.0
 11
40.130756
 21
80.742117
 31
0.0
 11
40.155232
 21
80.797743
 31
0.0
 11
40.166359
 21
80.866719
 31
0.0
 11
40.190833
 21
80.922345
 31
0.0
 11
40.264074
 21
80.971651
 31
0.0
 11
40.349221
 21
81.019511
 31
0.0
 11
40.431135
 21
81.102573
 31
0.0
 11
40.450559
 21
81.157761
 31
0.0
 11
40.469487
 21
81.232233
 31
0.0
 11
40.491212
 21
81.282801
 31
0.0
 11
40.509931
 21
81.285948
 31
0.0
 11
40.532565
 21
81.279654
 31
0.0
 11
40.551288
 21
81.282801
 31
0.0
 11
40.558355
 21
81.331097
 31
0.0
 11
40.554822
 21
81.408843
 31
0.0
 11
40.551288
 21
81.463029
 31
0.0
 11
40.547996
 21
81.691294
 31
0.0
 11
40.518004
 21
81.865789
 31
0.0
 11
40.431135
 21
82.003713
 31
0.0
 11
40.375510
 21
82.028188
 31
0.0
 11
40.306534
 21
82.039314
 31
0.0
 11
40.250906
 21
82.063789
 31
0.0
 11
40.240499
 21
82.128347
 31
0.0
 11
40.245703
 21
82.230700
 31
0.0
 11
40.250906
 21
82.304093
 31
0.0
  0
SPLINE
  5
104
100
AcDbEntity
  8
Silkscreen_Lines
 62
7
100
AcDbSpline
 70
0
 71
3
 72
25
 73
21
 74
19
 40
0.000000
 40
0.000000
 40
0.000000
 40
0.000000
 40
0.248928
 40
0.428836
 40
0.598531
 40
0.617516
 40
0.641006
 40
0.659990
 40
0.740500
 40
0.876625
 40
0.984255
 40
1.028140
 40
1.075288
 40
1.119173
 40
1.172989
 40
1.247618
 40
1.301434
 40
1.350244
 40
1.428070
 40
1.482371
 40
1.482371
 40
1.482371
 40
1.482371
 10
41.152048
 20
79.780902
 30
0.0
 10
41.104268
 20
79.849630
 30
0.0
 10
41.021957
 20
79.968031
 30
0.0
 10
40.875532
 20
80.099107
 30
0.0
 10
40.744133
 20
80.149642
 30
0.0
 10
40.725647
 20
80.222005
 30
0.0
 10
40.737177
 20
80.240699
 30
0.0
 10
40.728437
 20
80.284902
 30
0.0
 10
40.627589
 20
80.286379
 30
0.0
 10
40.541332
 20
80.332104
 30
0.0
 10
40.439005
 20
80.359314
 30
0.0
 10
40.406808
 20
80.420505
 30
0.0
 10
40.394815
 20
80.461980
 30
0.0
 10
40.374729
 20
80.512467
 30
0.0
 10
40.306708
 20
80.509658
 30
0.0
 10
40.256875
 20
80.494490
 30
0.0
 10
40.179994
 20
80.489468
 30
0.0
 10
40.184918
 20
80.564201
 30
0.0
 10
40.186387
 20
80.619178
 30
0.0
 10
40.189538
 20
80.663731
 30
0.0
 10
40.190833
 20
80.682041
 30
0.0
 11
41.152048
 21
79.780902
 31
0.0
 11
41.001094
 21
79.978836
 31
0.0
 11
40.862678
 21
80.093762
 31
0.0
 11
40.731517
 21
80.201433
 31
0.0
 11
40.728371
 21
80.220156
 31
0.0
 11
40.734662
 21
80.242788
 31
0.0
 11
40.731517
 21
80.261509
 31
0.0
 11
40.656241
 21
80.290062
 31
0.0
 11
40.526931
 21
80.332593
 31
0.0
 11
40.431135
 21
80.381661
 31
0.0
 11
40.408885
 21
80.419487
 31
0.0
 11
40.393309
 21
80.463988
 31
0.0
 11
40.371059
 21
80.501813
 31
0.0
 11
40.317659
 21
80.508488
 31
0.0
 11
40.244233
 21
80.495138
 31
0.0
 11
40.190833
 21
80.501813
 31
0.0
 11
40.183765
 21
80.550109
 31
0.0
 11
40.187299
 21
80.627855
 31
0.0
 11
40.190833
 21
80.682041
 31
0.0
  0
SPLINE
  5
105
100
AcDbEntity
  8
Silkscreen_Lines
 62
7
100
AcDbSpline
 70
0
 71
3
 72
73
 73
69
 74
67
 40
0.000000
 40
0.000000
 40
0.000000
 40
0.000000
 40
0.207622
 40
0.476461
 40
0.678364
 40
0.722755
 40
0.764643
 40
0.813549
 40
0.928904
 40
0.983217
 40
1.043788
 40
1.224345
 40
1.506897
 40
1.707780
 40
1.762081
 40
1.839907
 40
1.888718
 40
1.907701
 40
1.931194
 40
1.950178
 40
1.986976
 40
2.031767
 40
2.072579
 40
2.157520
 40
2.266941
 40
2.341529
 40
2.360511
 40
2.384003
 40
2.402989
 40
2.440958
 40
2.487940
 40
2.525909
 40
2.563878
 40
2.610860
 40
2.648829
 40
2.692714
 40
2.739861
 40
2.783746
 40
2.821714
 40
2.868696
 40
2.906664
 40
2.994559
 40
3.071040
 40
3.163713
 40
3.400882
 40
3.726105
 40
3.983054
 40
4.122639
 40
4.361705
 40
4.537960
 40
4.581845
 40
4.628992
 40
4.672877
 40
4.709675
 40
4.754466
 40
4.795278
 40
4.876693
 40
4.953231
 40
5.015014
 40
5.033996
 40
5.057487
 40
5.076471
 40
5.294895
 40
5.707157
 40
5.977666
 40
6.297943
 40
6.612120
 40
6.940964
 40
6.940964
 40
6.940964
 40
6.940964
 10
37.247108
 20
80.621965
 30
0.0
 10
37.244278
 20
80.528536
 30
0.0
 10
37.237784
 20
80.314129
 30
0.0
 10
37.031804
 20
80.575649
 30
0.0
 10
36.857433
 20
80.734822
 30
0.0
 10
36.798992
 20
80.647228
 30
0.0
 10
36.784290
 20
80.603501
 30
0.0
 10
36.762797
 20
80.551036
 30
0.0
 10
36.691594
 20
80.404473
 30
0.0
 10
36.721406
 20
80.541521
 30
0.0
 10
36.579819
 20
80.478935
 30
0.0
 10
36.639529
 20
80.280590
 30
0.0
 10
36.619252
 20
80.069839
 30
0.0
 10
36.652576
 20
79.890804
 30
0.0
 10
36.640968
 20
79.777777
 30
0.0
 10
36.642980
 20
79.724717
 30
0.0
 10
36.632353
 20
79.660208
 30
0.0
 10
36.667697
 20
79.655499
 30
0.0
 10
36.685097
 20
79.665886
 30
0.0
 10
36.715647
 20
79.662497
 30
0.0
 10
36.717692
 20
79.619143
 30
0.0
 10
36.701750
 20
79.583964
 30
0.0
 10
36.705185
 20
79.524439
 30
0.0
 10
36.747696
 20
79.455785
 30
0.0
 10
36.786652
 20
79.380934
 30
0.0
 10
36.805769
 20
79.303012
 30
0.0
 10
36.847450
 20
79.294749
 30
0.0
 10
36.865361
 20
79.305475
 30
0.0
 10
36.896577
 20
79.302046
 30
0.0
 10
36.894890
 20
79.255551
 30
0.0
 10
36.877755
 20
79.224226
 30
0.0
 10
36.878883
 20
79.172350
 30
0.0
 10
36.930319
 20
79.170920
 30
0.0
 10
36.964003
 20
79.189938
 30
0.0
 10
37.013629
 20
79.185587
 30
0.0
 10
37.030026
 20
79.139884
 30
0.0
 10
37.043633
 20
79.100223
 30
0.0
 10
37.060178
 20
79.054649
 30
0.0
 10
37.109254
 20
79.049823
 30
0.0
 10
37.145241
 20
79.070829
 30
0.0
 10
37.207212
 20
79.059880
 30
0.0
 10
37.239480
 20
78.993123
 30
0.0
 10
37.291301
 20
78.925232
 30
0.0
 10
37.412956
 20
78.859162
 30
0.0
 10
37.547875
 20
78.679793
 30
0.0
 10
37.694270
 20
78.460035
 30
0.0
 10
37.797635
 20
78.216235
 30
0.0
 10
38.016259
 20
78.163150
 30
0.0
 10
38.180342
 20
78.129593
 30
0.0
 10
38.368899
 20
78.114759
 30
0.0
 10
38.412927
 20
78.197735
 30
0.0
 10
38.425030
 20
78.239324
 30
0.0
 10
38.442020
 20
78.283159
 30
0.0
 10
38.488483
 20
78.291559
 30
0.0
 10
38.525566
 20
78.274561
 30
0.0
 10
38.584938
 20
78.275066
 30
0.0
 10
38.630450
 20
78.334861
 30
0.0
 10
38.659420
 20
78.396141
 30
0.0
 10
38.672335
 20
78.457780
 30
0.0
 10
38.709759
 20
78.464835
 30
0.0
 10
38.728292
 20
78.453396
 30
0.0
 10
38.819711
 20
78.475640
 30
0.0
 10
38.696343
 20
78.785133
 30
0.0
 10
38.764816
 20
79.033617
 30
0.0
 10
38.742502
 20
79.379357
 30
0.0
 10
38.761808
 20
79.677894
 30
0.0
 10
38.798114
 20
79.997826
 30
0.0
 10
38.805372
 20
80.212037
 30
0.0
 10
38.809083
 20
80.321586
 30
0.0
 11
37.247108
 21
80.621965
 31
0.0
 11
37.212380
 21
80.417268
 31
0.0
 11
37.006128
 21
80.589705
 31
0.0
 11
36.826576
 21
80.682041
 31
0.0
 11
36.800632
 21
80.646021
 31
0.0
 11
36.785140
 21
80.607104
 31
0.0
 11
36.766500
 21
80.561889
 31
0.0
 11
36.707413
 21
80.462815
 31
0.0
 11
36.704965
 21
80.517072
 31
0.0
 11
36.646347
 21
80.501813
 31
0.0
 11
36.617723
 21
80.323540
 31
0.0
 11
36.632035
 21
80.041350
 31
0.0
 11
36.646347
 21
79.840978
 31
0.0
 11
36.642814
 21
79.786792
 31
0.0
 11
36.639280
 21
79.709046
 31
0.0
 11
36.646347
 21
79.660749
 31
0.0
 11
36.665068
 21
79.657603
 31
0.0
 11
36.687702
 21
79.663896
 31
0.0
 11
36.706424
 21
79.660749
 31
0.0
 11
36.715030
 21
79.624973
 31
0.0
 11
36.704756
 21
79.581376
 31
0.0
 11
36.706424
 21
79.540598
 31
0.0
 11
36.741938
 21
79.463437
 31
0.0
 11
36.788401
 21
79.364372
 31
0.0
 11
36.826576
 21
79.300294
 31
0.0
 11
36.845296
 21
79.297147
 31
0.0
 11
36.867929
 21
79.303440
 31
0.0
 11
36.886653
 21
79.300294
 31
0.0
 11
36.892946
 21
79.262850
 31
0.0
 11
36.880359
 21
79.217586
 31
0.0
 11
36.886653
 21
79.180142
 31
0.0
 11
36.924097
 21
79.173848
 31
0.0
 11
36.969361
 21
79.186435
 31
0.0
 11
37.006805
 21
79.180142
 31
0.0
 11
37.029056
 21
79.142316
 31
0.0
 11
37.044631
 21
79.097815
 31
0.0
 11
37.066881
 21
79.059990
 31
0.0
 11
37.104324
 21
79.053696
 31
0.0
 11
37.149588
 21
79.066283
 31
0.0
 11
37.187031
 21
79.059990
 31
0.0
 11
37.243280
 21
78.992450
 31
0.0
 11
37.291418
 21
78.933019
 31
0.0
 11
37.367260
 21
78.879762
 31
0.0
 11
37.527010
 21
78.704464
 31
0.0
 11
37.700026
 21
78.429083
 31
0.0
 11
37.847868
 21
78.218926
 31
0.0
 11
37.979557
 21
78.172645
 31
0.0
 11
38.214729
 21
78.129671
 31
0.0
 11
38.388552
 21
78.158850
 31
0.0
 11
38.410802
 21
78.196676
 31
0.0
 11
38.426378
 21
78.241176
 31
0.0
 11
38.448628
 21
78.279002
 31
0.0
 11
38.484406
 21
78.287608
 31
0.0
 11
38.528003
 21
78.277334
 31
0.0
 11
38.568781
 21
78.279002
 31
0.0
 11
38.627490
 21
78.335407
 31
0.0
 11
38.659259
 21
78.405041
 31
0.0
 11
38.688933
 21
78.459230
 31
0.0
 11
38.707653
 21
78.462377
 31
0.0
 11
38.730286
 21
78.456083
 31
0.0
 11
38.749007
 21
78.459230
 31
0.0
 11
38.753264
 21
78.677613
 31
0.0
 11
38.751135
 21
79.089868
 31
0.0
 11
38.749007
 21
79.360370
 31
0.0
 11
38.764582
 21
79.680267
 31
0.0
 11
38.793508
 21
79.993110
 31
0.0
 11
38.809083
 21
80.321586
 31
0.0
  0
SPLINE
  5
106
100
AcDbEntity
  8
Silkscreen_Lines
 62
7
100
AcDbSpline
 70
0
 71
3
 72
109
 73
105
 74
103
 40
0.000000
 40
0.000000
 40
0.000000
 40
0.000000
 40
0.153920
 40
0.445258
 40
0.695140
 40
0.797274
 40
0.960780
 40
1.060723
 40
1.145931
 40
1.232767
 40
1.316563
 40
1.414255
 40
1.535302
 40
1.624281
 40
1.643264
 40
1.666756
 40
1.685741
 40
1.763887
 40
1.863056
 40
1.955289
 40
1.974272
 40
1.997764
 40
2.016750
 40
2.054719
 40
2.101700
 40
2.139669
 40
2.159680
 40
2.184514
 40
2.201616
 40
2.317515
 40
2.451180
 40
2.568074
 40
2.711441
 40
2.859914
 40
3.001579
 40
3.059232
 40
3.125514
 40
3.183168
 40
3.295745
 40
3.430189
 40
3.534108
 40
3.633838
 40
3.735046
 40
3.834776
 40
4.045381
 40
4.289237
 40
4.508536
 40
4.724947
 40
5.068364
 40
5.299485
 40
5.351165
 40
5.424423
 40
5.481129
 40
5.578921
 40
5.697460
 40
5.782916
 40
5.820886
 40
5.867867
 40
5.905837
 40
5.943806
 40
5.990787
 40
6.028756
 40
6.072641
 40
6.119788
 40
6.163673
 40
6.200471
 40
6.245262
 40
6.286074
 40
6.350391
 40
6.448792
 40
6.502708
 40
6.539749
 40
6.582869
 40
6.625987
 40
6.792683
 40
7.022043
 40
7.169463
 40
7.287738
 40
7.384660
 40
7.586966
 40
7.699089
 40
7.850551
 40
7.949109
 40
8.115882
 40
8.332272
 40
8.499046
 40
8.594747
 40
8.712695
 40
8.808398
 40
8.886132
 40
8.987296
 40
9.057204
 40
9.189065
 40
9.344501
 40
9.462176
 40
9.502988
 40
9.547779
 40
9.584577
 40
9.756337
 40
9.958332
 40
10.079600
 40
10.155974
 40
10.211836
 40
10.312796
 40
10.312796
 40
10.312796
 40
10.312796
 10
40.190833
 20
80.682041
 30
0.0
 10
40.214983
 20
80.630724
 30
0.0
 10
40.284844
 20
80.482275
 30
0.0
 10
40.030476
 20
80.337319
 30
0.0
 10
39.932698
 20
80.130668
 30
0.0
 10
39.971426
 20
79.959472
 30
0.0
 10
39.989100
 20
79.842142
 30
0.0
 10
39.996835
 20
79.719168
 30
0.0
 10
40.070639
 20
79.657793
 30
0.0
 10
40.137845
 20
79.608598
 30
0.0
 10
40.202553
 20
79.541062
 30
0.0
 10
40.210070
 20
79.433936
 30
0.0
 10
40.223199
 20
79.343680
 30
0.0
 10
40.224686
 20
79.244049
 30
0.0
 10
40.271727
 20
79.234578
 30
0.0
 10
40.290198
 20
79.245855
 30
0.0
 10
40.333019
 20
79.237189
 30
0.0
 10
40.347984
 20
79.158462
 30
0.0
 10
40.384528
 20
79.087393
 30
0.0
 10
40.404498
 20
79.004311
 30
0.0
 10
40.451951
 20
78.994313
 30
0.0
 10
40.469928
 20
79.005102
 30
0.0
 10
40.501152
 20
79.001686
 30
0.0
 10
40.499252
 20
78.954935
 30
0.0
 10
40.483160
 20
78.924858
 30
0.0
 10
40.481288
 20
78.877171
 30
0.0
 10
40.513930
 20
78.875350
 30
0.0
 10
40.531822
 20
78.887814
 30
0.0
 10
40.586237
 20
78.868122
 30
0.0
 10
40.570522
 20
78.751586
 30
0.0
 10
40.583709
 20
78.641333
 30
0.0
 10
40.604515
 20
78.506345
 30
0.0
 10
40.690310
 20
78.396565
 30
0.0
 10
40.771446
 20
78.279979
 30
0.0
 10
40.852286
 20
78.189040
 30
0.0
 10
40.860878
 20
78.097900
 30
0.0
 10
40.842421
 20
78.039537
 30
0.0
 10
40.850299
 20
77.958611
 30
0.0
 10
40.910336
 20
77.873374
 30
0.0
 10
40.963408
 20
77.770320
 30
0.0
 10
41.026505
 20
77.674970
 30
0.0
 10
41.109895
 20
77.614598
 30
0.0
 10
41.193846
 20
77.561435
 30
0.0
 10
41.309269
 20
77.481735
 30
0.0
 10
41.361392
 20
77.284610
 30
0.0
 10
41.314791
 20
77.065619
 30
0.0
 10
41.322944
 20
76.837675
 30
0.0
 10
41.397908
 20
76.579665
 30
0.0
 10
41.405527
 20
76.355804
 30
0.0
 10
41.461964
 20
76.060294
 30
0.0
 10
41.332343
 20
76.044158
 30
0.0
 10
41.275947
 20
76.059234
 30
0.0
 10
41.194153
 20
76.064200
 30
0.0
 10
41.138289
 20
75.976841
 30
0.0
 10
41.081045
 20
75.903123
 30
0.0
 10
41.052228
 20
75.814953
 30
0.0
 10
40.989663
 20
75.805384
 30
0.0
 10
40.955250
 20
75.825306
 30
0.0
 10
40.904092
 20
75.823531
 30
0.0
 10
40.902474
 20
75.772264
 30
0.0
 10
40.921555
 20
75.738526
 30
0.0
 10
40.917172
 20
75.688917
 30
0.0
 10
40.871543
 20
75.672499
 30
0.0
 10
40.831602
 20
75.658968
 30
0.0
 10
40.787373
 20
75.642324
 30
0.0
 10
40.779020
 20
75.595805
 30
0.0
 10
40.796192
 20
75.558636
 30
0.0
 10
40.794889
 20
75.505800
 30
0.0
 10
40.748119
 20
75.452353
 30
0.0
 10
40.708070
 20
75.394789
 30
0.0
 10
40.680163
 20
75.334256
 30
0.0
 10
40.634243
 20
75.318315
 30
0.0
 10
40.594024
 20
75.329982
 30
0.0
 10
40.510585
 20
75.342227
 30
0.0
 10
40.362579
 20
75.315601
 30
0.0
 10
40.189798
 20
75.311370
 30
0.0
 10
40.004941
 20
75.308245
 30
0.0
 10
39.942889
 20
75.426617
 30
0.0
 10
39.817082
 20
75.491992
 30
0.0
 10
39.680805
 20
75.521200
 30
0.0
 10
39.523671
 20
75.510984
 30
0.0
 10
39.410393
 20
75.498648
 30
0.0
 10
39.249158
 20
75.499616
 30
0.0
 10
39.248915
 20
75.711920
 30
0.0
 10
39.270802
 20
75.862475
 30
0.0
 10
39.268953
 20
76.062950
 30
0.0
 10
39.127243
 20
76.091128
 30
0.0
 10
39.032641
 20
76.082551
 30
0.0
 10
38.919478
 20
76.098670
 30
0.0
 10
38.899860
 20
76.200193
 30
0.0
 10
38.891739
 20
76.276361
 30
0.0
 10
38.874970
 20
76.387912
 30
0.0
 10
38.718934
 20
76.393685
 30
0.0
 10
38.611726
 20
76.320225
 30
0.0
 10
38.536651
 20
76.235215
 30
0.0
 10
38.465784
 20
76.231393
 30
0.0
 10
38.427863
 20
76.249743
 30
0.0
 10
38.338482
 20
76.226766
 30
0.0
 10
38.348918
 20
76.025919
 30
0.0
 10
38.493704
 20
75.940777
 30
0.0
 10
38.626814
 20
75.894893
 30
0.0
 10
38.667265
 20
75.818854
 30
0.0
 10
38.715547
 20
75.752492
 30
0.0
 10
38.772450
 20
75.754511
 30
0.0
 10
38.809083
 20
75.755811
 30
0.0
 11
40.190833
 21
80.682041
 31
0.0
 11
40.235465
 21
80.534734
 31
0.0
 11
40.048859
 21
80.311003
 31
0.0
 11
39.950528
 21
80.081281
 31
0.0
 11
39.965764
 21
79.980290
 31
0.0
 11
39.989518
 21
79.818518
 31
0.0
 11
40.010604
 21
79.720825
 31
0.0
 11
40.069832
 21
79.659568
 31
0.0
 11
40.137692
 21
79.605388
 31
0.0
 11
40.190833
 21
79.540598
 31
0.0
 11
40.210267
 21
79.444858
 31
0.0
 11
40.222044
 21
79.324385
 31
0.0
 11
40.250906
 21
79.240218
 31
0.0
 11
40.269627
 21
79.237071
 31
0.0
 11
40.292261
 21
79.243365
 31
0.0
 11
40.310983
 21
79.240218
 31
0.0
 11
40.348425
 21
79.171626
 31
0.0
 11
40.383379
 21
79.078821
 31
0.0
 11
40.431135
 21
78.999914
 31
0.0
 11
40.449855
 21
78.996767
 31
0.0
 11
40.472488
 21
79.003060
 31
0.0
 11
40.491212
 21
78.999914
 31
0.0
 11
40.497505
 21
78.962470
 31
0.0
 11
40.484918
 21
78.917206
 31
0.0
 11
40.491212
 21
78.879762
 31
0.0
 11
40.511088
 21
78.877449
 31
0.0
 11
40.534878
 21
78.884576
 31
0.0
 11
40.551288
 21
78.879762
 31
0.0
 11
40.576677
 21
78.766679
 31
0.0
 11
40.585512
 21
78.633306
 31
0.0
 11
40.611364
 21
78.519306
 31
0.0
 11
40.687637
 21
78.397911
 31
0.0
 11
40.776160
 21
78.278715
 31
0.0
 11
40.851667
 21
78.158850
 31
0.0
 11
40.857005
 21
78.101444
 31
0.0
 11
40.846328
 21
78.036028
 31
0.0
 11
40.851667
 21
77.978622
 31
0.0
 11
40.903676
 21
77.878779
 31
0.0
 11
40.970709
 21
77.762238
 31
0.0
 11
41.031896
 21
77.678242
 31
0.0
 11
41.109771
 21
77.615941
 31
0.0
 11
41.194322
 21
77.560315
 31
0.0
 11
41.272198
 21
77.498014
 31
0.0
 11
41.342335
 21
77.299431
 31
0.0
 11
41.323514
 21
77.056302
 31
0.0
 11
41.332274
 21
76.837179
 31
0.0
 11
41.378445
 21
76.625750
 31
0.0
 11
41.423131
 21
76.285252
 31
0.0
 11
41.392351
 21
76.056191
 31
0.0
 11
41.341343
 21
76.047879
 31
0.0
 11
41.268799
 21
76.058080
 31
0.0
 11
41.212124
 21
76.056191
 31
0.0
 11
41.143193
 21
75.986825
 31
0.0
 11
41.079632
 21
75.886768
 31
0.0
 11
41.031896
 21
75.815887
 31
0.0
 11
40.994451
 21
75.809593
 31
0.0
 11
40.949187
 21
75.822180
 31
0.0
 11
40.911743
 21
75.815887
 31
0.0
 11
40.905451
 21
75.778443
 31
0.0
 11
40.918037
 21
75.733179
 31
0.0
 11
40.911743
 21
75.695735
 31
0.0
 11
40.873917
 21
75.673485
 31
0.0
 11
40.829416
 21
75.657910
 31
0.0
 11
40.791590
 21
75.635660
 31
0.0
 11
40.782985
 21
75.599882
 31
0.0
 11
40.793258
 21
75.556285
 31
0.0
 11
40.791590
 21
75.515507
 31
0.0
 11
40.757094
 21
75.461225
 31
0.0
 11
40.702229
 21
75.379538
 31
0.0
 11
40.671440
 21
75.335278
 31
0.0
 11
40.636603
 21
75.322692
 31
0.0
 11
40.593945
 21
75.328985
 31
0.0
 11
40.551288
 21
75.335278
 31
0.0
 11
40.385037
 21
75.323108
 31
0.0
 11
40.156000
 21
75.310938
 31
0.0
 11
40.010604
 21
75.335278
 31
0.0
 11
39.930770
 21
75.422546
 31
0.0
 11
39.847896
 21
75.472804
 31
0.0
 11
39.650149
 21
75.515507
 31
0.0
 11
39.538107
 21
75.511268
 31
0.0
 11
39.387051
 21
75.500185
 31
0.0
 11
39.289691
 21
75.515507
 31
0.0
 11
39.251866
 21
75.677934
 31
0.0
 11
39.267442
 21
75.893763
 31
0.0
 11
39.229615
 21
76.056191
 31
0.0
 11
39.138390
 21
76.085116
 31
0.0
 11
39.020463
 21
76.087341
 31
0.0
 11
38.929236
 21
76.116267
 31
0.0
 11
38.902844
 21
76.189384
 31
0.0
 11
38.889360
 21
76.289645
 31
0.0
 11
38.869160
 21
76.356571
 31
0.0
 11
38.739647
 21
76.381348
 31
0.0
 11
38.603992
 21
76.305467
 31
0.0
 11
38.508705
 21
76.236419
 31
0.0
 11
38.467927
 21
76.234751
 31
0.0
 11
38.424329
 21
76.245025
 31
0.0
 11
38.388552
 21
76.236419
 31
0.0
 11
38.369229
 21
76.065749
 31
0.0
 11
38.522439
 21
75.934110
 31
0.0
 11
38.628857
 21
75.875963
 31
0.0
 11
38.672633
 21
75.813379
 31
0.0
 11
38.709310
 21
75.771245
 31
0.0
 11
38.809083
 21
75.755811
 31
0.0
  0
SPLINE
  5
107
100
AcDbEntity
  8
Silkscreen_Lines
 62
7
100
AcDbSpline
 70
0
 71
3
 72
67
 73
63
 74
61
 40
0.000000
 40
0.000000
 40
0.000000
 40
0.000000
 40
0.173274
 40
0.442089
 40
0.595254
 40
0.614236
 40
0.637727
 40
0.656713
 40
0.694682
 40
0.741664
 40
0.779633
 40
0.879445
 40
1.001325
 40
1.088285
 40
1.126254
 40
1.173236
 40
1.211206
 40
1.289335
 40
1.383025
 40
1.461157
 40
1.510274
 40
1.559023
 40
1.633379
 40
1.855312
 40
2.241228
 40
2.477434
 40
2.567460
 40
2.657910
 40
2.746708
 40
2.996327
 40
3.275146
 40
3.482928
 40
3.554684
 40
3.654191
 40
3.725946
 40
3.744928
 40
3.768419
 40
3.787405
 40
3.841222
 40
3.915852
 40
3.969669
 40
4.013554
 40
4.060701
 40
4.104584
 40
4.200285
 40
4.318233
 40
4.413936
 40
4.457821
 40
4.504969
 40
4.548854
 40
4.644562
 40
4.777557
 40
4.863062
 40
4.882045
 40
4.905537
 40
4.924523
 40
4.974947
 40
5.034152
 40
5.047942
 40
5.147820
 40
5.248219
 40
5.348618
 40
5.348618
 40
5.348618
 40
5.348618
 10
41.632656
 20
75.575583
 30
0.0
 10
41.599235
 20
75.527629
 30
0.0
 10
41.513966
 20
75.405277
 30
0.0
 10
41.433665
 20
75.239063
 30
0.0
 10
41.440176
 20
75.044945
 30
0.0
 10
41.371562
 20
75.029201
 30
0.0
 10
41.353539
 20
75.040122
 30
0.0
 10
41.322393
 20
75.036598
 30
0.0
 10
41.323729
 20
74.990492
 30
0.0
 10
41.342468
 20
74.957443
 30
0.0
 10
41.333137
 20
74.887649
 30
0.0
 10
41.221109
 20
74.882293
 30
0.0
 10
41.137139
 20
74.874670
 30
0.0
 10
41.029824
 20
74.878039
 30
0.0
 10
41.021457
 20
74.812119
 30
0.0
 10
41.042319
 20
74.776949
 30
0.0
 10
41.034474
 20
74.715176
 30
0.0
 10
40.948186
 20
74.705487
 30
0.0
 10
40.872698
 20
74.705305
 30
0.0
 10
40.793074
 20
74.687216
 30
0.0
 10
40.762564
 20
74.634666
 30
0.0
 10
40.730077
 20
74.587379
 30
0.0
 10
40.629466
 20
74.523104
 30
0.0
 10
40.391858
 20
74.531165
 30
0.0
 10
40.122107
 20
74.509138
 30
0.0
 10
39.871649
 20
74.462599
 30
0.0
 10
39.749802
 20
74.535674
 30
0.0
 10
39.674775
 20
74.584287
 30
0.0
 10
39.540585
 20
74.637170
 30
0.0
 10
39.325403
 20
74.634567
 30
0.0
 10
39.106904
 20
74.659836
 30
0.0
 10
38.864186
 20
74.677216
 30
0.0
 10
38.856741
 20
74.819256
 30
0.0
 10
38.876005
 20
74.884970
 30
0.0
 10
38.890608
 20
74.973096
 30
0.0
 10
38.848045
 20
74.980276
 30
0.0
 10
38.830322
 20
74.969477
 30
0.0
 10
38.793539
 20
74.974736
 30
0.0
 10
38.803903
 20
75.042024
 30
0.0
 10
38.816461
 20
75.090447
 30
0.0
 10
38.819844
 20
75.158782
 30
0.0
 10
38.769156
 20
75.178750
 30
0.0
 10
38.728064
 20
75.190985
 30
0.0
 10
38.668798
 20
75.220127
 30
0.0
 10
38.655925
 20
75.317963
 30
0.0
 10
38.661901
 20
75.412693
 30
0.0
 10
38.648888
 20
75.510442
 30
0.0
 10
38.589897
 20
75.539761
 30
0.0
 10
38.547934
 20
75.551437
 30
0.0
 10
38.486882
 20
75.579938
 30
0.0
 10
38.494182
 20
75.691780
 30
0.0
 10
38.531417
 20
75.774212
 30
0.0
 10
38.544028
 20
75.872367
 30
0.0
 10
38.589636
 20
75.881551
 30
0.0
 10
38.607709
 20
75.870619
 30
0.0
 10
38.642893
 20
75.875535
 30
0.0
 10
38.638872
 20
75.934135
 30
0.0
 10
38.613745
 20
75.968329
 30
0.0
 10
38.643580
 20
76.026784
 30
0.0
 10
38.697684
 20
75.899610
 30
0.0
 10
38.750417
 20
75.843089
 30
0.0
 10
38.789528
 20
75.784904
 30
0.0
 10
38.809083
 20
75.755811
 30
0.0
 11
41.632656
 21
75.575583
 31
0.0
 11
41.536331
 21
75.431551
 31
0.0
 11
41.443693
 21
75.179202
 31
0.0
 11
41.392351
 21
75.034899
 31
0.0
 11
41.373631
 21
75.031754
 31
0.0
 11
41.350998
 21
75.038045
 31
0.0
 11
41.332274
 21
75.034899
 31
0.0
 11
41.325982
 21
74.997455
 31
0.0
 11
41.338568
 21
74.952191
 31
0.0
 11
41.332274
 21
74.914747
 31
0.0
 11
41.237793
 21
74.882565
 31
0.0
 11
41.116062
 21
74.876535
 31
0.0
 11
41.031896
 21
74.854670
 31
0.0
 11
41.025602
 21
74.817227
 31
0.0
 11
41.038189
 21
74.771963
 31
0.0
 11
41.031896
 21
74.734518
 31
0.0
 11
40.958469
 21
74.707821
 31
0.0
 11
40.865017
 21
74.701148
 31
0.0
 11
40.791590
 21
74.674444
 31
0.0
 11
40.762124
 21
74.635148
 31
0.0
 11
40.732920
 21
74.596114
 31
0.0
 11
40.671440
 21
74.554292
 31
0.0
 11
40.451299
 21
74.526155
 31
0.0
 11
40.066575
 21
74.495834
 31
0.0
 11
39.830375
 21
74.494215
 31
0.0
 11
39.750546
 21
74.535831
 31
0.0
 11
39.672750
 21
74.581974
 31
0.0
 11
39.590072
 21
74.614368
 31
0.0
 11
39.341695
 21
74.639234
 31
0.0
 11
39.063788
 21
74.661764
 31
0.0
 11
38.869160
 21
74.734518
 31
0.0
 11
38.860260
 21
74.805720
 31
0.0
 11
38.878060
 21
74.903622
 31
0.0
 11
38.869160
 21
74.974823
 31
0.0
 11
38.850440
 21
74.977969
 31
0.0
 11
38.827807
 21
74.971677
 31
0.0
 11
38.809083
 21
74.974823
 31
0.0
 11
38.802408
 21
75.028224
 31
0.0
 11
38.815758
 21
75.101651
 31
0.0
 11
38.809083
 21
75.155052
 31
0.0
 11
38.771258
 21
75.177302
 31
0.0
 11
38.726757
 21
75.192878
 31
0.0
 11
38.688933
 21
75.215128
 31
0.0
 11
38.660008
 21
75.306353
 31
0.0
 11
38.657783
 21
75.424280
 31
0.0
 11
38.628857
 21
75.515507
 31
0.0
 11
38.591031
 21
75.537758
 31
0.0
 11
38.546530
 21
75.553333
 31
0.0
 11
38.508705
 21
75.575583
 31
0.0
 11
38.496857
 21
75.670556
 31
0.0
 11
38.531751
 21
75.798891
 31
0.0
 11
38.568781
 21
75.875963
 31
0.0
 11
38.587501
 21
75.879109
 31
0.0
 11
38.610134
 21
75.872816
 31
0.0
 11
38.628857
 21
75.875963
 31
0.0
 11
38.635149
 21
75.925993
 31
0.0
 11
38.622563
 21
75.983844
 31
0.0
 11
38.628857
 21
75.996115
 31
0.0
 11
38.693699
 21
75.920147
 31
0.0
 11
38.751391
 21
75.837979
 31
0.0
 11
38.809083
 21
75.755811
 31
0.0
  0
SPLINE
  5
108
100
AcDbEntity
  8
Silkscreen_Lines
 62
7
100
AcDbSpline
 70
0
 71
3
 72
34
 73
30
 74
28
 40
0.000000
 40
0.000000
 40
0.000000
 40
0.000000
 40
0.173037
 40
0.386718
 40
0.559442
 40
0.578425
 40
0.601917
 40
0.620903
 40
0.658872
 40
0.705853
 40
0.743823
 40
0.787707
 40
0.834855
 40
0.878740
 40
0.916709
 40
0.963690
 40
1.001660
 40
1.045544
 40
1.092692
 40
1.136577
 40
1.419895
 40
1.926778
 40
2.280554
 40
2.407176
 40
2.595260
 40
2.702252
 40
2.854514
 40
3.007292
 40
3.160070
 40
3.160070
 40
3.160070
 40
3.160070
 10
38.749007
 20
78.399154
 30
0.0
 10
38.753636
 20
78.340749
 30
0.0
 10
38.763982
 20
78.210221
 30
0.0
 10
38.796575
 20
78.042704
 30
0.0
 10
38.815348
 20
77.870577
 30
0.0
 10
38.889881
 20
77.852732
 30
0.0
 10
38.907983
 20
77.863702
 30
0.0
 10
38.939124
 20
77.860171
 30
0.0
 10
38.937649
 20
77.813997
 30
0.0
 10
38.919624
 20
77.781305
 30
0.0
 10
38.923737
 20
77.731440
 30
0.0
 10
38.969515
 20
77.715118
 30
0.0
 10
39.009133
 20
77.701472
 30
0.0
 10
39.054786
 20
77.684995
 30
0.0
 10
39.059360
 20
77.635702
 30
0.0
 10
39.039393
 20
77.600612
 30
0.0
 10
39.044076
 20
77.551413
 30
0.0
 10
39.089252
 20
77.534511
 30
0.0
 10
39.130794
 20
77.522582
 30
0.0
 10
39.244778
 20
77.458385
 30
0.0
 10
39.168094
 20
77.112636
 30
0.0
 10
39.236032
 20
76.767861
 30
0.0
 10
39.223121
 20
76.432531
 30
0.0
 10
39.238663
 20
76.208540
 30
0.0
 10
39.241504
 20
76.075481
 30
0.0
 10
39.248699
 20
75.905503
 30
0.0
 10
39.084034
 20
75.873366
 30
0.0
 10
38.953162
 20
75.811322
 30
0.0
 10
38.857110
 20
75.774315
 30
0.0
 10
38.809083
 20
75.755811
 30
0.0
 11
38.749007
 21
78.399154
 31
0.0
 11
38.765334
 21
78.226889
 31
0.0
 11
38.797549
 21
78.015650
 31
0.0
 11
38.869160
 21
77.858470
 31
0.0
 11
38.887879
 21
77.855323
 31
0.0
 11
38.910513
 21
77.861617
 31
0.0
 11
38.929236
 21
77.858470
 31
0.0
 11
38.935529
 21
77.821026
 31
0.0
 11
38.922942
 21
77.775762
 31
0.0
 11
38.929236
 21
77.738318
 31
0.0
 11
38.967062
 21
77.716068
 31
0.0
 11
39.011563
 21
77.700493
 31
0.0
 11
39.049388
 21
77.678242
 31
0.0
 11
39.055681
 21
77.640798
 31
0.0
 11
39.043094
 21
77.595534
 31
0.0
 11
39.049388
 21
77.558090
 31
0.0
 11
39.087214
 21
77.535840
 31
0.0
 11
39.131715
 21
77.520265
 31
0.0
 11
39.169541
 21
77.498014
 31
0.0
 11
39.204020
 21
77.216802
 31
0.0
 11
39.223492
 21
76.710293
 31
0.0
 11
39.229615
 21
76.356571
 31
0.0
 11
39.236393
 21
76.230130
 31
0.0
 11
39.243171
 21
76.042168
 31
0.0
 11
39.229615
 21
75.936039
 31
0.0
 11
39.092888
 21
75.869034
 31
0.0
 11
38.950985
 21
75.812423
 31
0.0
 11
38.809083
 21
75.755811
 31
0.0
  0
SPLINE
  5
109
100
AcDbEntity
  8
Silkscreen_Lines
 62
7
100
AcDbSpline
 70
0
 71
3
 72
25
 73
21
 74
19
 40
0.000000
 40
0.000000
 40
0.000000
 40
0.000000
 40
0.201511
 40
0.499022
 40
0.705806
 40
0.751554
 40
0.799703
 40
0.841936
 40
1.039540
 40
1.337396
 40
1.514032
 40
1.552001
 40
1.598983
 40
1.636952
 40
1.836457
 40
2.065841
 40
2.296233
 40
2.547440
 40
2.827354
 40
2.984388
 40
2.984388
 40
2.984388
 40
2.984388
 10
40.491212
 20
78.158850
 30
0.0
 10
40.443600
 20
78.107464
 30
0.0
 10
40.325694
 20
77.980210
 30
0.0
 10
40.341653
 20
77.744724
 30
0.0
 10
40.364680
 20
77.520996
 30
0.0
 10
40.269941
 20
77.474200
 30
0.0
 10
40.224070
 20
77.469462
 30
0.0
 10
40.146899
 20
77.403538
 30
0.0
 10
40.169062
 20
77.196115
 30
0.0
 10
40.090311
 20
77.016239
 30
0.0
 10
40.123928
 20
76.784380
 30
0.0
 10
40.028913
 20
76.765817
 30
0.0
 10
39.991867
 20
76.788621
 30
0.0
 10
39.893232
 20
76.765883
 30
0.0
 10
39.830043
 20
76.598386
 30
0.0
 10
39.732859
 20
76.410216
 30
0.0
 10
39.701912
 20
76.167571
 30
0.0
 10
39.719942
 20
75.919204
 30
0.0
 10
39.705513
 20
75.675049
 30
0.0
 10
39.797364
 20
75.557686
 30
0.0
 10
39.830375
 20
75.515507
 30
0.0
 11
40.491212
 21
78.158850
 31
0.0
 11
40.369442
 21
77.998292
 31
0.0
 11
40.347084
 21
77.701623
 31
0.0
 11
40.310983
 21
77.498014
 31
0.0
 11
40.270210
 21
77.477267
 31
0.0
 11
40.223846
 21
77.464277
 31
0.0
 11
40.190833
 21
77.437938
 31
0.0
 11
40.152447
 21
77.244098
 31
0.0
 11
40.110281
 21
76.949242
 31
0.0
 11
40.070680
 21
76.777103
 31
0.0
 11
40.033236
 21
76.770809
 31
0.0
 11
39.987972
 21
76.783396
 31
0.0
 11
39.950528
 21
76.777103
 31
0.0
 11
39.832968
 21
76.615914
 31
0.0
 11
39.744896
 21
76.404111
 31
0.0
 11
39.710225
 21
76.176343
 31
0.0
 11
39.713958
 21
75.925163
 31
0.0
 11
39.744390
 21
75.646909
 31
0.0
 11
39.830375
 21
75.515507
 31
0.0
  0
SPLINE
  5
10a
100
AcDbEntity
  8
Silkscreen_Lines
 62
7
100
AcDbSpline
 70
0
 71
3
 72
10
 73
6
 74
4
 40
0.000000
 40
0.000000
 40
0.000000
 40
0.000000
 40
0.509312
 40
1.039940
 40
1.594965
 40
1.594965
 40
1.594965
 40
1.594965
 10
40.791590
 20
75.936039
 30
0.0
 10
40.856947
 20
76.093852
 30
0.0
 10
40.990397
 20
76.416084
 30
0.0
 10
41.030542
 20
76.952121
 30
0.0
 10
41.031438
 20
77.313344
 30
0.0
 10
41.031896
 20
77.498014
 30
0.0
 11
40.791590
 21
75.936039
 31
0.0
 11
40.961931
 21
76.416021
 31
0.0
 11
41.023614
 21
76.943051
 31
0.0
 11
41.031896
 21
77.498014
 31
0.0
  0
LINE
  5
10b
100
AcDbEntity
  8
Silkscreen_Lines
 62
7
100
AcDbLine
 10
42.473719
 20
83.385461
 30
0.0
 11
42.473719
 21
83.385461
 31
0.0
  0
SPLINE
  5
10c
100
AcDbEntity
  8
Silkscreen_Lines
 62
7
100
AcDbSpline
 70
0
 71
3
 72
52
 73
48
 74
46
 40
0.000000
 40
0.000000
 40
0.000000
 40
0.000000
 40
0.398458
 40
0.464059
 40
0.595264
 40
0.690966
 40
0.808914
 40
0.904617
 40
1.226258
 40
1.727433
 40
1.997456
 40
2.040575
 40
2.083695
 40
2.120736
 40
2.192491
 40
2.291997
 40
2.363752
 40
2.382736
 40
2.406226
 40
2.425211
 40
2.466242
 40
2.510067
 40
2.551098
 40
2.570083
 40
2.593573
 40
2.612557
 40
2.912531
 40
3.464357
 40
3.768361
 40
3.812245
 40
3.859393
 40
3.903277
 40
3.922260
 40
3.945751
 40
3.964735
 40
4.153975
 40
4.511377
 40
4.745768
 40
4.825869
 40
4.905970
 40
4.986072
 40
5.010949
 40
5.035826
 40
5.050074
 40
5.132029
 40
5.215262
 40
5.298495
 40
5.298495
 40
5.298495
 40
5.298495
 10
42.473719
 20
83.385461
 30
0.0
 10
42.568863
 20
83.632746
 30
0.0
 10
42.679671
 20
83.920744
 30
0.0
 10
42.562157
 20
83.650942
 30
0.0
 10
42.735728
 20
83.732691
 30
0.0
 10
42.745943
 20
83.844086
 30
0.0
 10
42.738257
 20
83.945762
 30
0.0
 10
42.786368
 20
84.138107
 30
0.0
 10
43.205385
 20
84.023457
 30
0.0
 10
43.458679
 20
84.042333
 30
0.0
 10
43.855598
 20
84.023822
 30
0.0
 10
43.859823
 20
84.149922
 30
0.0
 10
43.872354
 20
84.188453
 30
0.0
 10
43.855575
 20
84.244674
 30
0.0
 10
43.767426
 20
84.234173
 30
0.0
 10
43.705770
 20
84.220730
 30
0.0
 10
43.616813
 20
84.205037
 30
0.0
 10
43.609753
 20
84.247634
 30
0.0
 10
43.620340
 20
84.265427
 30
0.0
 10
43.616676
 20
84.296975
 30
0.0
 10
43.569225
 20
84.300832
 30
0.0
 10
43.540934
 20
84.272352
 30
0.0
 10
43.493548
 20
84.276282
 30
0.0
 10
43.489744
 20
84.307674
 30
0.0
 10
43.500819
 20
84.326013
 30
0.0
 10
43.470926
 20
84.443920
 30
0.0
 10
43.052832
 20
84.360122
 30
0.0
 10
42.782590
 20
84.417757
 30
0.0
 10
42.396515
 20
84.610729
 30
0.0
 10
42.329116
 20
84.487845
 30
0.0
 10
42.316573
 20
84.447271
 30
0.0
 10
42.303960
 20
84.406474
 30
0.0
 10
42.272592
 20
84.401267
 30
0.0
 10
42.254185
 20
84.412533
 30
0.0
 10
42.172352
 20
84.393296
 30
0.0
 10
42.278658
 20
84.124608
 30
0.0
 10
42.220252
 20
83.909253
 30
0.0
 10
42.234055
 20
83.676718
 30
0.0
 10
42.233558
 20
83.545675
 30
0.0
 10
42.232404
 20
83.465800
 30
0.0
 10
42.236193
 20
83.403181
 30
0.0
 10
42.230550
 20
83.361294
 30
0.0
 10
42.219616
 20
83.339058
 30
0.0
 10
42.250327
 20
83.305750
 30
0.0
 10
42.318152
 20
83.342170
 30
0.0
 10
42.393378
 20
83.359592
 30
0.0
 10
42.446938
 20
83.376838
 30
0.0
 10
42.473719
 20
83.385461
 30
0.0
 11
42.473719
 21
83.385461
 31
0.0
 11
42.609915
 21
83.759919
 31
0.0
 11
42.592400
 21
83.696699
 31
0.0
 11
42.714024
 21
83.745916
 31
0.0
 11
42.742949
 21
83.837143
 31
0.0
 11
42.745174
 21
83.955070
 31
0.0
 11
42.774100
 21
84.046296
 31
0.0
 11
43.095268
 21
84.063732
 31
0.0
 11
43.595518
 21
84.033296
 31
0.0
 11
43.855465
 21
84.106372
 31
0.0
 11
43.861759
 21
84.149030
 31
0.0
 11
43.868052
 21
84.191687
 31
0.0
 11
43.855465
 21
84.226524
 31
0.0
 11
43.784265
 21
84.235424
 31
0.0
 11
43.686364
 21
84.217624
 31
0.0
 11
43.615163
 21
84.226524
 31
0.0
 11
43.612017
 21
84.245246
 31
0.0
 11
43.618308
 21
84.267878
 31
0.0
 11
43.615163
 21
84.286600
 31
0.0
 11
43.575109
 21
84.295503
 31
0.0
 11
43.535064
 21
84.277697
 31
0.0
 11
43.495010
 21
84.286600
 31
0.0
 11
43.491865
 21
84.305322
 31
0.0
 11
43.498156
 21
84.327954
 31
0.0
 11
43.495010
 21
84.346676
 31
0.0
 11
43.199777
 21
84.399792
 31
0.0
 11
42.655158
 21
84.488687
 31
0.0
 11
42.353566
 21
84.526904
 31
0.0
 11
42.331316
 21
84.489078
 31
0.0
 11
42.315740
 21
84.444578
 31
0.0
 11
42.293490
 21
84.406752
 31
0.0
 11
42.274770
 21
84.403605
 31
0.0
 11
42.252138
 21
84.409899
 31
0.0
 11
42.233416
 21
84.406752
 31
0.0
 11
42.229841
 21
84.217546
 31
0.0
 11
42.231629
 21
83.860148
 31
0.0
 11
42.233416
 21
83.625764
 31
0.0
 11
42.233416
 21
83.545663
 31
0.0
 11
42.233416
 21
83.465562
 31
0.0
 11
42.233416
 21
83.385461
 31
0.0
 11
42.228965
 21
83.360985
 31
0.0
 11
42.224514
 21
83.336509
 31
0.0
 11
42.233416
 21
83.325384
 31
0.0
 11
42.314613
 21
83.336510
 31
0.0
 11
42.394166
 21
83.360985
 31
0.0
 11
42.473719
 21
83.385461
 31
0.0
  0
SPLINE
  5
10d
100
AcDbEntity
  8
Silkscreen_Lines
 62
7
100
AcDbSpline
 70
0
 71
3
 72
91
 73
87
 74
85
 40
0.000000
 40
0.000000
 40
0.000000
 40
0.000000
 40
0.107941
 40
0.215882
 40
0.323630
 40
0.423293
 40
0.479397
 40
0.549923
 40
0.587893
 40
0.634874
 40
0.672844
 40
0.691826
 40
0.715318
 40
0.734304
 40
0.782532
 40
0.866638
 40
0.914865
 40
1.140362
 40
1.521617
 40
1.831404
 40
1.850388
 40
1.873878
 40
1.892863
 40
1.933894
 40
1.977719
 40
2.018750
 40
2.157310
 40
2.433411
 40
2.614062
 40
2.651103
 40
2.694222
 40
2.737342
 40
2.857045
 40
2.967523
 40
3.116759
 40
3.236910
 40
3.357062
 40
3.477214
 40
3.801892
 40
4.296496
 40
4.558651
 40
4.612360
 40
4.652577
 40
4.743525
 40
4.853820
 40
4.922726
 40
5.036620
 40
5.090921
 40
5.168747
 40
5.217558
 40
5.278123
 40
5.332435
 40
5.447793
 40
5.619593
 40
5.820781
 40
5.943860
 40
6.015614
 40
6.115121
 40
6.186878
 40
6.265007
 40
6.358696
 40
6.436829
 40
6.477859
 40
6.521683
 40
6.562714
 40
6.606598
 40
6.653746
 40
6.697631
 40
6.716613
 40
6.740105
 40
6.759091
 40
6.797060
 40
6.844042
 40
6.882011
 40
6.925896
 40
6.973044
 40
7.016928
 40
7.035913
 40
7.059403
 40
7.078387
 40
7.208107
 40
7.430646
 40
7.560361
 40
7.649781
 40
7.781349
 40
7.861431
 40
7.861431
 40
7.861431
 40
7.861431
 10
45.837975
 20
84.827284
 30
0.0
 10
45.825177
 20
84.793745
 30
0.0
 10
45.799579
 20
84.726665
 30
0.0
 10
45.762180
 20
84.624164
 30
0.0
 10
45.721942
 20
84.531850
 30
0.0
 10
45.673779
 20
84.442567
 30
0.0
 10
45.596495
 20
84.441009
 30
0.0
 10
45.534726
 20
84.422448
 30
0.0
 10
45.527540
 20
84.364137
 30
0.0
 10
45.546076
 20
84.331010
 30
0.0
 10
45.547557
 20
84.284851
 30
0.0
 10
45.516182
 20
84.281480
 30
0.0
 10
45.498972
 20
84.291831
 30
0.0
 10
45.463313
 20
84.287260
 30
0.0
 10
45.480243
 20
84.219437
 30
0.0
 10
45.472544
 20
84.169542
 30
0.0
 10
45.474017
 20
84.035887
 30
0.0
 10
45.802787
 20
84.120539
 30
0.0
 10
46.015029
 20
84.064176
 30
0.0
 10
46.353577
 20
84.086181
 30
0.0
 10
46.384473
 20
83.965590
 30
0.0
 10
46.373377
 20
83.947200
 30
0.0
 10
46.377244
 20
83.915879
 30
0.0
 10
46.424124
 20
83.911450
 30
0.0
 10
46.454609
 20
83.942071
 30
0.0
 10
46.542957
 20
83.920373
 30
0.0
 10
46.451839
 20
83.696216
 30
0.0
 10
46.244316
 20
83.740759
 30
0.0
 10
46.035483
 20
83.797818
 30
0.0
 10
46.000780
 20
83.708789
 30
0.0
 10
46.013381
 20
83.668259
 30
0.0
 10
46.020367
 20
83.602110
 30
0.0
 10
46.039984
 20
83.491718
 30
0.0
 10
46.188482
 20
83.495758
 30
0.0
 10
46.307421
 20
83.507966
 30
0.0
 10
46.439071
 20
83.504991
 30
0.0
 10
46.558869
 20
83.505965
 30
0.0
 10
46.746800
 20
83.504172
 30
0.0
 10
47.067086
 20
83.524085
 30
0.0
 10
47.390004
 20
83.443896
 30
0.0
 10
47.729510
 20
83.594796
 30
0.0
 10
47.786333
 20
83.451624
 30
0.0
 10
47.704015
 20
83.416730
 30
0.0
 10
47.846385
 20
83.376739
 30
0.0
 10
47.910395
 20
83.368259
 30
0.0
 10
48.009086
 20
83.314980
 30
0.0
 10
47.996992
 20
83.223649
 30
0.0
 10
48.005995
 20
83.143361
 30
0.0
 10
48.005384
 20
83.084384
 30
0.0
 10
48.014497
 20
83.017004
 30
0.0
 10
47.923150
 20
82.986415
 30
0.0
 10
47.956439
 20
83.120038
 30
0.0
 10
47.849417
 20
82.913496
 30
0.0
 10
47.838113
 20
82.800346
 30
0.0
 10
47.793532
 20
82.638643
 30
0.0
 10
47.790818
 20
82.473671
 30
0.0
 10
47.675002
 20
82.472313
 30
0.0
 10
47.605924
 20
82.495276
 30
0.0
 10
47.505993
 20
82.498666
 30
0.0
 10
47.490317
 20
82.400876
 30
0.0
 10
47.488898
 20
82.327060
 30
0.0
 10
47.479027
 20
82.243274
 30
0.0
 10
47.416486
 20
82.227945
 30
0.0
 10
47.383496
 20
82.259926
 30
0.0
 10
47.333625
 20
82.248743
 30
0.0
 10
47.316729
 20
82.204139
 30
0.0
 10
47.302513
 20
82.164629
 30
0.0
 10
47.290379
 20
82.123477
 30
0.0
 10
47.258769
 20
82.118527
 30
0.0
 10
47.241044
 20
82.129007
 30
0.0
 10
47.209797
 20
82.125613
 30
0.0
 10
47.211327
 20
82.079369
 30
0.0
 10
47.229318
 20
82.046714
 30
0.0
 10
47.225257
 20
81.996805
 30
0.0
 10
47.179281
 20
81.980644
 30
0.0
 10
47.140455
 20
81.966354
 30
0.0
 10
47.099239
 20
81.954155
 30
0.0
 10
47.094116
 20
81.922711
 30
0.0
 10
47.105251
 20
81.904412
 30
0.0
 10
47.092017
 20
81.842698
 30
0.0
 10
46.916740
 20
81.889680
 30
0.0
 10
46.789768
 20
81.873320
 30
0.0
 10
46.618999
 20
81.858633
 30
0.0
 10
46.554392
 20
81.966948
 30
0.0
 10
46.486020
 20
82.038162
 30
0.0
 10
46.451713
 20
82.100339
 30
0.0
 10
46.438733
 20
82.123865
 30
0.0
 11
45.837975
 21
84.827284
 31
0.0
 11
45.799742
 21
84.726341
 31
0.0
 11
45.761508
 21
84.625399
 31
0.0
 11
45.717822
 21
84.526904
 31
0.0
 11
45.655695
 21
84.448975
 31
0.0
 11
45.600582
 21
84.438477
 31
0.0
 11
45.537594
 21
84.406752
 31
0.0
 11
45.531300
 21
84.369308
 31
0.0
 11
45.543887
 21
84.324044
 31
0.0
 11
45.537594
 21
84.286600
 31
0.0
 11
45.518874
 21
84.283453
 31
0.0
 11
45.496241
 21
84.289747
 31
0.0
 11
45.477517
 21
84.286600
 31
0.0
 11
45.473513
 21
84.238539
 31
0.0
 11
45.473513
 21
84.154433
 31
0.0
 11
45.477517
 21
84.106372
 31
0.0
 11
45.701944
 21
84.084423
 31
0.0
 11
46.083164
 21
84.079235
 31
0.0
 11
46.378656
 21
83.986220
 31
0.0
 11
46.381802
 21
83.967498
 31
0.0
 11
46.375511
 21
83.944866
 31
0.0
 11
46.378656
 21
83.926144
 31
0.0
 11
46.418710
 21
83.917241
 31
0.0
 11
46.458755
 21
83.935047
 31
0.0
 11
46.498809
 21
83.926144
 31
0.0
 11
46.472459
 21
83.790113
 31
0.0
 11
46.198639
 21
83.754699
 31
0.0
 11
46.018201
 21
83.745916
 31
0.0
 11
46.005615
 21
83.711079
 31
0.0
 11
46.011908
 21
83.668422
 31
0.0
 11
46.018201
 21
83.625764
 31
0.0
 11
46.060542
 21
83.513799
 31
0.0
 11
46.169634
 21
83.496355
 31
0.0
 11
46.318583
 21
83.505612
 31
0.0
 11
46.438733
 21
83.505612
 31
0.0
 11
46.558885
 21
83.505612
 31
0.0
 11
46.679038
 21
83.505612
 31
0.0
 11
47.003705
 21
83.508215
 31
0.0
 11
47.498302
 21
83.510818
 31
0.0
 11
47.760406
 21
83.505612
 31
0.0
 11
47.769910
 21
83.452751
 31
0.0
 11
47.739365
 21
83.426591
 31
0.0
 11
47.820482
 21
83.385461
 31
0.0
 11
47.926975
 21
83.356751
 31
0.0
 11
47.983867
 21
83.317874
 31
0.0
 11
48.000708
 21
83.205232
 31
0.0
 11
48.004242
 21
83.151047
 31
0.0
 11
48.007776
 21
83.073301
 31
0.0
 11
48.000708
 21
83.025005
 31
0.0
 11
47.942096
 21
83.009746
 31
0.0
 11
47.939650
 21
83.064003
 31
0.0
 11
47.880558
 21
82.964929
 31
0.0
 11
47.833513
 21
82.799695
 31
0.0
 11
47.796875
 21
82.601873
 31
0.0
 11
47.760406
 21
82.484321
 31
0.0
 11
47.689205
 21
82.475421
 31
0.0
 11
47.591303
 21
82.493221
 31
0.0
 11
47.520101
 21
82.484321
 31
0.0
 11
47.493403
 21
82.410895
 31
0.0
 11
47.486730
 21
82.317443
 31
0.0
 11
47.460024
 21
82.244017
 31
0.0
 11
47.419971
 21
82.235114
 31
0.0
 11
47.379927
 21
82.252920
 31
0.0
 11
47.339874
 21
82.244017
 31
0.0
 11
47.317624
 21
82.206191
 31
0.0
 11
47.302049
 21
82.161690
 31
0.0
 11
47.279798
 21
82.123865
 31
0.0
 11
47.261078
 21
82.120718
 31
0.0
 11
47.238445
 21
82.127012
 31
0.0
 11
47.219722
 21
82.123865
 31
0.0
 11
47.213428
 21
82.086421
 31
0.0
 11
47.226015
 21
82.041157
 31
0.0
 11
47.219722
 21
82.003713
 31
0.0
 11
47.181896
 21
81.981462
 31
0.0
 11
47.137395
 21
81.965887
 31
0.0
 11
47.099569
 21
81.943637
 31
0.0
 11
47.096424
 21
81.924915
 31
0.0
 11
47.102715
 21
81.902283
 31
0.0
 11
47.099569
 21
81.883561
 31
0.0
 11
46.970532
 21
81.870266
 31
0.0
 11
46.747993
 21
81.870266
 31
0.0
 11
46.618962
 21
81.883561
 31
0.0
 11
46.560606
 21
81.951313
 31
0.0
 11
46.479644
 21
82.055022
 31
0.0
 11
46.438733
 21
82.123865
 31
0.0
  0
SPLINE
  5
10e
100
AcDbEntity
  8
Silkscreen_Lines
 62
7
100
AcDbSpline
 70
0
 71
3
 72
43
 73
39
 74
37
 40
0.000000
 40
0.000000
 40
0.000000
 40
0.000000
 40
0.122021
 40
0.244043
 40
0.365660
 40
0.393031
 40
0.422896
 40
0.451377
 40
0.508084
 40
0.581341
 40
0.633022
 40
0.677401
 40
0.723630
 40
0.768010
 40
0.828782
 40
0.898650
 40
0.959423
 40
1.122726
 40
1.219056
 40
1.353946
 40
1.410082
 40
1.468558
 40
1.524694
 40
1.565506
 40
1.610297
 40
1.647093
 40
1.690978
 40
1.738125
 40
1.782010
 40
1.867601
 40
2.008595
 40
2.082704
 40
2.204352
 40
2.428068
 40
2.569329
 40
2.735217
 40
2.926934
 40
3.055536
 40
3.055536
 40
3.055536
 40
3.055536
 10
47.940632
 20
82.544397
 30
0.0
 10
47.981002
 20
82.538899
 30
0.0
 10
48.061741
 20
82.527902
 30
0.0
 10
48.181019
 20
82.508159
 30
0.0
 10
48.274445
 20
82.503198
 30
0.0
 10
48.325571
 20
82.469022
 30
0.0
 10
48.338812
 20
82.443500
 30
0.0
 10
48.366806
 20
82.414003
 30
0.0
 10
48.425786
 20
82.423397
 30
0.0
 10
48.480304
 20
82.433724
 30
0.0
 10
48.545330
 20
82.433915
 30
0.0
 10
48.565474
 20
82.384545
 30
0.0
 10
48.577080
 20
82.343116
 30
0.0
 10
48.600480
 20
82.294930
 30
0.0
 10
48.660454
 20
82.276077
 30
0.0
 10
48.724405
 20
82.272795
 30
0.0
 10
48.811818
 20
82.235132
 30
0.0
 10
48.914303
 20
82.111413
 30
0.0
 10
48.774640
 20
82.031716
 30
0.0
 10
48.680768
 20
82.025502
 30
0.0
 10
48.616299
 20
81.967493
 30
0.0
 10
48.586050
 20
81.920937
 30
0.0
 10
48.548963
 20
81.878774
 30
0.0
 10
48.498073
 20
81.879324
 30
0.0
 10
48.461127
 20
81.896057
 30
0.0
 10
48.414598
 20
81.887785
 30
0.0
 10
48.397781
 20
81.843622
 30
0.0
 10
48.385017
 20
81.803297
 30
0.0
 10
48.358965
 20
81.742645
 30
0.0
 10
48.247230
 20
81.766912
 30
0.0
 10
48.174973
 20
81.763705
 30
0.0
 10
48.006484
 20
81.768733
 30
0.0
 10
48.252846
 20
81.706012
 30
0.0
 10
48.362696
 20
81.718808
 30
0.0
 10
48.558106
 20
81.718826
 30
0.0
 10
48.683005
 20
81.599884
 30
0.0
 10
48.820891
 20
81.514216
 30
0.0
 10
48.921522
 20
81.477692
 30
0.0
 10
48.961924
 20
81.463029
 30
0.0
 11
47.940632
 21
82.544397
 31
0.0
 11
48.061458
 21
82.527357
 31
0.0
 11
48.182284
 21
82.510318
 31
0.0
 11
48.301090
 21
82.484321
 31
0.0
 11
48.323139
 21
82.468103
 31
0.0
 11
48.340384
 21
82.443720
 31
0.0
 11
48.361166
 21
82.424245
 31
0.0
 11
48.417841
 21
82.422355
 31
0.0
 11
48.490385
 21
82.432557
 31
0.0
 11
48.541392
 21
82.424245
 31
0.0
 11
48.564004
 21
82.386058
 31
0.0
 11
48.578857
 21
82.342279
 31
0.0
 11
48.601469
 21
82.304093
 31
0.0
 11
48.657095
 21
82.279617
 31
0.0
 11
48.726071
 21
82.268492
 31
0.0
 11
48.781697
 21
82.244017
 31
0.0
 11
48.866510
 21
82.104464
 31
0.0
 11
48.789387
 21
82.046745
 31
0.0
 11
48.661545
 21
82.003713
 31
0.0
 11
48.619137
 21
81.966933
 31
0.0
 11
48.583802
 21
81.920340
 31
0.0
 11
48.541392
 21
81.883561
 31
0.0
 11
48.500614
 21
81.881893
 31
0.0
 11
48.457018
 21
81.892167
 31
0.0
 11
48.421242
 21
81.883561
 31
0.0
 11
48.398992
 21
81.845735
 31
0.0
 11
48.383417
 21
81.801235
 31
0.0
 11
48.361166
 21
81.763409
 31
0.0
 11
48.275705
 21
81.758695
 31
0.0
 11
48.134869
 21
81.765357
 31
0.0
 11
48.060785
 21
81.763409
 31
0.0
 11
48.177407
 21
81.728807
 31
0.0
 11
48.400831
 21
81.717375
 31
0.0
 11
48.541392
 21
81.703333
 31
0.0
 11
48.679095
 21
81.610831
 31
0.0
 11
48.842297
 21
81.510230
 31
0.0
 11
48.961924
 21
81.463029
 31
0.0
  0
SPLINE
  5
10f
100
AcDbEntity
  8
Silkscreen_Lines
 62
7
100
AcDbSpline
 70
0
 71
3
 72
46
 73
42
 74
40
 40
0.000000
 40
0.000000
 40
0.000000
 40
0.000000
 40
0.149100
 40
0.313711
 40
0.470502
 40
0.538700
 40
0.653507
 40
0.718234
 40
0.780016
 40
0.856555
 40
0.937970
 40
1.007860
 40
1.079095
 40
1.159855
 40
1.200667
 40
1.245458
 40
1.282254
 40
1.375489
 40
1.490346
 40
1.585462
 40
1.748996
 40
2.014223
 40
2.155397
 40
2.199281
 40
2.246429
 40
2.290313
 40
2.370822
 40
2.506946
 40
2.614576
 40
2.721780
 40
2.857320
 40
2.965296
 40
3.009181
 40
3.056328
 40
3.100213
 40
3.262983
 40
3.661232
 40
3.893762
 40
4.001995
 40
4.202840
 40
4.322224
 40
4.322224
 40
4.322224
 40
4.322224
 10
48.180937
 20
81.643257
 30
0.0
 10
48.219215
 20
81.611154
 30
0.0
 10
48.299751
 20
81.543607
 30
0.0
 10
48.427415
 20
81.458716
 30
0.0
 10
48.541333
 20
81.375587
 30
0.0
 10
48.560314
 20
81.260149
 30
0.0
 10
48.585909
 20
81.185600
 30
0.0
 10
48.590245
 20
81.095207
 30
0.0
 10
48.662382
 20
81.071077
 30
0.0
 10
48.728651
 20
81.045510
 30
0.0
 10
48.785767
 20
80.988614
 30
0.0
 10
48.806205
 20
80.916205
 30
0.0
 10
48.837422
 20
80.850001
 30
0.0
 10
48.886554
 20
80.799125
 30
0.0
 10
48.944813
 20
80.797428
 30
0.0
 10
48.982695
 20
80.815409
 30
0.0
 10
49.044305
 20
80.799968
 30
0.0
 10
49.073810
 20
80.713429
 30
0.0
 10
49.122183
 20
80.627816
 30
0.0
 10
49.216241
 20
80.539180
 30
0.0
 10
49.396350
 20
80.511815
 30
0.0
 10
49.556830
 20
80.422279
 30
0.0
 10
49.729142
 20
80.414842
 30
0.0
 10
49.767420
 20
80.342930
 30
0.0
 10
49.778698
 20
80.300480
 30
0.0
 10
49.805455
 20
80.245678
 30
0.0
 10
49.900726
 20
80.231967
 30
0.0
 10
49.996303
 20
80.193906
 30
0.0
 10
50.113008
 20
80.152082
 30
0.0
 10
50.165958
 20
80.040969
 30
0.0
 10
50.221217
 20
79.941892
 30
0.0
 10
50.262185
 20
79.850006
 30
0.0
 10
50.322375
 20
79.816093
 30
0.0
 10
50.363403
 20
79.806356
 30
0.0
 10
50.456471
 20
79.757186
 30
0.0
 10
50.085865
 20
79.684360
 30
0.0
 10
49.992302
 20
79.682692
 30
0.0
 10
49.559798
 20
79.782370
 30
0.0
 10
49.706037
 20
79.588124
 30
0.0
 10
49.815876
 20
79.524327
 30
0.0
 10
49.894012
 20
79.448656
 30
0.0
 10
49.923142
 20
79.420446
 30
0.0
 11
48.180937
 21
81.643257
 31
0.0
 11
48.296805
 21
81.549419
 31
0.0
 11
48.431312
 21
81.454528
 31
0.0
 11
48.541392
 21
81.342877
 31
0.0
 11
48.558917
 21
81.276969
 31
0.0
 11
48.584817
 21
81.165121
 31
0.0
 11
48.601469
 21
81.102573
 31
0.0
 11
48.655658
 21
81.072899
 31
0.0
 11
48.725292
 21
81.041131
 31
0.0
 11
48.781697
 21
80.982421
 31
0.0
 11
48.807772
 21
80.917578
 31
0.0
 11
48.839892
 21
80.853994
 31
0.0
 11
48.901850
 21
80.802193
 31
0.0
 11
48.942628
 21
80.800526
 31
0.0
 11
48.986225
 21
80.810799
 31
0.0
 11
49.022000
 21
80.802193
 31
0.0
 11
49.072836
 21
80.724037
 31
0.0
 11
49.131131
 21
80.625072
 31
0.0
 11
49.202229
 21
80.561889
 31
0.0
 11
49.357507
 21
80.510586
 31
0.0
 11
49.609260
 21
80.427124
 31
0.0
 11
49.742913
 21
80.381661
 31
0.0
 11
49.765163
 21
80.343836
 31
0.0
 11
49.780739
 21
80.299335
 31
0.0
 11
49.802989
 21
80.261509
 31
0.0
 11
49.878265
 21
80.232957
 31
0.0
 11
50.007573
 21
80.190425
 31
0.0
 11
50.103368
 21
80.141357
 31
0.0
 11
50.161980
 21
80.051595
 31
0.0
 11
50.224427
 21
79.931297
 31
0.0
 11
50.283597
 21
79.840978
 31
0.0
 11
50.321423
 21
79.818727
 31
0.0
 11
50.365924
 21
79.803152
 31
0.0
 11
50.403749
 21
79.780902
 31
0.0
 11
50.253501
 21
79.718296
 31
0.0
 11
49.855255
 21
79.716786
 31
0.0
 11
49.622760
 21
79.720825
 31
0.0
 11
49.680513
 21
79.629289
 31
0.0
 11
49.835203
 21
79.501187
 31
0.0
 11
49.923142
 21
79.420446
 31
0.0
  0
SPLINE
  5
110
100
AcDbEntity
  8
Silkscreen_Lines
 62
7
100
AcDbSpline
 70
0
 71
3
 72
55
 73
51
 74
49
 40
0.000000
 40
0.000000
 40
0.000000
 40
0.000000
 40
0.118874
 40
0.237747
 40
0.345692
 40
0.474567
 40
0.734413
 40
0.941507
 40
1.001602
 40
1.077195
 40
1.131954
 40
1.216287
 40
1.334465
 40
1.433867
 40
1.454273
 40
1.476668
 40
1.495066
 40
1.514049
 40
1.537541
 40
1.556526
 40
1.575511
 40
1.599001
 40
1.617985
 40
1.636968
 40
1.660459
 40
1.679443
 40
1.717412
 40
1.764394
 40
1.802363
 40
1.857319
 40
1.937728
 40
1.992682
 40
2.062590
 40
2.163754
 40
2.241488
 40
2.333634
 40
2.455805
 40
2.582037
 40
2.672317
 40
2.763470
 40
2.851719
 40
2.896099
 40
2.942329
 40
2.986708
 40
3.040524
 40
3.115154
 40
3.168971
 40
3.228642
 40
3.283433
 40
3.349743
 40
3.349743
 40
3.349743
 40
3.349743
 10
49.923142
 20
79.420446
 30
0.0
 10
49.891892
 20
79.395176
 30
0.0
 10
49.829393
 20
79.344638
 30
0.0
 10
49.738430
 20
79.287073
 30
0.0
 10
49.645178
 20
79.165333
 30
0.0
 10
49.839714
 20
79.072516
 30
0.0
 10
49.945058
 20
78.927892
 30
0.0
 10
50.093096
 20
78.808994
 30
0.0
 10
50.123140
 20
78.697022
 30
0.0
 10
50.137384
 20
78.636328
 30
0.0
 10
50.162173
 20
78.565545
 30
0.0
 10
50.247801
 20
78.529482
 30
0.0
 10
50.323422
 20
78.473585
 30
0.0
 10
50.403196
 20
78.427426
 30
0.0
 10
50.406159
 20
78.377515
 30
0.0
 10
50.397752
 20
78.359504
 30
0.0
 10
50.400444
 20
78.335290
 30
0.0
 10
50.425583
 20
78.334505
 30
0.0
 10
50.441899
 20
78.343621
 30
0.0
 10
50.467712
 20
78.342968
 30
0.0
 10
50.468362
 20
78.317128
 30
0.0
 10
50.459285
 20
78.300945
 30
0.0
 10
50.459958
 20
78.275135
 30
0.0
 10
50.485674
 20
78.274364
 30
0.0
 10
50.502395
 20
78.283985
 30
0.0
 10
50.533921
 20
78.280839
 30
0.0
 10
50.532256
 20
78.234402
 30
0.0
 10
50.514302
 20
78.202148
 30
0.0
 10
50.518750
 20
78.146650
 30
0.0
 10
50.587826
 20
78.138916
 30
0.0
 10
50.641441
 20
78.119955
 30
0.0
 10
50.717921
 20
78.105435
 30
0.0
 10
50.725307
 20
78.017314
 30
0.0
 10
50.733812
 20
77.940765
 30
0.0
 10
50.758238
 20
77.848043
 30
0.0
 10
50.844211
 20
77.793270
 30
0.0
 10
50.923987
 20
77.714399
 30
0.0
 10
51.003313
 20
77.631704
 30
0.0
 10
51.045163
 20
77.536683
 30
0.0
 10
51.073564
 20
77.452594
 30
0.0
 10
51.109374
 20
77.383110
 30
0.0
 10
51.163171
 20
77.353080
 30
0.0
 10
51.205213
 20
77.341965
 30
0.0
 10
51.255314
 20
77.321409
 30
0.0
 10
51.252984
 20
77.254018
 30
0.0
 10
51.236160
 20
77.201144
 30
0.0
 10
51.235707
 20
77.128580
 30
0.0
 10
51.295249
 20
77.107979
 30
0.0
 10
51.354383
 20
77.084414
 30
0.0
 10
51.361221
 20
77.041115
 30
0.0
 10
51.364965
 20
77.017406
 30
0.0
 11
49.923142
 21
79.420446
 31
0.0
 11
49.829378
 21
79.347375
 31
0.0
 11
49.735615
 21
79.274304
 31
0.0
 11
49.682837
 21
79.180142
 31
0.0
 11
49.779234
 21
79.094606
 31
0.0
 11
49.969435
 21
78.917565
 31
0.0
 11
50.103368
 21
78.759610
 31
0.0
 11
50.121439
 21
78.702296
 31
0.0
 11
50.140725
 21
78.629205
 31
0.0
 11
50.163444
 21
78.579382
 31
0.0
 11
50.233644
 21
78.532647
 31
0.0
 11
50.333563
 21
78.469543
 31
0.0
 11
50.403749
 21
78.399154
 31
0.0
 11
50.404578
 21
78.378764
 31
0.0
 11
50.399446
 21
78.356966
 31
0.0
 11
50.403749
 21
78.339078
 31
0.0
 11
50.422469
 21
78.335931
 31
0.0
 11
50.445102
 21
78.342225
 31
0.0
 11
50.463826
 21
78.339078
 31
0.0
 11
50.466971
 21
78.320356
 31
0.0
 11
50.460680
 21
78.297724
 31
0.0
 11
50.463826
 21
78.279002
 31
0.0
 11
50.482545
 21
78.275855
 31
0.0
 11
50.505178
 21
78.282149
 31
0.0
 11
50.523899
 21
78.279002
 31
0.0
 11
50.530193
 21
78.241558
 31
0.0
 11
50.517607
 21
78.196294
 31
0.0
 11
50.523899
 21
78.158850
 31
0.0
 11
50.575077
 21
78.138824
 31
0.0
 11
50.652953
 21
78.118799
 31
0.0
 11
50.704128
 21
78.098774
 31
0.0
 11
50.724328
 21
78.031848
 31
0.0
 11
50.737813
 21
77.931587
 31
0.0
 11
50.764205
 21
77.858470
 31
0.0
 11
50.832990
 21
77.797156
 31
0.0
 11
50.923034
 21
77.714585
 31
0.0
 11
51.004507
 21
77.618166
 31
0.0
 11
51.043665
 21
77.536820
 31
0.0
 11
51.076404
 21
77.451749
 31
0.0
 11
51.124660
 21
77.377862
 31
0.0
 11
51.162846
 21
77.355251
 31
0.0
 11
51.206625
 21
77.340398
 31
0.0
 11
51.244812
 21
77.317786
 31
0.0
 11
51.251487
 21
77.264385
 31
0.0
 11
51.238137
 21
77.190959
 31
0.0
 11
51.244812
 21
77.137558
 31
0.0
 11
51.296145
 21
77.107135
 31
0.0
 11
51.343905
 21
77.080284
 31
0.0
 11
51.364965
 21
77.017406
 31
0.0
  0
SPLINE
  5
111
100
AcDbEntity
  8
Silkscreen_Lines
 62
7
100
AcDbSpline
 70
0
 71
3
 72
19
 73
15
 74
13
 40
0.000000
 40
0.000000
 40
0.000000
 40
0.000000
 40
0.208595
 40
0.512580
 40
0.736615
 40
0.790432
 40
0.865062
 40
0.918878
 40
0.962763
 40
1.009911
 40
1.053796
 40
1.114630
 40
1.161660
 40
1.229751
 40
1.229751
 40
1.229751
 40
1.229751
 10
51.364965
 20
77.017406
 30
0.0
 10
51.296043
 20
76.992622
 30
0.0
 10
51.126680
 20
76.931719
 30
0.0
 10
50.926271
 20
77.031624
 30
0.0
 10
50.644567
 20
77.085475
 30
0.0
 10
50.633715
 20
76.954537
 30
0.0
 10
50.652526
 20
76.900868
 30
0.0
 10
50.654626
 20
76.833590
 30
0.0
 10
50.604132
 20
76.813522
 30
0.0
 10
50.563201
 20
76.800912
 30
0.0
 10
50.514107
 20
76.778916
 30
0.0
 10
50.500638
 20
76.721715
 30
0.0
 10
50.550188
 20
76.660043
 30
0.0
 10
50.495922
 20
76.658100
 30
0.0
 10
50.463826
 20
76.656950
 30
0.0
 11
51.364965
 21
77.017406
 31
0.0
 11
51.163151
 21
76.964652
 31
0.0
 11
50.867401
 21
77.034930
 31
0.0
 11
50.644052
 21
77.017406
 31
0.0
 11
50.637377
 21
76.964006
 31
0.0
 11
50.650727
 21
76.890579
 31
0.0
 11
50.644052
 21
76.837179
 31
0.0
 11
50.606226
 21
76.814928
 31
0.0
 11
50.561725
 21
76.799353
 31
0.0
 11
50.523899
 21
76.777103
 31
0.0
 11
50.512120
 21
76.717419
 31
0.0
 11
50.529790
 21
76.673835
 31
0.0
 11
50.463826
 21
76.656950
 31
0.0
  0
SPLINE
  5
112
100
AcDbEntity
  8
Silkscreen_Lines
 62
7
100
AcDbSpline
 70
0
 71
3
 72
19
 73
15
 74
13
 40
0.000000
 40
0.000000
 40
0.000000
 40
0.000000
 40
0.648651
 40
1.265462
 40
1.883113
 40
2.016633
 40
2.186282
 40
2.307235
 40
2.413117
 40
2.552348
 40
2.631372
 40
2.786483
 40
3.006347
 40
3.132022
 40
3.132022
 40
3.132022
 40
3.132022
 10
50.463826
 20
76.656950
 30
0.0
 10
50.615855
 20
76.501675
 30
0.0
 10
50.912450
 20
76.198745
 30
0.0
 10
51.314126
 20
75.735347
 30
0.0
 10
51.665867
 20
75.383650
 30
0.0
 10
51.675983
 20
75.067037
 30
0.0
 10
51.640820
 20
74.937309
 30
0.0
 10
51.641863
 20
74.781816
 30
0.0
 10
51.775876
 20
74.744326
 30
0.0
 10
51.867406
 20
74.704648
 30
0.0
 10
52.003079
 20
74.678123
 30
0.0
 10
52.002842
 20
74.491246
 30
0.0
 10
52.003890
 20
74.331905
 30
0.0
 10
52.064009
 20
74.230660
 30
0.0
 10
52.085875
 20
74.193837
 30
0.0
 11
50.463826
 21
76.656950
 31
0.0
 11
50.912906
 21
76.188896
 31
0.0
 11
51.327452
 21
75.732161
 31
0.0
 11
51.665344
 21
75.215128
 31
0.0
 11
51.670064
 21
75.081692
 31
0.0
 11
51.645254
 21
74.913867
 31
0.0
 11
51.665344
 21
74.794594
 31
0.0
 11
51.759838
 21
74.746827
 31
0.0
 11
51.891601
 21
74.701841
 31
0.0
 11
51.965725
 21
74.674444
 31
0.0
 11
52.003043
 21
74.523890
 31
0.0
 11
52.028134
 21
74.305462
 31
0.0
 11
52.085875
 21
74.193837
 31
0.0
  0
SPLINE
  5
113
100
AcDbEntity
  8
Silkscreen_Lines
 62
7
100
AcDbSpline
 70
0
 71
3
 72
103
 73
99
 74
97
 40
0.000000
 40
0.000000
 40
0.000000
 40
0.000000
 40
0.109657
 40
0.268057
 40
0.387782
 40
0.502424
 40
0.680883
 40
0.810473
 40
0.879484
 40
0.906369
 40
0.959865
 40
1.041703
 40
1.169388
 40
1.261750
 40
1.672949
 40
2.291351
 40
2.646498
 40
2.705704
 40
2.782269
 40
2.863688
 40
2.904500
 40
2.949291
 40
2.986089
 40
3.048674
 40
3.131664
 40
3.202884
 40
3.271950
 40
3.369086
 40
3.445195
 40
3.579853
 40
3.712445
 40
3.848199
 40
3.889011
 40
3.933801
 40
3.970598
 40
4.014482
 40
4.061629
 40
4.105513
 40
4.285700
 40
4.565995
 40
4.769767
 40
4.824069
 40
4.901894
 40
4.950705
 40
4.988673
 40
5.035655
 40
5.073623
 40
5.117506
 40
5.164654
 40
5.208538
 40
5.245580
 40
5.288700
 40
5.331819
 40
5.679645
 40
6.090099
 40
6.415770
 40
6.604652
 40
6.795044
 40
6.985700
 40
7.079073
 40
7.208283
 40
7.292686
 40
7.364443
 40
7.463950
 40
7.535704
 40
7.554687
 40
7.578178
 40
7.597164
 40
7.650980
 40
7.725609
 40
7.779425
 40
7.798407
 40
7.821898
 40
7.840884
 40
7.878854
 40
7.925836
 40
7.963805
 40
7.982787
 40
8.006278
 40
8.025264
 40
8.063233
 40
8.110215
 40
8.148184
 40
8.167167
 40
8.190658
 40
8.209644
 40
8.281398
 40
8.380905
 40
8.452659
 40
8.471642
 40
8.495133
 40
8.514119
 40
8.552088
 40
8.599070
 40
8.637039
 40
8.718390
 40
8.791425
 40
8.877327
 40
8.877327
 40
8.877327
 40
8.877327
 10
30.458524
 20
70.769504
 30
0.0
 10
30.427845
 20
70.742381
 30
0.0
 10
30.352852
 20
70.676078
 30
0.0
 10
30.241762
 20
70.772243
 30
0.0
 10
30.072837
 20
70.798880
 30
0.0
 10
30.080332
 20
70.626265
 30
0.0
 10
30.088129
 20
70.482311
 30
0.0
 10
30.093611
 20
70.399667
 30
0.0
 10
30.106421
 20
70.250467
 30
0.0
 10
30.089273
 20
70.324294
 30
0.0
 10
30.013653
 20
70.284130
 30
0.0
 10
30.029418
 20
70.191010
 30
0.0
 10
30.028603
 20
70.092707
 30
0.0
 10
30.050931
 20
69.882335
 30
0.0
 10
29.980430
 20
69.503495
 30
0.0
 10
30.010977
 20
69.078081
 30
0.0
 10
29.893521
 20
68.667246
 30
0.0
 10
30.028076
 20
68.564284
 30
0.0
 10
30.088564
 20
68.526977
 30
0.0
 10
30.143032
 20
68.484706
 30
0.0
 10
30.201064
 20
68.481670
 30
0.0
 10
30.238804
 20
68.499622
 30
0.0
 10
30.290581
 20
68.488103
 30
0.0
 10
30.315587
 20
68.426075
 30
0.0
 10
30.355641
 20
68.370483
 30
0.0
 10
30.390220
 20
68.295563
 30
0.0
 10
30.478826
 20
68.291731
 30
0.0
 10
30.554221
 20
68.311667
 30
0.0
 10
30.660901
 20
68.312327
 30
0.0
 10
30.756568
 20
68.240442
 30
0.0
 10
30.881023
 20
68.192653
 30
0.0
 10
30.965830
 20
68.126943
 30
0.0
 10
31.042105
 20
68.121031
 30
0.0
 10
31.079575
 20
68.138871
 30
0.0
 10
31.125944
 20
68.130272
 30
0.0
 10
31.142968
 20
68.086491
 30
0.0
 10
31.155033
 20
68.044917
 30
0.0
 10
31.199928
 20
67.960492
 30
0.0
 10
31.404781
 20
67.984800
 30
0.0
 10
31.608842
 20
67.981574
 30
0.0
 10
31.789798
 20
68.011866
 30
0.0
 10
31.903186
 20
68.000983
 30
0.0
 10
31.957876
 20
68.001048
 30
0.0
 10
32.026752
 20
67.993826
 30
0.0
 10
32.030153
 20
68.049637
 30
0.0
 10
32.010592
 20
68.083372
 30
0.0
 10
32.015118
 20
68.132967
 30
0.0
 10
32.060586
 20
68.149446
 30
0.0
 10
32.101045
 20
68.162737
 30
0.0
 10
32.143649
 20
68.180218
 30
0.0
 10
32.157413
 20
68.223651
 30
0.0
 10
32.145868
 20
68.263584
 30
0.0
 10
32.126863
 20
68.407156
 30
0.0
 10
32.166807
 20
68.675303
 30
0.0
 10
32.180636
 20
69.034229
 30
0.0
 10
32.164832
 20
69.346944
 30
0.0
 10
32.078076
 20
69.566691
 30
0.0
 10
32.024043
 20
69.748752
 30
0.0
 10
31.962334
 20
69.894822
 30
0.0
 10
31.943272
 20
70.033893
 30
0.0
 10
31.925570
 20
70.126304
 30
0.0
 10
31.918263
 20
70.243089
 30
0.0
 10
31.813122
 20
70.238744
 30
0.0
 10
31.750449
 20
70.222531
 30
0.0
 10
31.661738
 20
70.207341
 30
0.0
 10
31.654595
 20
70.249941
 30
0.0
 10
31.665377
 20
70.267648
 30
0.0
 10
31.660182
 20
70.304486
 30
0.0
 10
31.592101
 20
70.293450
 30
0.0
 10
31.547780
 20
70.284362
 30
0.0
 10
31.479620
 20
70.273261
 30
0.0
 10
31.474555
 20
70.310202
 30
0.0
 10
31.484926
 20
70.327579
 30
0.0
 10
31.481625
 20
70.358972
 30
0.0
 10
31.434848
 20
70.356977
 30
0.0
 10
31.404636
 20
70.340972
 30
0.0
 10
31.357832
 20
70.338960
 30
0.0
 10
31.354596
 20
70.370388
 30
0.0
 10
31.364730
 20
70.387630
 30
0.0
 10
31.361495
 20
70.419061
 30
0.0
 10
31.314690
 20
70.417051
 30
0.0
 10
31.284470
 20
70.401037
 30
0.0
 10
31.237718
 20
70.399067
 30
0.0
 10
31.234369
 20
70.430406
 30
0.0
 10
31.244907
 20
70.447969
 30
0.0
 10
31.237907
 20
70.490683
 30
0.0
 10
31.148164
 20
70.474360
 30
0.0
 10
31.090552
 20
70.463889
 30
0.0
 10
31.000816
 20
70.447570
 30
0.0
 10
30.993808
 20
70.490276
 30
0.0
 10
31.004363
 20
70.507855
 30
0.0
 10
31.000943
 20
70.539127
 30
0.0
 10
30.954775
 20
70.537713
 30
0.0
 10
30.921793
 20
70.519077
 30
0.0
 10
30.858763
 20
70.527123
 30
0.0
 10
30.847150
 20
70.602934
 30
0.0
 10
30.852442
 20
70.692279
 30
0.0
 10
30.791721
 20
70.703411
 30
0.0
 10
30.758903
 20
70.709428
 30
0.0
 11
30.458524
 21
70.769504
 31
0.0
 11
30.366187
 21
70.710354
 31
0.0
 11
30.217727
 21
70.765580
 31
0.0
 11
30.098066
 21
70.769504
 31
0.0
 11
30.079187
 21
70.656427
 31
0.0
 11
30.088626
 21
70.478217
 31
0.0
 11
30.098066
 21
70.348972
 31
0.0
 11
30.100292
 21
70.279997
 31
0.0
 11
30.089167
 21
70.304473
 31
0.0
 11
30.037990
 21
70.288896
 31
0.0
 11
30.024668
 21
70.208150
 31
0.0
 11
30.031329
 21
70.080638
 31
0.0
 11
30.037990
 21
69.988517
 31
0.0
 11
30.007392
 21
69.578459
 31
0.0
 11
29.963445
 21
68.961620
 31
0.0
 11
29.977916
 21
68.606768
 31
0.0
 11
30.023432
 21
68.568905
 31
0.0
 11
30.087045
 21
68.526295
 31
0.0
 11
30.158142
 21
68.486618
 31
0.0
 11
30.198920
 21
68.484950
 31
0.0
 11
30.242518
 21
68.495223
 31
0.0
 11
30.278295
 21
68.486618
 31
0.0
 11
30.314070
 21
68.435267
 31
0.0
 11
30.356481
 21
68.363931
 31
0.0
 11
30.398447
 21
68.306389
 31
0.0
 11
30.466569
 21
68.295008
 31
0.0
 11
30.562687
 21
68.309033
 31
0.0
 11
30.638750
 21
68.306389
 31
0.0
 11
30.759192
 21
68.246168
 31
0.0
 11
30.877786
 21
68.186871
 31
0.0
 11
30.999208
 21
68.126160
 31
0.0
 11
31.039986
 21
68.124493
 31
0.0
 11
31.083582
 21
68.134767
 31
0.0
 11
31.119358
 21
68.126160
 31
0.0
 11
31.141608
 21
68.088335
 31
0.0
 11
31.157184
 21
68.043835
 31
0.0
 11
31.179434
 21
68.006010
 31
0.0
 11
31.357144
 21
67.976235
 31
0.0
 11
31.637044
 21
67.991122
 31
0.0
 11
31.840271
 21
68.006010
 31
0.0
 11
31.894457
 21
68.002477
 31
0.0
 11
31.972202
 21
67.998943
 31
0.0
 11
32.020499
 21
68.006010
 31
0.0
 11
32.026792
 21
68.043453
 31
0.0
 11
32.014205
 21
68.088717
 31
0.0
 11
32.020499
 21
68.126160
 31
0.0
 11
32.058323
 21
68.148411
 31
0.0
 11
32.102824
 21
68.163986
 31
0.0
 11
32.140649
 21
68.186237
 31
0.0
 11
32.153236
 21
68.221074
 31
0.0
 11
32.146943
 21
68.263732
 31
0.0
 11
32.140649
 21
68.306389
 31
0.0
 11
32.157768
 21
68.653794
 31
0.0
 11
32.174888
 21
69.063891
 31
0.0
 11
32.140649
 21
69.387757
 31
0.0
 11
32.080920
 21
69.566947
 31
0.0
 11
32.020713
 21
69.747568
 31
0.0
 11
31.960423
 21
69.928441
 31
0.0
 11
31.944473
 21
70.020442
 31
0.0
 11
31.925492
 21
70.148249
 31
0.0
 11
31.900347
 21
70.228820
 31
0.0
 11
31.829144
 21
70.237721
 31
0.0
 11
31.731242
 21
70.219920
 31
0.0
 11
31.660042
 21
70.228820
 31
0.0
 11
31.656896
 21
70.247540
 31
0.0
 11
31.663187
 21
70.270173
 31
0.0
 11
31.660042
 21
70.288896
 31
0.0
 11
31.606641
 21
70.295571
 31
0.0
 11
31.533216
 21
70.282221
 31
0.0
 11
31.479815
 21
70.288896
 31
0.0
 11
31.476670
 21
70.307616
 31
0.0
 11
31.482961
 21
70.330249
 31
0.0
 11
31.479815
 21
70.348972
 31
0.0
 11
31.442371
 21
70.355266
 31
0.0
 11
31.397106
 21
70.342679
 31
0.0
 11
31.359663
 21
70.348972
 31
0.0
 11
31.356517
 21
70.367692
 31
0.0
 11
31.362808
 21
70.390325
 31
0.0
 11
31.359663
 21
70.409049
 31
0.0
 11
31.322219
 21
70.415342
 31
0.0
 11
31.276954
 21
70.402755
 31
0.0
 11
31.239510
 21
70.409049
 31
0.0
 11
31.236365
 21
70.427768
 31
0.0
 11
31.242656
 21
70.450402
 31
0.0
 11
31.239510
 21
70.469125
 31
0.0
 11
31.168310
 21
70.478025
 31
0.0
 11
31.070408
 21
70.460225
 31
0.0
 11
30.999208
 21
70.469125
 31
0.0
 11
30.996062
 21
70.487845
 31
0.0
 11
31.002353
 21
70.510478
 31
0.0
 11
30.999208
 21
70.529201
 31
0.0
 11
30.961763
 21
70.535494
 31
0.0
 11
30.916498
 21
70.522907
 31
0.0
 11
30.879055
 21
70.529201
 31
0.0
 11
30.850180
 21
70.605255
 31
0.0
 11
30.838597
 21
70.677367
 31
0.0
 11
30.758903
 21
70.709428
 31
0.0
  0
SPLINE
  5
114
100
AcDbEntity
  8
Silkscreen_Lines
 62
7
100
AcDbSpline
 70
0
 71
3
 72
25
 73
21
 74
19
 40
0.000000
 40
0.000000
 40
0.000000
 40
0.000000
 40
0.209160
 40
0.497517
 40
0.665425
 40
0.684407
 40
0.707899
 40
0.726884
 40
0.764854
 40
0.811836
 40
0.849805
 40
0.868787
 40
0.892279
 40
0.911264
 40
0.965081
 40
1.039711
 40
1.093528
 40
1.142872
 40
1.167043
 40
1.241318
 40
1.241318
 40
1.241318
 40
1.241318
 10
32.020499
 20
68.726920
 30
0.0
 10
31.949068
 20
68.724859
 30
0.0
 10
31.779158
 20
68.719956
 30
0.0
 10
31.590800
 20
68.772050
 30
0.0
 10
31.370959
 20
68.733697
 30
0.0
 10
31.353961
 20
68.807812
 30
0.0
 10
31.364873
 20
68.825789
 30
0.0
 10
31.361420
 20
68.857014
 30
0.0
 10
31.314721
 20
68.855104
 30
0.0
 10
31.284469
 20
68.839061
 30
0.0
 10
31.237704
 20
68.837075
 30
0.0
 10
31.234397
 20
68.868462
 30
0.0
 10
31.244781
 20
68.885850
 30
0.0
 10
31.239657
 20
68.922739
 30
0.0
 10
31.172257
 20
68.912335
 30
0.0
 10
31.123992
 20
68.899640
 30
0.0
 10
31.053140
 20
68.896620
 30
0.0
 10
31.038336
 20
68.942556
 30
0.0
 10
31.001528
 20
68.977819
 30
0.0
 10
30.965964
 20
68.971781
 30
0.0
 10
30.939131
 20
68.967226
 30
0.0
 11
32.020499
 21
68.726920
 31
0.0
 11
31.811345
 21
68.728487
 31
0.0
 11
31.523990
 21
68.752505
 31
0.0
 11
31.359663
 21
68.786997
 31
0.0
 11
31.356517
 21
68.805717
 31
0.0
 11
31.362808
 21
68.828350
 31
0.0
 11
31.359663
 21
68.847073
 31
0.0
 11
31.322219
 21
68.853367
 31
0.0
 11
31.276954
 21
68.840780
 31
0.0
 11
31.239510
 21
68.847073
 31
0.0
 11
31.236365
 21
68.865793
 31
0.0
 11
31.242656
 21
68.888426
 31
0.0
 11
31.239510
 21
68.907149
 31
0.0
 11
31.186109
 21
68.913824
 31
0.0
 11
31.112683
 21
68.900474
 31
0.0
 11
31.059281
 21
68.907149
 31
0.0
 11
31.031011
 21
68.947592
 31
0.0
 11
31.013341
 21
68.964084
 31
0.0
 11
30.939131
 21
68.967226
 31
0.0
  0
SPLINE
  5
115
100
AcDbEntity
  8
Silkscreen_Lines
 62
7
100
AcDbSpline
 70
0
 71
3
 72
13
 73
9
 74
7
 40
0.000000
 40
0.000000
 40
0.000000
 40
0.000000
 40
0.262878
 40
0.664990
 40
0.902185
 40
0.961855
 40
1.016644
 40
1.082953
 40
1.082953
 40
1.082953
 40
1.082953
 10
31.960423
 20
69.567986
 30
0.0
 10
31.871572
 20
69.569765
 30
0.0
 10
31.646809
 20
69.574265
 30
0.0
 10
31.374229
 20
69.578974
 30
0.0
 10
31.084541
 20
69.508157
 30
0.0
 10
31.028449
 20
69.616916
 30
0.0
 10
31.006515
 20
69.678007
 30
0.0
 10
30.962973
 20
69.684552
 30
0.0
 10
30.939131
 20
69.688136
 30
0.0
 11
31.960423
 21
69.567986
 31
0.0
 11
31.697596
 21
69.573162
 31
0.0
 11
31.295996
 21
69.552890
 31
0.0
 11
31.059281
 21
69.567986
 31
0.0
 11
31.028858
 21
69.619317
 31
0.0
 11
31.002007
 21
69.667076
 31
0.0
 11
30.939131
 21
69.688136
 31
0.0
  0
SPLINE
  5
116
100
AcDbEntity
  8
Silkscreen_Lines
 62
7
100
AcDbSpline
 70
0
 71
3
 72
79
 73
75
 74
73
 40
0.000000
 40
0.000000
 40
0.000000
 40
0.000000
 40
0.154833
 40
0.357500
 40
0.515073
 40
0.568889
 40
0.643520
 40
0.697337
 40
0.716319
 40
0.739810
 40
0.758796
 40
0.795592
 40
0.840383
 40
0.881197
 40
0.937329
 40
0.995807
 40
1.051944
 40
1.154739
 40
1.317114
 40
1.413815
 40
1.502999
 40
1.603503
 40
1.727422
 40
1.777176
 40
1.826929
 40
1.855424
 40
1.869672
 40
1.894550
 40
1.919426
 40
1.973728
 40
2.051553
 40
2.100364
 40
2.153857
 40
2.180741
 40
2.249753
 40
2.422312
 40
2.613342
 40
2.737348
 40
2.775317
 40
2.822299
 40
2.860268
 40
2.931919
 40
3.005615
 40
3.077266
 40
3.245651
 40
3.509998
 40
3.653234
 40
3.702044
 40
3.779870
 40
3.834173
 40
3.859051
 40
3.883927
 40
3.898175
 40
3.912424
 40
3.937301
 40
3.962177
 40
4.062303
 40
4.162430
 40
4.262559
 40
4.664534
 40
5.044046
 40
5.465770
 40
5.631507
 40
5.699953
 40
5.812019
 40
5.865321
 40
5.968440
 40
6.059975
 40
6.213718
 40
6.390471
 40
6.544214
 40
7.063206
 40
7.733280
 40
8.295070
 40
8.295070
 40
8.295070
 40
8.295070
 10
32.921639
 20
69.628060
 30
0.0
 10
32.977785
 20
69.624585
 30
0.0
 10
33.107424
 20
69.616561
 30
0.0
 10
33.163117
 20
69.435066
 30
0.0
 10
33.178704
 20
69.264707
 30
0.0
 10
33.285432
 20
69.258036
 30
0.0
 10
33.335280
 20
69.273250
 30
0.0
 10
33.402367
 20
69.283149
 30
0.0
 10
33.407526
 20
69.246330
 30
0.0
 10
33.397108
 20
69.228844
 30
0.0
 10
33.400489
 20
69.198293
 30
0.0
 10
33.443950
 20
69.196444
 30
0.0
 10
33.478604
 20
69.211394
 30
0.0
 10
33.530155
 20
69.212475
 30
0.0
 10
33.566920
 20
69.169969
 30
0.0
 10
33.597629
 20
69.124158
 30
0.0
 10
33.651968
 20
69.070402
 30
0.0
 10
33.768619
 20
69.079063
 30
0.0
 10
33.879533
 20
69.077389
 30
0.0
 10
34.011745
 20
69.068539
 30
0.0
 10
34.054474
 20
69.169588
 30
0.0
 10
34.065932
 20
69.270884
 30
0.0
 10
34.058713
 20
69.362609
 30
0.0
 10
34.068807
 20
69.438205
 30
0.0
 10
34.090932
 20
69.473812
 30
0.0
 10
34.066795
 20
69.516889
 30
0.0
 10
34.049169
 20
69.492799
 30
0.0
 10
34.060136
 20
69.472448
 30
0.0
 10
34.065384
 20
69.438194
 30
0.0
 10
34.056890
 20
69.385561
 30
0.0
 10
34.058341
 20
69.326526
 30
0.0
 10
34.050150
 20
69.263395
 30
0.0
 10
34.114833
 20
69.232369
 30
0.0
 10
34.131310
 20
69.305810
 30
0.0
 10
34.115271
 20
69.131645
 30
0.0
 10
34.126713
 20
69.042004
 30
0.0
 10
34.145723
 20
68.876586
 30
0.0
 10
34.148393
 20
68.729215
 30
0.0
 10
34.225224
 20
68.715987
 30
0.0
 10
34.261489
 20
68.737691
 30
0.0
 10
34.318498
 20
68.728773
 30
0.0
 10
34.345484
 20
68.665777
 30
0.0
 10
34.380364
 20
68.607123
 30
0.0
 10
34.435569
 20
68.505309
 30
0.0
 10
34.642003
 20
68.577267
 30
0.0
 10
34.775321
 20
68.659226
 30
0.0
 10
34.967461
 20
68.689362
 30
0.0
 10
34.972472
 20
68.786309
 30
0.0
 10
34.969637
 20
68.844869
 30
0.0
 10
34.961994
 20
68.897326
 30
0.0
 10
34.967155
 20
68.932072
 30
0.0
 10
34.978137
 20
68.951147
 30
0.0
 10
34.964225
 20
68.973081
 30
0.0
 10
34.950288
 20
68.951146
 30
0.0
 10
34.961412
 20
68.932072
 30
0.0
 10
34.967684
 20
68.882009
 30
0.0
 10
34.962846
 20
68.807045
 30
0.0
 10
34.964645
 20
68.706891
 30
0.0
 10
34.963159
 20
68.506149
 30
0.0
 10
34.975016
 20
68.212446
 30
0.0
 10
35.017263
 20
67.812372
 30
0.0
 10
35.013248
 20
67.492345
 30
0.0
 10
35.036767
 20
67.270124
 30
0.0
 10
34.988593
 20
67.159942
 30
0.0
 10
34.900209
 20
67.129385
 30
0.0
 10
34.891167
 20
67.034774
 30
0.0
 10
34.875114
 20
66.955249
 30
0.0
 10
34.833904
 20
66.845930
 30
0.0
 10
34.818661
 20
66.702591
 30
0.0
 10
34.871156
 20
66.545421
 30
0.0
 10
34.825386
 20
66.261507
 30
0.0
 10
34.714966
 20
65.827202
 30
0.0
 10
34.765048
 20
65.238063
 30
0.0
 10
34.778059
 20
64.828524
 30
0.0
 10
34.783993
 20
64.641754
 30
0.0
 11
32.921639
 21
69.628060
 31
0.0
 11
33.073012
 21
69.595511
 31
0.0
 11
33.159957
 21
69.412441
 31
0.0
 11
33.222017
 21
69.267604
 31
0.0
 11
33.275418
 21
69.260929
 31
0.0
 11
33.348845
 21
69.274280
 31
0.0
 11
33.402246
 21
69.267604
 31
0.0
 11
33.405392
 21
69.248885
 31
0.0
 11
33.399101
 21
69.226251
 31
0.0
 11
33.402246
 21
69.207528
 31
0.0
 11
33.438022
 21
69.198923
 31
0.0
 11
33.481619
 21
69.209196
 31
0.0
 11
33.522399
 21
69.207528
 31
0.0
 11
33.564806
 21
69.170753
 31
0.0
 11
33.600141
 21
69.124158
 31
0.0
 11
33.642549
 21
69.087376
 31
0.0
 11
33.744735
 21
69.076198
 31
0.0
 11
33.907105
 21
69.074970
 31
0.0
 11
34.003006
 21
69.087376
 31
0.0
 11
34.048061
 21
69.164343
 31
0.0
 11
34.062247
 21
69.263841
 31
0.0
 11
34.063083
 21
69.387757
 31
0.0
 11
34.071983
 21
69.436708
 31
0.0
 11
34.080883
 21
69.485659
 31
0.0
 11
34.063083
 21
69.507910
 31
0.0
 11
34.054181
 21
69.496784
 31
0.0
 11
34.058632
 21
69.472308
 31
0.0
 11
34.063083
 21
69.447833
 31
0.0
 11
34.059549
 21
69.393647
 31
0.0
 11
34.056015
 21
69.315901
 31
0.0
 11
34.063083
 21
69.267604
 31
0.0
 11
34.114257
 21
69.252030
 31
0.0
 11
34.125382
 21
69.276505
 31
0.0
 11
34.123156
 21
69.207528
 31
0.0
 11
34.127251
 21
69.035018
 31
0.0
 11
34.144696
 21
68.844787
 31
0.0
 11
34.183233
 21
68.726920
 31
0.0
 11
34.220677
 21
68.720628
 31
0.0
 11
34.265941
 21
68.733215
 31
0.0
 11
34.303385
 21
68.726920
 31
0.0
 11
34.345661
 21
68.669070
 31
0.0
 11
34.381262
 21
68.604544
 31
0.0
 11
34.423538
 21
68.546694
 31
0.0
 11
34.591077
 21
68.563553
 31
0.0
 11
34.835848
 21
68.663384
 31
0.0
 11
34.964222
 21
68.726920
 31
0.0
 11
34.971289
 21
68.775216
 31
0.0
 11
34.967755
 21
68.852962
 31
0.0
 11
34.964222
 21
68.907149
 31
0.0
 11
34.968673
 21
68.931626
 31
0.0
 11
34.973124
 21
68.956101
 31
0.0
 11
34.964222
 21
68.967226
 31
0.0
 11
34.955320
 21
68.956100
 31
0.0
 11
34.959771
 21
68.931624
 31
0.0
 11
34.964222
 21
68.907149
 31
0.0
 11
34.964222
 21
68.807023
 31
0.0
 11
34.964222
 21
68.706896
 31
0.0
 11
34.964222
 21
68.606768
 31
0.0
 11
34.979797
 21
68.205094
 31
0.0
 11
35.008723
 21
67.826686
 31
0.0
 11
35.024298
 21
67.405250
 31
0.0
 11
35.019730
 21
67.239576
 31
0.0
 11
34.988462
 21
67.178689
 31
0.0
 11
34.904146
 21
67.104869
 31
0.0
 11
34.892280
 21
67.052904
 31
0.0
 11
34.871439
 21
66.951913
 31
0.0
 11
34.844069
 21
66.864566
 31
0.0
 11
34.829829
 21
66.711484
 31
0.0
 11
34.858310
 21
66.537041
 31
0.0
 11
34.844069
 21
66.383958
 31
0.0
 11
34.752496
 21
65.873109
 31
0.0
 11
34.761569
 21
65.203096
 31
0.0
 11
34.783993
 21
64.641754
 31
0.0
  0
SPLINE
  5
117
100
AcDbEntity
  8
Silkscreen_Lines
 62
7
100
AcDbSpline
 70
0
 71
3
 72
55
 73
51
 74
49
 40
0.000000
 40
0.000000
 40
0.000000
 40
0.000000
 40
0.233313
 40
0.460531
 40
0.687465
 40
0.767053
 40
0.892755
 40
0.988711
 40
1.257274
 40
1.549123
 40
1.771732
 40
1.878936
 40
2.014475
 40
2.122451
 40
2.141433
 40
2.164924
 40
2.183910
 40
2.221879
 40
2.268861
 40
2.306830
 40
2.325812
 40
2.349304
 40
2.368289
 40
2.386685
 40
2.409082
 40
2.429490
 40
2.610902
 40
2.790157
 40
2.955246
 40
3.030770
 40
3.094662
 40
3.176104
 40
3.254941
 40
3.345113
 40
3.425868
 40
3.555542
 40
3.710777
 40
3.829692
 40
3.848674
 40
3.872165
 40
3.891151
 40
4.132706
 40
4.543513
 40
4.800775
 40
4.857497
 40
4.916896
 40
4.972008
 40
5.199994
 40
5.460270
 40
5.695462
 40
5.695462
 40
5.695462
 40
5.695462
 10
35.084374
 20
69.087376
 30
0.0
 10
35.092646
 20
69.165155
 30
0.0
 10
35.108974
 20
69.318682
 30
0.0
 10
35.188546
 20
69.532967
 30
0.0
 10
35.272087
 20
69.698130
 30
0.0
 10
35.261149
 20
69.843423
 30
0.0
 10
35.250024
 20
69.943076
 30
0.0
 10
35.267573
 20
70.107284
 30
0.0
 10
35.374395
 20
70.304475
 30
0.0
 10
35.444284
 20
70.550204
 30
0.0
 10
35.523886
 20
70.756442
 30
0.0
 10
35.664988
 20
70.832701
 30
0.0
 10
35.759097
 20
70.890608
 30
0.0
 10
35.859276
 20
70.917956
 30
0.0
 10
35.871020
 20
70.970501
 30
0.0
 10
35.860161
 20
70.988536
 30
0.0
 10
35.863598
 20
71.019745
 30
0.0
 10
35.910312
 20
71.017835
 30
0.0
 10
35.940524
 20
71.001818
 30
0.0
 10
35.987390
 20
70.999760
 30
0.0
 10
35.990492
 20
71.031295
 30
0.0
 10
35.980841
 20
71.048153
 30
0.0
 10
35.981752
 20
71.073158
 30
0.0
 10
36.005912
 20
71.075921
 30
0.0
 10
36.024043
 20
71.067295
 30
0.0
 10
36.101312
 20
71.074529
 30
0.0
 10
36.188765
 20
71.188531
 30
0.0
 10
36.280062
 20
71.333066
 30
0.0
 10
36.324276
 20
71.465861
 30
0.0
 10
36.389304
 20
71.552030
 30
0.0
 10
36.463963
 20
71.565292
 30
0.0
 10
36.532904
 20
71.603543
 30
0.0
 10
36.564494
 20
71.686113
 30
0.0
 10
36.564889
 20
71.769245
 30
0.0
 10
36.587580
 20
71.867629
 30
0.0
 10
36.643338
 20
71.978503
 30
0.0
 10
36.701641
 20
72.091416
 30
0.0
 10
36.731311
 20
72.203916
 30
0.0
 10
36.787108
 20
72.217158
 30
0.0
 10
36.805968
 20
72.205427
 30
0.0
 10
36.904103
 20
72.230225
 30
0.0
 10
36.831406
 20
72.547722
 30
0.0
 10
36.933797
 20
72.788356
 30
0.0
 10
36.897350
 20
73.062942
 30
0.0
 10
36.983906
 20
73.157549
 30
0.0
 10
37.035142
 20
73.184393
 30
0.0
 10
37.103962
 20
73.280112
 30
0.0
 10
37.094433
 20
73.473523
 30
0.0
 10
37.081777
 20
73.709516
 30
0.0
 10
37.071676
 20
73.874985
 30
0.0
 10
37.066881
 20
73.953531
 30
0.0
 11
35.084374
 21
69.087376
 31
0.0
 11
35.118681
 21
69.318153
 31
0.0
 11
35.193214
 21
69.532799
 31
0.0
 11
35.264601
 21
69.748212
 31
0.0
 11
35.261957
 21
69.827756
 31
0.0
 11
35.254110
 21
69.953213
 31
0.0
 11
35.264601
 21
70.048594
 31
0.0
 11
35.361146
 21
70.299203
 31
0.0
 11
35.456886
 21
70.574902
 31
0.0
 11
35.564982
 21
70.769504
 31
0.0
 11
35.654744
 21
70.828116
 31
0.0
 11
35.775041
 21
70.890563
 31
0.0
 11
35.865361
 21
70.949733
 31
0.0
 11
35.868507
 21
70.968452
 31
0.0
 11
35.862215
 21
70.991086
 31
0.0
 11
35.865361
 21
71.009809
 31
0.0
 11
35.902805
 21
71.016101
 31
0.0
 11
35.948069
 21
71.003515
 31
0.0
 11
35.985514
 21
71.009809
 31
0.0
 11
35.988659
 21
71.028529
 31
0.0
 11
35.982368
 21
71.051162
 31
0.0
 11
35.985514
 21
71.069885
 31
0.0
 11
36.003400
 21
71.074183
 31
0.0
 11
36.025199
 21
71.069044
 31
0.0
 11
36.045590
 21
71.069885
 31
0.0
 11
36.184165
 21
71.186963
 31
0.0
 11
36.276145
 21
71.340821
 31
0.0
 11
36.345969
 21
71.490417
 31
0.0
 11
36.396881
 21
71.546201
 31
0.0
 11
36.457174
 21
71.567344
 31
0.0
 11
36.526197
 21
71.610569
 31
0.0
 11
36.558484
 21
71.682493
 31
0.0
 11
36.568419
 21
71.772115
 31
0.0
 11
36.586274
 21
71.850872
 31
0.0
 11
36.638962
 21
71.969359
 31
0.0
 11
36.703091
 21
72.110729
 31
0.0
 11
36.766500
 21
72.211327
 31
0.0
 11
36.785220
 21
72.214472
 31
0.0
 11
36.807853
 21
72.208181
 31
0.0
 11
36.826576
 21
72.211327
 31
0.0
 11
36.869487
 21
72.449040
 31
0.0
 11
36.909943
 21
72.857850
 31
0.0
 11
36.946729
 21
73.112469
 31
0.0
 11
36.985153
 21
73.154194
 31
0.0
 11
37.033397
 21
73.188846
 31
0.0
 11
37.066881
 21
73.232619
 31
0.0
 11
37.095004
 21
73.458864
 31
0.0
 11
37.080943
 21
73.718760
 31
0.0
 11
37.066881
 21
73.953531
 31
0.0
  0
SPLINE
  5
118
100
AcDbEntity
  8
Silkscreen_Lines
 62
7
100
AcDbSpline
 70
0
 71
3
 72
55
 73
51
 74
49
 40
0.000000
 40
0.000000
 40
0.000000
 40
0.000000
 40
0.190173
 40
0.413182
 40
0.606517
 40
0.718243
 40
0.834024
 40
0.947634
 40
1.024175
 40
1.116574
 40
1.195934
 40
1.289838
 40
1.361033
 40
1.551520
 40
1.593270
 40
1.637335
 40
1.673957
 40
1.718336
 40
1.764566
 40
1.808945
 40
1.952754
 40
2.144919
 40
2.247696
 40
2.296812
 40
2.345561
 40
2.419919
 40
2.476626
 40
2.549885
 40
2.601566
 40
2.620548
 40
2.644039
 40
2.663025
 40
2.752005
 40
2.873052
 40
2.970744
 40
3.052158
 40
3.128697
 40
3.190480
 40
3.243782
 40
3.346901
 40
3.438435
 40
3.654516
 40
3.967842
 40
4.181359
 40
4.293238
 40
4.486206
 40
4.603684
 40
4.731714
 40
4.860151
 40
4.988588
 40
4.988588
 40
4.988588
 40
4.988588
 10
52.746712
 20
70.949733
 30
0.0
 10
52.745185
 20
71.013230
 30
0.0
 10
52.741867
 20
71.151190
 30
0.0
 10
52.737311
 20
71.351106
 30
0.0
 10
52.712479
 20
71.532935
 30
0.0
 10
52.617106
 20
71.641633
 30
0.0
 10
52.525859
 20
71.706695
 30
0.0
 10
52.444152
 20
71.775569
 30
0.0
 10
52.418979
 20
71.867821
 30
0.0
 10
52.406954
 20
71.953586
 30
0.0
 10
52.397963
 20
72.026230
 30
0.0
 10
52.307651
 20
72.152579
 30
0.0
 10
52.355898
 20
71.930289
 30
0.0
 10
52.263276
 20
72.170382
 30
0.0
 10
52.264225
 20
72.253292
 30
0.0
 10
52.280002
 20
72.292890
 30
0.0
 10
52.269684
 20
72.337952
 30
0.0
 10
52.226757
 20
72.355535
 30
0.0
 10
52.184538
 20
72.366810
 30
0.0
 10
52.112997
 20
72.406065
 30
0.0
 10
52.091759
 20
72.547567
 30
0.0
 10
52.042267
 20
72.674122
 30
0.0
 10
52.047538
 20
72.806012
 30
0.0
 10
51.985520
 20
72.841104
 30
0.0
 10
51.939955
 20
72.873922
 30
0.0
 10
51.899282
 20
72.924175
 30
0.0
 10
51.903240
 20
72.996447
 30
0.0
 10
51.912880
 20
73.048385
 30
0.0
 10
51.920293
 20
73.112673
 30
0.0
 10
51.884468
 20
73.117838
 30
0.0
 10
51.866482
 20
73.106889
 30
0.0
 10
51.819231
 20
73.116217
 30
0.0
 10
51.818044
 20
73.216014
 30
0.0
 10
51.804150
 20
73.305989
 30
0.0
 10
51.798811
 20
73.412975
 30
0.0
 10
51.731771
 20
73.475648
 30
0.0
 10
51.666811
 20
73.501836
 30
0.0
 10
51.596624
 20
73.523457
 30
0.0
 10
51.593997
 20
73.604566
 30
0.0
 10
51.574699
 20
73.681946
 30
0.0
 10
51.533433
 20
73.813094
 30
0.0
 10
51.453834
 20
74.010821
 30
0.0
 10
51.408497
 20
74.220732
 30
0.0
 10
51.367118
 20
74.514470
 30
0.0
 10
51.572205
 20
74.504984
 30
0.0
 10
51.698116
 20
74.508695
 30
0.0
 10
51.859756
 20
74.512666
 30
0.0
 10
51.929131
 20
74.393952
 30
0.0
 10
52.008453
 20
74.297125
 30
0.0
 10
52.060068
 20
74.228266
 30
0.0
 10
52.085875
 20
74.193837
 30
0.0
 11
52.746712
 21
70.949733
 31
0.0
 11
52.742176
 21
71.139851
 31
0.0
 11
52.732368
 21
71.362645
 31
0.0
 11
52.686635
 21
71.550493
 31
0.0
 11
52.615783
 21
71.636879
 31
0.0
 11
52.525303
 21
71.709119
 31
0.0
 11
52.446333
 21
71.790795
 31
0.0
 11
52.421802
 21
71.863299
 31
0.0
 11
52.407048
 21
71.954512
 31
0.0
 11
52.386256
 21
72.031101
 31
0.0
 11
52.326240
 21
72.103322
 31
0.0
 11
52.331172
 21
72.032298
 31
0.0
 11
52.266104
 21
72.211327
 31
0.0
 11
52.266765
 21
72.253071
 31
0.0
 11
52.275875
 21
72.296185
 31
0.0
 11
52.266104
 21
72.331479
 31
0.0
 11
52.227917
 21
72.354091
 31
0.0
 11
52.184138
 21
72.368944
 31
0.0
 11
52.145951
 21
72.391556
 31
0.0
 11
52.090953
 21
72.524432
 31
0.0
 11
52.048225
 21
72.711786
 31
0.0
 11
52.025799
 21
72.812087
 31
0.0
 11
51.986504
 21
72.841554
 31
0.0
 11
51.947471
 21
72.870758
 31
0.0
 11
51.905649
 21
72.932240
 31
0.0
 11
51.903753
 21
72.988915
 31
0.0
 11
51.913958
 21
73.061460
 31
0.0
 11
51.905649
 21
73.112469
 31
0.0
 11
51.886929
 21
73.115614
 31
0.0
 11
51.864296
 21
73.109323
 31
0.0
 11
51.845572
 21
73.112469
 31
0.0
 11
51.816703
 21
73.196635
 31
0.0
 11
51.804929
 21
73.317108
 31
0.0
 11
51.785496
 21
73.412847
 31
0.0
 11
51.729091
 21
73.471557
 31
0.0
 11
51.659457
 21
73.503326
 31
0.0
 11
51.605267
 21
73.533000
 31
0.0
 11
51.593402
 21
73.584965
 31
0.0
 11
51.572561
 21
73.685956
 31
0.0
 11
51.545191
 21
73.773303
 31
0.0
 11
51.472223
 21
73.976691
 31
0.0
 11
51.401706
 21
74.281978
 31
0.0
 11
51.425041
 21
74.494215
 31
0.0
 11
51.536120
 21
74.507580
 31
0.0
 11
51.729079
 21
74.509391
 31
0.0
 11
51.845572
 21
74.494215
 31
0.0
 11
51.930370
 21
74.398293
 31
0.0
 11
52.008123
 21
74.296065
 31
0.0
 11
52.085875
 21
74.193837
 31
0.0
  0
SPLINE
  5
119
100
AcDbEntity
  8
Silkscreen_Lines
 62
7
100
AcDbSpline
 70
0
 71
3
 72
58
 73
54
 74
52
 40
0.000000
 40
0.000000
 40
0.000000
 40
0.000000
 40
0.122495
 40
0.300991
 40
0.434158
 40
0.454168
 40
0.479003
 40
0.496105
 40
0.877133
 40
1.401887
 40
1.736158
 40
1.780042
 40
1.827190
 40
1.871074
 40
1.909044
 40
1.956026
 40
1.993994
 40
2.143326
 40
2.321677
 40
2.463288
 40
2.501256
 40
2.548238
 40
2.586206
 40
2.639701
 40
2.666586
 40
2.735598
 40
2.861675
 40
2.956793
 40
3.096825
 40
3.259985
 40
3.436449
 40
3.526903
 40
3.724007
 40
3.977490
 40
4.190909
 40
4.234028
 40
4.277148
 40
4.314190
 40
4.333172
 40
4.356663
 40
4.375649
 40
4.436421
 40
4.506289
 40
4.567062
 40
4.586044
 40
4.609536
 40
4.628521
 40
4.669552
 40
4.713376
 40
4.754407
 40
4.850978
 40
4.954418
 40
5.121102
 40
5.121102
 40
5.121102
 40
5.121102
 10
52.626559
 20
68.426542
 30
0.0
 10
52.607765
 20
68.465908
 30
0.0
 10
52.561584
 20
68.562639
 30
0.0
 10
52.630823
 20
68.679576
 30
0.0
 10
52.668542
 20
68.841245
 30
0.0
 10
52.604446
 20
68.852166
 30
0.0
 10
52.585611
 20
68.838720
 30
0.0
 10
52.446449
 20
68.896935
 30
0.0
 10
52.514999
 20
69.309897
 30
0.0
 10
52.353041
 20
69.636435
 30
0.0
 10
52.353749
 20
69.999191
 30
0.0
 10
52.227601
 20
70.073245
 30
0.0
 10
52.185730
 20
70.085050
 30
0.0
 10
52.140730
 20
70.102061
 30
0.0
 10
52.135678
 20
70.150957
 30
0.0
 10
52.157131
 20
70.187291
 30
0.0
 10
52.139786
 20
70.269361
 30
0.0
 10
52.013938
 20
70.324760
 30
0.0
 10
51.914015
 20
70.437065
 30
0.0
 10
51.790720
 20
70.491398
 30
0.0
 10
51.774512
 20
70.570566
 30
0.0
 10
51.795024
 20
70.607922
 30
0.0
 10
51.792880
 20
70.656640
 30
0.0
 10
51.733800
 20
70.684579
 30
0.0
 10
51.717143
 20
70.611023
 30
0.0
 10
51.732278
 20
70.757541
 30
0.0
 10
51.716789
 20
70.824913
 30
0.0
 10
51.620797
 20
70.912741
 30
0.0
 10
51.530974
 20
71.009074
 30
0.0
 10
51.489566
 20
71.172017
 30
0.0
 10
51.475698
 20
71.304647
 30
0.0
 10
51.470400
 20
71.484510
 30
0.0
 10
51.720918
 20
71.450251
 30
0.0
 10
51.914238
 20
71.455009
 30
0.0
 10
52.089195
 20
71.420948
 30
0.0
 10
52.189182
 20
71.435983
 30
0.0
 10
52.227039
 20
71.445891
 30
0.0
 10
52.267576
 20
71.439104
 30
0.0
 10
52.271335
 20
71.409222
 30
0.0
 10
52.260677
 20
71.391225
 30
0.0
 10
52.267109
 20
71.353691
 30
0.0
 10
52.329321
 20
71.345062
 30
0.0
 10
52.383111
 20
71.335386
 30
0.0
 10
52.445333
 20
71.326764
 30
0.0
 10
52.451750
 20
71.289227
 30
0.0
 10
52.441140
 20
71.271242
 30
0.0
 10
52.444881
 20
71.239805
 30
0.0
 10
52.491707
 20
71.235419
 30
0.0
 10
52.522704
 20
71.266090
 30
0.0
 10
52.591726
 20
71.248123
 30
0.0
 10
52.602388
 20
71.155066
 30
0.0
 10
52.609920
 20
71.030754
 30
0.0
 10
52.694512
 20
70.980650
 30
0.0
 10
52.746712
 20
70.949733
 30
0.0
 11
52.626559
 21
68.426542
 31
0.0
 11
52.585775
 21
68.542048
 31
0.0
 11
52.633374
 21
68.714080
 31
0.0
 11
52.626559
 21
68.847073
 31
0.0
 11
52.606683
 21
68.849384
 31
0.0
 11
52.582893
 21
68.842258
 31
0.0
 11
52.566483
 21
68.847073
 31
0.0
 11
52.471483
 21
69.216069
 31
0.0
 11
52.370281
 21
69.730971
 31
0.0
 11
52.266104
 21
70.048594
 31
0.0
 11
52.228278
 21
70.070844
 31
0.0
 11
52.183777
 21
70.086419
 31
0.0
 11
52.145951
 21
70.108667
 31
0.0
 11
52.139659
 21
70.146112
 31
0.0
 11
52.152245
 21
70.191377
 31
0.0
 11
52.145951
 21
70.228820
 31
0.0
 11
52.032858
 21
70.326339
 31
0.0
 11
51.893114
 21
70.437158
 31
0.0
 11
51.785496
 21
70.529201
 31
0.0
 11
51.779203
 21
70.566644
 31
0.0
 11
51.791790
 21
70.611908
 31
0.0
 11
51.785496
 21
70.649351
 31
0.0
 11
51.734320
 21
70.664927
 31
0.0
 11
51.723195
 21
70.640452
 31
0.0
 11
51.725420
 21
70.709428
 31
0.0
 11
51.699875
 21
70.832890
 31
0.0
 11
51.634280
 21
70.901772
 31
0.0
 11
51.545191
 21
71.009809
 31
0.0
 11
51.494954
 21
71.165043
 31
0.0
 11
51.475354
 21
71.340414
 31
0.0
 11
51.485117
 21
71.430340
 31
0.0
 11
51.679992
 21
71.459898
 31
0.0
 11
51.933044
 21
71.445119
 31
0.0
 11
52.145951
 21
71.430340
 31
0.0
 11
52.188608
 21
71.436634
 31
0.0
 11
52.231266
 21
71.442927
 31
0.0
 11
52.266104
 21
71.430340
 31
0.0
 11
52.269249
 21
71.411621
 31
0.0
 11
52.262958
 21
71.388987
 31
0.0
 11
52.266104
 21
71.370264
 31
0.0
 11
52.321729
 21
71.345788
 31
0.0
 11
52.390706
 21
71.334662
 31
0.0
 11
52.446333
 21
71.310188
 31
0.0
 11
52.449478
 21
71.291468
 31
0.0
 11
52.443187
 21
71.268835
 31
0.0
 11
52.446333
 21
71.250112
 31
0.0
 11
52.486386
 21
71.241209
 31
0.0
 11
52.526430
 21
71.259014
 31
0.0
 11
52.566483
 21
71.250112
 31
0.0
 11
52.600980
 21
71.159911
 31
0.0
 11
52.620212
 21
71.058276
 31
0.0
 11
52.746712
 21
70.949733
 31
0.0
  0
SPLINE
  5
11a
100
AcDbEntity
  8
Silkscreen_Lines
 62
7
100
AcDbSpline
 70
0
 71
3
 72
37
 73
33
 74
31
 40
0.000000
 40
0.000000
 40
0.000000
 40
0.000000
 40
0.457909
 40
1.001595
 40
1.394551
 40
1.664873
 40
2.174147
 40
2.478565
 40
2.658752
 40
2.939048
 40
3.142819
 40
3.197121
 40
3.274946
 40
3.323755
 40
3.367640
 40
3.414788
 40
3.458673
 40
3.640462
 40
3.974558
 40
4.185395
 40
4.240518
 40
4.350391
 40
4.434337
 40
4.472306
 40
4.519288
 40
4.557257
 40
4.606067
 40
4.683893
 40
4.738196
 40
4.965296
 40
5.255709
 40
5.412852
 40
5.412852
 40
5.412852
 40
5.412852
 10
50.884357
 20
73.773303
 30
0.0
 10
50.878425
 20
73.617369
 30
0.0
 10
50.865449
 20
73.276291
 30
0.0
 10
50.928531
 20
72.867525
 30
0.0
 10
50.916910
 20
72.321833
 30
0.0
 10
50.445029
 20
72.422125
 30
0.0
 10
50.157065
 20
72.334209
 30
0.0
 10
49.713402
 20
72.413318
 30
0.0
 10
49.711816
 20
72.107300
 30
0.0
 10
49.720930
 20
71.902019
 30
0.0
 10
49.748369
 20
71.720715
 30
0.0
 10
49.738194
 20
71.608148
 30
0.0
 10
49.736545
 20
71.550962
 30
0.0
 10
49.733440
 20
71.486088
 30
0.0
 10
49.782925
 20
71.466631
 30
0.0
 10
49.824090
 20
71.454756
 30
0.0
 10
49.909049
 20
71.409764
 30
0.0
 10
49.884019
 20
71.175397
 30
0.0
 10
49.914524
 20
71.012542
 30
0.0
 10
49.987143
 20
70.687534
 30
0.0
 10
49.846337
 20
70.722850
 30
0.0
 10
49.776051
 20
70.737468
 30
0.0
 10
49.680840
 20
70.748179
 30
0.0
 10
49.672480
 20
70.812087
 30
0.0
 10
49.692594
 20
70.846078
 30
0.0
 10
49.689058
 20
70.901817
 30
0.0
 10
49.620223
 20
70.894678
 30
0.0
 10
49.565562
 20
70.894401
 30
0.0
 10
49.444029
 20
70.884642
 30
0.0
 10
49.257040
 20
70.886566
 30
0.0
 10
49.022395
 20
70.852752
 30
0.0
 10
48.888712
 20
70.924530
 30
0.0
 10
48.841774
 20
70.949733
 30
0.0
 11
50.884357
 21
73.773303
 31
0.0
 11
50.878742
 21
73.315428
 31
0.0
 11
50.918035
 21
72.773163
 31
0.0
 11
50.824281
 21
72.391556
 31
0.0
 11
50.554015
 21
72.386068
 31
0.0
 11
50.045033
 21
72.368816
 31
0.0
 11
49.742913
 21
72.331479
 31
0.0
 11
49.713137
 21
72.153770
 31
0.0
 11
49.728025
 21
71.873870
 31
0.0
 11
49.742913
 21
71.670643
 31
0.0
 11
49.739379
 21
71.616456
 31
0.0
 11
49.735846
 21
71.538712
 31
0.0
 11
49.742913
 21
71.490417
 31
0.0
 11
49.780739
 21
71.468166
 31
0.0
 11
49.825240
 21
71.452591
 31
0.0
 11
49.863065
 21
71.430340
 31
0.0
 11
49.896383
 21
71.251630
 31
0.0
 11
49.935889
 21
70.919879
 31
0.0
 11
49.923142
 21
70.709428
 31
0.0
 11
49.868549
 21
70.717056
 31
0.0
 11
49.760732
 21
70.738211
 31
0.0
 11
49.682837
 21
70.769504
 31
0.0
 11
49.676543
 21
70.806948
 31
0.0
 11
49.689130
 21
70.852212
 31
0.0
 11
49.682837
 21
70.889656
 31
0.0
 11
49.634541
 21
70.896724
 31
0.0
 11
49.556795
 21
70.893190
 31
0.0
 11
49.502608
 21
70.889656
 31
0.0
 11
49.275672
 21
70.881023
 31
0.0
 11
48.985297
 21
70.885740
 31
0.0
 11
48.841774
 21
70.949733
 31
0.0
  0
SPLINE
  5
11b
100
AcDbEntity
  8
Silkscreen_Lines
 62
7
100
AcDbSpline
 70
0
 71
3
 72
121
 73
117
 74
115
 40
0.000000
 40
0.000000
 40
0.000000
 40
0.000000
 40
0.304239
 40
0.578906
 40
0.809803
 40
0.878870
 40
0.976005
 40
1.052113
 40
1.137701
 40
1.209420
 40
1.303041
 40
1.426960
 40
1.527464
 40
1.616645
 40
1.769058
 40
2.020620
 40
2.218015
 40
2.274723
 40
2.347981
 40
2.399661
 40
2.487431
 40
2.581727
 40
2.669497
 40
2.892589
 40
3.244492
 40
3.498530
 40
3.539561
 40
3.583387
 40
3.624418
 40
3.642814
 40
3.665211
 40
3.685618
 40
3.800975
 40
3.855287
 40
3.915856
 40
3.977782
 40
4.064738
 40
4.148716
 40
4.186685
 40
4.233667
 40
4.271636
 40
4.330814
 40
4.388982
 40
4.472538
 40
4.770491
 40
4.943901
 40
5.235687
 40
5.289989
 40
5.367814
 40
5.416623
 40
5.547768
 40
5.714779
 40
5.845925
 40
5.883894
 40
5.930876
 40
5.968845
 40
5.988855
 40
6.013689
 40
6.030792
 40
6.219743
 40
6.505767
 40
6.694719
 40
6.811094
 40
6.989839
 40
7.121500
 40
7.140482
 40
7.163973
 40
7.182959
 40
7.226844
 40
7.273992
 40
7.317877
 40
7.389631
 40
7.489138
 40
7.560895
 40
7.737779
 40
7.986718
 40
8.177106
 40
8.215076
 40
8.262058
 40
8.300026
 40
8.343911
 40
8.391057
 40
8.434942
 40
8.555743
 40
8.751808
 40
8.872609
 40
8.891591
 40
8.915082
 40
8.934068
 40
8.972037
 40
9.019019
 40
9.056988
 40
9.137975
 40
9.277192
 40
9.358182
 40
9.489915
 40
9.630911
 40
9.784005
 40
9.852203
 40
9.967010
 40
10.031736
 40
10.053680
 40
10.080555
 40
10.094253
 40
10.168102
 40
10.305141
 40
10.401885
 40
10.533414
 40
10.655526
 40
10.754932
 40
10.839360
 40
10.920817
 40
11.020721
 40
11.554983
 40
12.148665
 40
12.706620
 40
12.706620
 40
12.706620
 40
12.706620
 10
48.841774
 20
70.949733
 30
0.0
 10
48.739163
 20
70.958977
 30
0.0
 10
48.543916
 20
70.976566
 30
0.0
 10
48.291511
 20
70.948834
 30
0.0
 10
48.062790
 20
70.890733
 30
0.0
 10
48.044167
 20
70.750510
 30
0.0
 10
48.065914
 20
70.673692
 30
0.0
 10
48.068367
 20
70.583622
 30
0.0
 10
48.021757
 20
70.517749
 30
0.0
 10
48.002075
 20
70.435421
 30
0.0
 10
47.999870
 20
70.339001
 30
0.0
 10
48.002242
 20
70.231974
 30
0.0
 10
47.992915
 20
70.130849
 30
0.0
 10
47.938447
 20
70.010007
 30
0.0
 10
47.741845
 20
70.079245
 30
0.0
 10
47.583266
 20
70.162948
 30
0.0
 10
47.449205
 20
70.291198
 30
0.0
 10
47.336892
 20
70.293136
 30
0.0
 10
47.279739
 20
70.277632
 30
0.0
 10
47.201818
 20
70.283199
 30
0.0
 10
47.173352
 20
70.370368
 30
0.0
 10
47.147340
 20
70.449398
 30
0.0
 10
47.086377
 20
70.586645
 30
0.0
 10
46.794911
 20
70.500832
 30
0.0
 10
46.683677
 20
70.255357
 30
0.0
 10
46.635927
 20
70.012689
 30
0.0
 10
46.515899
 20
69.971919
 30
0.0
 10
46.483643
 20
70.003469
 30
0.0
 10
46.438297
 20
69.998559
 30
0.0
 10
46.432332
 20
69.968774
 30
0.0
 10
46.441230
 20
69.949447
 30
0.0
 10
46.437960
 20
69.899666
 30
0.0
 10
46.360257
 20
69.771048
 30
0.0
 10
46.396311
 20
69.907710
 30
0.0
 10
46.299143
 20
69.872373
 30
0.0
 10
46.314773
 20
69.800585
 30
0.0
 10
46.298278
 20
69.702661
 30
0.0
 10
46.194747
 20
69.728580
 30
0.0
 10
46.188390
 20
69.790212
 30
0.0
 10
46.208442
 20
69.825878
 30
0.0
 10
46.203171
 20
69.881165
 30
0.0
 10
46.139753
 20
69.891921
 30
0.0
 10
46.074601
 20
69.863479
 30
0.0
 10
45.958787
 20
69.989797
 30
0.0
 10
45.901788
 20
70.156493
 30
0.0
 10
45.677501
 20
70.314788
 30
0.0
 10
45.496577
 20
70.281599
 30
0.0
 10
45.355098
 20
70.293235
 30
0.0
 10
45.297193
 20
70.296907
 30
0.0
 10
45.201776
 20
70.293878
 30
0.0
 10
45.203408
 20
70.133875
 30
0.0
 10
45.209895
 20
70.022639
 30
0.0
 10
45.215256
 20
69.870318
 30
0.0
 10
45.134552
 20
69.857959
 30
0.0
 10
45.101515
 20
69.876979
 30
0.0
 10
45.054471
 20
69.878212
 30
0.0
 10
45.052539
 20
69.845686
 30
0.0
 10
45.065135
 20
69.827652
 30
0.0
 10
45.035062
 20
69.749405
 30
0.0
 10
44.811741
 20
69.805977
 30
0.0
 10
44.632178
 20
69.788271
 30
0.0
 10
44.395445
 20
69.767311
 30
0.0
 10
44.324852
 20
69.930437
 30
0.0
 10
44.274310
 20
70.055750
 30
0.0
 10
44.103103
 20
70.089896
 30
0.0
 10
44.090125
 20
70.027769
 30
0.0
 10
44.101219
 20
70.009435
 30
0.0
 10
44.096095
 20
69.978018
 30
0.0
 10
44.055000
 20
69.965652
 30
0.0
 10
44.015610
 20
69.952067
 30
0.0
 10
43.959994
 20
69.928694
 30
0.0
 10
43.965324
 20
69.842837
 30
0.0
 10
43.988171
 20
69.772763
 30
0.0
 10
43.983195
 20
69.639719
 30
0.0
 10
43.757923
 20
69.647623
 30
0.0
 10
43.599010
 20
69.619702
 30
0.0
 10
43.383174
 20
69.625064
 30
0.0
 10
43.363796
 20
69.526178
 30
0.0
 10
43.385096
 20
69.490193
 30
0.0
 10
43.380119
 20
69.441184
 30
0.0
 10
43.334926
 20
69.424335
 30
0.0
 10
43.293806
 20
69.411956
 30
0.0
 10
43.226824
 20
69.378215
 30
0.0
 10
43.222645
 20
69.237178
 30
0.0
 10
43.161499
 20
69.124882
 30
0.0
 10
43.171775
 20
68.973990
 30
0.0
 10
43.113687
 20
68.961599
 30
0.0
 10
43.095763
 20
68.972427
 30
0.0
 10
43.064580
 20
68.968953
 30
0.0
 10
43.066007
 20
68.922629
 30
0.0
 10
43.084369
 20
68.890557
 30
0.0
 10
43.077591
 20
68.823706
 30
0.0
 10
42.963324
 20
68.848290
 30
0.0
 10
42.878585
 20
68.838683
 30
0.0
 10
42.749496
 20
68.835987
 30
0.0
 10
42.688487
 20
68.955987
 30
0.0
 10
42.588256
 20
69.048523
 30
0.0
 10
42.505137
 20
69.147419
 30
0.0
 10
42.390135
 20
69.165730
 30
0.0
 10
42.322214
 20
69.196634
 30
0.0
 10
42.232618
 20
69.188824
 30
0.0
 10
42.228690
 20
69.232254
 30
0.0
 10
42.243739
 20
69.249999
 30
0.0
 10
42.221542
 20
69.291700
 30
0.0
 10
42.199489
 20
69.145740
 30
0.0
 10
42.192027
 20
69.083861
 30
0.0
 10
42.179808
 20
68.949959
 30
0.0
 10
42.102873
 20
68.860128
 30
0.0
 10
42.023031
 20
68.770079
 30
0.0
 10
41.993894
 20
68.674376
 30
0.0
 10
41.971805
 20
68.577340
 30
0.0
 10
41.871985
 20
68.562770
 30
0.0
 10
41.719025
 20
68.369918
 30
0.0
 10
41.535818
 20
68.011348
 30
0.0
 10
41.114783
 20
67.596187
 30
0.0
 10
40.735194
 20
67.508035
 30
0.0
 10
40.551288
 20
67.465326
 30
0.0
 11
48.841774
 21
70.949733
 31
0.0
 11
48.538033
 21
70.967131
 31
0.0
 11
48.264984
 21
70.937358
 31
0.0
 11
48.060785
 21
70.829580
 31
0.0
 11
48.049405
 21
70.761457
 31
0.0
 11
48.063429
 21
70.665340
 31
0.0
 11
48.060785
 21
70.589278
 31
0.0
 11
48.024634
 21
70.511699
 31
0.0
 11
48.005996
 21
70.442444
 31
0.0
 11
48.000708
 21
70.348972
 31
0.0
 11
47.999871
 21
70.225056
 31
0.0
 11
47.985683
 21
70.125559
 31
0.0
 11
47.940632
 21
70.048594
 31
0.0
 11
47.789133
 21
70.065255
 31
0.0
 11
47.568782
 21
70.186619
 31
0.0
 11
47.399951
 21
70.288896
 31
0.0
 11
47.343274
 21
70.290780
 31
0.0
 11
47.270729
 21
70.280581
 31
0.0
 11
47.219722
 21
70.288896
 31
0.0
 11
47.175221
 21
70.364548
 31
0.0
 11
47.144070
 21
70.453550
 31
0.0
 11
47.099569
 21
70.529201
 31
0.0
 11
46.878010
 21
70.503088
 31
0.0
 11
46.682884
 21
70.210237
 31
0.0
 11
46.558885
 21
69.988517
 31
0.0
 11
46.518832
 21
69.979614
 31
0.0
 11
46.478786
 21
69.997420
 31
0.0
 11
46.438733
 21
69.988517
 31
0.0
 11
46.434435
 21
69.970631
 31
0.0
 11
46.439573
 21
69.948831
 31
0.0
 11
46.438733
 21
69.928441
 31
0.0
 11
46.379646
 21
69.829366
 31
0.0
 11
46.377199
 21
69.883623
 31
0.0
 11
46.318583
 21
69.868365
 31
0.0
 11
46.309158
 21
69.807160
 31
0.0
 11
46.279278
 21
69.725500
 31
0.0
 11
46.198430
 21
69.748212
 31
0.0
 11
46.192137
 21
69.785656
 31
0.0
 11
46.204724
 21
69.830921
 31
0.0
 11
46.198430
 21
69.868365
 31
0.0
 11
46.141848
 21
69.885699
 31
0.0
 11
46.084288
 21
69.877312
 31
0.0
 11
46.018201
 21
69.928441
 31
0.0
 11
45.852989
 21
70.176395
 31
0.0
 11
45.708777
 21
70.272696
 31
0.0
 11
45.417441
 21
70.288896
 31
0.0
 11
45.363254
 21
70.292430
 31
0.0
 11
45.285510
 21
70.295963
 31
0.0
 11
45.237215
 21
70.288896
 31
0.0
 11
45.203839
 21
70.162069
 31
0.0
 11
45.210516
 21
69.995191
 31
0.0
 11
45.177138
 21
69.868365
 31
0.0
 11
45.139694
 21
69.862071
 31
0.0
 11
45.094430
 21
69.874658
 31
0.0
 11
45.056986
 21
69.868365
 31
0.0
 11
45.054675
 21
69.848488
 31
0.0
 11
45.061801
 21
69.824699
 31
0.0
 11
45.056986
 21
69.808288
 31
0.0
 11
44.869579
 21
69.784171
 31
0.0
 11
44.583556
 21
69.784171
 31
0.0
 11
44.396149
 21
69.808288
 31
0.0
 11
44.335205
 21
69.907429
 31
0.0
 11
44.227424
 21
70.050023
 31
0.0
 11
44.095771
 21
70.048594
 31
0.0
 11
44.092625
 21
70.029874
 31
0.0
 11
44.098916
 21
70.007241
 31
0.0
 11
44.095771
 21
69.988517
 31
0.0
 11
44.057945
 21
69.966267
 31
0.0
 11
44.013444
 21
69.950691
 31
0.0
 11
43.975618
 21
69.928441
 31
0.0
 11
43.966718
 21
69.857240
 31
0.0
 11
43.984518
 21
69.759338
 31
0.0
 11
43.975618
 21
69.688136
 31
0.0
 11
43.804862
 21
69.641982
 31
0.0
 11
43.556501
 21
69.625025
 31
0.0
 11
43.374858
 21
69.567986
 31
0.0
 11
43.368565
 21
69.530541
 31
0.0
 11
43.381152
 21
69.485276
 31
0.0
 11
43.374858
 21
69.447833
 31
0.0
 11
43.337033
 21
69.425583
 31
0.0
 11
43.292533
 21
69.410008
 31
0.0
 11
43.254708
 21
69.387757
 31
0.0
 11
43.217616
 21
69.272791
 31
0.0
 11
43.171645
 21
69.082192
 31
0.0
 11
43.134555
 21
68.967226
 31
0.0
 11
43.115835
 21
68.964080
 31
0.0
 11
43.093202
 21
68.970371
 31
0.0
 11
43.074479
 21
68.967226
 31
0.0
 11
43.068185
 21
68.929781
 31
0.0
 11
43.080772
 21
68.884517
 31
0.0
 11
43.074479
 21
68.847073
 31
0.0
 11
42.993899
 21
68.838959
 31
0.0
 11
42.854683
 21
68.838959
 31
0.0
 11
42.774100
 21
68.847073
 31
0.0
 11
42.686082
 21
68.945085
 31
0.0
 11
42.591506
 21
69.049657
 31
0.0
 11
42.473719
 21
69.147452
 31
0.0
 11
42.407811
 21
69.164976
 31
0.0
 11
42.295964
 21
69.190877
 31
0.0
 11
42.233416
 21
69.207528
 31
0.0
 11
42.231576
 21
69.229395
 31
0.0
 11
42.239172
 21
69.255175
 31
0.0
 11
42.233416
 21
69.267604
 31
0.0
 11
42.207606
 21
69.198413
 31
0.0
 11
42.190311
 21
69.062470
 31
0.0
 11
42.173340
 21
68.967226
 31
0.0
 11
42.100357
 21
68.857804
 31
0.0
 11
42.026708
 21
68.760400
 31
0.0
 11
41.993111
 21
68.666844
 31
0.0
 11
41.958997
 21
68.589615
 31
0.0
 11
41.884833
 21
68.555928
 31
0.0
 11
41.812882
 21
68.486618
 31
0.0
 11
41.519245
 21
68.040285
 31
0.0
 11
41.081417
 21
67.639329
 31
0.0
 11
40.551288
 21
67.465326
 31
0.0
  0
SPLINE
  5
11c
100
AcDbEntity
  8
Silkscreen_Lines
 62
7
100
AcDbSpline
 70
0
 71
3
 72
133
 73
129
 74
127
 40
0.000000
 40
0.000000
 40
0.000000
 40
0.000000
 40
0.369027
 40
0.709299
 40
0.985517
 40
1.023487
 40
1.070469
 40
1.108437
 40
1.180089
 40
1.253785
 40
1.325437
 40
1.654744
 40
2.246295
 40
2.656380
 40
2.746020
 40
2.836532
 40
2.925530
 40
2.987358
 40
3.097442
 40
3.166417
 40
3.185400
 40
3.208891
 40
3.227877
 40
3.397415
 40
3.599820
 40
3.766655
 40
3.838307
 40
3.912003
 40
3.983653
 40
4.021623
 40
4.068604
 40
4.106573
 40
4.192031
 40
4.310570
 40
4.408361
 40
4.490077
 40
4.576428
 40
4.656545
 40
4.712677
 40
4.771155
 40
4.827291
 40
5.096774
 40
5.449255
 40
5.688372
 40
5.707355
 40
5.730846
 40
5.749832
 40
5.822605
 40
5.925601
 40
5.998372
 40
6.059145
 40
6.129013
 40
6.189785
 40
6.281284
 40
6.392708
 40
6.490327
 40
6.527123
 40
6.571914
 40
6.612726
 40
6.713591
 40
6.814238
 40
6.913592
 40
7.056387
 40
7.215983
 40
7.353999
 40
7.425650
 40
7.499345
 40
7.570997
 40
7.612028
 40
7.655853
 40
7.696884
 40
7.768536
 40
7.842232
 40
7.913883
 40
7.932866
 40
7.956358
 40
7.975342
 40
8.103258
 40
8.232330
 40
8.360246
 40
8.401277
 40
8.445102
 40
8.486134
 40
8.548716
 40
8.631707
 40
8.702925
 40
8.743956
 40
8.787782
 40
8.828813
 40
8.872698
 40
8.919846
 40
8.963730
 40
9.004761
 40
9.048587
 40
9.089618
 40
9.108600
 40
9.132092
 40
9.151077
 40
9.222832
 40
9.322338
 40
9.394093
 40
9.413075
 40
9.436567
 40
9.455552
 40
9.520947
 40
9.623432
 40
9.697007
 40
9.770584
 40
9.873069
 40
9.938460
 40
10.016589
 40
10.110278
 40
10.188409
 40
10.260061
 40
10.333757
 40
10.405409
 40
10.424391
 40
10.447883
 40
10.466868
 40
10.521825
 40
10.602234
 40
10.657188
 40
10.695156
 40
10.742138
 40
10.780108
 40
10.997353
 40
11.404905
 40
11.681379
 40
11.681379
 40
11.681379
 40
11.681379
 10
40.551288
 20
67.465326
 30
0.0
 10
40.426254
 20
67.462549
 30
0.0
 10
40.185930
 20
67.457210
 30
0.0
 10
39.883435
 20
67.462277
 30
0.0
 10
39.607733
 20
67.501467
 30
0.0
 10
39.578591
 20
67.626822
 30
0.0
 10
39.600976
 20
67.663884
 30
0.0
 10
39.591810
 20
67.720648
 30
0.0
 10
39.529380
 20
67.747928
 30
0.0
 10
39.468659
 20
67.781944
 30
0.0
 10
39.330856
 20
67.872109
 30
0.0
 10
39.367071
 20
68.263433
 30
0.0
 10
39.295145
 20
68.663525
 30
0.0
 10
39.237253
 20
69.051893
 30
0.0
 10
39.327729
 20
69.229533
 30
0.0
 10
39.375063
 20
69.304116
 30
0.0
 10
39.417527
 20
69.377265
 30
0.0
 10
39.401509
 20
69.467558
 30
0.0
 10
39.410645
 20
69.536251
 30
0.0
 10
39.389122
 20
69.626453
 30
0.0
 10
39.430900
 20
69.633608
 30
0.0
 10
39.449256
 20
69.622245
 30
0.0
 10
39.522286
 20
69.640202
 30
0.0
 10
39.553214
 20
69.797854
 30
0.0
 10
39.623167
 20
69.948018
 30
0.0
 10
39.679639
 20
70.093955
 30
0.0
 10
39.768826
 20
70.152367
 30
0.0
 10
39.829793
 20
70.186577
 30
0.0
 10
39.892254
 20
70.213739
 30
0.0
 10
39.901210
 20
70.270682
 30
0.0
 10
39.879637
 20
70.307111
 30
0.0
 10
39.889759
 20
70.369066
 30
0.0
 10
39.976902
 20
70.398440
 30
0.0
 10
40.054778
 20
70.454334
 30
0.0
 10
40.137461
 20
70.519141
 30
0.0
 10
40.155501
 20
70.609707
 30
0.0
 10
40.166846
 20
70.690012
 30
0.0
 10
40.181402
 20
70.765402
 30
0.0
 10
40.226634
 20
70.814731
 30
0.0
 10
40.275726
 20
70.844168
 30
0.0
 10
40.357877
 20
70.944839
 30
0.0
 10
40.414375
 20
71.174062
 30
0.0
 10
40.558708
 20
71.400785
 30
0.0
 10
40.595919
 20
71.651644
 30
0.0
 10
40.692023
 20
71.676523
 30
0.0
 10
40.710650
 20
71.665030
 30
0.0
 10
40.752480
 20
71.672843
 30
0.0
 10
40.751709
 20
71.757755
 30
0.0
 10
40.768643
 20
71.827160
 30
0.0
 10
40.778502
 20
71.917267
 30
0.0
 10
40.851553
 20
71.938895
 30
0.0
 10
40.913054
 20
71.942293
 30
0.0
 10
40.985718
 20
71.970586
 30
0.0
 10
41.030146
 20
72.051486
 30
0.0
 10
41.091506
 20
72.126701
 30
0.0
 10
41.128967
 20
72.208084
 30
0.0
 10
41.191190
 20
72.224710
 30
0.0
 10
41.229333
 20
72.206306
 30
0.0
 10
41.294184
 20
72.209712
 30
0.0
 10
41.355784
 20
72.270043
 30
0.0
 10
41.429166
 20
72.335215
 30
0.0
 10
41.521334
 20
72.406810
 30
0.0
 10
41.657432
 20
72.429796
 30
0.0
 10
41.800289
 20
72.444523
 30
0.0
 10
41.924630
 20
72.488339
 30
0.0
 10
41.976560
 20
72.570291
 30
0.0
 10
42.010952
 20
72.632181
 30
0.0
 10
42.038670
 20
72.691923
 30
0.0
 10
42.096172
 20
72.708413
 30
0.0
 10
42.130340
 20
72.675477
 30
0.0
 10
42.187946
 20
72.691823
 30
0.0
 10
42.214938
 20
72.752578
 30
0.0
 10
42.252341
 20
72.810257
 30
0.0
 10
42.274164
 20
72.869383
 30
0.0
 10
42.314166
 20
72.877868
 30
0.0
 10
42.332991
 20
72.866331
 30
0.0
 10
42.391379
 20
72.880680
 30
0.0
 10
42.431341
 20
72.977795
 30
0.0
 10
42.515606
 20
73.068975
 30
0.0
 10
42.561015
 20
73.164369
 30
0.0
 10
42.636533
 20
73.189338
 30
0.0
 10
42.670956
 20
73.156118
 30
0.0
 10
42.725928
 20
73.171022
 30
0.0
 10
42.751070
 20
73.232395
 30
0.0
 10
42.792188
 20
73.289285
 30
0.0
 10
42.819546
 20
73.353006
 30
0.0
 10
42.877331
 20
73.369103
 30
0.0
 10
42.910810
 20
73.336777
 30
0.0
 10
42.960515
 20
73.348135
 30
0.0
 10
42.977617
 20
73.392347
 30
0.0
 10
42.991148
 20
73.433319
 30
0.0
 10
43.008052
 20
73.477684
 30
0.0
 10
43.058506
 20
73.488470
 30
0.0
 10
43.089095
 20
73.458351
 30
0.0
 10
43.136016
 20
73.462585
 30
0.0
 10
43.139743
 20
73.494088
 30
0.0
 10
43.129148
 20
73.511886
 30
0.0
 10
43.136170
 20
73.554513
 30
0.0
 10
43.225886
 20
73.538266
 30
0.0
 10
43.283553
 20
73.527730
 30
0.0
 10
43.373180
 20
73.511495
 30
0.0
 10
43.380323
 20
73.554103
 30
0.0
 10
43.369401
 20
73.571946
 30
0.0
 10
43.376067
 20
73.612389
 30
0.0
 10
43.460165
 20
73.598769
 30
0.0
 10
43.530409
 20
73.600232
 30
0.0
 10
43.615389
 20
73.592843
 30
0.0
 10
43.698839
 20
73.587036
 30
0.0
 10
43.774687
 20
73.582708
 30
0.0
 10
43.869930
 20
73.580760
 30
0.0
 10
43.885872
 20
73.676138
 30
0.0
 10
43.883941
 20
73.752862
 30
0.0
 10
43.905962
 20
73.838634
 30
0.0
 10
43.975491
 20
73.876032
 30
0.0
 10
44.034021
 20
73.912129
 30
0.0
 10
44.093065
 20
73.934127
 30
0.0
 10
44.101394
 20
73.974294
 30
0.0
 10
44.090313
 20
73.992624
 30
0.0
 10
44.096178
 20
74.028557
 30
0.0
 10
44.161126
 20
74.032170
 30
0.0
 10
44.211626
 20
74.054199
 30
0.0
 10
44.281001
 20
74.061611
 30
0.0
 10
44.286200
 20
74.116439
 30
0.0
 10
44.264883
 20
74.151720
 30
0.0
 10
44.286737
 20
74.262709
 30
0.0
 10
44.595954
 20
74.150711
 30
0.0
 10
44.849163
 20
74.207691
 30
0.0
 10
45.082733
 20
74.197824
 30
0.0
 10
45.177138
 20
74.193837
 30
0.0
 11
40.551288
 21
67.465326
 31
0.0
 11
40.182308
 21
67.459426
 31
0.0
 11
39.842302
 21
67.472887
 31
0.0
 11
39.590072
 21
67.585476
 31
0.0
 11
39.583778
 21
67.622921
 31
0.0
 11
39.596365
 21
67.668186
 31
0.0
 11
39.590072
 21
67.705629
 31
0.0
 11
39.532221
 21
67.747905
 31
0.0
 11
39.467695
 21
67.783505
 31
0.0
 11
39.409844
 21
67.825781
 31
0.0
 11
39.346841
 21
68.149005
 31
0.0
 11
39.285685
 21
68.737387
 31
0.0
 11
39.289691
 21
69.147452
 31
0.0
 11
39.328602
 21
69.228206
 31
0.0
 11
39.375333
 21
69.305722
 31
0.0
 11
39.409844
 21
69.387757
 31
0.0
 11
39.406680
 21
69.449503
 31
0.0
 11
39.402282
 21
69.559499
 31
0.0
 11
39.409844
 21
69.628060
 31
0.0
 11
39.428563
 21
69.631205
 31
0.0
 11
39.451197
 21
69.624914
 31
0.0
 11
39.469920
 21
69.628060
 31
0.0
 11
39.554533
 21
69.774974
 31
0.0
 11
39.627591
 21
69.963733
 31
0.0
 11
39.710225
 21
70.108667
 31
0.0
 11
39.768075
 21
70.150944
 31
0.0
 11
39.832601
 21
70.186545
 31
0.0
 11
39.890451
 21
70.228820
 31
0.0
 11
39.896745
 21
70.266264
 31
0.0
 11
39.884159
 21
70.311528
 31
0.0
 11
39.890451
 21
70.348972
 31
0.0
 11
39.961333
 21
70.396709
 31
0.0
 11
40.061390
 21
70.460270
 31
0.0
 11
40.130756
 21
70.529201
 31
0.0
 11
40.154307
 21
70.607449
 31
0.0
 11
40.168013
 21
70.692706
 31
0.0
 11
40.190833
 21
70.769504
 31
0.0
 11
40.227608
 21
70.811912
 31
0.0
 11
40.274202
 21
70.847248
 31
0.0
 11
40.310983
 21
70.889656
 31
0.0
 11
40.417302
 21
71.137279
 31
0.0
 11
40.555307
 21
71.461621
 31
0.0
 11
40.671440
 21
71.670643
 31
0.0
 11
40.690160
 21
71.673788
 31
0.0
 11
40.712793
 21
71.667497
 31
0.0
 11
40.731517
 21
71.670643
 31
0.0
 11
40.754001
 21
71.739855
 31
0.0
 11
40.769106
 21
71.841738
 31
0.0
 11
40.791590
 21
71.910948
 31
0.0
 11
40.847218
 21
71.935424
 31
0.0
 11
40.916194
 21
71.946550
 31
0.0
 11
40.971819
 21
71.971024
 31
0.0
 11
41.028261
 21
72.043041
 31
0.0
 11
41.091249
 21
72.134953
 31
0.0
 11
41.152048
 21
72.211327
 31
0.0
 11
41.187824
 21
72.219933
 31
0.0
 11
41.231420
 21
72.209659
 31
0.0
 11
41.272198
 21
72.211327
 31
0.0
 11
41.355319
 21
72.268463
 31
0.0
 11
41.430746
 21
72.335102
 31
0.0
 11
41.512503
 21
72.391556
 31
0.0
 11
41.650770
 21
72.427231
 31
0.0
 11
41.808346
 21
72.452538
 31
0.0
 11
41.933035
 21
72.511708
 31
0.0
 11
41.975311
 21
72.569558
 31
0.0
 11
42.010911
 21
72.634084
 31
0.0
 11
42.053187
 21
72.691935
 31
0.0
 11
42.093241
 21
72.700837
 31
0.0
 11
42.133286
 21
72.683032
 31
0.0
 11
42.173340
 21
72.691935
 31
0.0
 11
42.215615
 21
72.749787
 31
0.0
 11
42.251215
 21
72.814313
 31
0.0
 11
42.293490
 21
72.872163
 31
0.0
 11
42.312210
 21
72.875309
 31
0.0
 11
42.334844
 21
72.869018
 31
0.0
 11
42.353566
 21
72.872163
 31
0.0
 11
42.435893
 21
72.970066
 31
0.0
 11
42.511544
 21
73.074643
 31
0.0
 11
42.593871
 21
73.172545
 31
0.0
 11
42.633925
 21
73.181447
 31
0.0
 11
42.673970
 21
73.163641
 31
0.0
 11
42.714024
 21
73.172545
 31
0.0
 11
42.749798
 21
73.223895
 31
0.0
 11
42.792208
 21
73.295230
 31
0.0
 11
42.834174
 21
73.352771
 31
0.0
 11
42.874227
 21
73.361674
 31
0.0
 11
42.914273
 21
73.343868
 31
0.0
 11
42.954326
 21
73.352771
 31
0.0
 11
42.976577
 21
73.390597
 31
0.0
 11
42.992152
 21
73.435098
 31
0.0
 11
43.014403
 21
73.472924
 31
0.0
 11
43.054456
 21
73.481827
 31
0.0
 11
43.094502
 21
73.464021
 31
0.0
 11
43.134555
 21
73.472924
 31
0.0
 11
43.137701
 21
73.491643
 31
0.0
 11
43.131410
 21
73.514277
 31
0.0
 11
43.134555
 21
73.533000
 31
0.0
 11
43.205756
 21
73.541900
 31
0.0
 11
43.303657
 21
73.524100
 31
0.0
 11
43.374858
 21
73.533000
 31
0.0
 11
43.378003
 21
73.551720
 31
0.0
 11
43.371712
 21
73.574353
 31
0.0
 11
43.374858
 21
73.593076
 31
0.0
 11
43.439419
 21
73.603483
 31
0.0
 11
43.541771
 21
73.598280
 31
0.0
 11
43.615163
 21
73.593076
 31
0.0
 11
43.688555
 21
73.587873
 31
0.0
 11
43.790908
 21
73.582669
 31
0.0
 11
43.855465
 21
73.593076
 31
0.0
 11
43.882164
 21
73.666502
 31
0.0
 11
43.888836
 21
73.759953
 31
0.0
 11
43.915542
 21
73.833379
 31
0.0
 11
43.973393
 21
73.875655
 31
0.0
 11
44.037919
 21
73.911255
 31
0.0
 11
44.095771
 21
73.953531
 31
0.0
 11
44.098916
 21
73.972251
 31
0.0
 11
44.092625
 21
73.994884
 31
0.0
 11
44.095771
 21
74.013608
 31
0.0
 11
44.146948
 21
74.033634
 31
0.0
 11
44.224824
 21
74.053659
 31
0.0
 11
44.275999
 21
74.073684
 31
0.0
 11
44.282292
 21
74.111127
 31
0.0
 11
44.269705
 21
74.156392
 31
0.0
 11
44.275999
 21
74.193837
 31
0.0
 11
44.493145
 21
74.200410
 31
0.0
 11
44.900684
 21
74.197123
 31
0.0
 11
45.177138
 21
74.193837
 31
0.0
  0
SPLINE
  5
11d
100
AcDbEntity
  8
Silkscreen_Lines
 62
7
100
AcDbSpline
 70
0
 71
3
 72
25
 73
21
 74
19
 40
0.000000
 40
0.000000
 40
0.000000
 40
0.000000
 40
0.089948
 40
0.179895
 40
0.269095
 40
0.309183
 40
0.361413
 40
0.403889
 40
0.503701
 40
0.625581
 40
0.712541
 40
0.731524
 40
0.755016
 40
0.774000
 40
0.827817
 40
0.902447
 40
0.956264
 40
1.041197
 40
1.132817
 40
1.220009
 40
1.220009
 40
1.220009
 40
1.220009
 10
40.010604
 20
68.967226
 30
0.0
 10
39.998282
 20
68.939796
 30
0.0
 10
39.973639
 20
68.884936
 30
0.0
 10
39.936508
 20
68.804722
 30
0.0
 10
39.907125
 20
68.733375
 30
0.0
 10
39.853033
 20
68.702407
 30
0.0
 10
39.810856
 20
68.689478
 30
0.0
 10
39.748424
 20
68.661846
 30
0.0
 10
39.735970
 20
68.558760
 30
0.0
 10
39.729017
 20
68.472594
 30
0.0
 10
39.736239
 20
68.369874
 30
0.0
 10
39.689262
 20
68.360912
 30
0.0
 10
39.671349
 20
68.371837
 30
0.0
 10
39.634652
 20
68.366519
 30
0.0
 10
39.644638
 20
68.299490
 30
0.0
 10
39.658968
 20
68.249858
 30
0.0
 10
39.657142
 20
68.169351
 30
0.0
 10
39.575055
 20
68.139221
 30
0.0
 10
39.497142
 20
68.094178
 30
0.0
 10
39.478843
 20
68.034910
 30
0.0
 10
39.469920
 20
68.006010
 30
0.0
 11
40.010604
 21
68.967226
 31
0.0
 11
39.973594
 21
68.885245
 31
0.0
 11
39.936584
 21
68.803264
 31
0.0
 11
39.890451
 21
68.726920
 31
0.0
 11
39.856391
 21
68.705778
 31
0.0
 11
39.807572
 21
68.687214
 31
0.0
 11
39.770299
 21
68.666844
 31
0.0
 11
39.738117
 21
68.572362
 31
0.0
 11
39.732088
 21
68.450632
 31
0.0
 11
39.710225
 21
68.366465
 31
0.0
 11
39.691505
 21
68.363320
 31
0.0
 11
39.668871
 21
68.369611
 31
0.0
 11
39.650149
 21
68.366465
 31
0.0
 11
39.643474
 21
68.313064
 31
0.0
 11
39.656824
 21
68.239638
 31
0.0
 11
39.650149
 21
68.186236
 31
0.0
 11
39.579927
 21
68.138462
 31
0.0
 11
39.504898
 21
68.085879
 31
0.0
 11
39.469920
 21
68.006010
 31
0.0
  0
SPLINE
  5
11e
100
AcDbEntity
  8
Silkscreen_Lines
 62
7
100
AcDbSpline
 70
0
 71
3
 72
28
 73
24
 74
22
 40
0.000000
 40
0.000000
 40
0.000000
 40
0.000000
 40
0.158154
 40
0.421719
 40
0.598650
 40
0.617632
 40
0.641123
 40
0.660109
 40
0.698077
 40
0.745059
 40
0.783027
 40
0.802009
 40
0.825501
 40
0.844486
 40
0.882456
 40
0.929439
 40
0.967407
 40
0.986389
 40
1.009880
 40
1.028866
 40
1.133619
 40
1.257992
 40
1.401812
 40
1.401812
 40
1.401812
 40
1.401812
 10
40.731517
 20
68.606768
 30
0.0
 10
40.672803
 20
68.599956
 30
0.0
 10
40.516242
 20
68.581791
 30
0.0
 10
40.530639
 20
68.346540
 30
0.0
 10
40.608342
 20
68.138425
 30
0.0
 10
40.530428
 20
68.120440
 30
0.0
 10
40.512505
 20
68.131374
 30
0.0
 10
40.481265
 20
68.127916
 30
0.0
 10
40.483184
 20
68.081218
 30
0.0
 10
40.499217
 20
68.050978
 30
0.0
 10
40.501223
 20
68.004180
 30
0.0
 10
40.469796
 20
68.000943
 30
0.0
 10
40.452554
 20
68.011078
 30
0.0
 10
40.421124
 20
68.007842
 30
0.0
 10
40.423129
 20
67.961040
 30
0.0
 10
40.439166
 20
67.930805
 30
0.0
 10
40.441074
 20
67.884093
 30
0.0
 10
40.409860
 20
67.880664
 30
0.0
 10
40.391851
 20
67.891488
 30
0.0
 10
40.340226
 20
67.880266
 30
0.0
 10
40.317915
 20
67.780807
 30
0.0
 10
40.307498
 20
67.664714
 30
0.0
 10
40.309766
 20
67.574031
 30
0.0
 10
40.310983
 20
67.525403
 30
0.0
 11
40.731517
 21
68.606768
 31
0.0
 11
40.578820
 21
68.565578
 31
0.0
 11
40.555599
 21
68.303039
 31
0.0
 11
40.551288
 21
68.126160
 31
0.0
 11
40.532568
 21
68.123015
 31
0.0
 11
40.509935
 21
68.129306
 31
0.0
 11
40.491212
 21
68.126160
 31
0.0
 11
40.484918
 21
68.088717
 31
0.0
 11
40.497505
 21
68.043453
 31
0.0
 11
40.491212
 21
68.006010
 31
0.0
 11
40.472492
 21
68.002865
 31
0.0
 11
40.449859
 21
68.009156
 31
0.0
 11
40.431135
 21
68.006010
 31
0.0
 11
40.424842
 21
67.968565
 31
0.0
 11
40.437429
 21
67.923301
 31
0.0
 11
40.431135
 21
67.885858
 31
0.0
 11
40.412416
 21
67.882712
 31
0.0
 11
40.389782
 21
67.889003
 31
0.0
 11
40.371059
 21
67.885858
 31
0.0
 11
40.322648
 21
67.792963
 31
0.0
 11
40.310140
 21
67.669219
 31
0.0
 11
40.310983
 21
67.525403
 31
0.0
  0
SPLINE
  5
11f
100
AcDbEntity
  8
Silkscreen_Lines
 62
7
100
AcDbSpline
 70
0
 71
3
 72
88
 73
84
 74
82
 40
0.000000
 40
0.000000
 40
0.000000
 40
0.000000
 40
0.253744
 40
0.436408
 40
0.597702
 40
0.617712
 40
0.642546
 40
0.659648
 40
0.736288
 40
0.831262
 40
0.908879
 40
0.957994
 40
1.006744
 40
1.081101
 40
1.289480
 40
1.561882
 40
1.747559
 40
1.766542
 40
1.790033
 40
1.809019
 40
1.930414
 40
2.058595
 40
2.180124
 40
2.332118
 40
2.486905
 40
2.637973
 40
2.832103
 40
3.052440
 40
3.242152
 40
3.437217
 40
3.629983
 40
3.834350
 40
3.932475
 40
4.041510
 40
4.136547
 40
4.193270
 40
4.252669
 40
4.307782
 40
4.467020
 40
4.631048
 40
4.793028
 40
4.882428
 40
4.972561
 40
5.061962
 40
5.140465
 40
5.224804
 40
5.303307
 40
5.446147
 40
5.591691
 40
5.737651
 40
5.813242
 40
5.903942
 40
5.979101
 40
6.108973
 40
6.246283
 40
6.382825
 40
6.494089
 40
6.584640
 40
6.690584
 40
6.784773
 40
6.894192
 40
6.992605
 40
7.323768
 40
7.643668
 40
7.970759
 40
8.108636
 40
8.261614
 40
8.393611
 40
8.749062
 40
9.074641
 40
9.307420
 40
9.485600
 40
9.641774
 40
9.821134
 40
9.971529
 40
10.166994
 40
10.305594
 40
10.324576
 40
10.348067
 40
10.367053
 40
10.432447
 40
10.534930
 40
10.608505
 40
10.608505
 40
10.608505
 40
10.608505
 10
52.626559
 20
68.426542
 30
0.0
 10
52.543835
 20
68.403999
 30
0.0
 10
52.401559
 20
68.365227
 30
0.0
 10
52.228723
 20
68.286614
 30
0.0
 10
52.095076
 20
68.235451
 30
0.0
 10
52.080693
 20
68.164304
 30
0.0
 10
52.093957
 20
68.145637
 30
0.0
 10
52.079661
 20
68.103968
 30
0.0
 10
51.998603
 20
68.114477
 30
0.0
 10
51.925042
 20
68.099252
 30
0.0
 10
51.847206
 20
68.078384
 30
0.0
 10
51.816506
 20
68.026363
 30
0.0
 10
51.784029
 20
67.979047
 30
0.0
 10
51.687915
 20
67.916716
 30
0.0
 10
51.488498
 20
67.926370
 30
0.0
 10
51.300310
 20
67.912861
 30
0.0
 10
51.077938
 20
67.944569
 30
0.0
 10
51.058739
 20
67.865211
 30
0.0
 10
51.070368
 20
67.846431
 30
0.0
 10
51.057337
 20
67.789421
 30
0.0
 10
50.942173
 20
67.772615
 30
0.0
 10
50.828923
 20
67.789584
 30
0.0
 10
50.690395
 20
67.771612
 30
0.0
 10
50.568291
 20
67.694784
 30
0.0
 10
50.425991
 20
67.640302
 30
0.0
 10
50.272845
 20
67.569844
 30
0.0
 10
50.078765
 20
67.571964
 30
0.0
 10
49.883611
 20
67.618162
 30
0.0
 10
49.675403
 20
67.599800
 30
0.0
 10
49.511209
 20
67.492831
 30
0.0
 10
49.329082
 20
67.419464
 30
0.0
 10
49.179614
 20
67.341585
 30
0.0
 10
49.039328
 20
67.337362
 30
0.0
 10
48.943157
 20
67.359788
 30
0.0
 10
48.848625
 20
67.360080
 30
0.0
 10
48.797052
 20
67.307277
 30
0.0
 10
48.769704
 20
67.257066
 30
0.0
 10
48.693785
 20
67.200753
 30
0.0
 10
48.561056
 20
67.198973
 30
0.0
 10
48.402271
 20
67.194470
 30
0.0
 10
48.261715
 20
67.179349
 30
0.0
 10
48.158781
 20
67.128431
 30
0.0
 10
48.082739
 20
67.082062
 30
0.0
 10
48.006116
 20
67.039290
 30
0.0
 10
47.919705
 20
67.036208
 30
0.0
 10
47.841381
 20
67.053503
 30
0.0
 10
47.736859
 20
67.048884
 30
0.0
 10
47.631809
 20
66.976608
 30
0.0
 10
47.521425
 20
66.888112
 30
0.0
 10
47.426332
 20
66.801142
 30
0.0
 10
47.318971
 20
66.792171
 30
0.0
 10
47.240711
 20
66.808746
 30
0.0
 10
47.139495
 20
66.810084
 30
0.0
 10
47.040035
 20
66.745201
 30
0.0
 10
46.927375
 20
66.674708
 30
0.0
 10
46.808765
 20
66.620599
 30
0.0
 10
46.696510
 20
66.605501
 30
0.0
 10
46.592517
 20
66.604324
 30
0.0
 10
46.504254
 20
66.560062
 30
0.0
 10
46.399909
 20
66.545560
 30
0.0
 10
46.300901
 20
66.569245
 30
0.0
 10
46.119959
 20
66.564015
 30
0.0
 10
45.879527
 20
66.487308
 30
0.0
 10
45.553603
 20
66.459513
 30
0.0
 10
45.301345
 20
66.381772
 30
0.0
 10
45.093829
 20
66.376767
 30
0.0
 10
44.954693
 20
66.411478
 30
0.0
 10
44.741805
 20
66.372678
 30
0.0
 10
44.485164
 20
66.272076
 30
0.0
 10
44.178151
 20
66.301279
 30
0.0
 10
43.928508
 20
66.283423
 30
0.0
 10
43.760111
 20
66.190987
 30
0.0
 10
43.590553
 20
66.158246
 30
0.0
 10
43.449540
 20
66.069539
 30
0.0
 10
43.263744
 20
66.077703
 30
0.0
 10
43.128813
 20
66.100354
 30
0.0
 10
42.962807
 20
66.126996
 30
0.0
 10
42.948613
 20
66.062759
 30
0.0
 10
42.959837
 20
66.044568
 30
0.0
 10
42.953064
 20
66.004249
 30
0.0
 10
42.869070
 20
66.017753
 30
0.0
 10
42.798682
 20
66.016444
 30
0.0
 10
42.738975
 20
66.021421
 30
0.0
 10
42.714024
 20
66.023501
 30
0.0
 11
52.626559
 21
68.426542
 31
0.0
 11
52.383823
 21
68.352615
 31
0.0
 11
52.214975
 21
68.282926
 31
0.0
 11
52.085875
 21
68.186236
 31
0.0
 11
52.083564
 21
68.166360
 31
0.0
 11
52.090690
 21
68.142570
 31
0.0
 11
52.085875
 21
68.126160
 31
0.0
 11
52.011077
 21
68.109460
 31
0.0
 11
51.916997
 21
68.096465
 31
0.0
 11
51.845572
 21
68.066084
 31
0.0
 11
51.816106
 21
68.026789
 31
0.0
 11
51.786901
 21
67.987756
 31
0.0
 11
51.725420
 21
67.945934
 31
0.0
 11
51.518437
 21
67.921856
 31
0.0
 11
51.246055
 21
67.925153
 31
0.0
 11
51.064583
 21
67.885858
 31
0.0
 11
51.061438
 21
67.867138
 31
0.0
 11
51.067729
 21
67.844505
 31
0.0
 11
51.064583
 21
67.825781
 31
0.0
 11
50.952384
 21
67.779434
 31
0.0
 11
50.824281
 21
67.783936
 31
0.0
 11
50.704128
 21
67.765705
 31
0.0
 11
50.567150
 21
67.699831
 31
0.0
 11
50.425188
 21
67.638142
 31
0.0
 11
50.283597
 21
67.585476
 31
0.0
 11
50.089593
 21
67.578478
 31
0.0
 11
49.871224
 21
67.607858
 31
0.0
 11
49.682837
 21
67.585476
 31
0.0
 11
49.508275
 21
67.498422
 31
0.0
 11
49.333188
 21
67.417780
 31
0.0
 11
49.142153
 21
67.345174
 31
0.0
 11
49.044101
 21
67.341400
 31
0.0
 11
48.936125
 21
67.356569
 31
0.0
 11
48.841774
 21
67.345174
 31
0.0
 11
48.800047
 21
67.306750
 31
0.0
 11
48.765395
 21
67.258506
 31
0.0
 11
48.721621
 21
67.225021
 31
0.0
 11
48.564584
 21
67.198637
 31
0.0
 11
48.400682
 21
67.192213
 31
0.0
 11
48.241014
 21
67.164945
 31
0.0
 11
48.159832
 21
67.127502
 31
0.0
 11
48.081890
 21
67.082237
 31
0.0
 11
48.000708
 21
67.044792
 31
0.0
 11
47.922387
 21
67.039454
 31
0.0
 11
47.838727
 21
67.050131
 31
0.0
 11
47.760406
 21
67.044792
 31
0.0
 11
47.634861
 21
66.976663
 31
0.0
 11
47.521174
 21
66.885786
 31
0.0
 11
47.399951
 21
66.804490
 31
0.0
 11
47.324843
 21
66.795951
 31
0.0
 11
47.234774
 21
66.806632
 31
0.0
 11
47.159646
 21
66.804490
 31
0.0
 11
47.042920
 21
66.747553
 31
0.0
 11
46.925169
 21
66.676922
 31
0.0
 11
46.799190
 21
66.624261
 31
0.0
 11
46.689261
 21
66.607079
 31
0.0
 11
46.599148
 21
66.598188
 31
0.0
 11
46.498809
 21
66.564185
 31
0.0
 11
46.405447
 21
66.551732
 31
0.0
 11
46.296839
 21
66.565031
 31
0.0
 11
46.198430
 21
66.564185
 31
0.0
 11
45.873825
 21
66.498609
 31
0.0
 11
45.557866
 21
66.448545
 31
0.0
 11
45.237215
 21
66.383958
 31
0.0
 11
45.099343
 21
66.382784
 31
0.0
 11
44.947512
 21
66.401484
 31
0.0
 11
44.816683
 21
66.383958
 31
0.0
 11
44.471967
 21
66.297265
 31
0.0
 11
44.146409
 21
66.293575
 31
0.0
 11
43.915542
 21
66.263806
 31
0.0
 11
43.750430
 21
66.196825
 31
0.0
 11
43.601104
 21
66.151087
 31
0.0
 11
43.434934
 21
66.083577
 31
0.0
 11
43.284607
 21
66.079044
 31
0.0
 11
43.091051
 21
66.106296
 31
0.0
 11
42.954326
 21
66.083577
 31
0.0
 11
42.951181
 21
66.064857
 31
0.0
 11
42.957472
 21
66.042224
 31
0.0
 11
42.954326
 21
66.023501
 31
0.0
 11
42.889766
 21
66.013094
 31
0.0
 11
42.787415
 21
66.018297
 31
0.0
 11
42.714024
 21
66.023501
 31
0.0
  0
SPLINE
  5
120
100
AcDbEntity
  8
Silkscreen_Lines
 62
7
100
AcDbSpline
 70
0
 71
3
 72
37
 73
33
 74
31
 40
0.000000
 40
0.000000
 40
0.000000
 40
0.000000
 40
0.134616
 40
0.269232
 40
0.403311
 40
0.454389
 40
0.539287
 40
0.593473
 40
0.611991
 40
0.633551
 40
0.655112
 40
0.701464
 40
0.747816
 40
0.791114
 40
0.829984
 40
0.874142
 40
0.913013
 40
0.956100
 40
1.002833
 40
1.048621
 40
1.185232
 40
1.318848
 40
1.434298
 40
1.475328
 40
1.519152
 40
1.560183
 40
1.579165
 40
1.602656
 40
1.621640
 40
1.927250
 40
2.231785
 40
2.535312
 40
2.535312
 40
2.535312
 40
2.535312
 10
42.714024
 20
66.023501
 30
0.0
 10
42.695371
 20
66.064664
 30
0.0
 10
42.658065
 20
66.146990
 30
0.0
 10
42.596735
 20
66.261480
 30
0.0
 10
42.565345
 20
66.380217
 30
0.0
 10
42.473742
 20
66.405178
 30
0.0
 10
42.418710
 20
66.426410
 30
0.0
 10
42.356670
 20
66.430279
 30
0.0
 10
42.345091
 20
66.462657
 30
0.0
 10
42.350560
 20
66.482671
 30
0.0
 10
42.357339
 20
66.512634
 30
0.0
 10
42.334368
 20
66.547208
 30
0.0
 10
42.324648
 20
66.590317
 30
0.0
 10
42.298024
 20
66.629382
 30
0.0
 10
42.251831
 20
66.631972
 30
0.0
 10
42.215099
 20
66.616626
 30
0.0
 10
42.168451
 20
66.618802
 30
0.0
 10
42.144092
 20
66.659636
 30
0.0
 10
42.134124
 20
66.702761
 30
0.0
 10
42.102186
 20
66.773698
 30
0.0
 10
42.014632
 20
66.839463
 30
0.0
 10
41.914300
 20
66.915261
 30
0.0
 10
41.818794
 20
66.955276
 30
0.0
 10
41.796563
 20
67.028003
 30
0.0
 10
41.827682
 20
67.059644
 30
0.0
 10
41.823129
 20
67.106249
 30
0.0
 10
41.791844
 20
67.110162
 30
0.0
 10
41.773379
 20
67.099013
 30
0.0
 10
41.655539
 20
67.130390
 30
0.0
 10
41.576095
 20
67.366193
 30
0.0
 10
41.464755
 20
67.636983
 30
0.0
 10
41.456532
 20
67.843064
 30
0.0
 10
41.452427
 20
67.945934
 30
0.0
 11
42.714024
 21
66.023501
 31
0.0
 11
42.657156
 21
66.145515
 31
0.0
 11
42.600288
 21
66.267530
 31
0.0
 11
42.533795
 21
66.383958
 31
0.0
 11
42.486169
 21
66.402421
 31
0.0
 11
42.404420
 21
66.425325
 31
0.0
 11
42.353566
 21
66.444035
 31
0.0
 11
42.347275
 21
66.461451
 31
0.0
 11
42.350420
 21
66.482781
 31
0.0
 11
42.353566
 21
66.504111
 31
0.0
 11
42.337371
 21
66.547542
 31
0.0
 11
42.321178
 21
66.590972
 31
0.0
 11
42.293490
 21
66.624261
 31
0.0
 11
42.254936
 21
66.629200
 31
0.0
 11
42.211896
 21
66.619322
 31
0.0
 11
42.173340
 21
66.624261
 31
0.0
 11
42.147175
 21
66.658493
 31
0.0
 11
42.132499
 21
66.702863
 31
0.0
 11
42.113264
 21
66.744413
 31
0.0
 11
42.014970
 21
66.839287
 31
0.0
 11
41.904623
 21
66.914631
 31
0.0
 11
41.812882
 21
66.984719
 31
0.0
 11
41.803979
 21
67.024772
 31
0.0
 11
41.821785
 21
67.064816
 31
0.0
 11
41.812882
 21
67.104869
 31
0.0
 11
41.794162
 21
67.108014
 31
0.0
 11
41.771530
 21
67.101723
 31
0.0
 11
41.752808
 21
67.104869
 31
0.0
 11
41.576635
 21
67.354590
 31
0.0
 11
41.481155
 21
67.643770
 31
0.0
 11
41.452427
 21
67.945934
 31
0.0
  0
SPLINE
  5
121
100
AcDbEntity
  8
Silkscreen_Lines
 62
7
100
AcDbSpline
 70
0
 71
3
 72
37
 73
33
 74
31
 40
0.000000
 40
0.000000
 40
0.000000
 40
0.000000
 40
0.108213
 40
0.216427
 40
0.323927
 40
0.359107
 40
0.408105
 40
0.447575
 40
0.485543
 40
0.532525
 40
0.570495
 40
0.641715
 40
0.724705
 40
0.787289
 40
0.873685
 40
0.979869
 40
1.056456
 40
1.170935
 40
1.293148
 40
1.407625
 40
1.448657
 40
1.492482
 40
1.533513
 40
1.587330
 40
1.661960
 40
1.715775
 40
1.734758
 40
1.758250
 40
1.777234
 40
2.012067
 40
2.300643
 40
2.537325
 40
2.537325
 40
2.537325
 40
2.537325
 10
40.310983
 20
67.525403
 30
0.0
 10
40.345346
 20
67.513503
 30
0.0
 10
40.414073
 20
67.489704
 30
0.0
 10
40.509379
 20
67.448561
 30
0.0
 10
40.606538
 20
67.433745
 30
0.0
 10
40.625909
 20
67.365097
 30
0.0
 10
40.603263
 20
67.330793
 30
0.0
 10
40.602894
 20
67.277569
 30
0.0
 10
40.654943
 20
67.275665
 30
0.0
 10
40.689234
 20
67.295523
 30
0.0
 10
40.746767
 20
67.287165
 30
0.0
 10
40.773876
 20
67.220882
 30
0.0
 10
40.812804
 20
67.163333
 30
0.0
 10
40.851632
 20
67.093436
 30
0.0
 10
40.933365
 20
67.057868
 30
0.0
 10
41.014642
 20
67.025525
 30
0.0
 10
41.108976
 20
66.985188
 30
0.0
 10
41.157585
 20
66.885416
 30
0.0
 10
41.208569
 20
66.785169
 30
0.0
 10
41.242937
 20
66.689991
 30
0.0
 10
41.315319
 20
66.667842
 30
0.0
 10
41.348006
 20
66.700057
 30
0.0
 10
41.405857
 20
66.689396
 30
0.0
 10
41.398528
 20
66.618678
 30
0.0
 10
41.387394
 20
66.571509
 30
0.0
 10
41.376868
 20
66.504074
 30
0.0
 10
41.413488
 20
66.498683
 30
0.0
 10
41.431781
 20
66.509947
 30
0.0
 10
41.526757
 20
66.485708
 30
0.0
 10
41.558316
 20
66.260979
 30
0.0
 10
41.635305
 20
66.032484
 30
0.0
 10
41.757721
 20
65.902049
 30
0.0
 10
41.812882
 20
65.843274
 30
0.0
 11
40.310983
 21
67.525403
 31
0.0
 11
40.412811
 21
67.488782
 31
0.0
 11
40.514639
 21
67.452160
 31
0.0
 11
40.611364
 21
67.405250
 31
0.0
 11
40.620334
 21
67.371232
 31
0.0
 11
40.606409
 21
67.324255
 31
0.0
 11
40.611364
 21
67.285097
 31
0.0
 11
40.648807
 21
67.278804
 31
0.0
 11
40.694072
 21
67.291391
 31
0.0
 11
40.731517
 21
67.285097
 31
0.0
 11
40.773482
 21
67.227555
 31
0.0
 11
40.815892
 21
67.156219
 31
0.0
 11
40.851667
 21
67.104869
 31
0.0
 11
40.926315
 21
67.061372
 31
0.0
 11
41.024529
 21
67.021010
 31
0.0
 11
41.091972
 21
66.984719
 31
0.0
 11
41.155832
 21
66.889708
 31
0.0
 11
41.208340
 21
66.779348
 31
0.0
 11
41.272198
 21
66.684337
 31
0.0
 11
41.312252
 21
66.675434
 31
0.0
 11
41.352297
 21
66.693240
 31
0.0
 11
41.392351
 21
66.684337
 31
0.0
 11
41.399026
 21
66.630936
 31
0.0
 11
41.385676
 21
66.557510
 31
0.0
 11
41.392351
 21
66.504111
 31
0.0
 11
41.411072
 21
66.500965
 31
0.0
 11
41.433706
 21
66.507257
 31
0.0
 11
41.452427
 21
66.504111
 31
0.0
 11
41.559731
 21
66.295227
 31
0.0
 11
41.661453
 21
66.025174
 31
0.0
 11
41.812882
 21
65.843274
 31
0.0
  0
SPLINE
  5
122
100
AcDbEntity
  8
Silkscreen_Lines
 62
7
100
AcDbSpline
 70
0
 71
3
 72
52
 73
48
 74
46
 40
0.000000
 40
0.000000
 40
0.000000
 40
0.000000
 40
0.261534
 40
0.633401
 40
0.873740
 40
0.893750
 40
0.918584
 40
0.935686
 40
1.031775
 40
1.142246
 40
1.238335
 40
1.326746
 40
1.409834
 40
1.507977
 40
1.769996
 40
2.030849
 40
2.293206
 40
2.562191
 40
2.885780
 40
3.138531
 40
3.194663
 40
3.253141
 40
3.309278
 40
3.443804
 40
3.598463
 40
3.732989
 40
3.761351
 40
3.791049
 40
3.818606
 40
4.094240
 40
4.398464
 40
4.664873
 40
5.113849
 40
5.685882
 40
6.054497
 40
6.111220
 40
6.170618
 40
6.225730
 40
6.487343
 40
6.902236
 40
7.189273
 40
7.236855
 40
7.284438
 40
7.316124
 40
7.395633
 40
7.476382
 40
7.557130
 40
7.557130
 40
7.557130
 40
7.557130
 10
41.812882
 20
65.843274
 30
0.0
 10
41.735357
 20
65.797482
 30
0.0
 10
41.547600
 20
65.686579
 30
0.0
 10
41.289741
 20
65.675082
 30
0.0
 10
40.986731
 20
65.740886
 30
0.0
 10
40.966616
 20
65.641037
 30
0.0
 10
40.979953
 20
65.622422
 30
0.0
 10
40.962904
 20
65.574195
 30
0.0
 10
40.862485
 20
65.597810
 30
0.0
 10
40.775363
 20
65.614723
 30
0.0
 10
40.669948
 20
65.612953
 30
0.0
 10
40.596969
 20
65.558211
 30
0.0
 10
40.520239
 20
65.511701
 30
0.0
 10
40.379728
 20
65.461850
 30
0.0
 10
40.170286
 20
65.450964
 30
0.0
 10
39.908183
 20
65.476089
 30
0.0
 10
39.648940
 20
65.416552
 30
0.0
 10
39.362828
 20
65.389871
 30
0.0
 10
39.088980
 20
65.400295
 30
0.0
 10
38.859090
 20
65.408846
 30
0.0
 10
38.763680
 20
65.327066
 30
0.0
 10
38.734156
 20
65.278520
 30
0.0
 10
38.670954
 20
65.219725
 30
0.0
 10
38.543524
 20
65.227860
 30
0.0
 10
38.414468
 20
65.255909
 30
0.0
 10
38.294757
 20
65.268225
 30
0.0
 10
38.245842
 20
65.223990
 30
0.0
 10
38.232500
 20
65.198142
 30
0.0
 10
38.138421
 20
65.133990
 30
0.0
 10
37.916406
 20
65.172229
 30
0.0
 10
37.646129
 20
65.233443
 30
0.0
 10
37.305840
 20
65.171508
 30
0.0
 10
36.882525
 20
65.091229
 30
0.0
 10
36.435130
 20
65.075247
 30
0.0
 10
36.064645
 20
65.135068
 30
0.0
 10
35.940309
 20
65.025317
 30
0.0
 10
35.913641
 20
64.973807
 30
0.0
 10
35.808210
 20
64.898515
 30
0.0
 10
35.547188
 20
64.926226
 30
0.0
 10
35.236370
 20
64.895602
 30
0.0
 10
34.982111
 20
64.870259
 30
0.0
 10
34.857525
 20
64.888220
 30
0.0
 10
34.815261
 20
64.907366
 30
0.0
 10
34.765674
 20
64.873305
 30
0.0
 10
34.777670
 20
64.800133
 30
0.0
 10
34.779102
 20
64.723010
 30
0.0
 10
34.782363
 20
64.668839
 30
0.0
 10
34.783993
 20
64.641754
 30
0.0
 11
41.812882
 21
65.843274
 31
0.0
 11
41.580447
 21
65.723384
 31
0.0
 11
41.209326
 21
65.699834
 31
0.0
 11
40.971819
 21
65.663045
 31
0.0
 11
40.969509
 21
65.643169
 31
0.0
 11
40.976635
 21
65.619379
 31
0.0
 11
40.971819
 21
65.602969
 31
0.0
 11
40.876143
 21
65.594070
 31
0.0
 11
40.767116
 21
65.611870
 31
0.0
 11
40.671440
 21
65.602969
 31
0.0
 11
40.594978
 21
65.558584
 31
0.0
 11
40.523287
 21
65.516584
 31
0.0
 11
40.431135
 21
65.482819
 31
0.0
 11
40.170348
 21
65.457446
 31
0.0
 11
39.909536
 21
65.462106
 31
0.0
 11
39.650149
 21
65.422743
 31
0.0
 11
39.382409
 21
65.396891
 31
0.0
 11
39.058851
 21
65.401384
 31
0.0
 11
38.809083
 21
65.362667
 31
0.0
 11
38.766676
 21
65.325892
 31
0.0
 11
38.731341
 21
65.279296
 31
0.0
 11
38.688933
 21
65.242514
 31
0.0
 11
38.554985
 21
65.230054
 31
0.0
 11
38.402348
 21
65.254974
 31
0.0
 11
38.268399
 21
65.242514
 31
0.0
 11
38.247541
 21
65.223296
 31
0.0
 11
38.230213
 21
65.199177
 31
0.0
 11
38.208323
 21
65.182438
 31
0.0
 11
37.932900
 21
65.171658
 31
0.0
 11
37.631721
 21
65.214594
 31
0.0
 11
37.367260
 21
65.182438
 31
0.0
 11
36.924341
 21
65.108943
 31
0.0
 11
36.352417
 21
65.097773
 31
0.0
 11
35.985513
 21
65.062285
 31
0.0
 11
35.943787
 21
65.023862
 31
0.0
 11
35.909135
 21
64.975618
 31
0.0
 11
35.865361
 21
64.942135
 31
0.0
 11
35.605334
 21
64.913373
 31
0.0
 11
35.191042
 21
64.891041
 31
0.0
 11
34.904146
 21
64.882059
 31
0.0
 11
34.857353
 21
64.890693
 31
0.0
 11
34.810560
 21
64.899327
 31
0.0
 11
34.783993
 21
64.882059
 31
0.0
 11
34.775362
 21
64.803020
 31
0.0
 11
34.779677
 21
64.722387
 31
0.0
 11
34.783993
 21
64.641754
 31
0.0
  0
SPLINE
  5
123
100
AcDbEntity
  8
Silkscreen_Lines
 62
7
100
AcDbSpline
 70
0
 71
3
 72
130
 73
126
 74
124
 40
0.000000
 40
0.000000
 40
0.000000
 40
0.000000
 40
0.187190
 40
0.432758
 40
0.631024
 40
0.691796
 40
0.761664
 40
0.822437
 40
0.883932
 40
0.950000
 40
1.013830
 40
1.115942
 40
1.222521
 40
1.317966
 40
1.424346
 40
1.540017
 40
1.643831
 40
1.662813
 40
1.686305
 40
1.705290
 40
1.746321
 40
1.790146
 40
1.831176
 40
1.850158
 40
1.873649
 40
1.892635
 40
1.992962
 40
2.117091
 40
2.217416
 40
2.255386
 40
2.302368
 40
2.340337
 40
2.378306
 40
2.425288
 40
2.463257
 40
2.482239
 40
2.505731
 40
2.524716
 40
2.605224
 40
2.741348
 40
2.848979
 40
2.920198
 40
3.003189
 40
3.065772
 40
3.120539
 40
3.196127
 40
3.256218
 40
3.377397
 40
3.506155
 40
3.597508
 40
3.652464
 40
3.732873
 40
3.787827
 40
3.831712
 40
3.878860
 40
3.922745
 40
3.960713
 40
4.007694
 40
4.045662
 40
4.064645
 40
4.088135
 40
4.107119
 40
4.187232
 40
4.296048
 40
4.376158
 40
4.414128
 40
4.461109
 40
4.499079
 40
4.554035
 40
4.634443
 40
4.689396
 40
4.733280
 40
4.780428
 40
4.824313
 40
4.879269
 40
4.959678
 40
5.014632
 40
5.033615
 40
5.057106
 40
5.076091
 40
5.114060
 40
5.161042
 40
5.199011
 40
5.217993
 40
5.241485
 40
5.260470
 40
5.402237
 40
5.596423
 40
5.759314
 40
5.778297
 40
5.801788
 40
5.820774
 40
5.874590
 40
5.949220
 40
6.003035
 40
6.022017
 40
6.045508
 40
6.064494
 40
6.118311
 40
6.192941
 40
6.246758
 40
6.265740
 40
6.289231
 40
6.308217
 40
6.346186
 40
6.393168
 40
6.431137
 40
6.450120
 40
6.473611
 40
6.492597
 40
6.530566
 40
6.577547
 40
6.615517
 40
6.676083
 40
6.730395
 40
6.845754
 40
6.886566
 40
6.931356
 40
6.968152
 40
7.067884
 40
7.169093
 40
7.268823
 40
7.329658
 40
7.376688
 40
7.444780
 40
7.444780
 40
7.444780
 40
7.444780
 10
34.543690
 20
66.624261
 30
0.0
 10
34.530903
 20
66.685779
 30
0.0
 10
34.501340
 20
66.828001
 30
0.0
 10
34.456161
 20
67.024518
 30
0.0
 10
34.411155
 20
67.209802
 30
0.0
 10
34.305028
 20
67.254135
 30
0.0
 10
34.242406
 20
67.256834
 30
0.0
 10
34.176614
 20
67.278367
 30
0.0
 10
34.151848
 20
67.341941
 30
0.0
 10
34.146776
 20
67.404080
 30
0.0
 10
34.124581
 20
67.481657
 30
0.0
 10
34.042052
 20
67.533592
 30
0.0
 10
33.946414
 20
67.564896
 30
0.0
 10
33.871182
 20
67.644492
 30
0.0
 10
33.857068
 20
67.753748
 30
0.0
 10
33.817780
 20
67.848500
 30
0.0
 10
33.793041
 20
67.940281
 30
0.0
 10
33.741964
 20
67.951586
 30
0.0
 10
33.723717
 20
67.940702
 30
0.0
 10
33.692298
 20
67.944451
 30
0.0
 10
33.688377
 20
67.991863
 30
0.0
 10
33.716871
 20
68.020155
 30
0.0
 10
33.712960
 20
68.067572
 30
0.0
 10
33.681522
 20
68.071305
 30
0.0
 10
33.663352
 20
68.060480
 30
0.0
 10
33.612908
 20
68.071077
 30
0.0
 10
33.600029
 20
68.173193
 30
0.0
 10
33.565756
 20
68.260349
 30
0.0
 10
33.548671
 20
68.366639
 30
0.0
 10
33.480062
 20
68.376946
 30
0.0
 10
33.445805
 20
68.357086
 30
0.0
 10
33.394502
 20
68.358713
 30
0.0
 10
33.393340
 20
68.410538
 30
0.0
 10
33.410479
 20
68.441876
 30
0.0
 10
33.412183
 20
68.488373
 30
0.0
 10
33.380936
 20
68.491790
 30
0.0
 10
33.363142
 20
68.481109
 30
0.0
 10
33.318595
 20
68.489524
 30
0.0
 10
33.317179
 20
68.590420
 30
0.0
 10
33.273033
 20
68.678222
 30
0.0
 10
33.238160
 20
68.785323
 30
0.0
 10
33.160210
 20
68.831073
 30
0.0
 10
33.100694
 20
68.868605
 30
0.0
 10
33.037434
 20
68.900053
 30
0.0
 10
33.015967
 20
68.964268
 30
0.0
 10
33.001255
 20
69.024677
 30
0.0
 10
32.979736
 20
69.109035
 30
0.0
 10
32.904902
 20
69.186006
 30
0.0
 10
32.825512
 20
69.264049
 30
0.0
 10
32.740567
 20
69.312269
 30
0.0
 10
32.718578
 20
69.387910
 30
0.0
 10
32.702988
 20
69.446631
 30
0.0
 10
32.690015
 20
69.510377
 30
0.0
 10
32.641796
 20
69.531696
 30
0.0
 10
32.601276
 20
69.544643
 30
0.0
 10
32.555721
 20
69.561138
 30
0.0
 10
32.551560
 20
69.610965
 30
0.0
 10
32.569590
 20
69.643655
 30
0.0
 10
32.571088
 20
69.689859
 30
0.0
 10
32.539895
 20
69.693322
 30
0.0
 10
32.521988
 20
69.682591
 30
0.0
 10
32.478281
 20
69.691250
 30
0.0
 10
32.463112
 20
69.774749
 30
0.0
 10
32.419814
 20
69.842838
 30
0.0
 10
32.400125
 20
69.930308
 30
0.0
 10
32.338687
 20
69.938933
 30
0.0
 10
32.303571
 20
69.918351
 30
0.0
 10
32.248792
 20
69.923491
 30
0.0
 10
32.240796
 20
69.992139
 30
0.0
 10
32.221825
 20
70.046696
 30
0.0
 10
32.209449
 20
70.111213
 30
0.0
 10
32.161340
 20
70.132560
 30
0.0
 10
32.119967
 20
70.144860
 30
0.0
 10
32.071807
 20
70.166155
 30
0.0
 10
32.059721
 20
70.230973
 30
0.0
 10
32.039291
 20
70.284026
 30
0.0
 10
32.035531
 20
70.348620
 30
0.0
 10
31.999392
 20
70.354327
 30
0.0
 10
31.981771
 20
70.343841
 30
0.0
 10
31.950448
 20
70.347175
 30
0.0
 10
31.952401
 20
70.393927
 30
0.0
 10
31.968454
 20
70.424182
 30
0.0
 10
31.970365
 20
70.470885
 30
0.0
 10
31.939141
 20
70.474326
 30
0.0
 10
31.921167
 20
70.463463
 30
0.0
 10
31.856232
 20
70.477882
 30
0.0
 10
31.864377
 20
70.640517
 30
0.0
 10
31.835888
 20
70.769364
 30
0.0
 10
31.830966
 20
70.938724
 30
0.0
 10
31.759460
 20
70.955477
 30
0.0
 10
31.741281
 20
70.944332
 30
0.0
 10
31.704595
 20
70.949644
 30
0.0
 10
31.715527
 20
71.017643
 30
0.0
 10
31.724670
 20
71.062018
 30
0.0
 10
31.735734
 20
71.130121
 30
0.0
 10
31.698837
 20
71.135262
 30
0.0
 10
31.681326
 20
71.124655
 30
0.0
 10
31.644424
 20
71.129794
 30
0.0
 10
31.655503
 20
71.197914
 30
0.0
 10
31.664573
 20
71.242219
 30
0.0
 10
31.675678
 20
71.310384
 30
0.0
 10
31.638736
 20
71.315448
 30
0.0
 10
31.621359
 20
71.305077
 30
0.0
 10
31.589966
 20
71.308378
 30
0.0
 10
31.591963
 20
71.355154
 30
0.0
 10
31.607966
 20
71.385367
 30
0.0
 10
31.609977
 20
71.432169
 30
0.0
 10
31.578551
 20
71.435411
 30
0.0
 10
31.561303
 20
71.425256
 30
0.0
 10
31.529896
 20
71.428577
 30
0.0
 10
31.531714
 20
71.474697
 30
0.0
 10
31.548641
 20
71.508137
 30
0.0
 10
31.547965
 20
71.561501
 30
0.0
 10
31.461792
 20
71.589120
 30
0.0
 10
31.497905
 20
71.454078
 30
0.0
 10
31.415919
 20
71.592256
 30
0.0
 10
31.415131
 20
71.651957
 30
0.0
 10
31.433050
 20
71.691916
 30
0.0
 10
31.416271
 20
71.754190
 30
0.0
 10
31.337798
 20
71.791368
 30
0.0
 10
31.260275
 20
71.849835
 30
0.0
 10
31.179515
 20
71.893164
 30
0.0
 10
31.155413
 20
71.965550
 30
0.0
 10
31.205983
 20
72.028278
 30
0.0
 10
31.151552
 20
72.030052
 30
0.0
 10
31.119358
 20
72.031101
 30
0.0
 11
34.543690
 21
66.624261
 31
0.0
 11
34.505062
 21
66.807422
 31
0.0
 11
34.450384
 21
67.046825
 31
0.0
 11
34.363462
 21
67.225021
 31
0.0
 11
34.307836
 21
67.249497
 31
0.0
 11
34.238860
 21
67.260623
 31
0.0
 11
34.183233
 21
67.285097
 31
0.0
 11
34.155562
 21
67.340016
 31
0.0
 11
34.144393
 21
67.405132
 31
0.0
 11
34.123156
 21
67.465326
 31
0.0
 11
34.042824
 21
67.528362
 31
0.0
 11
33.946877
 21
67.574767
 31
0.0
 11
33.882854
 21
67.645553
 31
0.0
 11
33.853602
 21
67.747833
 31
0.0
 11
33.817376
 21
67.857684
 31
0.0
 11
33.762701
 21
67.945934
 31
0.0
 11
33.743982
 21
67.949080
 31
0.0
 11
33.721348
 21
67.942788
 31
0.0
 11
33.702625
 21
67.945934
 31
0.0
 11
33.693722
 21
67.985987
 31
0.0
 11
33.711528
 21
68.026032
 31
0.0
 11
33.702625
 21
68.066084
 31
0.0
 11
33.683905
 21
68.069230
 31
0.0
 11
33.661272
 21
68.062938
 31
0.0
 11
33.642549
 21
68.066084
 31
0.0
 11
33.598929
 21
68.156432
 31
0.0
 11
33.566019
 21
68.276119
 31
0.0
 11
33.522399
 21
68.366465
 31
0.0
 11
33.484954
 21
68.372759
 31
0.0
 11
33.439689
 21
68.360172
 31
0.0
 11
33.402246
 21
68.366465
 31
0.0
 11
33.395952
 21
68.403910
 31
0.0
 11
33.408539
 21
68.449174
 31
0.0
 11
33.402246
 21
68.486618
 31
0.0
 11
33.383526
 21
68.489764
 31
0.0
 11
33.360893
 21
68.483472
 31
0.0
 11
33.342170
 21
68.486618
 31
0.0
 11
33.313620
 21
68.561893
 31
0.0
 11
33.271087
 21
68.691202
 31
0.0
 11
33.222017
 21
68.786997
 31
0.0
 11
33.164476
 21
68.828964
 31
0.0
 11
33.093141
 21
68.871374
 31
0.0
 11
33.041791
 21
68.907149
 31
0.0
 11
33.019066
 21
68.956979
 31
0.0
 11
32.999783
 21
69.030066
 31
0.0
 11
32.981715
 21
69.087376
 31
0.0
 11
32.907246
 21
69.182973
 31
0.0
 11
32.811072
 21
69.268583
 31
0.0
 11
32.741410
 21
69.327681
 31
0.0
 11
32.721383
 21
69.378858
 31
0.0
 11
32.701358
 21
69.456734
 31
0.0
 11
32.681333
 21
69.507910
 31
0.0
 11
32.643508
 21
69.530160
 31
0.0
 11
32.599007
 21
69.545735
 31
0.0
 11
32.561181
 21
69.567986
 31
0.0
 11
32.554888
 21
69.605429
 31
0.0
 11
32.567475
 21
69.650693
 31
0.0
 11
32.561181
 21
69.688136
 31
0.0
 11
32.542461
 21
69.691281
 31
0.0
 11
32.519829
 21
69.684990
 31
0.0
 11
32.501107
 21
69.688136
 31
0.0
 11
32.462218
 21
69.758176
 31
0.0
 11
32.419842
 21
69.858403
 31
0.0
 11
32.380955
 21
69.928441
 31
0.0
 11
32.343510
 21
69.934733
 31
0.0
 11
32.298246
 21
69.922147
 31
0.0
 11
32.260802
 21
69.928441
 31
0.0
 11
32.240775
 21
69.979618
 31
0.0
 11
32.220751
 21
70.057493
 31
0.0
 11
32.200726
 21
70.108667
 31
0.0
 11
32.162900
 21
70.130918
 31
0.0
 11
32.118399
 21
70.146493
 31
0.0
 11
32.080573
 21
70.168744
 31
0.0
 11
32.060546
 21
70.219921
 31
0.0
 11
32.040523
 21
70.297797
 31
0.0
 11
32.020499
 21
70.348972
 31
0.0
 11
32.001779
 21
70.352118
 31
0.0
 11
31.979145
 21
70.345827
 31
0.0
 11
31.960423
 21
70.348972
 31
0.0
 11
31.954129
 21
70.386417
 31
0.0
 11
31.966716
 21
70.431681
 31
0.0
 11
31.960423
 21
70.469125
 31
0.0
 11
31.941703
 21
70.472271
 31
0.0
 11
31.919070
 21
70.465979
 31
0.0
 11
31.900347
 21
70.469125
 31
0.0
 11
31.858385
 21
70.604539
 31
0.0
 11
31.838749
 21
70.797729
 31
0.0
 11
31.780194
 21
70.949733
 31
0.0
 11
31.761474
 21
70.952878
 31
0.0
 11
31.738841
 21
70.946587
 31
0.0
 11
31.720118
 21
70.949733
 31
0.0
 11
31.713443
 21
71.003134
 31
0.0
 11
31.726793
 21
71.076560
 31
0.0
 11
31.720118
 21
71.129959
 31
0.0
 11
31.701398
 21
71.133105
 31
0.0
 11
31.678765
 21
71.126813
 31
0.0
 11
31.660042
 21
71.129959
 31
0.0
 11
31.653367
 21
71.183360
 31
0.0
 11
31.666717
 21
71.256787
 31
0.0
 11
31.660042
 21
71.310188
 31
0.0
 11
31.641322
 21
71.313333
 31
0.0
 11
31.618689
 21
71.307042
 31
0.0
 11
31.599965
 21
71.310188
 31
0.0
 11
31.593673
 21
71.347632
 31
0.0
 11
31.606260
 21
71.392896
 31
0.0
 11
31.599965
 21
71.430340
 31
0.0
 11
31.581246
 21
71.433486
 31
0.0
 11
31.558612
 21
71.427195
 31
0.0
 11
31.539889
 21
71.430340
 31
0.0
 11
31.533597
 21
71.467785
 31
0.0
 11
31.546183
 21
71.513049
 31
0.0
 11
31.539889
 21
71.550493
 31
0.0
 11
31.481277
 21
71.565751
 31
0.0
 11
31.478831
 21
71.511494
 31
0.0
 11
31.419739
 21
71.610569
 31
0.0
 11
31.418071
 21
71.651347
 31
0.0
 11
31.428345
 21
71.694944
 31
0.0
 11
31.419739
 21
71.730719
 31
0.0
 11
31.341861
 21
71.793022
 31
0.0
 11
31.257310
 21
71.848648
 31
0.0
 11
31.179434
 21
71.910948
 31
0.0
 11
31.167655
 21
71.970631
 31
0.0
 11
31.185324
 21
72.014216
 31
0.0
 11
31.119358
 21
72.031101
 31
0.0
  0
SPLINE
  5
124
100
AcDbEntity
  8
Silkscreen_Lines
 62
7
100
AcDbSpline
 70
0
 71
3
 72
43
 73
39
 74
37
 40
0.000000
 40
0.000000
 40
0.000000
 40
0.000000
 40
0.269514
 40
0.539029
 40
0.808350
 40
0.984613
 40
1.257902
 40
1.456258
 40
1.515135
 40
1.578390
 40
1.637269
 40
1.707102
 40
1.782850
 40
1.854332
 40
1.955595
 40
2.063555
 40
2.164661
 40
2.227245
 40
2.310235
 40
2.381455
 40
2.524366
 40
2.693018
 40
2.853751
 40
2.874157
 40
2.896552
 40
2.914951
 40
3.090459
 40
3.356603
 40
3.533743
 40
3.620140
 40
3.726323
 40
3.802911
 40
3.865418
 40
3.920807
 40
3.995500
 40
4.131285
 40
4.246943
 40
4.456694
 40
4.456694
 40
4.456694
 40
4.456694
 10
34.783993
 20
64.641754
 30
0.0
 10
34.716144
 20
64.700828
 30
0.0
 10
34.580446
 20
64.818976
 30
0.0
 10
34.383713
 20
65.000493
 30
0.0
 10
34.185739
 20
65.145723
 30
0.0
 10
34.089426
 20
65.370394
 30
0.0
 10
34.021938
 20
65.573465
 30
0.0
 10
33.945750
 20
65.735818
 30
0.0
 10
33.935786
 20
65.843734
 30
0.0
 10
33.949314
 20
65.902634
 30
0.0
 10
33.947799
 20
65.968769
 30
0.0
 10
33.908567
 20
66.027305
 30
0.0
 10
33.863550
 20
66.082664
 30
0.0
 10
33.811365
 20
66.149324
 30
0.0
 10
33.801364
 20
66.246629
 30
0.0
 10
33.811175
 20
66.347987
 30
0.0
 10
33.778431
 20
66.441788
 30
0.0
 10
33.704905
 20
66.483298
 30
0.0
 10
33.643210
 20
66.519333
 30
0.0
 10
33.559681
 20
66.574902
 30
0.0
 10
33.494683
 20
66.689977
 30
0.0
 10
33.407948
 20
66.812707
 30
0.0
 10
33.330283
 20
66.920508
 30
0.0
 10
33.260786
 20
66.927419
 30
0.0
 10
33.241395
 20
66.917671
 30
0.0
 10
33.168930
 20
66.941352
 30
0.0
 10
33.134073
 20
67.121154
 30
0.0
 10
33.017073
 20
67.275980
 30
0.0
 10
32.955256
 20
67.456920
 30
0.0
 10
32.840605
 20
67.513067
 30
0.0
 10
32.758866
 20
67.545339
 30
0.0
 10
32.680002
 20
67.575930
 30
0.0
 10
32.644490
 20
67.636114
 30
0.0
 10
32.645115
 20
67.700732
 30
0.0
 10
32.620257
 20
67.789063
 30
0.0
 10
32.531785
 20
67.859757
 30
0.0
 10
32.380453
 20
67.924570
 30
0.0
 10
32.380758
 20
68.047149
 30
0.0
 10
32.380955
 20
68.126160
 30
0.0
 11
34.783993
 21
64.641754
 31
0.0
 11
34.581574
 21
64.819699
 31
0.0
 11
34.379154
 21
64.997643
 31
0.0
 11
34.183233
 21
65.182438
 31
0.0
 11
34.104486
 21
65.340132
 31
0.0
 11
34.007887
 21
65.595779
 31
0.0
 11
33.942930
 21
65.783198
 31
0.0
 11
33.938926
 21
65.841939
 31
0.0
 11
33.946934
 21
65.904685
 31
0.0
 11
33.942930
 21
65.963427
 31
0.0
 11
33.909182
 21
66.024564
 31
0.0
 11
33.862563
 21
66.084267
 31
0.0
 11
33.822778
 21
66.143653
 31
0.0
 11
33.804899
 21
66.243326
 31
0.0
 11
33.802909
 21
66.351268
 31
0.0
 11
33.762701
 21
66.444035
 31
0.0
 11
33.711350
 21
66.479809
 31
0.0
 11
33.640015
 21
66.522219
 31
0.0
 11
33.582472
 21
66.564185
 31
0.0
 11
33.498146
 21
66.679566
 31
0.0
 11
33.403179
 21
66.818938
 31
0.0
 11
33.282094
 21
66.924642
 31
0.0
 11
33.261704
 21
66.925471
 31
0.0
 11
33.239906
 21
66.920338
 31
0.0
 11
33.222017
 21
66.924642
 31
0.0
 11
33.133038
 21
67.075923
 31
0.0
 11
33.011809
 21
67.312853
 31
0.0
 11
32.921639
 21
67.465326
 31
0.0
 11
32.846990
 21
67.508823
 31
0.0
 11
32.748776
 21
67.549185
 31
0.0
 11
32.681333
 21
67.585476
 31
0.0
 11
32.649349
 21
67.639181
 31
0.0
 11
32.642771
 21
67.694178
 31
0.0
 11
32.621257
 21
67.765705
 31
0.0
 11
32.522156
 21
67.858530
 31
0.0
 11
32.424855
 21
67.921055
 31
0.0
 11
32.380955
 21
68.126160
 31
0.0
  0
SPLINE
  5
125
100
AcDbEntity
  8
Silkscreen_Lines
 62
7
100
AcDbSpline
 70
0
 71
3
 72
10
 73
6
 74
4
 40
0.000000
 40
0.000000
 40
0.000000
 40
0.000000
 40
0.256260
 40
0.492979
 40
0.688360
 40
0.688360
 40
0.688360
 40
0.688360
 10
40.070680
 20
70.649351
 30
0.0
 10
39.972167
 20
70.656621
 30
0.0
 10
39.782652
 20
70.670606
 30
0.0
 10
39.776307
 20
70.956113
 30
0.0
 10
39.648061
 20
71.034460
 30
0.0
 10
39.590072
 20
71.069885
 30
0.0
 11
40.070680
 21
70.649351
 31
0.0
 11
39.825121
 21
70.722632
 31
0.0
 11
39.738632
 21
70.942984
 31
0.0
 11
39.590072
 21
71.069885
 31
0.0
  0
SPLINE
  5
126
100
AcDbEntity
  8
Silkscreen_Lines
 62
7
100
AcDbSpline
 70
0
 71
3
 72
10
 73
6
 74
4
 40
0.000000
 40
0.000000
 40
0.000000
 40
0.000000
 40
0.261373
 40
0.416390
 40
0.663935
 40
0.663935
 40
0.663935
 40
0.663935
 10
39.289691
 20
69.928441
 30
0.0
 10
39.242357
 20
70.000922
 30
0.0
 10
39.166949
 20
70.116391
 30
0.0
 10
39.041874
 20
70.305411
 30
0.0
 10
39.046527
 20
70.443987
 30
0.0
 10
39.049388
 20
70.529201
 30
0.0
 11
39.289691
 21
69.928441
 31
0.0
 11
39.146493
 21
70.147096
 31
0.0
 11
39.071240
 21
70.282622
 31
0.0
 11
39.049388
 21
70.529201
 31
0.0
  0
ENDSEC
  0
SECTION
  2
OBJECTS
  0
DICTIONARY
  5
C
330
0
100
AcDbDictionary
  3
ACAD_GROUP
350
D
  3
ACAD_MLINESTYLE
350
17
  0
DICTIONARY
  5
D
330
C
100
AcDbDictionary
  0
DICTIONARY
  5
1A
330
C
100
AcDbDictionary
  0
DICTIONARY
  5
17
330
C
100
AcDbDictionary
  3
STANDARD
350
18
  0
DICTIONARY
  5
19
330
C
100
AcDbDictionary
  0
ENDSEC
  0
EOF
