  0
SECTION
  2
HEADER
  9
$ACADVER
  1
AC1014
  9
$HANDSEED
  5
FFFF
  9
$MEASUREMENT
 70
     1
  0
ENDSEC
  0
SECTION
  2
TABLES
  0
TABLE
  2
VPORT
  5
8
330
0
100
AcDbSymbolTable
 70
     4
  0
VPORT
  5
2E
330
8
100
AcDbSymbolTableRecord
100
AcDbViewportTableRecord
  2
*ACTIVE
 70
     0
 10
0.0
 20
0.0
 11
1.0
 21
1.0
 12
210.0
 22
148.5
 13
0.0
 23
0.0
 14
10.0
 24
10.0
 15
10.0
 25
10.0
 16
0.0
 26
0.0
 36
1.0
 17
0.0
 27
0.0
 37
0.0
 40
341.0
 41
1.24
 42
50.0
 43
0.0
 44
0.0
 50
0.0
 51
0.0
 71
     0
 72
   100
 73
     1
 74
     3
 75
     0
 76
     0
 77
     0
 78
     0
  0
ENDTAB
  0
TABLE
  2
LTYPE
  5
5
330
0
100
AcDbSymbolTable
 70
     1
  0
LTYPE
  5
14
330
5
100
AcDbSymbolTableRecord
100
AcDbLinetypeTableRecord
  2
BYBLOCK
 70
     0
  3

 72
    65
 73
     0
 40
0.0
  0
LTYPE
  5
15
330
5
100
AcDbSymbolTableRecord
100
AcDbLinetypeTableRecord
  2
BYLAYER
 70
     0
  3

 72
    65
 73
     0
 40
0.0
  0
LTYPE
  5
16
330
5
100
AcDbSymbolTableRecord
100
AcDbLinetypeTableRecord
  2
CONTINUOUS
 70
     0
  3
Solid line
 72
    65
 73
     0
 40
0.0
  0
ENDTAB
  0
TABLE
  2
LAYER
  5
2
100
AcDbSymbolTable
 70
4
  0
LAYER
  5
50
100
AcDbSymbolTableRecord
100
AcDbLayerTableRecord
  2
0
 70
0
  6
CONTINUOUS
  0
LAYER
  5
51
100
AcDbSymbolTableRecord
100
AcDbLayerTableRecord
  2
Image
 70
0
  6
CONTINUOUS
  0
LAYER
  5
52
100
AcDbSymbolTableRecord
100
AcDbLayerTableRecord
  2
Vector_Trace
 70
0
  6
CONTINUOUS
  0
LAYER
  5
53
100
AcDbSymbolTableRecord
100
AcDbLayerTableRecord
  2
Silkscreen
 70
0
  6
CONTINUOUS
  0
ENDTAB
  0
TABLE
  2
STYLE
  5
3
330
0
100
AcDbSymbolTable
 70
     1
  0
STYLE
  5
11
330
3
100
AcDbSymbolTableRecord
100
AcDbTextStyleTableRecord
  2
STANDARD
 70
     0
 40
0.0
 41
1.0
 50
0.0
 71
     0
 42
2.5
  3
txt
  4

  0
ENDTAB
  0
TABLE
  2
VIEW
  5
6
330
0
100
AcDbSymbolTable
 70
     0
  0
ENDTAB
  0
TABLE
  2
UCS
  5
7
330
0
100
AcDbSymbolTable
 70
     0
  0
ENDTAB
  0
TABLE
  2
APPID
  5
9
330
0
100
AcDbSymbolTable
 70
     2
  0
APPID
  5
12
330
9
100
AcDbSymbolTableRecord
100
AcDbRegAppTableRecord
  2
ACAD
 70
     0
  0
ENDTAB
  0
TABLE
  2
DIMSTYLE
  5
A
330
0
100
AcDbSymbolTable
 70
     1
  0
DIMSTYLE
105
27
330
A
100
AcDbSymbolTableRecord
100
AcDbDimStyleTableRecord
  2
ISO-25
 70
     0
  3

  4

  5

  6

  7

 40
1.0
 41
2.5
 42
0.625
 43
3.75
 44
1.25
 45
0.0
 46
0.0
 47
0.0
 48
0.0
140
2.5
141
2.5
142
0.0
143
0.03937007874016
144
1.0
145
0.0
146
1.0
147
0.625
 71
     0
 72
     0
 73
     0
 74
     0
 75
     0
 76
     0
 77
     1
 78
     8
170
     0
171
     3
172
     1
173
     0
174
     0
175
     0
176
     0
177
     0
178
     0
270
     2
271
     2
272
     2
273
     2
274
     3
340
11
275
     0
280
     0
281
     0
282
     0
283
     0
284
     8
285
     0
286
     0
287
     3
288
     0
  0
ENDTAB
  0
TABLE
  2
BLOCK_RECORD
  5
1
330
0
100
AcDbSymbolTable
 70
     1
  0
BLOCK_RECORD
  5
1F
330
1
100
AcDbSymbolTableRecord
100
AcDbBlockTableRecord
  2
*MODEL_SPACE
  0
BLOCK_RECORD
  5
1B
330
1
100
AcDbSymbolTableRecord
100
AcDbBlockTableRecord
  2
*PAPER_SPACE
  0
ENDTAB
  0
ENDSEC
  0
SECTION
  2
BLOCKS
  0
BLOCK
  5
20
330
1F
100
AcDbEntity
  8
0
100
AcDbBlockBegin
  2
*MODEL_SPACE
 70
     0
 10
0.0
 20
0.0
 30
0.0
  3
*MODEL_SPACE
  1

  0
ENDBLK
  5
21
330
1F
100
AcDbEntity
  8
0
100
AcDbBlockEnd
  0
BLOCK
  5
1C
330
1B
100
AcDbEntity
 67
     1
  8
0
100
AcDbBlockBegin
  2
*PAPER_SPACE
  1

  0
ENDBLK
  5
1D
330
1B
100
AcDbEntity
 67
     1
  8
0
100
AcDbBlockEnd
  0
ENDSEC
  0
SECTION
  2
ENTITIES
  0
LINE
  5
100
100
AcDbEntity
  8
Silkscreen
 62
7
100
AcDbLine
 10
30.037990
 20
71.129959
 30
0.0
 11
31.840271
 21
70.168744
 31
0.0
  0
LINE
  5
101
100
AcDbEntity
  8
Silkscreen
 62
7
100
AcDbLine
 10
31.840271
 20
70.168744
 30
0.0
 11
32.200726
 21
68.246313
 31
0.0
  0
LINE
  5
102
100
AcDbEntity
  8
Silkscreen
 62
7
100
AcDbLine
 10
32.200726
 20
68.246313
 30
0.0
 11
30.728864
 21
68.186236
 31
0.0
  0
LINE
  5
103
100
AcDbEntity
  8
Silkscreen
 62
7
100
AcDbLine
 10
30.728864
 20
68.186236
 30
0.0
 11
29.707573
 21
68.696882
 31
0.0
  0
LINE
  5
104
100
AcDbEntity
  8
Silkscreen
 62
7
100
AcDbLine
 10
29.707573
 20
68.696882
 30
0.0
 11
29.767649
 21
69.928441
 31
0.0
  0
LINE
  5
105
100
AcDbEntity
  8
Silkscreen
 62
7
100
AcDbLine
 10
29.767649
 20
69.928441
 30
0.0
 11
30.068028
 21
70.919695
 31
0.0
  0
LINE
  5
106
100
AcDbEntity
  8
Silkscreen
 62
7
100
AcDbLine
 10
30.068028
 20
70.919695
 30
0.0
 11
30.068028
 21
70.919695
 31
0.0
  0
SPLINE
  5
107
100
AcDbEntity
  8
Silkscreen
 62
7
100
AcDbSpline
 70
0
 71
3
 72
10
 73
6
 74
4
 40
0.000000
 40
0.000000
 40
0.000000
 40
0.000000
 40
5.202318
 40
9.248999
 40
10.882903
 40
10.882903
 40
10.882903
 40
10.882903
 10
20.065377
 20
66.804490
 30
0.0
 10
21.607525
 20
67.599890
 30
0.0
 10
24.349248
 20
69.014001
 30
0.0
 10
27.730350
 20
70.343338
 30
0.0
 10
29.522511
 20
70.954244
 30
0.0
 10
30.037990
 20
71.129959
 30
0.0
 11
20.065377
 21
66.804490
 31
0.0
 11
24.733504
 21
69.100727
 31
0.0
 11
28.493815
 21
70.595951
 31
0.0
 11
30.037990
 21
71.129959
 31
0.0
  0
SPLINE
  5
108
100
AcDbEntity
  8
Silkscreen
 62
7
100
AcDbSpline
 70
0
 71
3
 72
10
 73
6
 74
4
 40
0.000000
 40
0.000000
 40
0.000000
 40
0.000000
 40
0.530135
 40
0.725448
 40
0.753350
 40
0.753350
 40
0.753350
 40
0.753350
 10
31.990461
 20
68.847073
 30
0.0
 10
31.814312
 20
68.861165
 30
0.0
 10
31.573266
 20
68.880449
 30
0.0
 10
31.322949
 20
68.900474
 30
0.0
 10
31.248781
 20
68.906408
 30
0.0
 10
31.239510
 20
68.907149
 30
0.0
 11
31.990461
 21
68.847073
 31
0.0
 11
31.462014
 21
68.889349
 31
0.0
 11
31.267323
 21
68.904924
 31
0.0
 11
31.239510
 21
68.907149
 31
0.0
  0
LINE
  5
109
100
AcDbEntity
  8
Silkscreen
 62
7
100
AcDbLine
 10
31.029243
 20
72.061139
 30
0.0
 11
34.753955
 21
66.113615
 31
0.0
  0
LINE
  5
10a
100
AcDbEntity
  8
Silkscreen
 62
7
100
AcDbLine
 10
34.753955
 20
66.113615
 30
0.0
 11
34.633802
 21
64.671792
 31
0.0
  0
LINE
  5
10b
100
AcDbEntity
  8
Silkscreen
 62
7
100
AcDbLine
 10
34.633802
 20
64.671792
 30
0.0
 11
32.200726
 21
68.246313
 31
0.0
  0
LINE
  5
10c
100
AcDbEntity
  8
Silkscreen
 62
7
100
AcDbLine
 10
30.758903
 20
70.829580
 30
0.0
 11
30.158142
 21
71.700681
 31
0.0
  0
SPLINE
  5
10d
100
AcDbEntity
  8
Silkscreen
 62
7
100
AcDbSpline
 70
0
 71
3
 72
10
 73
6
 74
4
 40
0.000000
 40
0.000000
 40
0.000000
 40
0.000000
 40
0.338865
 40
0.463710
 40
0.481545
 40
0.481545
 40
0.481545
 40
0.481545
 10
31.750156
 20
69.567986
 30
0.0
 10
31.637421
 20
69.575031
 30
0.0
 10
31.483152
 20
69.584672
 30
0.0
 10
31.322949
 20
69.594684
 30
0.0
 10
31.275482
 20
69.597651
 30
0.0
 10
31.269548
 20
69.598021
 30
0.0
 11
31.750156
 21
69.567986
 31
0.0
 11
31.411951
 21
69.589122
 31
0.0
 11
31.287349
 21
69.596909
 31
0.0
 11
31.269548
 21
69.598021
 31
0.0
  0
LINE
  5
10e
100
AcDbEntity
  8
Silkscreen
 62
7
100
AcDbLine
 10
31.569927
 20
71.520455
 30
0.0
 11
32.380955
 21
72.181289
 31
0.0
  0
LINE
  5
10f
100
AcDbEntity
  8
Silkscreen
 62
7
100
AcDbLine
 10
32.380955
 20
72.181289
 30
0.0
 11
33.131903
 21
72.451632
 31
0.0
  0
LINE
  5
110
100
AcDbEntity
  8
Silkscreen
 62
7
100
AcDbLine
 10
33.131903
 20
72.451632
 30
0.0
 11
33.912892
 21
72.631861
 31
0.0
  0
LINE
  5
111
100
AcDbEntity
  8
Silkscreen
 62
7
100
AcDbLine
 10
33.912892
 20
72.631861
 30
0.0
 11
34.273347
 21
73.292695
 31
0.0
  0
LINE
  5
112
100
AcDbEntity
  8
Silkscreen
 62
7
100
AcDbLine
 10
34.273347
 20
73.292695
 30
0.0
 11
35.084374
 21
72.962278
 31
0.0
  0
LINE
  5
113
100
AcDbEntity
  8
Silkscreen
 62
7
100
AcDbLine
 10
35.084374
 20
72.962278
 30
0.0
 11
35.114410
 21
73.743264
 31
0.0
  0
LINE
  5
114
100
AcDbEntity
  8
Silkscreen
 62
7
100
AcDbLine
 10
35.114410
 20
73.743264
 30
0.0
 11
35.955475
 21
73.412847
 31
0.0
  0
LINE
  5
115
100
AcDbEntity
  8
Silkscreen
 62
7
100
AcDbLine
 10
35.955475
 20
73.412847
 30
0.0
 11
36.195778
 21
74.253910
 31
0.0
  0
LINE
  5
116
100
AcDbEntity
  8
Silkscreen
 62
7
100
AcDbLine
 10
36.195778
 20
74.253910
 30
0.0
 11
37.036843
 21
73.683191
 31
0.0
  0
LINE
  5
117
100
AcDbEntity
  8
Silkscreen
 62
7
100
AcDbLine
 10
37.036843
 20
73.683191
 30
0.0
 11
37.247108
 21
75.906001
 31
0.0
  0
LINE
  5
118
100
AcDbEntity
  8
Silkscreen
 62
7
100
AcDbLine
 10
37.247108
 20
75.906001
 30
0.0
 11
37.066881
 21
77.888508
 31
0.0
  0
LINE
  5
119
100
AcDbEntity
  8
Silkscreen
 62
7
100
AcDbLine
 10
37.066881
 20
77.888508
 30
0.0
 11
36.135702
 21
79.570636
 31
0.0
  0
LINE
  5
11a
100
AcDbEntity
  8
Silkscreen
 62
7
100
AcDbLine
 10
36.135702
 20
79.570636
 30
0.0
 11
36.105666
 21
80.171395
 31
0.0
  0
LINE
  5
11b
100
AcDbEntity
  8
Silkscreen
 62
7
100
AcDbLine
 10
36.105666
 20
80.171395
 30
0.0
 11
35.354715
 21
80.471775
 31
0.0
  0
LINE
  5
11c
100
AcDbEntity
  8
Silkscreen
 62
7
100
AcDbLine
 10
35.354715
 20
80.471775
 30
0.0
 11
35.024298
 21
81.072535
 31
0.0
  0
LINE
  5
11d
100
AcDbEntity
  8
Silkscreen
 62
7
100
AcDbLine
 10
35.024298
 20
81.072535
 30
0.0
 11
35.084374
 21
82.153903
 31
0.0
  0
LINE
  5
11e
100
AcDbEntity
  8
Silkscreen
 62
7
100
AcDbLine
 10
35.084374
 20
82.153903
 30
0.0
 11
35.354715
 21
82.304093
 31
0.0
  0
LINE
  5
11f
100
AcDbEntity
  8
Silkscreen
 62
7
100
AcDbLine
 10
35.354715
 20
82.304093
 30
0.0
 11
35.264601
 21
82.754663
 31
0.0
  0
LINE
  5
120
100
AcDbEntity
  8
Silkscreen
 62
7
100
AcDbLine
 10
35.264601
 20
82.754663
 30
0.0
 11
36.015552
 21
83.445537
 31
0.0
  0
LINE
  5
121
100
AcDbEntity
  8
Silkscreen
 62
7
100
AcDbLine
 10
36.015552
 20
83.445537
 30
0.0
 11
36.556236
 21
83.866068
 31
0.0
  0
LINE
  5
122
100
AcDbEntity
  8
Silkscreen
 62
7
100
AcDbLine
 10
36.556236
 20
83.866068
 30
0.0
 11
37.367260
 21
83.896106
 31
0.0
  0
LINE
  5
123
100
AcDbEntity
  8
Silkscreen
 62
7
100
AcDbLine
 10
37.367260
 20
83.896106
 30
0.0
 11
37.457375
 21
84.466828
 31
0.0
  0
LINE
  5
124
100
AcDbEntity
  8
Silkscreen
 62
7
100
AcDbLine
 10
37.457375
 20
84.466828
 30
0.0
 11
38.298438
 21
84.286600
 31
0.0
  0
LINE
  5
125
100
AcDbEntity
  8
Silkscreen
 62
7
100
AcDbLine
 10
38.298438
 20
84.286600
 30
0.0
 11
41.061934
 21
85.518158
 31
0.0
  0
LINE
  5
126
100
AcDbEntity
  8
Silkscreen
 62
7
100
AcDbLine
 10
41.061934
 20
85.518158
 30
0.0
 11
41.993111
 21
85.728424
 31
0.0
  0
LINE
  5
127
100
AcDbEntity
  8
Silkscreen
 62
7
100
AcDbLine
 10
41.993111
 20
85.728424
 30
0.0
 11
43.374858
 21
85.968728
 31
0.0
  0
LINE
  5
128
100
AcDbEntity
  8
Silkscreen
 62
7
100
AcDbLine
 10
43.374858
 20
85.968728
 30
0.0
 11
44.456226
 21
85.277854
 31
0.0
  0
LINE
  5
129
100
AcDbEntity
  8
Silkscreen
 62
7
100
AcDbLine
 10
44.456226
 20
85.277854
 30
0.0
 11
45.297291
 21
85.037550
 31
0.0
  0
LINE
  5
12a
100
AcDbEntity
  8
Silkscreen
 62
7
100
AcDbLine
 10
45.297291
 20
85.037550
 30
0.0
 11
45.928087
 21
84.887360
 31
0.0
  0
LINE
  5
12b
100
AcDbEntity
  8
Silkscreen
 62
7
100
AcDbLine
 10
45.928087
 20
84.887360
 30
0.0
 11
46.078278
 21
84.436790
 31
0.0
  0
LINE
  5
12c
100
AcDbEntity
  8
Silkscreen
 62
7
100
AcDbLine
 10
46.078278
 20
84.436790
 30
0.0
 11
45.597670
 21
84.136410
 31
0.0
  0
LINE
  5
12d
100
AcDbEntity
  8
Silkscreen
 62
7
100
AcDbLine
 10
45.597670
 20
84.136410
 30
0.0
 11
46.468771
 21
83.775954
 31
0.0
  0
LINE
  5
12e
100
AcDbEntity
  8
Silkscreen
 62
7
100
AcDbLine
 10
46.468771
 20
83.775954
 30
0.0
 11
45.958125
 21
83.205232
 31
0.0
  0
LINE
  5
12f
100
AcDbEntity
  8
Silkscreen
 62
7
100
AcDbLine
 10
45.958125
 20
83.205232
 30
0.0
 11
47.910597
 21
83.475574
 31
0.0
  0
LINE
  5
130
100
AcDbEntity
  8
Silkscreen
 62
7
100
AcDbLine
 10
47.910597
 20
83.475574
 30
0.0
 11
47.910597
 21
82.664549
 31
0.0
  0
LINE
  5
131
100
AcDbEntity
  8
Silkscreen
 62
7
100
AcDbLine
 10
47.910597
 20
82.664549
 30
0.0
 11
47.399951
 21
82.063789
 31
0.0
  0
LINE
  5
132
100
AcDbEntity
  8
Silkscreen
 62
7
100
AcDbLine
 10
47.399951
 20
82.063789
 30
0.0
 11
46.739114
 21
82.003713
 31
0.0
  0
LINE
  5
133
100
AcDbEntity
  8
Silkscreen
 62
7
100
AcDbLine
 10
46.739114
 20
82.003713
 30
0.0
 11
46.528847
 21
82.183941
 31
0.0
  0
LINE
  5
134
100
AcDbEntity
  8
Silkscreen
 62
7
100
AcDbLine
 10
46.528847
 20
82.183941
 30
0.0
 11
46.528847
 21
82.183941
 31
0.0
  0
LINE
  5
135
100
AcDbEntity
  8
Silkscreen
 62
7
100
AcDbLine
 10
42.443680
 20
83.175195
 30
0.0
 11
43.134555
 21
83.926144
 31
0.0
  0
LINE
  5
136
100
AcDbEntity
  8
Silkscreen
 62
7
100
AcDbLine
 10
43.134555
 20
83.926144
 30
0.0
 11
44.095771
 21
83.956182
 31
0.0
  0
LINE
  5
137
100
AcDbEntity
  8
Silkscreen
 62
7
100
AcDbLine
 10
44.095771
 20
83.956182
 30
0.0
 11
43.795392
 21
84.406752
 31
0.0
  0
LINE
  5
138
100
AcDbEntity
  8
Silkscreen
 62
7
100
AcDbLine
 10
43.795392
 20
84.406752
 30
0.0
 11
42.984364
 21
84.346676
 31
0.0
  0
LINE
  5
139
100
AcDbEntity
  8
Silkscreen
 62
7
100
AcDbLine
 10
42.984364
 20
84.346676
 30
0.0
 11
42.714024
 21
84.617018
 31
0.0
  0
LINE
  5
13a
100
AcDbEntity
  8
Silkscreen
 62
7
100
AcDbLine
 10
42.714024
 20
84.617018
 30
0.0
 11
42.143302
 21
84.346676
 31
0.0
  0
LINE
  5
13b
100
AcDbEntity
  8
Silkscreen
 62
7
100
AcDbLine
 10
42.143302
 20
84.346676
 30
0.0
 11
42.023149
 21
83.896106
 31
0.0
  0
LINE
  5
13c
100
AcDbEntity
  8
Silkscreen
 62
7
100
AcDbLine
 10
42.023149
 20
83.896106
 30
0.0
 11
42.263454
 21
83.145156
 31
0.0
  0
LINE
  5
13d
100
AcDbEntity
  8
Silkscreen
 62
7
100
AcDbLine
 10
37.577527
 20
79.570636
 30
0.0
 11
37.247108
 21
80.531851
 31
0.0
  0
LINE
  5
13e
100
AcDbEntity
  8
Silkscreen
 62
7
100
AcDbLine
 10
37.247108
 20
80.531851
 30
0.0
 11
37.066881
 21
81.012459
 31
0.0
  0
LINE
  5
13f
100
AcDbEntity
  8
Silkscreen
 62
7
100
AcDbLine
 10
37.066881
 20
81.012459
 30
0.0
 11
37.727715
 21
81.763409
 31
0.0
  0
LINE
  5
140
100
AcDbEntity
  8
Silkscreen
 62
7
100
AcDbLine
 10
37.727715
 20
81.763409
 30
0.0
 11
38.028097
 21
82.274055
 31
0.0
  0
LINE
  5
141
100
AcDbEntity
  8
Silkscreen
 62
7
100
AcDbLine
 10
38.028097
 20
82.274055
 30
0.0
 11
38.538743
 21
82.454283
 31
0.0
  0
LINE
  5
142
100
AcDbEntity
  8
Silkscreen
 62
7
100
AcDbLine
 10
38.538743
 20
82.454283
 30
0.0
 11
38.869160
 21
82.934891
 31
0.0
  0
LINE
  5
143
100
AcDbEntity
  8
Silkscreen
 62
7
100
AcDbLine
 10
38.869160
 20
82.934891
 30
0.0
 11
38.508705
 21
83.355422
 31
0.0
  0
LINE
  5
144
100
AcDbEntity
  8
Silkscreen
 62
7
100
AcDbLine
 10
38.508705
 20
83.355422
 30
0.0
 11
36.015552
 21
83.445537
 31
0.0
  0
LINE
  5
145
100
AcDbEntity
  8
Silkscreen
 62
7
100
AcDbLine
 10
36.015552
 20
83.445537
 30
0.0
 11
36.015552
 21
83.445537
 31
0.0
  0
LINE
  5
146
100
AcDbEntity
  8
Silkscreen
 62
7
100
AcDbLine
 10
35.354715
 20
82.304093
 30
0.0
 11
36.676386
 21
81.012459
 31
0.0
  0
LINE
  5
147
100
AcDbEntity
  8
Silkscreen
 62
7
100
AcDbLine
 10
36.676386
 20
81.012459
 30
0.0
 11
37.006805
 21
80.531851
 31
0.0
  0
LINE
  5
148
100
AcDbEntity
  8
Silkscreen
 62
7
100
AcDbLine
 10
37.006805
 20
80.531851
 30
0.0
 11
36.616312
 21
80.441737
 31
0.0
  0
LINE
  5
149
100
AcDbEntity
  8
Silkscreen
 62
7
100
AcDbLine
 10
36.616312
 20
80.441737
 30
0.0
 11
36.105666
 21
80.171395
 31
0.0
  0
LINE
  5
14a
100
AcDbEntity
  8
Silkscreen
 62
7
100
AcDbLine
 10
36.616312
 20
80.441737
 30
0.0
 11
36.706424
 21
79.901054
 31
0.0
  0
LINE
  5
14b
100
AcDbEntity
  8
Silkscreen
 62
7
100
AcDbLine
 10
36.706424
 20
79.901054
 30
0.0
 11
37.787792
 21
78.068736
 31
0.0
  0
LINE
  5
14c
100
AcDbEntity
  8
Silkscreen
 62
7
100
AcDbLine
 10
37.787792
 20
78.068736
 30
0.0
 11
38.418590
 21
78.218926
 31
0.0
  0
LINE
  5
14d
100
AcDbEntity
  8
Silkscreen
 62
7
100
AcDbLine
 10
38.418590
 20
78.218926
 30
0.0
 11
38.688933
 21
78.609420
 31
0.0
  0
LINE
  5
14e
100
AcDbEntity
  8
Silkscreen
 62
7
100
AcDbLine
 10
38.688933
 20
78.609420
 30
0.0
 11
38.749007
 21
80.261509
 31
0.0
  0
LINE
  5
14f
100
AcDbEntity
  8
Silkscreen
 62
7
100
AcDbLine
 10
38.749007
 20
80.261509
 30
0.0
 11
37.998059
 21
80.441737
 31
0.0
  0
LINE
  5
150
100
AcDbEntity
  8
Silkscreen
 62
7
100
AcDbLine
 10
37.998059
 20
80.441737
 30
0.0
 11
37.066881
 21
81.012459
 31
0.0
  0
LINE
  5
151
100
AcDbEntity
  8
Silkscreen
 62
7
100
AcDbLine
 10
38.418590
 20
78.218926
 30
0.0
 11
39.169541
 21
77.678242
 31
0.0
  0
LINE
  5
152
100
AcDbEntity
  8
Silkscreen
 62
7
100
AcDbLine
 10
39.169541
 20
77.678242
 30
0.0
 11
39.169541
 21
76.416647
 31
0.0
  0
LINE
  5
153
100
AcDbEntity
  8
Silkscreen
 62
7
100
AcDbLine
 10
39.169541
 20
76.416647
 30
0.0
 11
38.839121
 21
76.326532
 31
0.0
  0
LINE
  5
154
100
AcDbEntity
  8
Silkscreen
 62
7
100
AcDbLine
 10
38.839121
 20
76.326532
 30
0.0
 11
38.448628
 21
76.326532
 31
0.0
  0
LINE
  5
155
100
AcDbEntity
  8
Silkscreen
 62
7
100
AcDbLine
 10
38.448628
 20
76.326532
 30
0.0
 11
38.448628
 21
75.605621
 31
0.0
  0
LINE
  5
156
100
AcDbEntity
  8
Silkscreen
 62
7
100
AcDbLine
 10
38.448628
 20
75.605621
 30
0.0
 11
39.229615
 21
74.854670
 31
0.0
  0
LINE
  5
157
100
AcDbEntity
  8
Silkscreen
 62
7
100
AcDbLine
 10
39.229615
 20
74.854670
 30
0.0
 11
40.100718
 21
74.464177
 31
0.0
  0
LINE
  5
158
100
AcDbEntity
  8
Silkscreen
 62
7
100
AcDbLine
 10
40.100718
 20
74.464177
 30
0.0
 11
40.731517
 21
74.644406
 31
0.0
  0
LINE
  5
159
100
AcDbEntity
  8
Silkscreen
 62
7
100
AcDbLine
 10
40.731517
 20
74.644406
 30
0.0
 11
41.392351
 21
75.305240
 31
0.0
  0
LINE
  5
15a
100
AcDbEntity
  8
Silkscreen
 62
7
100
AcDbLine
 10
41.392351
 20
75.305240
 30
0.0
 11
41.722770
 21
75.875963
 31
0.0
  0
LINE
  5
15b
100
AcDbEntity
  8
Silkscreen
 62
7
100
AcDbLine
 10
41.722770
 20
75.875963
 30
0.0
 11
41.752808
 21
76.146305
 31
0.0
  0
LINE
  5
15c
100
AcDbEntity
  8
Silkscreen
 62
7
100
AcDbLine
 10
38.839121
 20
76.326532
 30
0.0
 11
39.199579
 21
75.815887
 31
0.0
  0
LINE
  5
15d
100
AcDbEntity
  8
Silkscreen
 62
7
100
AcDbLine
 10
39.199579
 20
75.815887
 30
0.0
 11
39.950528
 21
75.185090
 31
0.0
  0
LINE
  5
15e
100
AcDbEntity
  8
Silkscreen
 62
7
100
AcDbLine
 10
39.950528
 20
75.185090
 30
0.0
 11
40.491212
 21
75.365316
 31
0.0
  0
LINE
  5
15f
100
AcDbEntity
  8
Silkscreen
 62
7
100
AcDbLine
 10
40.491212
 20
75.365316
 30
0.0
 11
40.971819
 21
75.936039
 31
0.0
  0
LINE
  5
160
100
AcDbEntity
  8
Silkscreen
 62
7
100
AcDbLine
 10
40.971819
 20
75.936039
 30
0.0
 11
41.152048
 21
76.867216
 31
0.0
  0
LINE
  5
161
100
AcDbEntity
  8
Silkscreen
 62
7
100
AcDbLine
 10
41.152048
 20
76.867216
 30
0.0
 11
40.911743
 21
77.828432
 31
0.0
  0
LINE
  5
162
100
AcDbEntity
  8
Silkscreen
 62
7
100
AcDbLine
 10
40.911743
 20
77.828432
 30
0.0
 11
40.611364
 21
78.759610
 31
0.0
  0
LINE
  5
163
100
AcDbEntity
  8
Silkscreen
 62
7
100
AcDbLine
 10
40.611364
 20
78.759610
 30
0.0
 11
39.920489
 21
79.871015
 31
0.0
  0
LINE
  5
164
100
AcDbEntity
  8
Silkscreen
 62
7
100
AcDbLine
 10
39.920489
 20
79.871015
 30
0.0
 11
39.469920
 21
80.531851
 31
0.0
  0
LINE
  5
165
100
AcDbEntity
  8
Silkscreen
 62
7
100
AcDbLine
 10
39.469920
 20
80.531851
 30
0.0
 11
38.749007
 21
80.261509
 31
0.0
  0
LINE
  5
166
100
AcDbEntity
  8
Silkscreen
 62
7
100
AcDbLine
 10
37.998059
 20
80.441737
 30
0.0
 11
39.890451
 21
80.802193
 31
0.0
  0
LINE
  5
167
100
AcDbEntity
  8
Silkscreen
 62
7
100
AcDbLine
 10
39.890451
 20
80.802193
 30
0.0
 11
40.371059
 21
81.282801
 31
0.0
  0
LINE
  5
168
100
AcDbEntity
  8
Silkscreen
 62
7
100
AcDbLine
 10
40.371059
 20
81.282801
 30
0.0
 11
40.521250
 21
81.643257
 31
0.0
  0
LINE
  5
169
100
AcDbEntity
  8
Silkscreen
 62
7
100
AcDbLine
 10
40.521250
 20
81.643257
 30
0.0
 11
40.431135
 21
82.033751
 31
0.0
  0
LINE
  5
16a
100
AcDbEntity
  8
Silkscreen
 62
7
100
AcDbLine
 10
40.431135
 20
82.033751
 30
0.0
 11
40.130756
 21
82.274055
 31
0.0
  0
LINE
  5
16b
100
AcDbEntity
  8
Silkscreen
 62
7
100
AcDbLine
 10
41.061934
 20
79.750864
 30
0.0
 11
40.401097
 21
80.441737
 31
0.0
  0
LINE
  5
16c
100
AcDbEntity
  8
Silkscreen
 62
7
100
AcDbLine
 10
40.401097
 20
80.441737
 30
0.0
 11
39.890451
 21
80.802193
 31
0.0
  0
SPLINE
  5
16d
100
AcDbEntity
  8
Silkscreen
 62
7
100
AcDbSpline
 70
0
 71
3
 72
31
 73
27
 74
25
 40
0.000000
 40
0.000000
 40
0.000000
 40
0.000000
 40
0.165193
 40
0.317084
 40
0.694062
 40
1.456283
 40
2.084998
 40
2.358924
 40
2.774124
 40
3.189325
 40
4.019726
 40
5.350351
 40
6.394347
 40
6.933093
 40
7.222623
 40
7.510559
 40
8.095894
 40
9.092771
 40
9.755386
 40
10.051149
 40
10.330499
 40
10.640015
 40
11.098386
 40
12.084859
 40
12.998190
 40
13.436725
 40
13.436725
 40
13.436725
 40
13.436725
 10
30.158142
 20
71.700681
 30
0.0
 10
30.208491
 20
71.704578
 30
0.0
 10
30.305134
 20
71.712059
 30
0.0
 10
30.626411
 20
71.741811
 30
0.0
 10
29.799818
 20
71.655668
 30
0.0
 10
29.399284
 20
71.811358
 30
0.0
 10
28.939159
 20
72.015392
 30
0.0
 10
28.467256
 20
72.464940
 30
0.0
 10
28.866168
 20
71.976848
 30
0.0
 10
29.281918
 20
71.409813
 30
0.0
 10
28.291455
 20
72.622427
 30
0.0
 10
28.188149
 20
73.573609
 30
0.0
 10
28.585692
 20
74.325364
 30
0.0
 10
29.583581
 20
74.840498
 30
0.0
 10
29.097872
 20
74.687297
 30
0.0
 10
28.588869
 20
74.569069
 30
0.0
 10
29.688749
 20
74.916636
 30
0.0
 10
30.287937
 20
74.861567
 30
0.0
 10
30.799426
 20
74.585383
 30
0.0
 10
31.145191
 20
74.009686
 30
0.0
 10
30.865997
 20
74.364245
 30
0.0
 10
30.554638
 20
74.737325
 30
0.0
 10
31.313129
 20
74.066099
 30
0.0
 10
31.431633
 20
73.419990
 30
0.0
 10
31.279989
 20
72.599496
 30
0.0
 10
31.090660
 20
72.193002
 30
0.0
 10
31.029243
 20
72.061139
 30
0.0
 11
30.158142
 21
71.700681
 31
0.0
 11
30.322795
 21
71.714031
 31
0.0
 11
30.474098
 21
71.727382
 31
0.0
 11
30.098066
 21
71.700681
 31
0.0
 11
29.348229
 21
71.837521
 31
0.0
 11
28.805320
 21
72.154589
 31
0.0
 11
28.596167
 21
72.331479
 31
0.0
 11
28.843146
 21
71.997724
 31
0.0
 11
29.090125
 21
71.663969
 31
0.0
 11
28.596167
 21
72.331479
 31
0.0
 11
28.304687
 21
73.629788
 31
0.0
 11
28.927698
 21
74.467514
 31
0.0
 11
29.377156
 21
74.764556
 31
0.0
 11
29.096801
 21
74.692243
 31
0.0
 11
28.816446
 21
74.626604
 31
0.0
 11
29.377156
 21
74.794594
 31
0.0
 11
30.373971
 21
74.783470
 31
0.0
 11
30.903529
 21
74.385189
 31
0.0
 11
31.059281
 21
74.133760
 31
0.0
 11
30.877941
 21
74.346251
 31
0.0
 11
30.689926
 21
74.592117
 31
0.0
 11
31.029243
 21
74.283948
 31
0.0
 11
31.376350
 21
73.360559
 31
0.0
 11
31.202796
 21
72.463870
 31
0.0
 11
31.029243
 21
72.061139
 31
0.0
  0
LINE
  5
16e
100
AcDbEntity
  8
Silkscreen
 62
7
100
AcDbLine
 10
39.560034
 20
71.069885
 30
0.0
 11
39.560034
 21
71.069885
 31
0.0
  0
SPLINE
  5
16f
100
AcDbEntity
  8
Silkscreen
 62
7
100
AcDbSpline
 70
0
 71
3
 72
28
 73
24
 74
22
 40
0.000000
 40
0.000000
 40
0.000000
 40
0.000000
 40
0.864374
 40
1.532314
 40
1.831000
 40
2.125008
 40
2.419016
 40
3.007031
 40
4.086324
 40
4.897362
 40
5.262446
 40
5.514337
 40
5.766228
 40
6.270011
 40
7.228169
 40
8.093523
 40
8.514861
 40
8.931187
 40
9.347513
 40
10.180164
 40
11.520196
 40
12.421988
 40
12.860352
 40
12.860352
 40
12.860352
 40
12.860352
 10
39.560034
 20
71.069885
 30
0.0
 10
39.687065
 20
71.347818
 30
0.0
 10
39.912257
 20
71.840521
 30
0.0
 10
39.861548
 20
72.347926
 30
0.0
 10
39.535452
 20
72.944126
 30
0.0
 10
39.811924
 20
72.572626
 30
0.0
 10
40.139322
 20
72.179965
 30
0.0
 10
39.413386
 20
73.127128
 30
0.0
 10
38.793539
 20
73.394291
 30
0.0
 10
38.165435
 20
73.518061
 30
0.0
 10
37.401836
 20
73.219847
 30
0.0
 10
37.766473
 20
73.426462
 30
0.0
 10
38.146273
 20
73.663942
 30
0.0
 10
37.228217
 20
73.151969
 30
0.0
 10
36.998711
 20
72.523635
 30
0.0
 10
36.943522
 20
71.871921
 30
0.0
 10
37.294569
 20
71.028998
 30
0.0
 10
36.910643
 20
71.553600
 30
0.0
 10
36.422462
 20
72.091905
 30
0.0
 10
37.438921
 20
70.880463
 30
0.0
 10
38.138323
 20
70.426520
 30
0.0
 10
39.121444
 20
70.672777
 30
0.0
 10
39.451932
 20
70.972007
 30
0.0
 10
39.560034
 20
71.069885
 30
0.0
 11
39.560034
 21
71.069885
 31
0.0
 11
39.855965
 21
71.882023
 31
0.0
 11
39.744713
 21
72.540633
 31
0.0
 11
39.620111
 21
72.812087
 31
0.0
 11
39.807013
 21
72.585133
 31
0.0
 11
39.993916
 21
72.358180
 31
0.0
 11
39.620111
 21
72.812087
 31
0.0
 11
38.708957
 21
73.390597
 31
0.0
 11
37.897932
 21
73.395047
 31
0.0
 11
37.547489
 21
73.292695
 31
0.0
 11
37.761093
 21
73.426197
 31
0.0
 11
37.974696
 21
73.559699
 31
0.0
 11
37.547489
 21
73.292695
 31
0.0
 11
37.026830
 21
72.488344
 31
0.0
 11
37.066880
 21
71.623917
 31
0.0
 11
37.187031
 21
71.220073
 31
0.0
 11
36.913352
 21
71.533804
 31
0.0
 11
36.639673
 21
71.847534
 31
0.0
 11
37.187031
 21
71.220073
 31
0.0
 11
38.349614
 21
70.553676
 31
0.0
 11
39.218491
 21
70.795093
 31
0.0
 11
39.560034
 21
71.069885
 31
0.0
  0
LINE
  5
170
100
AcDbEntity
  8
Silkscreen
 62
7
100
AcDbLine
 10
39.499958
 20
69.628060
 30
0.0
 11
39.349767
 21
68.396504
 31
0.0
  0
LINE
  5
171
100
AcDbEntity
  8
Silkscreen
 62
7
100
AcDbLine
 10
39.349767
 20
68.396504
 30
0.0
 11
39.830375
 21
67.345174
 31
0.0
  0
LINE
  5
172
100
AcDbEntity
  8
Silkscreen
 62
7
100
AcDbLine
 10
39.830375
 20
67.345174
 30
0.0
 11
40.491212
 21
67.255059
 31
0.0
  0
LINE
  5
173
100
AcDbEntity
  8
Silkscreen
 62
7
100
AcDbLine
 10
40.491212
 20
67.255059
 30
0.0
 11
41.091972
 21
67.795743
 31
0.0
  0
LINE
  5
174
100
AcDbEntity
  8
Silkscreen
 62
7
100
AcDbLine
 10
41.091972
 20
67.795743
 30
0.0
 11
41.872958
 21
68.516656
 31
0.0
  0
LINE
  5
175
100
AcDbEntity
  8
Silkscreen
 62
7
100
AcDbLine
 10
41.872958
 20
68.516656
 30
0.0
 11
42.383604
 21
69.297643
 31
0.0
  0
LINE
  5
176
100
AcDbEntity
  8
Silkscreen
 62
7
100
AcDbLine
 10
42.383604
 20
69.297643
 30
0.0
 11
43.044441
 21
69.027302
 31
0.0
  0
LINE
  5
177
100
AcDbEntity
  8
Silkscreen
 62
7
100
AcDbLine
 10
43.044441
 20
69.027302
 30
0.0
 11
43.374858
 21
69.688136
 31
0.0
  0
LINE
  5
178
100
AcDbEntity
  8
Silkscreen
 62
7
100
AcDbLine
 10
43.374858
 20
69.688136
 30
0.0
 11
43.975618
 21
69.327681
 31
0.0
  0
LINE
  5
179
100
AcDbEntity
  8
Silkscreen
 62
7
100
AcDbLine
 10
43.975618
 20
69.327681
 30
0.0
 11
44.396149
 21
69.958479
 31
0.0
  0
LINE
  5
17a
100
AcDbEntity
  8
Silkscreen
 62
7
100
AcDbLine
 10
44.396149
 20
69.958479
 30
0.0
 11
45.267253
 21
69.567986
 31
0.0
  0
LINE
  5
17b
100
AcDbEntity
  8
Silkscreen
 62
7
100
AcDbLine
 10
45.267253
 20
69.567986
 30
0.0
 11
45.807937
 21
70.379011
 31
0.0
  0
LINE
  5
17c
100
AcDbEntity
  8
Silkscreen
 62
7
100
AcDbLine
 10
45.807937
 20
70.379011
 30
0.0
 11
46.498809
 21
69.898403
 31
0.0
  0
LINE
  5
17d
100
AcDbEntity
  8
Silkscreen
 62
7
100
AcDbLine
 10
46.498809
 20
69.898403
 30
0.0
 11
47.249760
 21
70.409049
 31
0.0
  0
LINE
  5
17e
100
AcDbEntity
  8
Silkscreen
 62
7
100
AcDbLine
 10
47.249760
 20
70.409049
 30
0.0
 11
48.000708
 21
69.958479
 31
0.0
  0
LINE
  5
17f
100
AcDbEntity
  8
Silkscreen
 62
7
100
AcDbLine
 10
48.000708
 20
69.958479
 30
0.0
 11
48.661545
 21
71.039847
 31
0.0
  0
LINE
  5
180
100
AcDbEntity
  8
Silkscreen
 62
7
100
AcDbLine
 10
48.661545
 20
71.039847
 30
0.0
 11
49.802989
 21
70.859618
 31
0.0
  0
LINE
  5
181
100
AcDbEntity
  8
Silkscreen
 62
7
100
AcDbLine
 10
49.802989
 20
70.859618
 30
0.0
 11
49.863065
 21
72.271403
 31
0.0
  0
LINE
  5
182
100
AcDbEntity
  8
Silkscreen
 62
7
100
AcDbLine
 10
49.863065
 20
72.271403
 30
0.0
 11
50.854319
 21
72.391556
 31
0.0
  0
LINE
  5
183
100
AcDbEntity
  8
Silkscreen
 62
7
100
AcDbLine
 10
50.854319
 20
72.391556
 30
0.0
 11
50.914395
 21
73.713226
 31
0.0
  0
LINE
  5
184
100
AcDbEntity
  8
Silkscreen
 62
7
100
AcDbLine
 10
50.914395
 20
73.713226
 30
0.0
 11
50.914395
 21
73.683191
 31
0.0
  0
LINE
  5
185
100
AcDbEntity
  8
Silkscreen
 62
7
100
AcDbLine
 10
39.499958
 20
69.628060
 30
0.0
 11
40.010604
 21
70.679389
 31
0.0
  0
LINE
  5
186
100
AcDbEntity
  8
Silkscreen
 62
7
100
AcDbLine
 10
40.010604
 20
70.679389
 30
0.0
 11
40.941781
 21
71.580531
 31
0.0
  0
LINE
  5
187
100
AcDbEntity
  8
Silkscreen
 62
7
100
AcDbLine
 10
40.941781
 20
71.580531
 30
0.0
 11
42.383604
 21
72.601823
 31
0.0
  0
LINE
  5
188
100
AcDbEntity
  8
Silkscreen
 62
7
100
AcDbLine
 10
42.383604
 20
72.601823
 30
0.0
 11
42.804136
 21
72.902202
 31
0.0
  0
LINE
  5
189
100
AcDbEntity
  8
Silkscreen
 62
7
100
AcDbLine
 10
42.804136
 20
72.902202
 30
0.0
 11
43.104517
 21
73.593076
 31
0.0
  0
LINE
  5
18a
100
AcDbEntity
  8
Silkscreen
 62
7
100
AcDbLine
 10
43.104517
 20
73.593076
 30
0.0
 11
43.945580
 21
73.593076
 31
0.0
  0
LINE
  5
18b
100
AcDbEntity
  8
Silkscreen
 62
7
100
AcDbLine
 10
43.945580
 20
73.593076
 30
0.0
 11
44.306038
 21
74.434139
 31
0.0
  0
LINE
  5
18c
100
AcDbEntity
  8
Silkscreen
 62
7
100
AcDbLine
 10
44.306038
 20
74.434139
 30
0.0
 11
45.177138
 21
74.374063
 31
0.0
  0
LINE
  5
18d
100
AcDbEntity
  8
Silkscreen
 62
7
100
AcDbLine
 10
39.560034
 20
71.069885
 30
0.0
 11
40.010604
 21
70.679389
 31
0.0
  0
LINE
  5
18e
100
AcDbEntity
  8
Silkscreen
 62
7
100
AcDbLine
 10
40.821629
 20
67.345174
 30
0.0
 11
41.902996
 21
65.633007
 31
0.0
  0
LINE
  5
18f
100
AcDbEntity
  8
Silkscreen
 62
7
100
AcDbLine
 10
41.422389
 20
67.975972
 30
0.0
 11
42.864212
 21
65.753160
 31
0.0
  0
LINE
  5
190
100
AcDbEntity
  8
Silkscreen
 62
7
100
AcDbLine
 10
34.753955
 20
66.113615
 30
0.0
 11
35.144448
 21
68.786997
 31
0.0
  0
LINE
  5
191
100
AcDbEntity
  8
Silkscreen
 62
7
100
AcDbLine
 10
35.144448
 20
68.786997
 30
0.0
 11
35.595020
 21
70.198782
 31
0.0
  0
LINE
  5
192
100
AcDbEntity
  8
Silkscreen
 62
7
100
AcDbLine
 10
35.595020
 20
70.198782
 30
0.0
 11
36.646347
 21
71.880910
 31
0.0
  0
LINE
  5
193
100
AcDbEntity
  8
Silkscreen
 62
7
100
AcDbLine
 10
36.646347
 20
71.880910
 30
0.0
 11
36.646347
 21
71.880910
 31
0.0
  0
LINE
  5
194
100
AcDbEntity
  8
Silkscreen
 62
7
100
AcDbLine
 10
33.222017
 20
68.967226
 30
0.0
 11
34.033045
 21
69.658098
 31
0.0
  0
LINE
  5
195
100
AcDbEntity
  8
Silkscreen
 62
7
100
AcDbLine
 10
34.033045
 20
69.658098
 30
0.0
 11
34.663840
 21
68.546694
 31
0.0
  0
LINE
  5
196
100
AcDbEntity
  8
Silkscreen
 62
7
100
AcDbLine
 10
34.663840
 20
68.546694
 30
0.0
 11
35.144448
 21
68.786997
 31
0.0
  0
LINE
  5
197
100
AcDbEntity
  8
Silkscreen
 62
7
100
AcDbLine
 10
42.864212
 20
65.753160
 30
0.0
 11
45.807937
 21
66.323882
 31
0.0
  0
LINE
  5
198
100
AcDbEntity
  8
Silkscreen
 62
7
100
AcDbLine
 10
45.807937
 20
66.323882
 30
0.0
 11
48.391204
 21
67.014757
 31
0.0
  0
LINE
  5
199
100
AcDbEntity
  8
Silkscreen
 62
7
100
AcDbLine
 10
48.391204
 20
67.014757
 30
0.0
 11
50.674090
 21
67.675591
 31
0.0
  0
LINE
  5
19a
100
AcDbEntity
  8
Silkscreen
 62
7
100
AcDbLine
 10
50.674090
 20
67.675591
 30
0.0
 11
52.536445
 21
68.186236
 31
0.0
  0
LINE
  5
19b
100
AcDbEntity
  8
Silkscreen
 62
7
100
AcDbLine
 10
52.536445
 20
68.186236
 30
0.0
 11
51.755458
 21
71.250112
 31
0.0
  0
LINE
  5
19c
100
AcDbEntity
  8
Silkscreen
 62
7
100
AcDbLine
 10
51.755458
 20
71.250112
 30
0.0
 11
52.656597
 21
70.979771
 31
0.0
  0
LINE
  5
19d
100
AcDbEntity
  8
Silkscreen
 62
7
100
AcDbLine
 10
52.656597
 20
70.979771
 30
0.0
 11
51.395003
 21
74.013608
 31
0.0
  0
LINE
  5
19e
100
AcDbEntity
  8
Silkscreen
 62
7
100
AcDbLine
 10
51.395003
 20
74.013608
 30
0.0
 11
52.025799
 21
74.283948
 31
0.0
  0
LINE
  5
19f
100
AcDbEntity
  8
Silkscreen
 62
7
100
AcDbLine
 10
52.025799
 20
74.283948
 30
0.0
 11
50.523899
 21
76.747064
 31
0.0
  0
LINE
  5
1a0
100
AcDbEntity
  8
Silkscreen
 62
7
100
AcDbLine
 10
50.523899
 20
76.747064
 30
0.0
 11
51.334927
 21
77.257710
 31
0.0
  0
LINE
  5
1a1
100
AcDbEntity
  8
Silkscreen
 62
7
100
AcDbLine
 10
51.334927
 20
77.257710
 30
0.0
 11
49.532646
 21
79.540598
 31
0.0
  0
LINE
  5
1a2
100
AcDbEntity
  8
Silkscreen
 62
7
100
AcDbLine
 10
49.532646
 20
79.540598
 30
0.0
 11
50.313635
 21
79.901054
 31
0.0
  0
LINE
  5
1a3
100
AcDbEntity
  8
Silkscreen
 62
7
100
AcDbLine
 10
50.313635
 20
79.901054
 30
0.0
 11
48.120861
 21
81.673295
 31
0.0
  0
LINE
  5
1a4
100
AcDbEntity
  8
Silkscreen
 62
7
100
AcDbLine
 10
48.120861
 20
81.673295
 30
0.0
 11
49.022000
 21
82.244017
 31
0.0
  0
LINE
  5
1a5
100
AcDbEntity
  8
Silkscreen
 62
7
100
AcDbLine
 10
49.022000
 20
82.244017
 30
0.0
 11
47.910597
 21
82.664549
 31
0.0
  0
LINE
  5
1a6
100
AcDbEntity
  8
Silkscreen
 62
7
100
AcDbLine
 10
47.910597
 20
82.664549
 30
0.0
 11
47.910597
 21
82.664549
 31
0.0
  0
SPLINE
  5
1a7
100
AcDbEntity
  8
Silkscreen
 62
7
100
AcDbSpline
 70
0
 71
3
 72
10
 73
6
 74
4
 40
0.000000
 40
0.000000
 40
0.000000
 40
0.000000
 40
0.827442
 40
1.115368
 40
1.149332
 40
1.149332
 40
1.149332
 40
1.149332
 10
38.718969
 20
70.469125
 30
0.0
 10
38.905133
 20
70.268038
 30
0.0
 10
39.156077
 20
69.996979
 30
0.0
 10
39.397985
 20
69.689019
 30
0.0
 10
39.490225
 20
69.633878
 30
0.0
 10
39.499958
 20
69.628060
 30
0.0
 11
38.718969
 21
70.469125
 31
0.0
 11
39.268554
 21
69.850565
 31
0.0
 11
39.471033
 21
69.645860
 31
0.0
 11
39.499958
 21
69.628060
 31
0.0
  0
SPLINE
  5
1a8
100
AcDbEntity
  8
Silkscreen
 62
7
100
AcDbSpline
 70
0
 71
3
 72
10
 73
6
 74
4
 40
0.000000
 40
0.000000
 40
0.000000
 40
0.000000
 40
2.803256
 40
5.796826
 40
7.193066
 40
7.193066
 40
7.193066
 40
7.193066
 10
41.902996
 20
65.633007
 30
0.0
 10
40.989791
 20
65.433627
 30
0.0
 10
39.101382
 20
65.021330
 30
0.0
 10
36.725875
 20
64.684736
 30
0.0
 10
35.275381
 20
64.492601
 30
0.0
 10
34.814031
 20
64.431489
 30
0.0
 11
41.902996
 21
65.633007
 31
0.0
 11
39.157302
 21
65.067848
 31
0.0
 11
36.198004
 21
64.616167
 31
0.0
 11
34.814031
 21
64.431489
 31
0.0
  0
LINE
  5
1a9
100
AcDbEntity
  8
Silkscreen
 62
7
100
AcDbLine
 10
26.373356
 20
67.975972
 30
0.0
 11
25.652444
 21
67.555438
 31
0.0
  0
SPLINE
  5
1aa
100
AcDbEntity
  8
Silkscreen
 62
7
100
AcDbSpline
 70
0
 71
3
 72
10
 73
6
 74
4
 40
0.000000
 40
0.000000
 40
0.000000
 40
0.000000
 40
2.176849
 40
3.178605
 40
3.421004
 40
3.421004
 40
3.421004
 40
3.421004
 10
29.527344
 20
69.297643
 30
0.0
 10
28.864754
 20
69.002444
 30
0.0
 10
27.897249
 20
68.571399
 30
0.0
 10
26.845065
 20
68.127978
 30
0.0
 10
26.450273
 20
68.000758
 30
0.0
 10
26.373356
 20
67.975972
 30
0.0
 11
29.527344
 21
69.297643
 31
0.0
 11
27.534825
 21
68.420978
 31
0.0
 11
26.603647
 21
68.051623
 31
0.0
 11
26.373356
 21
67.975972
 31
0.0
  0
LINE
  5
1ab
100
AcDbEntity
  8
Silkscreen
 62
7
100
AcDbLine
 10
27.815180
 20
63.830729
 30
0.0
 11
30.668788
 21
63.800691
 31
0.0
  0
LINE
  5
1ac
100
AcDbEntity
  8
Silkscreen
 62
7
100
AcDbLine
 10
30.668788
 20
63.800691
 30
0.0
 11
33.912892
 21
63.950879
 31
0.0
  0
LINE
  5
1ad
100
AcDbEntity
  8
Silkscreen
 62
7
100
AcDbLine
 10
33.912892
 20
63.950879
 30
0.0
 11
36.676386
 21
64.191184
 31
0.0
  0
LINE
  5
1ae
100
AcDbEntity
  8
Silkscreen
 62
7
100
AcDbLine
 10
36.676386
 20
64.191184
 30
0.0
 11
40.461173
 21
64.731868
 31
0.0
  0
LINE
  5
1af
100
AcDbEntity
  8
Silkscreen
 62
7
100
AcDbLine
 10
40.461173
 20
64.731868
 30
0.0
 11
44.546340
 21
65.482819
 31
0.0
  0
LINE
  5
1b0
100
AcDbEntity
  8
Silkscreen
 62
7
100
AcDbLine
 10
44.546340
 20
65.482819
 30
0.0
 11
50.013254
 21
66.804490
 31
0.0
  0
LINE
  5
1b1
100
AcDbEntity
  8
Silkscreen
 62
7
100
AcDbLine
 10
50.013254
 20
66.804490
 30
0.0
 11
54.338725
 21
68.066084
 31
0.0
  0
LINE
  5
1b2
100
AcDbEntity
  8
Silkscreen
 62
7
100
AcDbLine
 10
54.338725
 20
68.066084
 30
0.0
 11
56.982069
 21
68.937187
 31
0.0
  0
SPLINE
  5
1b3
100
AcDbEntity
  8
Silkscreen
 62
7
100
AcDbSpline
 70
0
 71
3
 72
25
 73
21
 74
19
 40
0.000000
 40
0.000000
 40
0.000000
 40
0.000000
 40
0.418993
 40
0.837986
 40
1.675972
 40
3.284165
 40
4.310735
 40
4.676728
 40
4.874406
 40
5.072083
 40
5.467439
 40
6.142253
 40
6.638118
 40
6.873838
 40
7.373447
 40
7.873056
 40
8.872273
 40
10.861669
 40
12.233714
 40
12.754374
 40
12.754374
 40
12.754374
 40
12.754374
 10
25.652444
 20
67.555438
 30
0.0
 10
25.761419
 20
67.620137
 30
0.0
 10
25.979370
 20
67.749536
 30
0.0
 10
26.683510
 20
68.164383
 30
0.0
 10
25.135868
 20
67.272930
 30
0.0
 10
24.476347
 20
66.711056
 30
0.0
 10
23.802513
 20
66.288702
 30
0.0
 10
23.286834
 20
65.527635
 30
0.0
 10
23.383603
 20
65.855166
 30
0.0
 10
23.451836
 20
66.206986
 30
0.0
 10
23.269589
 20
65.446741
 30
0.0
 10
23.363557
 20
65.030190
 30
0.0
 10
23.680205
 20
64.702898
 30
0.0
 10
24.222808
 20
64.511975
 30
0.0
 10
23.523086
 20
64.790841
 30
0.0
 10
22.764557
 20
65.117438
 30
0.0
 10
24.687957
 20
64.285107
 30
0.0
 10
25.635967
 20
64.031713
 30
0.0
 10
27.016133
 20
63.819290
 30
0.0
 10
27.642794
 20
63.828261
 30
0.0
 10
27.815180
 20
63.830729
 30
0.0
 11
25.652444
 21
67.555438
 31
0.0
 11
26.012900
 21
67.769042
 31
0.0
 11
26.373356
 21
67.982646
 31
0.0
 11
25.652444
 21
67.555438
 31
0.0
 11
24.331885
 21
66.637611
 31
0.0
 11
23.578710
 21
65.940062
 31
0.0
 11
23.339519
 21
65.663045
 31
0.0
 11
23.379570
 21
65.856623
 31
0.0
 11
23.419620
 21
66.050201
 31
0.0
 11
23.339519
 21
65.663045
 31
0.0
 11
23.438533
 21
64.995535
 31
0.0
 11
23.811227
 21
64.668454
 31
0.0
 11
24.030393
 21
64.581678
 31
0.0
 11
23.569810
 21
64.775256
 31
0.0
 11
23.109228
 21
64.968835
 31
0.0
 11
24.030393
 21
64.581678
 31
0.0
 11
25.932799
 21
63.999831
 31
0.0
 11
27.294521
 21
63.831841
 31
0.0
 11
27.815180
 21
63.830729
 31
0.0
  0
SPLINE
  5
1b4
100
AcDbEntity
  8
Silkscreen
 62
7
100
AcDbSpline
 70
0
 71
3
 72
31
 73
27
 74
25
 40
0.000000
 40
0.000000
 40
0.000000
 40
0.000000
 40
0.486734
 40
0.973468
 40
1.946936
 40
3.833531
 40
5.053054
 40
5.489524
 40
5.998279
 40
6.507035
 40
7.524546
 40
9.024235
 40
9.814058
 40
10.218060
 40
10.582817
 40
10.947574
 40
11.677088
 40
13.334374
 40
14.781214
 40
15.415359
 40
15.936702
 40
16.458045
 40
17.500731
 40
19.930309
 40
21.984895
 40
22.850666
 40
22.850666
 40
22.850666
 40
22.850666
 10
56.982069
 20
68.937187
 30
0.0
 10
56.848847
 20
68.874541
 30
0.0
 10
56.582403
 20
68.749248
 30
0.0
 10
55.722384
 20
68.346754
 30
0.0
 10
57.618053
 20
69.221640
 30
0.0
 10
58.466336
 20
69.724763
 30
0.0
 10
59.317048
 20
70.244655
 30
0.0
 10
60.180543
 20
70.957804
 30
0.0
 10
59.564116
 20
70.466867
 30
0.0
 10
58.871309
 20
69.931301
 30
0.0
 10
60.345332
 20
71.042203
 30
0.0
 10
60.954580
 20
71.728504
 30
0.0
 10
60.888631
 20
72.636987
 30
0.0
 10
60.176954
 20
73.140842
 30
0.0
 10
60.659284
 20
72.806954
 30
0.0
 10
61.179479
 20
72.444960
 30
0.0
 10
59.844341
 20
73.415206
 30
0.0
 10
58.874744
 20
73.637355
 30
0.0
 10
57.885032
 20
73.840994
 30
0.0
 10
56.435574
 20
73.839892
 30
0.0
 10
57.279582
 20
73.808029
 30
0.0
 10
58.191948
 20
73.757595
 30
0.0
 10
55.784843
 20
73.885627
 30
0.0
 10
54.589189
 20
73.925385
 30
0.0
 10
52.644118
 20
73.985913
 30
0.0
 10
51.680637
 20
74.007275
 30
0.0
 10
51.395003
 20
74.013608
 30
0.0
 11
56.982069
 21
68.937187
 31
0.0
 11
56.541512
 21
68.730259
 31
0.0
 11
56.100955
 21
68.523331
 31
0.0
 11
56.982069
 21
68.937187
 31
0.0
 11
58.641946
 21
69.833877
 31
0.0
 11
59.647662
 21
70.523638
 31
0.0
 11
59.985868
 21
70.799542
 31
0.0
 11
59.585361
 21
70.485812
 31
0.0
 11
59.184854
 21
70.172082
 31
0.0
 11
59.985868
 21
70.799542
 31
0.0
 11
60.880332
 21
72.003287
 31
0.0
 11
60.653378
 21
72.759800
 31
0.0
 11
60.346323
 21
73.022354
 31
0.0
 11
60.646703
 21
72.815426
 31
0.0
 11
60.947083
 21
72.608498
 31
0.0
 11
60.346323
 21
73.022354
 31
0.0
 11
58.811048
 21
73.646476
 31
0.0
 11
57.375899
 21
73.830041
 31
0.0
 11
56.741764
 21
73.833379
 31
0.0
 11
57.262423
 21
73.806678
 31
0.0
 11
57.783081
 21
73.779978
 31
0.0
 11
56.741764
 21
73.833379
 31
0.0
 11
54.314250
 21
73.933506
 31
0.0
 11
52.260542
 21
73.993582
 31
0.0
 11
51.395003
 21
74.013608
 31
0.0
  0
LINE
  5
1b5
100
AcDbEntity
  8
Silkscreen
 62
7
100
AcDbLine
 10
54.128458
 20
62.238715
 30
0.0
 11
49.442534
 21
60.887004
 31
0.0
  0
LINE
  5
1b6
100
AcDbEntity
  8
Silkscreen
 62
7
100
AcDbLine
 10
49.442534
 20
60.887004
 30
0.0
 11
42.113264
 21
59.144802
 31
0.0
  0
LINE
  5
1b7
100
AcDbEntity
  8
Silkscreen
 62
7
100
AcDbLine
 10
42.113264
 20
59.144802
 30
0.0
 11
36.526197
 21
58.423889
 31
0.0
  0
LINE
  5
1b8
100
AcDbEntity
  8
Silkscreen
 62
7
100
AcDbLine
 10
36.526197
 20
58.423889
 30
0.0
 11
28.776396
 21
58.033396
 31
0.0
  0
LINE
  5
1b9
100
AcDbEntity
  8
Silkscreen
 62
7
100
AcDbLine
 10
28.776396
 20
58.033396
 30
0.0
 11
22.378303
 21
58.453928
 31
0.0
  0
SPLINE
  5
1ba
100
AcDbEntity
  8
Silkscreen
 62
7
100
AcDbSpline
 70
0
 71
3
 72
43
 73
39
 74
37
 40
0.000000
 40
0.000000
 40
0.000000
 40
0.000000
 40
2.396458
 40
4.172054
 40
4.866267
 40
7.047156
 40
7.850641
 40
7.965425
 40
10.489774
 40
11.478880
 40
11.649343
 40
13.085965
 40
14.118575
 40
14.514497
 40
15.049382
 40
15.584266
 40
16.654034
 40
18.309218
 40
18.954034
 40
19.155274
 40
19.656308
 40
20.157341
 40
21.159409
 40
22.941218
 40
24.012924
 40
24.417772
 40
24.940054
 40
25.462335
 40
26.506899
 40
28.448167
 40
29.592899
 40
29.969103
 40
31.509882
 40
33.050662
 40
36.132221
 40
41.835806
 40
45.178233
 40
46.273897
 40
46.273897
 40
46.273897
 40
46.273897
 10
51.665344
 20
75.185090
 30
0.0
 10
52.464146
 20
75.193752
 30
0.0
 10
53.854803
 20
75.208831
 30
0.0
 10
55.476703
 20
75.209284
 30
0.0
 10
57.027358
 20
75.226589
 30
0.0
 10
58.250268
 20
75.110167
 30
0.0
 10
59.281574
 20
75.054332
 30
0.0
 10
60.427517
 20
74.990596
 30
0.0
 10
61.611175
 20
74.700283
 30
0.0
 10
62.821764
 20
74.503115
 30
0.0
 10
63.678717
 20
74.375747
 30
0.0
 10
64.437320
 20
73.702389
 30
0.0
 10
65.102061
 20
73.388643
 30
0.0
 10
65.971601
 20
72.899802
 30
0.0
 10
65.255206
 20
73.300367
 30
0.0
 10
64.455040
 20
73.743623
 30
0.0
 10
66.226425
 20
72.777202
 30
0.0
 10
66.812656
 20
72.352679
 30
0.0
 10
67.466611
 20
71.669299
 30
0.0
 10
67.256486
 20
71.091273
 30
0.0
 10
67.316867
 20
71.831899
 30
0.0
 10
67.243399
 20
72.656498
 30
0.0
 10
67.384999
 20
70.685383
 30
0.0
 10
67.163722
 20
69.728103
 30
0.0
 10
66.812945
 20
68.813385
 30
0.0
 10
66.008653
 20
68.182367
 30
0.0
 10
66.637429
 20
68.683949
 30
0.0
 10
67.331597
 20
69.243381
 30
0.0
 10
65.676970
 20
67.907075
 30
0.0
 10
64.902326
 20
67.325877
 30
0.0
 10
64.004028
 20
66.665519
 30
0.0
 10
62.934730
 20
66.001191
 30
0.0
 10
64.946641
 20
67.122639
 30
0.0
 10
67.134904
 20
68.258441
 30
0.0
 10
61.669470
 20
65.359819
 30
0.0
 10
59.209974
 20
64.176818
 30
0.0
 10
55.882042
 20
62.776342
 30
0.0
 10
54.475662
 20
62.345163
 30
0.0
 10
54.128458
 20
62.238715
 30
0.0
 11
51.665344
 21
75.185090
 31
0.0
 11
54.061708
 21
75.206228
 31
0.0
 11
55.837288
 21
75.214016
 31
0.0
 11
56.531499
 21
75.215128
 31
0.0
 11
58.708698
 21
75.088301
 31
0.0
 11
59.510823
 21
75.041574
 31
0.0
 11
59.625413
 21
75.034899
 31
0.0
 11
62.116341
 21
74.625492
 31
0.0
 11
63.092019
 21
74.463065
 31
0.0
 11
63.260010
 21
74.434139
 31
0.0
 11
64.507142
 21
73.721016
 31
0.0
 11
65.407169
 21
73.214820
 31
0.0
 11
65.753163
 21
73.022354
 31
0.0
 11
65.285905
 21
73.282684
 31
0.0
 11
64.818647
 21
73.543013
 31
0.0
 11
65.753163
 21
73.022354
 31
0.0
 11
67.092635
 21
72.050013
 31
0.0
 11
67.377439
 21
71.471503
 31
0.0
 11
67.315138
 21
71.280150
 31
0.0
 11
67.295113
 21
71.780783
 31
0.0
 11
67.275087
 21
72.281416
 31
0.0
 11
67.315138
 21
71.280150
 31
0.0
 11
67.067046
 21
69.515697
 31
0.0
 11
66.511899
 21
68.598982
 31
0.0
 11
66.203732
 21
68.336427
 31
0.0
 11
66.610914
 21
68.663507
 31
0.0
 11
67.018095
 21
68.990588
 31
0.0
 11
66.203732
 21
68.336427
 31
0.0
 11
64.665118
 21
67.152708
 31
0.0
 11
63.727265
 21
66.496322
 31
0.0
 11
63.410198
 21
66.293844
 31
0.0
 11
64.771920
 21
67.014756
 31
0.0
 11
66.133642
 21
67.735668
 31
0.0
 11
63.410198
 21
66.293844
 31
0.0
 11
58.280376
 21
63.800690
 31
0.0
 11
55.173113
 21
62.569133
 31
0.0
 11
54.128458
 21
62.238715
 31
0.0
  0
LINE
  5
1bb
100
AcDbEntity
  8
Silkscreen
 62
7
100
AcDbLine
 10
40.101247
 20
69.122102
 30
0.0
 11
39.718925
 21
67.890178
 31
0.0
  0
LINE
  5
1bc
100
AcDbEntity
  8
Silkscreen
 62
7
100
AcDbLine
 10
40.823409
 20
68.527380
 30
0.0
 11
40.491212
 21
67.255059
 31
0.0
  0
SPLINE
  5
1bd
100
AcDbEntity
  8
Silkscreen
 62
7
100
AcDbSpline
 70
0
 71
3
 72
31
 73
27
 74
25
 40
0.000000
 40
0.000000
 40
0.000000
 40
0.000000
 40
0.372062
 40
0.730502
 40
1.522756
 40
3.227514
 40
4.628631
 40
5.222609
 40
5.895240
 40
6.567871
 40
7.913133
 40
10.093368
 40
11.386461
 40
11.965374
 40
12.492877
 40
13.020379
 40
14.075384
 40
16.288855
 40
17.923567
 40
18.563996
 40
19.485572
 40
20.407148
 40
22.250300
 40
26.520818
 40
30.119258
 40
31.634867
 40
31.634867
 40
31.634867
 40
31.634867
 10
22.378303
 20
58.453928
 30
0.0
 10
22.491271
 20
58.447544
 30
0.0
 10
22.713072
 20
58.435011
 30
0.0
 10
23.437995
 20
58.410793
 30
0.0
 10
21.642569
 20
58.495413
 30
0.0
 10
20.771812
 20
58.852767
 30
0.0
 10
19.786894
 20
59.251236
 30
0.0
 10
18.655825
 20
60.069985
 30
0.0
 10
19.468028
 20
59.411071
 30
0.0
 10
20.354003
 20
58.662964
 30
0.0
 10
18.354703
 20
60.266032
 30
0.0
 10
17.670603
 20
61.341149
 30
0.0
 10
17.512939
 20
62.603907
 30
0.0
 10
18.290078
 20
63.676503
 30
0.0
 10
17.773773
 20
63.008443
 30
0.0
 10
17.203471
 20
62.289196
 30
0.0
 10
18.610519
 20
64.093459
 30
0.0
 10
19.445947
 20
64.946769
 30
0.0
 10
20.352502
 20
65.889907
 30
0.0
 10
21.604957
 20
66.871333
 30
0.0
 10
20.422362
 20
66.113313
 30
0.0
 10
19.068651
 20
65.337727
 30
0.0
 10
22.694776
 20
67.478807
 30
0.0
 10
24.611208
 20
68.410405
 30
0.0
 10
27.709594
 20
69.826643
 30
0.0
 10
29.273985
 20
70.461271
 30
0.0
 10
29.737611
 20
70.649351
 30
0.0
 11
22.378303
 21
58.453928
 31
0.0
 11
22.749884
 21
58.435015
 31
0.0
 11
23.108115
 21
58.422777
 31
0.0
 11
22.318227
 21
58.483966
 31
0.0
 11
20.663913
 21
58.895597
 31
0.0
 11
19.416780
 21
59.534182
 31
0.0
 11
18.923934
 21
59.865712
 31
0.0
 11
19.437918
 21
59.431830
 31
0.0
 11
19.951901
 21
58.997948
 31
0.0
 11
18.923934
 21
59.865712
 31
0.0
 11
17.685702
 21
61.660205
 31
0.0
 11
17.809191
 21
62.947388
 31
0.0
 11
18.112909
 21
63.440233
 31
0.0
 11
17.785828
 21
63.026377
 31
0.0
 11
17.458748
 21
62.612520
 31
0.0
 11
18.112909
 21
63.440233
 31
0.0
 11
19.584770
 21
65.093436
 31
0.0
 11
20.776277
 21
66.212629
 31
0.0
 11
21.266897
 21
66.624261
 31
0.0
 11
20.472559
 21
66.157003
 31
0.0
 11
19.678222
 21
65.689745
 31
0.0
 11
21.266897
 21
66.624261
 31
0.0
 11
25.051684
 21
68.602318
 31
0.0
 11
28.335838
 21
70.073067
 31
0.0
 11
29.737611
 21
70.649351
 31
0.0
  0
LINE
  5
1be
100
AcDbEntity
  8
Silkscreen
 62
7
100
AcDbLine
 10
52.930248
 20
60.795995
 30
0.0
 11
58.325224
 21
62.537681
 31
0.0
  0
LINE
  5
1bf
100
AcDbEntity
  8
Silkscreen
 62
7
100
AcDbLine
 10
58.325224
 20
62.537681
 30
0.0
 11
62.063477
 21
64.491767
 31
0.0
  0
LINE
  5
1c0
100
AcDbEntity
  8
Silkscreen
 62
7
100
AcDbLine
 10
62.063477
 20
64.491767
 30
0.0
 11
65.886687
 21
66.785696
 31
0.0
  0
LINE
  5
1c1
100
AcDbEntity
  8
Silkscreen
 62
7
100
AcDbLine
 10
65.886687
 20
66.785696
 30
0.0
 11
65.886687
 21
66.785696
 31
0.0
  0
SPLINE
  5
1c2
100
AcDbEntity
  8
Silkscreen
 62
7
100
AcDbSpline
 70
0
 71
3
 72
22
 73
18
 74
16
 40
0.000000
 40
0.000000
 40
0.000000
 40
0.000000
 40
5.536631
 40
8.229423
 40
8.937425
 40
10.817153
 40
12.696880
 40
16.456335
 40
22.792001
 40
25.710161
 40
26.425719
 40
28.252358
 40
30.078998
 40
33.732277
 40
40.502127
 40
44.476381
 40
45.779918
 40
45.779918
 40
45.779918
 40
45.779918
 10
22.387031
 20
57.567507
 30
0.0
 10
24.303976
 20
57.428257
 30
0.0
 10
27.153245
 20
57.221281
 30
0.0
 10
29.699592
 20
57.047530
 30
0.0
 10
32.033165
 20
57.065731
 30
0.0
 10
29.221978
 20
56.990091
 30
0.0
 10
26.149147
 20
56.875375
 30
0.0
 10
33.359978
 20
57.104149
 30
0.0
 10
36.541025
 20
57.378913
 30
0.0
 10
39.563341
 20
57.596658
 30
0.0
 10
41.887640
 20
58.261743
 30
0.0
 10
39.214733
 20
57.727876
 30
0.0
 10
36.248103
 20
57.289022
 30
0.0
 10
43.544268
 20
58.429305
 30
0.0
 10
46.697150
 20
59.073178
 30
0.0
 10
50.866679
 20
60.089850
 30
0.0
 10
52.521525
 20
60.656132
 30
0.0
 10
52.930248
 20
60.795995
 30
0.0
 11
22.387031
 21
57.567507
 31
0.0
 11
27.909448
 21
57.171026
 31
0.0
 11
30.599855
 21
57.057745
 31
0.0
 11
31.307857
 21
57.057745
 31
0.0
 11
29.429292
 21
56.991665
 31
0.0
 11
27.550726
 21
56.925584
 31
0.0
 11
31.307857
 21
57.057745
 31
0.0
 11
37.631105
 21
57.454225
 31
0.0
 11
40.518181
 21
57.879026
 31
0.0
 11
41.205729
 21
58.077267
 31
0.0
 11
39.402684
 21
57.784626
 31
0.0
 11
37.599639
 21
57.491985
 31
0.0
 11
41.205729
 21
58.077267
 31
0.0
 11
47.851511
 21
59.367404
 31
0.0
 11
51.693604
 21
60.383781
 31
0.0
 11
52.930248
 21
60.795995
 31
0.0
  0
LINE
  5
1c3
100
AcDbEntity
  8
Silkscreen
 62
7
100
AcDbLine
 10
41.078290
 20
53.192053
 30
0.0
 11
41.078290
 21
53.192053
 31
0.0
  0
SPLINE
  5
1c4
100
AcDbEntity
  8
Silkscreen
 62
7
100
AcDbSpline
 70
0
 71
3
 72
34
 73
30
 74
28
 40
0.000000
 40
0.000000
 40
0.000000
 40
0.000000
 40
2.274135
 40
4.239533
 40
5.154413
 40
6.329573
 40
7.504734
 40
9.855055
 40
13.250448
 40
15.077064
 40
16.056509
 40
16.221373
 40
16.386236
 40
16.715963
 40
17.736191
 40
19.030294
 40
19.680091
 40
20.233280
 40
20.786469
 40
21.892847
 40
23.990424
 40
25.496959
 40
26.130568
 40
26.536599
 40
26.942630
 40
27.754692
 40
29.093907
 40
29.732591
 40
29.937422
 40
29.937422
 40
29.937422
 40
29.937422
 10
41.078290
 20
53.192053
 30
0.0
 10
41.474528
 20
53.891764
 30
0.0
 10
42.213209
 20
55.196194
 30
0.0
 10
43.533203
 20
55.830186
 30
0.0
 10
45.583655
 20
56.210529
 30
0.0
 10
43.784768
 20
56.003608
 30
0.0
 10
41.783946
 20
55.831587
 30
0.0
 10
45.969983
 20
56.301084
 30
0.0
 10
48.116791
 20
55.971956
 30
0.0
 10
49.312368
 20
54.489065
 30
0.0
 10
48.775311
 20
52.494692
 30
0.0
 10
48.888605
 20
52.961766
 30
0.0
 10
48.956138
 20
53.264597
 30
0.0
 10
48.792024
 20
52.356013
 30
0.0
 10
48.023647
 20
52.068780
 30
0.0
 10
47.390431
 20
51.633044
 30
0.0
 10
46.093329
 20
51.111338
 30
0.0
 10
46.908095
 20
51.479008
 30
0.0
 10
47.778951
 20
51.901947
 30
0.0
 10
45.747197
 20
50.862826
 30
0.0
 10
44.495698
 20
50.805358
 30
0.0
 10
43.341038
 20
50.871326
 30
0.0
 10
42.080633
 20
51.645275
 30
0.0
 10
42.646255
 20
51.255069
 30
0.0
 10
43.236580
 20
50.830906
 30
0.0
 10
41.936818
 20
51.748273
 30
0.0
 10
41.478733
 20
52.145440
 30
0.0
 10
41.039256
 20
52.841836
 30
0.0
 10
41.070664
 20
53.123626
 30
0.0
 10
41.078290
 20
53.192053
 30
0.0
 11
41.078290
 21
53.192053
 31
0.0
 11
42.366853
 21
55.065898
 31
0.0
 11
44.136859
 21
55.920220
 31
0.0
 11
45.028943
 21
56.123181
 31
0.0
 11
43.858379
 21
56.019341
 31
0.0
 11
42.687815
 21
55.915501
 31
0.0
 11
45.028943
 21
56.123181
 31
0.0
 11
48.361273
 21
55.471819
 31
0.0
 11
49.031514
 21
53.772613
 31
0.0
 11
48.852153
 21
52.809730
 31
0.0
 11
48.889914
 21
52.970211
 31
0.0
 11
48.927674
 21
53.130692
 31
0.0
 11
48.852153
 21
52.809730
 31
0.0
 11
48.137858
 21
52.081275
 31
0.0
 11
46.989321
 21
51.484981
 31
0.0
 11
46.388306
 21
51.237967
 31
0.0
 11
46.888628
 21
51.473968
 31
0.0
 11
47.388949
 21
51.709969
 31
0.0
 11
46.388306
 21
51.237967
 31
0.0
 11
44.330380
 21
50.832044
 31
0.0
 11
42.867176
 21
51.190765
 31
0.0
 11
42.310214
 21
51.492846
 31
0.0
 11
42.640615
 21
51.256845
 31
0.0
 11
42.971016
 21
51.020844
 31
0.0
 11
42.310214
 21
51.492846
 31
0.0
 11
41.330024
 21
52.405384
 31
0.0
 11
41.067277
 21
52.987519
 31
0.0
 11
41.078290
 21
53.192053
 31
0.0
  0
SPLINE
  5
1c5
100
AcDbEntity
  8
Silkscreen
 62
7
100
AcDbSpline
 70
0
 71
3
 72
16
 73
12
 74
10
 40
0.000000
 40
0.000000
 40
0.000000
 40
0.000000
 40
0.453186
 40
1.461039
 40
3.023289
 40
3.935420
 40
4.440038
 40
4.926920
 40
5.684911
 40
7.589803
 40
10.259386
 40
10.259386
 40
10.259386
 40
10.259386
 10
61.998413
 20
61.277500
 30
0.0
 10
61.920952
 20
61.407237
 30
0.0
 10
61.671223
 20
61.825498
 30
0.0
 10
60.695007
 20
62.395856
 30
0.0
 10
59.810218
 20
62.289860
 30
0.0
 10
58.146380
 20
61.596138
 30
0.0
 10
58.961727
 20
61.896202
 30
0.0
 10
59.739095
 20
62.182067
 30
0.0
 10
58.013739
 20
61.582432
 30
0.0
 10
56.946490
 20
60.853982
 30
0.0
 10
55.858883
 20
59.637050
 30
0.0
 10
55.224175
 20
58.926870
 30
0.0
 11
61.998413
 21
61.277500
 31
0.0
 11
61.744667
 21
61.652988
 31
0.0
 11
60.901218
 21
62.204675
 31
0.0
 11
59.344748
 21
62.070401
 31
0.0
 11
58.498291
 21
61.730559
 31
0.0
 11
58.973440
 21
61.900480
 31
0.0
 11
59.429708
 21
62.070401
 31
0.0
 11
58.716986
 21
61.812373
 31
0.0
 11
57.069700
 21
60.855784
 31
0.0
 11
55.224175
 21
58.926870
 31
0.0
  0
LINE
  5
1c6
100
AcDbEntity
  8
Silkscreen
 62
7
100
AcDbLine
 10
55.394095
 20
55.868300
 30
0.0
 11
56.471420
 21
55.149750
 31
0.0
  0
SPLINE
  5
1c7
100
AcDbEntity
  8
Silkscreen
 62
7
100
AcDbSpline
 70
0
 71
3
 72
10
 73
6
 74
4
 40
0.000000
 40
0.000000
 40
0.000000
 40
0.000000
 40
1.647669
 40
2.772491
 40
3.263413
 40
3.263413
 40
3.263413
 40
3.263413
 10
55.224175
 20
58.926870
 30
0.0
 10
54.994784
 20
58.406327
 30
0.0
 10
54.608794
 20
57.530423
 30
0.0
 10
54.958794
 20
56.418451
 30
0.0
 10
55.292656
 20
55.996503
 30
0.0
 10
55.394095
 20
55.868300
 30
0.0
 11
55.224175
 21
58.926870
 31
0.0
 11
54.777346
 21
57.340945
 31
0.0
 11
55.104601
 21
56.264782
 31
0.0
 11
55.394095
 21
55.868300
 31
0.0
  0
SPLINE
  5
1c8
100
AcDbEntity
  8
Silkscreen
 62
7
100
AcDbSpline
 70
0
 71
3
 72
16
 73
12
 74
10
 40
0.000000
 40
0.000000
 40
0.000000
 40
0.000000
 40
1.883155
 40
2.869870
 40
3.179342
 40
3.605354
 40
4.073490
 40
4.778185
 40
6.187849
 40
7.370240
 40
7.930982
 40
7.930982
 40
7.930982
 40
7.930982
 10
32.752183
 20
55.613419
 30
0.0
 10
33.260825
 20
55.196020
 30
0.0
 10
34.035978
 20
54.559916
 30
0.0
 10
34.640244
 20
53.915479
 30
0.0
 10
34.895975
 20
53.091837
 30
0.0
 10
34.659138
 20
53.712647
 30
0.0
 10
34.365457
 20
54.375258
 30
0.0
 10
34.978326
 20
53.016145
 30
0.0
 10
34.886578
 20
52.120212
 30
0.0
 10
34.243254
 20
51.176323
 30
0.0
 10
33.788755
 20
50.819056
 30
0.0
 10
33.642549
 20
50.704128
 30
0.0
 11
32.752183
 21
55.613419
 31
0.0
 11
34.179202
 21
54.384642
 31
0.0
 11
34.737737
 21
53.571227
 31
0.0
 11
34.833711
 21
53.277013
 31
0.0
 11
34.670083
 21
53.670348
 31
0.0
 11
34.487575
 21
54.101443
 31
0.0
 11
34.748750
 21
53.446934
 31
0.0
 11
34.745158
 21
52.037274
 31
0.0
 11
34.070942
 21
51.065945
 31
0.0
 11
33.642549
 21
50.704128
 31
0.0
  0
SPLINE
  5
1c9
100
AcDbEntity
  8
Silkscreen
 62
7
100
AcDbSpline
 70
0
 71
3
 72
16
 73
12
 74
10
 40
0.000000
 40
0.000000
 40
0.000000
 40
0.000000
 40
2.944237
 40
4.573515
 40
5.182778
 40
5.485006
 40
5.787235
 40
6.391691
 40
7.586730
 40
8.431152
 40
8.764539
 40
8.764539
 40
8.764539
 40
8.764539
 10
32.752183
 20
55.613419
 30
0.0
 10
31.776627
 20
55.967637
 30
0.0
 10
30.261220
 20
56.517871
 30
0.0
 10
28.871611
 20
56.666389
 30
0.0
 10
27.631744
 20
55.762153
 30
0.0
 10
28.060437
 20
56.098821
 30
0.0
 10
28.487848
 20
56.440242
 30
0.0
 10
27.467931
 20
55.646368
 30
0.0
 10
27.095916
 20
55.185951
 30
0.0
 10
26.682108
 20
54.432104
 30
0.0
 10
26.581937
 20
54.054978
 30
0.0
 10
26.553583
 20
53.948229
 30
0.0
 11
32.752183
 21
55.613419
 31
0.0
 11
29.945348
 21
56.502356
 31
0.0
 11
28.337397
 21
56.239609
 31
0.0
 11
27.824488
 21
55.910782
 31
0.0
 11
28.060489
 21
56.099582
 31
0.0
 11
28.296490
 21
56.288382
 31
0.0
 11
27.824488
 21
55.910782
 31
0.0
 11
27.022993
 21
55.024370
 31
0.0
 11
26.647077
 21
54.268238
 31
0.0
 11
26.553583
 21
53.948229
 31
0.0
  0
LINE
  5
1ca
100
AcDbEntity
  8
Silkscreen
 62
7
100
AcDbLine
 10
39.950522
 20
75.185090
 30
0.0
 11
39.950522
 21
75.185090
 31
0.0
  0
SPLINE
  5
1cb
100
AcDbEntity
  8
Silkscreen
 62
7
100
AcDbSpline
 70
0
 71
3
 72
16
 73
12
 74
10
 40
0.000000
 40
0.000000
 40
0.000000
 40
0.000000
 40
0.660861
 40
1.003752
 40
1.155596
 40
1.265684
 40
1.375773
 40
1.595950
 40
2.369727
 40
3.345581
 40
3.829555
 40
3.829555
 40
3.829555
 40
3.829555
 10
40.911743
 20
77.828432
 30
0.0
 10
40.676859
 20
77.845351
 30
0.0
 10
40.320106
 20
77.871047
 30
0.0
 10
40.027891
 20
77.677821
 30
0.0
 10
39.948661
 20
77.341705
 30
0.0
 10
40.029314
 20
77.503617
 30
0.0
 10
40.133836
 20
77.667367
 30
0.0
 10
39.775533
 20
77.118163
 30
0.0
 10
39.887834
 20
76.630152
 30
0.0
 10
39.872725
 20
75.822171
 30
0.0
 10
39.931152
 20
75.343713
 30
0.0
 10
39.950522
 20
75.185090
 30
0.0
 11
40.911743
 21
77.828432
 31
0.0
 11
40.251713
 21
77.795295
 31
0.0
 11
40.008544
 21
77.553545
 31
0.0
 11
39.973806
 21
77.405729
 31
0.0
 11
40.030446
 21
77.500129
 31
0.0
 11
40.087086
 21
77.594529
 31
0.0
 11
39.973806
 21
77.405729
 31
0.0
 11
39.854489
 21
76.641207
 31
0.0
 11
39.899918
 21
75.666411
 31
0.0
 11
39.950522
 21
75.185090
 31
0.0
  0
LINE
  5
1cc
100
AcDbEntity
  8
Silkscreen
 62
7
100
AcDbLine
 10
29.076774
 20
85.307892
 30
0.0
 11
29.076774
 21
85.307892
 31
0.0
  0
SPLINE
  5
1cd
100
AcDbEntity
  8
Silkscreen
 62
7
100
AcDbSpline
 70
0
 71
3
 72
28
 73
24
 74
22
 40
0.000000
 40
0.000000
 40
0.000000
 40
0.000000
 40
1.243923
 40
2.191551
 40
2.644634
 40
3.096377
 40
3.548119
 40
4.451605
 40
6.112432
 40
7.317295
 40
7.845004
 40
8.152058
 40
8.459113
 40
9.073223
 40
10.082379
 40
10.976047
 40
11.444067
 40
11.959738
 40
12.475409
 40
13.506751
 40
15.347631
 40
16.507697
 40
16.969402
 40
16.969402
 40
16.969402
 40
16.969402
 10
29.076774
 20
85.307892
 30
0.0
 10
29.464843
 20
85.088856
 30
0.0
 10
30.148544
 20
84.702956
 30
0.0
 10
30.379947
 20
83.956619
 30
0.0
 10
30.226145
 20
82.971121
 30
0.0
 10
30.426000
 20
83.653520
 30
0.0
 10
30.685389
 20
84.393839
 30
0.0
 10
30.146078
 20
82.642866
 30
0.0
 10
29.434141
 20
81.907411
 30
0.0
 10
28.676269
 20
81.365034
 30
0.0
 10
27.473125
 20
81.275644
 30
0.0
 10
28.004599
 20
81.283198
 30
0.0
 10
28.556156
 20
81.288146
 30
0.0
 10
27.364856
 20
81.218443
 30
0.0
 10
26.747198
 20
81.670241
 30
0.0
 10
26.527334
 20
82.357560
 30
0.0
 10
26.670439
 20
83.339910
 30
0.0
 10
26.426867
 20
82.576486
 30
0.0
 10
26.090899
 20
81.750130
 30
0.0
 10
26.819468
 20
83.687248
 30
0.0
 10
27.341269
 20
84.476145
 30
0.0
 10
28.392437
 20
85.194185
 30
0.0
 10
28.925123
 20
85.282694
 30
0.0
 10
29.076774
 20
85.307892
 30
0.0
 11
29.076774
 21
85.307892
 31
0.0
 11
30.082491
 21
84.575855
 31
0.0
 11
30.313895
 21
83.656915
 31
0.0
 11
30.278295
 21
83.205232
 31
0.0
 11
30.425147
 21
83.632439
 31
0.0
 11
30.572000
 21
84.059646
 31
0.0
 11
30.278295
 21
83.205232
 31
0.0
 11
29.314854
 21
81.852410
 31
0.0
 11
28.217911
 21
81.354002
 31
0.0
 11
27.695028
 21
81.282801
 31
0.0
 11
28.002082
 21
81.282801
 31
0.0
 11
28.309137
 21
81.282801
 31
0.0
 11
27.695028
 21
81.282801
 31
0.0
 11
26.800563
 21
81.750059
 31
0.0
 11
26.586959
 21
82.617823
 31
0.0
 11
26.613660
 21
83.085081
 31
0.0
 11
26.426757
 21
82.604473
 31
0.0
 11
26.239854
 21
82.123865
 31
0.0
 11
26.613660
 21
83.085081
 31
0.0
 11
27.626051
 21
84.622581
 31
0.0
 11
28.625092
 21
85.212215
 31
0.0
 11
29.076774
 21
85.307892
 31
0.0
  0
SPLINE
  5
1ce
100
AcDbEntity
  8
Silkscreen
 62
7
100
AcDbSpline
 70
0
 71
3
 72
19
 73
15
 74
13
 40
0.000000
 40
0.000000
 40
0.000000
 40
0.000000
 40
1.159808
 40
3.881573
 40
7.140375
 40
7.273524
 40
8.884212
 40
13.813019
 40
17.013509
 40
18.613755
 40
20.214000
 40
21.465533
 40
24.320285
 40
27.450231
 40
27.450231
 40
27.450231
 40
27.450231
 10
56.351271
 20
68.486618
 30
0.0
 10
56.717775
 20
68.625972
 30
0.0
 10
57.944370
 20
69.092355
 30
0.0
 10
59.689340
 20
70.322068
 30
0.0
 10
62.487561
 20
71.294348
 30
0.0
 10
62.189760
 20
72.952844
 30
0.0
 10
61.021609
 20
75.002236
 30
0.0
 10
60.241684
 20
76.993845
 30
0.0
 10
57.613311
 20
82.408149
 30
0.0
 10
58.781708
 20
79.922612
 30
0.0
 10
59.924747
 20
77.739639
 30
0.0
 10
58.345967
 20
80.219359
 30
0.0
 10
57.195655
 20
81.719554
 30
0.0
 10
55.773418
 20
83.247299
 30
0.0
 10
55.029600
 20
84.046296
 30
0.0
 11
56.351271
 21
68.486618
 31
0.0
 11
57.425963
 21
68.922725
 31
0.0
 11
59.822328
 21
70.213245
 31
0.0
 11
62.298792
 21
72.331479
 31
0.0
 11
62.276542
 21
72.462757
 31
0.0
 11
61.640182
 21
73.942406
 31
0.0
 11
59.535298
 21
78.399154
 31
0.0
 11
58.146875
 21
81.282801
 31
0.0
 11
58.841087
 21
79.840977
 31
0.0
 11
59.535298
 21
78.399154
 31
0.0
 11
58.834412
 21
79.436021
 31
0.0
 11
57.132259
 21
81.727808
 31
0.0
 11
55.029600
 21
84.046296
 31
0.0
  0
SPLINE
  5
1cf
100
AcDbEntity
  8
Silkscreen
 62
7
100
AcDbSpline
 70
0
 71
3
 72
19
 73
15
 74
13
 40
0.000000
 40
0.000000
 40
0.000000
 40
0.000000
 40
2.570186
 40
3.855279
 40
5.140372
 40
6.082117
 40
8.830883
 40
13.389002
 40
15.837595
 40
17.061891
 40
18.286187
 40
19.001453
 40
21.312950
 40
25.519276
 40
25.519276
 40
25.519276
 40
25.519276
 10
55.029600
 20
84.046296
 30
0.0
 10
53.990073
 20
84.994543
 30
0.0
 10
52.430783
 20
86.416914
 30
0.0
 10
54.020276
 20
84.985769
 30
0.0
 10
55.442135
 20
83.616069
 30
0.0
 10
53.756207
 20
85.460384
 30
0.0
 10
51.810562
 20
86.799476
 30
0.0
 10
49.738848
 20
88.102926
 30
0.0
 10
45.243423
 20
90.167125
 30
0.0
 10
47.099354
 20
89.293402
 30
0.0
 10
48.782507
 20
88.519497
 30
0.0
 10
46.906225
 20
89.334744
 30
0.0
 10
44.976266
 20
89.749440
 30
0.0
 10
42.725042
 20
90.117040
 30
0.0
 10
41.272198
 20
90.354274
 30
0.0
 11
55.029600
 21
84.046296
 31
0.0
 11
53.133869
 21
85.781825
 31
0.0
 11
54.081734
 21
84.914060
 31
0.0
 11
55.029600
 21
84.046296
 31
0.0
 11
54.393239
 21
84.740508
 31
0.0
 11
52.261654
 21
86.476036
 31
0.0
 11
48.301090
 21
88.732223
 31
0.0
 11
46.084953
 21
89.773540
 31
0.0
 11
47.193021
 21
89.252881
 31
0.0
 11
48.301090
 21
88.732223
 31
0.0
 11
47.640254
 21
89.005902
 31
0.0
 11
45.417442
 21
89.640038
 31
0.0
 11
41.272198
 21
90.354274
 31
0.0
  0
SPLINE
  5
1d0
100
AcDbEntity
  8
Silkscreen
 62
7
100
AcDbSpline
 70
0
 71
3
 72
31
 73
27
 74
25
 40
0.000000
 40
0.000000
 40
0.000000
 40
0.000000
 40
2.665843
 40
3.897606
 40
4.196788
 40
4.704272
 40
5.211756
 40
6.226723
 40
8.677599
 40
10.837220
 40
11.765977
 40
12.337392
 40
12.908806
 40
14.051635
 40
16.708371
 40
18.958491
 40
19.909105
 40
21.034648
 40
22.160191
 40
24.411277
 40
28.801592
 40
31.660171
 40
32.684666
 40
33.609307
 40
34.533948
 40
36.383230
 40
36.383230
 40
36.383230
 40
36.383230
 10
41.272198
 20
90.354274
 30
0.0
 10
42.129563
 20
89.970002
 30
0.0
 10
43.383076
 20
89.408175
 30
0.0
 10
44.425642
 20
88.977920
 30
0.0
 10
45.310167
 20
88.574645
 30
0.0
 10
44.663910
 20
88.981339
 30
0.0
 10
43.980018
 20
89.485652
 30
0.0
 10
45.891203
 20
88.123540
 30
0.0
 10
47.017426
 20
87.261688
 30
0.0
 10
48.218261
 20
86.459949
 30
0.0
 10
49.832900
 20
85.079867
 30
0.0
 10
49.205322
 20
85.822135
 30
0.0
 10
48.594941
 20
86.639027
 30
0.0
 10
50.202944
 20
84.551957
 30
0.0
 10
50.962082
 20
83.302656
 30
0.0
 10
51.852358
 20
81.884231
 30
0.0
 10
52.863969
 20
79.881961
 30
0.0
 10
52.167152
 20
81.480352
 30
0.0
 10
51.444904
 20
83.268992
 30
0.0
 10
53.235449
 20
78.953000
 30
0.0
 10
53.984647
 20
76.661171
 30
0.0
 10
54.729491
 20
74.562644
 30
0.0
 10
55.226717
 20
72.002829
 30
0.0
 10
55.058065
 20
73.472204
 30
0.0
 10
54.933683
 20
75.048649
 30
0.0
 10
55.063323
 20
73.526485
 30
0.0
 10
55.149750
 20
72.511708
 30
0.0
 11
41.272198
 21
90.354274
 31
0.0
 11
43.710839
 21
89.277357
 31
0.0
 11
44.841158
 21
88.787849
 31
0.0
 11
45.117062
 21
88.672147
 31
0.0
 11
44.703206
 21
88.965852
 31
0.0
 11
44.289349
 21
89.259556
 31
0.0
 11
45.117062
 21
88.672147
 31
0.0
 11
47.097344
 21
87.228098
 31
0.0
 11
48.823972
 21
85.930902
 31
0.0
 11
49.562684
 21
85.367968
 31
0.0
 11
49.215578
 21
85.821875
 31
0.0
 11
48.868473
 21
86.275783
 31
0.0
 11
49.562684
 21
85.367968
 31
0.0
 11
51.051233
 21
83.167407
 31
0.0
 11
52.179327
 21
81.220500
 31
0.0
 11
52.626559
 21
80.381661
 31
0.0
 11
52.199352
 21
81.422978
 31
0.0
 11
51.772145
 21
82.464295
 31
0.0
 11
52.626559
 21
80.381661
 31
0.0
 11
54.135134
 21
76.258669
 31
0.0
 11
54.922797
 21
73.510750
 31
0.0
 11
55.149750
 21
72.511708
 31
0.0
 11
55.069649
 21
73.432873
 31
0.0
 11
54.989548
 21
74.354038
 31
0.0
 11
55.149750
 21
72.511708
 31
0.0
  0
SPLINE
  5
1d1
100
AcDbEntity
  8
Silkscreen
 62
7
100
AcDbSpline
 70
0
 71
3
 72
10
 73
6
 74
4
 40
0.000000
 40
0.000000
 40
0.000000
 40
0.000000
 40
2.795315
 40
3.825168
 40
3.972289
 40
3.972289
 40
3.972289
 40
3.972289
 10
55.149750
 20
72.511708
 30
0.0
 10
55.206118
 20
71.581643
 30
0.0
 10
55.283253
 20
70.308923
 30
0.0
 10
55.363355
 20
68.987251
 30
0.0
 10
55.387088
 20
68.595645
 30
0.0
 10
55.390055
 20
68.546694
 30
0.0
 11
55.149750
 21
72.511708
 31
0.0
 11
55.318854
 21
69.721513
 31
0.0
 11
55.381155
 21
68.693547
 31
0.0
 11
55.390055
 21
68.546694
 31
0.0
  0
ENDSEC
  0
SECTION
  2
OBJECTS
  0
DICTIONARY
  5
C
330
0
100
AcDbDictionary
  3
ACAD_GROUP
350
D
  3
ACAD_MLINESTYLE
350
17
  0
DICTIONARY
  5
D
330
C
100
AcDbDictionary
  0
DICTIONARY
  5
1A
330
C
100
AcDbDictionary
  0
DICTIONARY
  5
17
330
C
100
AcDbDictionary
  3
STANDARD
350
18
  0
DICTIONARY
  5
19
330
C
100
AcDbDictionary
  0
ENDSEC
  0
EOF
